<?xml version="1.0" encoding="utf-8"?>
<!-- Generator: Adobe Illustrator 23.1.1, SVG Export Plug-In . SVG Version: 6.00 Build 0)  -->
<svg version="1.1" id="Layer_1" xmlns="http://www.w3.org/2000/svg" xmlns:xlink="http://www.w3.org/1999/xlink" x="0px" y="0px"
	 viewBox="0 0 79.6 79.6" style="enable-background:new 0 0 79.6 79.6;" xml:space="preserve">
<style type="text/css">
	.st0{fill:#58575D;}
	.st1{clip-path:url(#SVGID_2_);fill:#A1A0A6;}
	.st2{clip-path:url(#SVGID_2_);fill:#898990;}
	.st3{clip-path:url(#SVGID_2_);fill:#C7C6CB;}
	.st4{clip-path:url(#SVGID_2_);fill:#D1D0D4;}
	.st5{clip-path:url(#SVGID_2_);fill:#E0E0E1;}
	.st6{clip-path:url(#SVGID_2_);fill:#FFCC07;}
	.st7{clip-path:url(#SVGID_2_);fill:#F9AF17;}
	.st8{clip-path:url(#SVGID_2_);fill:#FFFFFF;}
</style>
<polygon class="st0" points="41.2,71.4 0,71.4 0,79.6 79.6,79.6 79.6,71.4 "/>
<g>
	<defs>
		<rect id="SVGID_1_" y="0" width="79.6" height="79.6"/>
	</defs>
	<clipPath id="SVGID_2_">
		<use xlink:href="#SVGID_1_"  style="overflow:visible;"/>
	</clipPath>
	<path class="st1" d="M46.7,16.5h2.7v-11c0-3-2.5-5.5-5.5-5.5H26.1v71.4h15.1V22C41.2,18.9,43.6,16.5,46.7,16.5"/>
	<path class="st2" d="M8.2,0c-3,0-5.5,2.5-5.5,5.5v65.9h23.3V0H8.2z"/>
	<path class="st3" d="M49.4,16.5h-2.7c-3,0-5.5,2.5-5.5,5.5v49.4h19.2V16.5H49.4z"/>
	<path class="st4" d="M76.9,22c0-3-2.5-5.5-5.5-5.5h-11v54.9h16.5V22z"/>
	<rect x="12.4" y="56.3" class="st5" width="6.9" height="2.7"/>
	<rect x="12.4" y="48" class="st5" width="6.9" height="2.7"/>
	<rect x="12.4" y="39.8" class="st5" width="6.9" height="2.7"/>
	<rect x="12.4" y="31.6" class="st5" width="6.9" height="2.7"/>
	<rect x="12.4" y="23.3" class="st5" width="6.9" height="2.7"/>
	<rect x="12.4" y="15.1" class="st5" width="6.9" height="2.7"/>
	<rect x="12.4" y="6.9" class="st5" width="6.9" height="2.7"/>
	<rect x="48" y="56.3" class="st5" width="6.9" height="2.7"/>
	<rect x="48" y="48" class="st5" width="6.9" height="2.7"/>
	<rect x="48" y="39.8" class="st5" width="6.9" height="2.7"/>
	<rect x="48" y="31.6" class="st5" width="6.9" height="2.7"/>
	<rect x="48" y="23.3" class="st5" width="6.9" height="2.7"/>
	<path class="st6" d="M68.3,24.8c-0.1,0.7-0.7,2-1,3c-0.5,1.4-0.8,2.6-0.9,3c-0.3-1.1-0.1-2.2,0.2-3.2C67.1,26.1,68.1,25,68.3,24.8
		L68.3,24.8z M68.6,21.6c-0.6,1-3.9,6.2-4,8.8c-0.1,2.2,1.8,4,4,4c2.2,0,4.1-1.7,4-4c-0.1-1.2-0.8-3.1-1.7-4.8
		C70.2,24.2,69.4,22.9,68.6,21.6"/>
	<path class="st7" d="M68.7,23.1c0,0,2.8,4.7,2.9,6.4c0.2,1.6-4.7-0.3-5.2,2.3C66.4,31.8,63.6,30,68.7,23.1"/>
	<path class="st8" d="M66.6,27.6c-0.3,1-0.5,2.2-0.2,3.2c0.1-0.4,0.4-1.6,0.9-3c0.4-1,0.9-2.3,1-3v0C68.1,25,67.1,26.2,66.6,27.6"/>
</g>
</svg>
