<?xml version="1.0" encoding="utf-8"?>
<!-- Generator: Adobe Illustrator 23.1.1, SVG Export Plug-In . SVG Version: 6.00 Build 0)  -->
<svg version="1.1" id="Layer_1" xmlns="http://www.w3.org/2000/svg" xmlns:xlink="http://www.w3.org/1999/xlink" x="0px" y="0px"
	 viewBox="0 0 26 46.6" style="enable-background:new 0 0 26 46.6;" xml:space="preserve">
<style type="text/css">
	.st0{clip-path:url(#SVGID_2_);fill:#FFFFFF;}
	.st1{clip-path:url(#SVGID_2_);fill:#F7A621;}
	.st2{clip-path:url(#SVGID_2_);fill:#FCC67A;}
	.st3{clip-path:url(#SVGID_2_);fill:#FFE59E;}
	.st4{clip-path:url(#SVGID_2_);fill:none;stroke:#939599;stroke-width:0.5;stroke-miterlimit:10;}
	.st5{clip-path:url(#SVGID_2_);fill:#D1D2D4;}
	.st6{clip-path:url(#SVGID_2_);fill:none;stroke:#D1D2D4;stroke-width:0.6;stroke-miterlimit:10;}
</style>
<g>
	<defs>
		<rect id="SVGID_1_" y="0" width="26" height="46.6"/>
	</defs>
	<clipPath id="SVGID_2_">
		<use xlink:href="#SVGID_1_"  style="overflow:visible;"/>
	</clipPath>
	<path class="st0" d="M0.3,33.6c0,7,5.7,12.7,12.7,12.7c7,0,12.7-5.7,12.7-12.7c0-7-5.7-12.7-12.7-12.7C6,20.9,0.3,26.6,0.3,33.6"/>
	<path class="st1" d="M2.3,33.6c0,5.9,4.8,10.7,10.7,10.7c5.9,0,10.7-4.8,10.7-10.7c0-5.9-4.8-10.7-10.7-10.7
		C7.1,22.9,2.3,27.7,2.3,33.6"/>
	<path class="st2" d="M14.2,39c0,1.2,1,2.1,2.1,2.1s2.1-1,2.1-2.1c0-1.2-1-2.1-2.1-2.1S14.2,37.8,14.2,39"/>
	<path class="st3" d="M10.1,35.4c0,0.7,0.6,1.3,1.3,1.3c0.7,0,1.3-0.6,1.3-1.3c0-0.7-0.6-1.3-1.3-1.3C10.6,34.2,10.1,34.7,10.1,35.4
		"/>
	<path class="st3" d="M13.1,31.1c0,0.8,0.6,1.4,1.4,1.4c0.8,0,1.4-0.6,1.4-1.4c0-0.8-0.6-1.4-1.4-1.4C13.7,29.7,13.1,30.4,13.1,31.1
		"/>
	<path class="st3" d="M18.1,35.5c0,0.4,0.3,0.7,0.7,0.7c0.4,0,0.7-0.3,0.7-0.7s-0.3-0.7-0.7-0.7C18.4,34.7,18.1,35.1,18.1,35.5"/>
	<path class="st2" d="M11,41.1c0,0.4,0.3,0.7,0.7,0.7c0.4,0,0.7-0.3,0.7-0.7s-0.3-0.7-0.7-0.7C11.4,40.4,11,40.7,11,41.1"/>
	<polygon class="st0" points="17.3,1.8 13,1.8 8.7,1.8 8.7,21.9 17.3,21.9 	"/>
	<path class="st4" d="M17.3,21.6v-19c0.6,0,1.2-0.5,1.2-1.2c0-0.6-0.5-1.2-1.2-1.2H8.7C8,0.3,7.5,0.8,7.5,1.5c0,0.6,0.5,1.2,1.2,1.2
		v19c-4.9,1.8-8.4,6.5-8.4,12c0,7,5.7,12.7,12.7,12.7c7,0,12.7-5.7,12.7-12.7C25.7,28.1,22.2,23.4,17.3,21.6z"/>
	<path class="st5" d="M18.5,1.5c0,0.6-0.5,1.2-1.2,1.2H8.7C8,2.6,7.5,2.1,7.5,1.5c0-0.6,0.5-1.2,1.2-1.2h8.6
		C18,0.3,18.5,0.8,18.5,1.5"/>
	<path class="st6" d="M18.5,1.5c0,0.6-0.5,1.2-1.2,1.2H8.7C8,2.6,7.5,2.1,7.5,1.5c0-0.6,0.5-1.2,1.2-1.2h8.6
		C18,0.3,18.5,0.8,18.5,1.5z"/>
</g>
</svg>
