<?xml version="1.0" encoding="utf-8"?>
<!-- Generator: Adobe Illustrator 23.1.1, SVG Export Plug-In . SVG Version: 6.00 Build 0)  -->
<svg version="1.1" id="Layer_1" xmlns="http://www.w3.org/2000/svg" xmlns:xlink="http://www.w3.org/1999/xlink" x="0px" y="0px"
	 viewBox="0 0 92.1 67.1" style="enable-background:new 0 0 92.1 67.1;" xml:space="preserve">
<style type="text/css">
	.st0{fill:#BDBEC0;}
	.st1{clip-path:url(#SVGID_2_);fill:#939599;}
	.st2{clip-path:url(#SVGID_2_);fill:#A7A9AB;}
	.st3{clip-path:url(#SVGID_2_);fill:#FFCC07;}
	.st4{clip-path:url(#SVGID_2_);fill:#F9AF17;}
	.st5{clip-path:url(#SVGID_2_);fill:#FFFFFF;}
</style>
<polygon class="st0" points="78.6,5.6 78.6,23.6 82.4,23.6 80.8,5.6 "/>
<polygon class="st0" points="81.3,5.6 82.9,23.6 86.1,23.6 84.5,5.6 "/>
<polygon class="st0" points="85,5.6 86.6,23.6 89.8,23.6 88.2,5.6 "/>
<polygon class="st0" points="88.7,5.6 90.2,23.6 92.1,23.6 92.1,5.6 "/>
<g>
	<defs>
		<rect id="SVGID_1_" y="0" width="92.1" height="67.1"/>
	</defs>
	<clipPath id="SVGID_2_">
		<use xlink:href="#SVGID_1_"  style="overflow:visible;"/>
	</clipPath>
	<path class="st1" d="M72.7,0.7v5.1H49.4v17.5h23.3v5.1c0.7,0.4,1.4,0.7,2.2,0.7c0.8,0,1.6-0.2,2.2-0.7V0.7C76.6,0.2,75.8,0,75,0
		C74.1,0,73.4,0.2,72.7,0.7"/>
	<path class="st2" d="M37.5,7.3h-4.8c-1.3,0-2.4,1.1-2.4,2.4v9.7c0,1.3,1.1,2.4,2.4,2.4h4.8v-2h10.5V9.4H37.5V7.3z"/>
	<path class="st3" d="M29.7,28.4c-0.2,1.5-1.5,4.2-2.2,6.4c-1.1,3-1.6,5.6-1.9,6.5c-0.7-2.3-0.3-4.9,0.4-7
		C27.2,31.3,29.3,28.7,29.7,28.4L29.7,28.4z M30.5,21.3c-1.2,2.2-8.4,13.4-8.6,19.1c-0.2,4.8,3.9,8.6,8.6,8.6c4.7,0,8.8-3.8,8.6-8.6
		c-0.1-2.6-1.8-6.6-3.6-10.3C33.9,27.1,32.2,24.2,30.5,21.3"/>
	<path class="st4" d="M30.5,24.7c0,0,6,10.3,6.4,13.8c0.4,3.5-10.3-0.6-11.3,5C25.6,43.5,19.5,39.5,30.5,24.7"/>
	<path class="st5" d="M26,34.4c-0.7,2.1-1.1,4.7-0.4,7c0.3-0.9,0.8-3.5,1.9-6.5c0.8-2.2,2-5,2.2-6.4v0C29.3,28.8,27.2,31.3,26,34.4"
		/>
	<path class="st3" d="M33.7,67.1c18.6,0,33.7-2.6,33.7-5.8c0-3.2-15.1-5.8-33.7-5.8C15.1,55.4,0,58,0,61.3
		C0,64.5,15.1,67.1,33.7,67.1"/>
	<path class="st4" d="M52.4,62.7c2.9,0,5.3-0.6,5.3-1.4c0-0.8-2.4-1.4-5.3-1.4c-2.9,0-5.3,0.6-5.3,1.4
		C47.2,62.1,49.5,62.7,52.4,62.7"/>
	<path class="st4" d="M41.5,59.7c2.5,0,4.5-0.6,4.5-1.4c0-0.8-2-1.4-4.5-1.4c-2.5,0-4.5,0.6-4.5,1.4C37,59.1,39,59.7,41.5,59.7"/>
</g>
</svg>
