<?xml version="1.0" encoding="utf-8"?>
<!-- Generator: Adobe Illustrator 23.1.1, SVG Export Plug-In . SVG Version: 6.00 Build 0)  -->
<svg version="1.1" id="Layer_1" xmlns="http://www.w3.org/2000/svg" xmlns:xlink="http://www.w3.org/1999/xlink" x="0px" y="0px"
	 viewBox="0 0 162.6 99.4" style="enable-background:new 0 0 162.6 99.4;" xml:space="preserve">
<style type="text/css">
	.st0{clip-path:url(#SVGID_2_);fill:#AB8032;}
	.st1{clip-path:url(#SVGID_2_);fill:#8A632E;}
	.st2{clip-path:url(#SVGID_2_);fill:#CD6A39;}
	.st3{clip-path:url(#SVGID_2_);fill:#CC9678;}
	.st4{clip-path:url(#SVGID_2_);fill:#474647;}
	.st5{clip-path:url(#SVGID_2_);fill:#5B5B5B;}
	.st6{clip-path:url(#SVGID_2_);fill:#CECDCC;}
	.st7{clip-path:url(#SVGID_2_);fill:#50BEEE;}
	.st8{clip-path:url(#SVGID_2_);fill:#34A5DE;}
	.st9{clip-path:url(#SVGID_2_);fill:#BEBDBE;}
</style>
<g>
	<defs>
		<rect id="SVGID_1_" y="0" width="162.6" height="99.4"/>
	</defs>
	<clipPath id="SVGID_2_">
		<use xlink:href="#SVGID_1_"  style="overflow:visible;"/>
	</clipPath>
	<path class="st0" d="M133.6,89.4c0,0,0.8-4.5,3.1-8.4c2.2-3.9,7.2-8.6,7.2-8.6l-2.5,7.2l8.1-8.6c0,0-3.1,5.8-2.5,5.3
		c0.6-0.6,6.4-5.6,6.4-5.6l-5,7.2l8.9-3.1l-10.6,7.8l7.8-2.2l-4.2,4.6l8.9-3.7l-7.5,5.8l10.6-0.3l-12.5,3.9l11.7,1.4h-13.1l14.2,4.7
		l-14.7-2.5l0.3,1.9l-6.4-1.1c0,0-3.1,1.1-5.8,0.6C133.1,95.2,133.6,89.4,133.6,89.4"/>
	<path class="st1" d="M121.5,89.2c0,0-0.6-4.5-1.6-7.6c-1.6-4.5-12-20.8-12-20.8l2.2,9.2L99.6,59.4l5.3,10.6c0,0-2.1-2.2-5.8-5.3
		c-3.3-2.7,9,12.2,9,12.2L91.8,64.2L104,75.8c0,0-13-8.1-13.9-8.3c-0.9-0.3,9.4,6.9,9.4,6.9l-13.9-4.6l15,8.8l-15-3.6l15.2,6.7
		c0,0-10.2-1.6-11-2c-1.5-0.8,7.8,3.6,7.8,3.6l-11.4,1.1l10.6,1.9l-11.1,1.5l15.3,1.6l-14.7,0.3l20.8,2.5c0,0-14.4,1.2-13.1,1.7
		c0.7,0.2,25-0.3,25-0.3l-8.1-3l6.1,0.5l-6.9-6.7l10.6,7.8l-1.9-2.8L121.5,89.2z"/>
	<path class="st1" d="M142.5,90.8c1.1-0.6,5.9-4.6,5.9-4.6l-2.5,3.5l5.9-1.4l-10.5,4L142.5,90.8z"/>
	<path class="st2" d="M133.2,92.6c-0.8-1.3-1.9-1.7-2.9-1.6c0.2,0.3,0.5,0.5,0.6,0.8c0.3,0.8,0.3,1.6,0.3,1.6l-3.2-1.6
		c-0.1,0.1-0.2,0.1-0.4,0.2c0.3,0.5,0.7,1,1,1c0.1,0,0.1,0,0,0c0,0,0,0,0,0c-0.3,0-1.4-0.1-2.3-0.1c-0.2,0.1-0.3,0.3-0.4,0.3
		l2.4,1.2l0.2,0.7l-4,0.9c-0.1,1,0.3,2,2.5,2C131.7,98,135.7,96.6,133.2,92.6"/>
	<path class="st3" d="M124.7,91.4c-1.3-1.4-4-2.2-5.8-1.2c-2.8,1.5-4,4.6-2,6c1,0.7,5.7,0.5,7.9-2c0,0,0,0,0,0c-0.5-0.2-1-0.5-1-0.5
		s0.8-0.5,1.5-0.9c0,0,0,0,0-0.1c-0.4,0.1-0.8,0.1-0.8,0.1s-2.4,0.9-3.2,1.3c-0.8,0.3,1.7-1.5,1.7-1.5l-1.7,0.1l1.5-1.3H124.7z"/>
	<path class="st1" d="M124.6,87.9c0,0-2.7-9-2.7-13.5c0,0,0.9,6.1,1.5,5.3c0.6-0.8,2.5-12.1,2.5-12.1l-0.9,12.2l4.4-18l-2.1,16.9
		c0,0,2.7-11.7,4.2-14.7c1.6-3-1.7,12.2-1.7,12.2s2.7-5,3.7-6.6c1-1.6-1.1,6.2-1.1,6.2l4.4-4.2c0,0-1.2,3.5-3.8,5.9
		c-2.6,2.3,2.8-1.4,4-2.2c1.2-0.8,3.4-3.1,3.4-3.1s-5,6.9-7.8,9.8c-2.8,2.9,4-3,4-3s1.2-1,2.6-1.3c1.3-0.3-4.7,7-5.4,8.2
		c-0.7,1.2,3.1-1,3.1-1L131,89c0,0-3.1,0.7-2.9,0.2c0.2-0.4,0.8-2.6,1.2-4.1c0.4-1.6-1.8,3.5-1.8,3.5l0.6-4.2l-1.7,3.8l-0.8-2
		L124.6,87.9z"/>
	<polygon class="st1" points="135.3,91.3 137.9,84.9 137.6,87.7 143.5,83.7 139.8,87.1 143.8,86.5 140.7,88.5 143.5,88.2 
		135.6,94.2 137.6,89.9 	"/>
	<path class="st0" d="M107.7,89.2c-1.7-0.6-9.9-2-9.9-2l3.4-0.6l-4-2l6.2,1.2v1.2L107.7,89.2z"/>
	<polygon class="st0" points="112.6,72.4 115.7,79.6 112.8,75.5 113.4,79 108.6,73.3 111.4,74.7 	"/>
	<polygon class="st0" points="107.7,81.7 100,76 105.7,78.6 103.7,73.9 108.2,80.9 107.7,77.7 109.4,83.1 	"/>
	<path class="st4" d="M30.5,99.4c-0.5,0-0.9-0.2-1.2-0.6c-0.5-0.7-0.3-1.6,0.4-2l33.9-22.9L35.4,51.2c-0.3-0.3-0.5-0.6-0.5-1.1
		c0-0.4,0.1-0.8,0.4-1.1l23.8-24c0.6-0.6,1.5-0.6,2.1,0c0.6,0.6,0.6,1.5,0,2.1L38.5,49.9l28.4,22.9c0.4,0.3,0.6,0.7,0.5,1.2
		c0,0.5-0.3,0.9-0.6,1.1l-35.5,24C31,99.4,30.8,99.4,30.5,99.4"/>
	<path class="st4" d="M68.9,99.4c-0.3,0-0.6-0.1-0.8-0.2l-35.5-24c-0.4-0.3-0.6-0.7-0.6-1.1c0-0.5,0.2-0.9,0.5-1.2l28.4-22.9
		L38.2,27.1c-0.6-0.6-0.6-1.5,0-2.1c0.6-0.6,1.5-0.6,2.1,0l23.8,24c0.3,0.3,0.4,0.7,0.4,1.1c0,0.4-0.2,0.8-0.5,1.1L35.8,73.9
		l33.9,22.9c0.7,0.4,0.8,1.4,0.4,2C69.8,99.2,69.4,99.4,68.9,99.4"/>
	<path class="st5" d="M63,51.5H36.3c-0.8,0-1.5-0.7-1.5-1.5s0.7-1.5,1.5-1.5H63c0.8,0,1.5,0.6,1.5,1.5C64.5,50.9,63.8,51.5,63,51.5"
		/>
	<path class="st5" d="M66,75.5H33.4c-0.8,0-1.5-0.7-1.5-1.5c0-0.8,0.7-1.5,1.5-1.5H66c0.8,0,1.5,0.7,1.5,1.5
		C67.4,74.8,66.8,75.5,66,75.5"/>
	<path class="st6" d="M70.3,97.8c0.1,0.4-0.1,0.8-0.4,1.1c-0.3,0.3-0.7,0.5-1.1,0.5H30.5c-0.4,0-0.8-0.2-1.1-0.5
		c-0.3-0.3-0.4-0.7-0.4-1.1l8.8-71.9c0.1-0.7,0.7-1.3,1.4-1.3l20.7-1.5c0.7,0,1.4,0.5,1.4,1.3L70.3,97.8z M32.1,96.5h35.1l-8.6-70.4
		l-18.1,1.5L32.1,96.5z"/>
	<path class="st4" d="M85,10.5c0.8,0,1.5,0.7,1.5,1.5v58c0,0.8-0.7,1.5-1.5,1.5c-0.8,0-1.5-0.7-1.5-1.5V12
		C83.5,11.2,84.2,10.5,85,10.5"/>
	<path class="st5" d="M10.9,68.2c-0.8,0-1.5-0.7-1.5-1.5V50.3c0-0.8,0.7-1.5,1.5-1.5c0.8,0,1.5,0.7,1.5,1.5v16.5
		C12.4,67.6,11.7,68.2,10.9,68.2"/>
	<path class="st5" d="M14.9,79.8c0,0.8-0.7,1.5-1.5,1.5H8.5c-0.8,0-1.5-0.7-1.5-1.5V68.3c0-0.8,0.7-1.5,1.5-1.5h4.9
		c0.8,0,1.5,0.7,1.5,1.5V79.8z"/>
	<path class="st4" d="M11.6,66.8v14.5h1.8c0.8,0,1.5-0.7,1.5-1.5V68.3c0-0.8-0.7-1.5-1.5-1.5H11.6z"/>
	<path class="st7" d="M0.6,18.3C0.2,18.6,0,19,0,19.5v20.6c0,0.5,0.2,0.9,0.6,1.2l9.3,6.9c0.6,0.5,1.5,0.5,2.1,0l9.3-6.9
		c0.4-0.3,0.6-0.7,0.6-1.2V19.5c0-0.5-0.2-0.9-0.6-1.2l-9.5-7c-0.5-0.4-1.2-0.4-1.8,0L0.6,18.3z"/>
	<path class="st8" d="M10.1,48.3c0.5,0.4,1.2,0.4,1.8,0l1.7-1.3l-6.7-5c-1-0.8-1.6-2-1.6-3.2V20.8c0-1.3,0.6-2.5,1.6-3.2l6.7-5
		l-1.7-1.3c-0.5-0.4-1.2-0.4-1.8,0l-9.5,7C0.2,18.6,0,19,0,19.5v20.6c0,0.5,0.2,0.9,0.6,1.2L10.1,48.3z"/>
	<path class="st5" d="M7,29.8c0-2.2,1.8-3.9,3.9-3.9c2.2,0,3.9,1.8,3.9,3.9c0,2.2-1.8,3.9-3.9,3.9C8.8,33.8,7,32,7,29.8"/>
	<path class="st6" d="M21.9,36.3l66.1-19c2.9-0.8,4.6-3.9,3.7-6.8C90.9,7.6,87.9,6,85,6.8L21.9,25V36.3z"/>
	<polygon class="st9" points="25.8,23.8 21.9,25 21.9,36.3 25.8,35.2 	"/>
	<path class="st4" d="M86.5,10.5c0.7,0,1.3,0.4,1.4,1.1c0.2,0.8-0.3,1.6-1.1,1.8l-0.7,0.2c-0.8,0.2-1.6-0.3-1.8-1.1
		c-0.2-0.8,0.3-1.6,1.1-1.8l0.7-0.2C86.3,10.6,86.4,10.5,86.5,10.5"/>
	<path class="st0" d="M38.8,17.7c0,0-0.1-1.5,0.3-2.9c0.4-1.4,1.6-3.3,1.6-3.3L40.4,14l1.8-3.4c0,0-0.5,2.1-0.3,1.9
		c0.1-0.2,1.5-2.3,1.5-2.3l-1,2.7l2.6-1.7l-2.7,3.4l2.3-1.4L43.7,15l2.5-1.9l-1.9,2.5l3.3-1L44,16.8l3.8-0.5l-4.1,1.1l4.9,0.3
		l-4.9,0.5l0.3,0.6l-2.1,0.2c0,0-0.9,0.6-1.8,0.7C39.1,19.6,38.8,17.7,38.8,17.7"/>
	<path class="st1" d="M34.9,18.7c0,0-0.6-1.4-1.2-2.3c-0.9-1.3-5.5-5.5-5.5-5.5l1.5,2.7l-4.2-2.4l2.6,2.9c0,0-0.8-0.5-2.3-1.2
		c-1.3-0.6,3.9,3.1,3.9,3.1l-6.2-2.6l4.8,2.6c0,0-4.8-1.4-5.1-1.5c-0.3,0,3.6,1.4,3.6,1.4L22,15.6l5.5,1.5l-5,0.1l5.4,0.8
		c0,0-3.4,0.4-3.6,0.3c-0.6-0.1,2.8,0.5,2.8,0.5l-3.5,1.3l3.5-0.3l-3.4,1.4l5-0.8l-4.6,1.3l6.8-1c0,0-4.4,1.6-4,1.6
		c0.2,0,7.9-2.2,7.9-2.2l-2.8-0.3l2-0.4l-2.8-1.5l4,1.6L34.1,19L34.9,18.7z"/>
	<path class="st1" d="M41.7,17.4c0.3-0.3,1.5-2,1.5-2l-0.5,1.3l1.8-1l-3,2.2L41.7,17.4z"/>
	<path class="st2" d="M38.9,18.8c-0.4-0.3-0.7-0.4-1.1-0.3c0.1,0.1,0.2,0.1,0.2,0.2c0.2,0.2,0.2,0.5,0.2,0.5L37.2,19
		c0,0-0.1,0.1-0.1,0.1c0.1,0.1,0.3,0.3,0.4,0.2c0,0,0,0,0,0c0,0,0,0,0,0c-0.1,0-0.4,0.1-0.7,0.1c0,0.1-0.1,0.1-0.1,0.1l0.9,0.2
		l0.1,0.2l-1.2,0.6c0,0.3,0.3,0.6,1,0.4C38.9,20.6,40,19.8,38.9,18.8"/>
	<path class="st3" d="M36.1,19.1c-0.5-0.3-1.5-0.3-1.9,0.1c-0.8,0.7-0.9,1.8-0.1,2.1c0.4,0.1,1.8-0.3,2.3-1.3c0,0,0,0,0,0
		c-0.2,0-0.4-0.1-0.4-0.1s0.2-0.2,0.4-0.4c0,0,0,0,0,0c-0.1,0.1-0.2,0.1-0.2,0.1s-0.7,0.5-0.9,0.7c-0.2,0.2,0.4-0.6,0.4-0.6
		l-0.5,0.2l0.4-0.5L36.1,19.1z"/>
	<path class="st1" d="M35.8,18c0,0-1.6-2.6-2-4c0,0,0.8,1.9,0.9,1.6c0.1-0.3-0.2-4-0.2-4l0.8,3.9l-0.1-6.1l0.8,5.5
		c0,0-0.1-3.9,0.1-5c0.2-1.1,0.5,4,0.5,4s0.4-1.8,0.6-2.4c0.2-0.6,0.2,2.1,0.2,2.1l1-1.7c0,0-0.1,1.2-0.7,2.2c-0.6,1,0.8-0.7,1.1-1
		c0.3-0.3,0.8-1.3,0.8-1.3s-1,2.6-1.6,3.8c-0.6,1.2,1-1.3,1-1.3s0.3-0.4,0.7-0.6c0.4-0.2-0.9,2.6-1,3.1c-0.1,0.4,0.9-0.6,0.9-0.6
		l-1.5,1.7c0,0-0.9,0.5-0.9,0.3c0-0.2,0-0.9,0-1.4c0-0.5-0.3,1.2-0.3,1.2l-0.2-1.4l-0.2,1.3L36,17.4L35.8,18z"/>
	<polygon class="st1" points="39.5,18.2 39.7,16 39.9,16.9 41.4,15.1 40.5,16.5 41.8,16 40.9,16.9 41.8,16.5 39.8,19.1 40.1,17.6 	
		"/>
	<path class="st0" d="M30.6,19.9c-0.6,0-3.3,0.2-3.3,0.2l1-0.5l-1.4-0.3l2.1-0.2l0.1,0.4L30.6,19.9z"/>
	<polygon class="st0" points="30.7,14.2 32.3,16.2 31,15.1 31.5,16.2 29.5,14.8 30.5,15 	"/>
	<polygon class="st0" points="29.9,17.5 27,16.4 29,16.7 28,15.4 30,17.2 29.6,16.3 30.6,17.8 	"/>
	<path class="st0" d="M72.4,8.3c0,0-0.1-1.5,0.3-2.9s1.6-3.3,1.6-3.3l-0.2,2.5l1.8-3.4c0,0-0.5,2.1-0.3,1.9c0.1-0.2,1.5-2.3,1.5-2.3
		l-1,2.7l2.6-1.7L76,5.1l2.3-1.4l-0.9,1.8l2.5-1.9L78,6.1l3.3-1l-3.6,2.3l3.8-0.5l-4.1,1.1l4.9,0.3l-4.9,0.5l0.3,0.6l-2.1,0.2
		c0,0-0.9,0.6-1.8,0.7C72.8,10.2,72.4,8.3,72.4,8.3"/>
	<path class="st1" d="M68.6,9.3c0,0-0.6-1.4-1.2-2.3c-0.9-1.3-5.5-5.5-5.5-5.5l1.5,2.7l-4.2-2.4l2.6,2.9c0,0-0.8-0.5-2.3-1.2
		c-1.3-0.6,3.9,3.1,3.9,3.1l-6.2-2.6l4.8,2.6c0,0-4.8-1.4-5.1-1.5c-0.3,0,3.6,1.4,3.6,1.4l-4.8-0.3l5.5,1.5l-5,0.1l5.4,0.8
		c0,0-3.4,0.4-3.6,0.3c-0.6-0.1,2.8,0.5,2.8,0.5L57,10.8l3.5-0.3l-3.4,1.4l5-0.8l-4.6,1.3l6.8-1c0,0-4.4,1.6-4,1.6
		c0.2,0,7.9-2.2,7.9-2.2l-2.8-0.3l2-0.4l-2.8-1.5l4,1.6l-0.8-0.7L68.6,9.3z"/>
	<path class="st1" d="M75.3,8c0.3-0.3,1.5-2,1.5-2l-0.5,1.3l1.8-1l-3,2.2L75.3,8z"/>
	<path class="st2" d="M72.6,9.4C72.2,9,71.8,9,71.5,9.1c0.1,0.1,0.2,0.1,0.2,0.2C71.9,9.5,72,9.8,72,9.8l-1.1-0.2
		c0,0-0.1,0.1-0.1,0.1c0.1,0.1,0.3,0.3,0.4,0.2c0,0,0,0,0,0c0,0,0,0,0,0c-0.1,0-0.4,0.1-0.7,0.1c0,0.1-0.1,0.1-0.1,0.1l0.9,0.2
		l0.1,0.2l-1.2,0.6c0,0.3,0.3,0.6,1,0.4C72.6,11.2,73.7,10.4,72.6,9.4"/>
	<path class="st3" d="M69.8,9.7c-0.5-0.3-1.5-0.3-1.9,0.1c-0.8,0.7-0.9,1.8-0.1,2.1c0.4,0.1,1.8-0.3,2.3-1.3c0,0,0,0,0,0
		c-0.2,0-0.4-0.1-0.4-0.1s0.2-0.2,0.4-0.4c0,0,0,0,0,0c-0.1,0.1-0.2,0.1-0.2,0.1s-0.7,0.5-0.9,0.7c-0.2,0.2,0.4-0.6,0.4-0.6
		l-0.5,0.2l0.4-0.5L69.8,9.7z"/>
	<path class="st1" d="M69.5,8.6c0,0-1.6-2.6-2-4c0,0,0.8,1.9,0.9,1.6c0.1-0.3-0.2-4-0.2-4l0.8,3.9L68.7,0l0.8,5.5c0,0-0.1-3.9,0.1-5
		c0.2-1.1,0.5,4,0.5,4s0.4-1.8,0.6-2.4c0.2-0.6,0.2,2.1,0.2,2.1l1-1.7c0,0-0.1,1.2-0.7,2.2c-0.6,1,0.8-0.7,1.1-1
		c0.3-0.3,0.8-1.3,0.8-1.3s-1,2.6-1.6,3.8s1-1.3,1-1.3s0.3-0.4,0.7-0.6c0.4-0.2-0.9,2.6-1,3.1c-0.1,0.4,0.9-0.6,0.9-0.6l-1.5,1.7
		c0,0-0.9,0.5-0.9,0.3c0-0.2,0-0.9,0-1.4c0-0.5-0.3,1.2-0.3,1.2l-0.2-1.4L70,8.5l-0.4-0.6L69.5,8.6z"/>
	<polygon class="st1" points="73.1,8.8 73.4,6.5 73.5,7.4 75.1,5.7 74.2,7.1 75.4,6.5 74.6,7.4 75.5,7.1 73.4,9.7 73.7,8.1 	"/>
	<path class="st0" d="M64.2,10.4c-0.6,0-3.3,0.2-3.3,0.2l1-0.5l-1.4-0.3l2.1-0.2l0.1,0.4L64.2,10.4z"/>
	<polygon class="st0" points="64.3,4.7 65.9,6.7 64.7,5.7 65.2,6.7 63.2,5.3 64.2,5.5 	"/>
	<polygon class="st0" points="63.6,8.1 60.7,6.9 62.7,7.3 61.7,5.9 63.7,7.8 63.2,6.8 64.2,8.4 	"/>
</g>
</svg>
