<?xml version="1.0" encoding="utf-8"?>
<!-- Generator: Adobe Illustrator 23.1.1, SVG Export Plug-In . SVG Version: 6.00 Build 0)  -->
<svg version="1.1" id="Layer_1" xmlns="http://www.w3.org/2000/svg" xmlns:xlink="http://www.w3.org/1999/xlink" x="0px" y="0px"
	 viewBox="0 0 85.3 42" style="enable-background:new 0 0 85.3 42;" xml:space="preserve">
<style type="text/css">
	.st0{clip-path:url(#SVGID_2_);fill:#3AAA35;}
	.st1{clip-path:url(#SVGID_2_);fill:#008D36;}
	.st2{clip-path:url(#SVGID_2_);fill:#DDCBB3;}
	.st3{clip-path:url(#SVGID_2_);fill:#AFA497;}
	.st4{clip-path:url(#SVGID_2_);fill:#AE977B;}
</style>
<g>
	<defs>
		<rect id="SVGID_1_" y="0" width="85.3" height="42"/>
	</defs>
	<clipPath id="SVGID_2_">
		<use xlink:href="#SVGID_1_"  style="overflow:visible;"/>
	</clipPath>
	<path class="st0" d="M21,42C9.4,42,0,32.6,0,21S9.4,0,21,0h43.2c11.6,0,21,9.4,21,21s-9.4,21-21,21H21z"/>
	<path class="st1" d="M21,39.3C10.9,39.3,2.7,31.1,2.7,21S10.9,2.7,21,2.7h43.2c10.1,0,18.3,8.2,18.3,18.3s-8.2,18.3-18.3,18.3H21z"
		/>
	<path class="st2" d="M64.2,37.2H21c-9,0-16.2-7.3-16.2-16.2S12.1,4.8,21,4.8h43.2c9,0,16.2,7.3,16.2,16.2S73.2,37.2,64.2,37.2"/>
	<path class="st3" d="M80.5,21c0,4.5-1.8,8.5-4.7,11.5c-2.9,2.9-7,4.7-11.5,4.7H21c-9,0-16.2-7.3-16.2-16.2c0-0.7,0-1.4,0.1-2.2
		C6,26.8,12.8,32.9,21,32.9h43.2c4.5,0,8.5-1.8,11.5-4.7c2.5-2.5,4.1-5.7,4.6-9.3C80.4,19.6,80.5,20.3,80.5,21"/>
	<path class="st4" d="M14.2,25.8c-0.7,0-1.3-0.6-1.3-1.3c0-0.7,0.6-1.3,1.3-1.3h0c0.7,0,1.3,0.6,1.3,1.3
		C15.5,25.3,14.9,25.8,14.2,25.8"/>
	<path class="st4" d="M17.3,29.3c-0.7,0-1.3-0.6-1.3-1.3c0-0.7,0.6-1.3,1.3-1.3h0c0.7,0,1.3,0.6,1.3,1.3
		C18.6,28.8,18,29.3,17.3,29.3"/>
	<path class="st4" d="M24.2,13.9L24.2,13.9c-0.7,0-1.3-0.6-1.3-1.3c0-0.7,0.6-1.3,1.3-1.3h0h0c0.7,0,1.3,0.6,1.3,1.3
		C25.5,13.4,24.9,13.9,24.2,13.9"/>
	<path class="st4" d="M50.6,27.8c-1.6,0-3.1-0.6-4.2-1.8c-0.6-0.6-1.5-1-2.4-1c-0.9,0-1.7,0.4-2.4,1c-1.1,1.1-2.6,1.8-4.2,1.8
		c-1.6,0-3.1-0.6-4.2-1.8c-0.6-0.6-1.5-1-2.4-1c-0.9,0-1.7,0.4-2.4,1c-0.5,0.5-1.3,0.5-1.8,0c-0.5-0.5-0.5-1.3,0-1.8
		c1.1-1.1,2.6-1.8,4.2-1.8c1.6,0,3.1,0.6,4.2,1.8c0.6,0.6,1.5,1,2.4,1c0.9,0,1.7-0.4,2.4-1c1.1-1.1,2.6-1.8,4.2-1.8
		c1.6,0,3.1,0.6,4.2,1.8c0.6,0.6,1.5,1,2.4,1c0.9,0,1.7-0.4,2.4-1c1.1-1.1,2.6-1.8,4.2-1.8s3.1,0.6,4.2,1.8c0.5,0.5,0.5,1.3,0,1.8
		c-0.5,0.5-1.3,0.5-1.8,0c-0.6-0.6-1.5-1-2.4-1s-1.7,0.4-2.4,1C53.6,27.2,52.1,27.8,50.6,27.8"/>
	<path class="st4" d="M60.2,19.6c-1.6,0-3.1-0.6-4.2-1.8c-0.6-0.6-1.5-1-2.4-1c-0.9,0-1.7,0.4-2.4,1c-1.1,1.1-2.6,1.8-4.2,1.8
		c-1.6,0-3.1-0.6-4.2-1.8c-0.6-0.6-1.5-1-2.4-1s-1.7,0.4-2.4,1c-0.5,0.5-1.3,0.5-1.8,0c-0.5-0.5-0.5-1.3,0-1.8
		c1.1-1.1,2.6-1.8,4.2-1.8c1.6,0,3.1,0.6,4.2,1.8c0.6,0.6,1.5,1,2.4,1c0.9,0,1.7-0.4,2.4-1c1.1-1.1,2.6-1.8,4.2-1.8s3.1,0.6,4.2,1.8
		c0.6,0.6,1.5,1,2.4,1c0.9,0,1.7-0.4,2.4-1c1.1-1.1,2.6-1.8,4.2-1.8c1.6,0,3.1,0.6,4.2,1.8c0.5,0.5,0.5,1.3,0,1.8
		c-0.5,0.5-1.3,0.5-1.8,0c-0.6-0.6-1.5-1-2.4-1c-0.9,0-1.7,0.4-2.4,1C63.3,18.9,61.8,19.6,60.2,19.6"/>
</g>
</svg>
