<?xml version="1.0" encoding="utf-8"?>
<!-- Generator: Adobe Illustrator 23.1.1, SVG Export Plug-In . SVG Version: 6.00 Build 0)  -->
<svg version="1.1" id="Layer_1" xmlns="http://www.w3.org/2000/svg" xmlns:xlink="http://www.w3.org/1999/xlink" x="0px" y="0px"
	 viewBox="0 0 155.8 70.4" style="enable-background:new 0 0 155.8 70.4;" xml:space="preserve">
<style type="text/css">
	.st0{clip-path:url(#SVGID_2_);fill:url(#SVGID_3_);}
	.st1{clip-path:url(#SVGID_5_);fill:url(#SVGID_6_);}
	.st2{clip-path:url(#SVGID_8_);fill:url(#SVGID_9_);}
	.st3{clip-path:url(#SVGID_11_);fill:url(#SVGID_12_);}
	.st4{clip-path:url(#SVGID_14_);fill:url(#SVGID_15_);}
	.st5{clip-path:url(#SVGID_17_);fill:url(#SVGID_18_);}
	.st6{clip-path:url(#SVGID_20_);fill:url(#SVGID_21_);}
	.st7{clip-path:url(#SVGID_23_);fill:url(#SVGID_24_);}
	.st8{clip-path:url(#SVGID_26_);fill:url(#SVGID_27_);}
	.st9{clip-path:url(#SVGID_29_);fill:url(#SVGID_30_);}
	.st10{clip-path:url(#SVGID_32_);fill:url(#SVGID_33_);}
	.st11{clip-path:url(#SVGID_35_);fill:url(#SVGID_36_);}
	.st12{clip-path:url(#SVGID_38_);fill:#9D979F;}
	.st13{clip-path:url(#SVGID_38_);fill:#A78966;}
	.st14{clip-path:url(#SVGID_38_);fill:#957857;}
	.st15{clip-path:url(#SVGID_38_);fill:#5E5461;}
	.st16{clip-path:url(#SVGID_38_);fill:#877F89;}
	.st17{clip-path:url(#SVGID_38_);fill:#706672;}
</style>
<g>
	<defs>
		<path id="SVGID_1_" d="M23.2,9.6c-0.2,0.2-0.3,0.6-0.1,1c0.1,0.2,0.2,0.5,0.4,0.7c0.5,0.7,1.2,1,1.6,0.7c0.3-0.2,0.3-0.9-0.1-1.5
			c-0.1-0.2-0.1-0.3-0.1-0.4c0,0-0.1,0-0.1,0.1c-0.4-0.4-0.8-0.6-1.1-0.6C23.4,9.5,23.3,9.5,23.2,9.6 M30.4,22.2
			c0.3-0.3,1,0,1.4,0.6c0,0,0.1,0.1,0.1,0.1c-0.4-0.5-1-0.7-1.4-0.4c-0.2,0.1-0.3,0.3-0.3,0.6C30.1,22.7,30.1,22.4,30.4,22.2
			 M32.4,21.1c0.3-0.3,1,0,1.4,0.6c0,0,0.1,0.1,0.1,0.1c-0.4-0.5-1-0.7-1.4-0.4c-0.2,0.1-0.3,0.3-0.3,0.6
			C32.2,21.7,32.2,21.3,32.4,21.1 M27,21.1c0.5-0.3,1.3,0,1.9,0.8c0,0.1,0.1,0.1,0.1,0.2c-0.6-0.7-1.4-0.9-1.9-0.5
			c-0.2,0.2-0.4,0.5-0.4,0.8C26.6,21.8,26.7,21.3,27,21.1 M29,19.9c0.5-0.3,1.3,0,1.9,0.8c0,0.1,0.1,0.1,0.1,0.2
			c-0.6-0.7-1.4-0.9-1.9-0.5c-0.2,0.2-0.4,0.5-0.4,0.8C28.6,20.6,28.6,20.2,29,19.9 M33.6,19.6c0.3-0.3,1,0,1.4,0.6
			c0,0,0.1,0.1,0.1,0.1c-0.4-0.5-1-0.7-1.4-0.4c-0.2,0.1-0.3,0.3-0.3,0.6C33.3,20.1,33.3,19.8,33.6,19.6 M24.9,19.6
			c0.3-0.5,1.2-0.4,2.1,0.2c0.1,0,0.1,0.1,0.2,0.1c-0.8-0.4-1.6-0.4-1.9,0.1c-0.2,0.2-0.2,0.6-0.1,0.9
			C24.8,20.4,24.7,19.9,24.9,19.6 M31,18.8c0.5-0.3,1.3,0,1.9,0.8c0,0.1,0.1,0.1,0.1,0.2c-0.6-0.7-1.4-0.9-1.9-0.5
			c-0.2,0.2-0.4,0.5-0.4,0.8C30.7,19.5,30.7,19.1,31,18.8 M24.3,17.6c0.5-0.3,1.3,0,1.9,0.8c0,0.1,0.1,0.1,0.1,0.2
			c-0.6-0.7-1.4-0.9-1.9-0.5c-0.2,0.2-0.4,0.5-0.4,0.8C24,18.3,24,17.8,24.3,17.6 M27.5,17.4c0.5-0.3,1.3,0,1.9,0.8
			c0,0.1,0.1,0.1,0.1,0.2c-0.6-0.7-1.4-0.9-1.9-0.5c-0.2,0.2-0.4,0.5-0.4,0.8C27.2,18.1,27.2,17.6,27.5,17.4 M32.9,17
			c0.5-0.3,1.3,0,1.9,0.8c0,0.1,0.1,0.1,0.1,0.2c-0.6-0.7-1.4-0.9-1.9-0.5c-0.2,0.2-0.4,0.5-0.4,0.8C32.5,17.7,32.6,17.2,32.9,17
			 M30.4,16.8c0.5-0.3,1.3,0,1.9,0.8c0,0.1,0.1,0.1,0.1,0.2c-0.6-0.7-1.4-0.9-1.9-0.5c-0.2,0.2-0.4,0.5-0.4,0.8
			C30,17.5,30.1,17.1,30.4,16.8 M23.8,16.4c0.3-0.5,1.3-0.4,2.1,0.2c0.1,0,0.1,0.1,0.2,0.1c-0.8-0.4-1.6-0.4-1.9,0.1
			c-0.2,0.2-0.2,0.6-0.1,0.9C23.7,17.2,23.6,16.7,23.8,16.4 M28.2,15.7c0.5-0.3,1.3,0,1.9,0.8c0,0.1,0.1,0.1,0.1,0.2
			c-0.6-0.7-1.4-0.9-1.9-0.5c-0.2,0.2-0.4,0.5-0.4,0.8C27.8,16.4,27.9,15.9,28.2,15.7 M22.6,15.1c0.1,0.1,0.3,0.2,0.4,0.2
			c0.2,0.5,0.2,0.9,0,1c0,0-0.1,0-0.1,0.1C23,16.1,22.9,15.6,22.6,15.1 M30.6,14.5c0.5-0.3,1.3,0,1.9,0.8c0,0.1,0.1,0.1,0.1,0.2
			c-0.6-0.7-1.4-0.9-1.9-0.5c-0.2,0.2-0.4,0.5-0.4,0.8C30.3,15.2,30.3,14.7,30.6,14.5 M25.5,14.2c0.5-0.3,1.3,0,1.9,0.8
			c0,0.1,0.1,0.1,0.1,0.2c-0.6-0.7-1.4-0.9-1.9-0.5c-0.2,0.2-0.4,0.5-0.4,0.8C25.1,15,25.2,14.5,25.5,14.2 M30.2,13.4
			c0.5-0.3,1.3,0,1.9,0.8c0,0.1,0.1,0.1,0.1,0.2c-0.6-0.7-1.4-0.9-1.9-0.5C30.1,14,30,14.3,30,14.7C29.9,14.1,29.9,13.7,30.2,13.4
			 M25.6,12.7c0.5-0.3,1.3,0,1.9,0.8c0,0,0,0,0,0c0-0.1,0.1-0.2,0.2-0.3c0.5-0.3,1.3,0,1.9,0.8c0,0.1,0.1,0.1,0.1,0.2
			c-0.6-0.7-1.4-0.9-1.9-0.5c-0.2,0.2-0.4,0.5-0.4,0.8c-0.1-0.4-0.1-0.7,0-0.9c-0.6-0.6-1.3-0.8-1.8-0.4c-0.2,0.2-0.4,0.5-0.4,0.8
			C25.2,13.4,25.3,13,25.6,12.7 M27.7,11.9c-0.1-0.1-0.1-0.2-0.2-0.3c-0.5-0.7-0.7-1.5-0.4-1.7c0,0,0.1,0,0.1-0.1
			c-0.2,0.3,0,1,0.5,1.6c0-0.2,0.1-0.4,0.3-0.5c0.4-0.3,1.2,0,1.8,0.7c0,0,0,0,0.1-0.1c0.5-0.3,1.3,0,1.9,0.8c0,0.1,0.1,0.1,0.1,0.2
			c-0.6-0.7-1.4-0.9-1.9-0.5c-0.2,0.2-0.4,0.5-0.4,0.8c-0.1-0.4-0.1-0.9,0.1-1.1c-0.5-0.5-1.2-0.6-1.6-0.3c-0.2,0.2-0.4,0.5-0.4,0.8
			C27.7,12.1,27.7,12,27.7,11.9 M25,9.4C25,9.4,25,9.4,25,9.4c-0.2,0.3,0,1,0.5,1.6c0.5,0.6,1.1,1,1.4,0.9c0,0-0.1,0.1-0.1,0.1
			c-0.3,0.2-0.9-0.1-1.4-0.7c0.2,0.5,0.1,0.9-0.1,1.1c-0.3,0.2-0.9,0-1.3-0.5c0.1,0.4,0.1,0.7-0.1,0.8c0,0-0.1,0-0.1,0.1
			c0.2-0.3,0-1-0.5-1.6c-0.5-0.6-1.1-1-1.4-0.9c0,0,0,0,0,0c-0.3-0.6-1-2.1-0.8-1.4c0.1,0.6,0.4,1.2,0.6,1.6c-0.1,0.3,0.1,1,0.5,1.6
			c0.1,0.1,0.1,0.2,0.2,0.3c0,0,0,0.1-0.1,0.1c0.3,0.1,0.7,0.4,1,0.9c0.5,0.7,0.7,1.5,0.4,1.7c0,0-0.1,0.1-0.1,0.1
			c0.2-0.3,0-1-0.5-1.6c-0.5-0.6-1.1-1-1.4-0.9c0,0,0,0,0,0c-0.3-0.6-1-2.1-0.8-1.4c0.1,0.6,0.4,1.2,0.6,1.6c-0.1,0.2,0,0.5,0.1,0.9
			c0.1,0.1,0.1,0.3,0.2,0.4c-0.3-0.2-0.5-0.3-0.7-0.2c0,0,0,0,0,0c-0.3-0.6-1-2.1-0.8-1.4c0.1,0.6,0.4,1.2,0.6,1.6
			c-0.1,0.3,0.1,1,0.5,1.6c0.1,0.1,0.1,0.1,0.2,0.2c0.1,0.1,0.2,0.2,0.3,0.3C21.5,16,21.3,16,21.2,16c0,0,0,0,0,0
			c-0.3-0.6-1-2.1-0.8-1.4c0.1,0.6,0.4,1.2,0.6,1.6c-0.1,0.3,0.1,1,0.5,1.6c0.1,0.1,0.2,0.3,0.3,0.4c0.3-0.1,0.8,0,1.3,0.3
			c0.1-0.3,0-1-0.5-1.6c-0.1-0.2-0.3-0.4-0.5-0.5c0.2,0.1,0.4,0.1,0.5,0.1c0.1,0.1,0.1,0.1,0.2,0.2c0.5,0.7,0.7,1.5,0.4,1.7
			c0,0-0.1,0-0.1,0c0.1,0,0.1,0.1,0.2,0.1c0.7,0.5,1.2,1.2,0.9,1.5c0,0-0.1,0.1-0.1,0.1c0.1-0.4-0.3-0.9-1-1.3
			c-0.6-0.4-1.3-0.6-1.6-0.4c0,0,0,0,0,0c-0.5-0.5-1.6-1.7-1.2-1c0.3,0.5,0.8,1,1.1,1.3c0,0.4,0.4,0.9,1,1.3
			c0.4,0.3,0.9,0.4,1.2,0.5c0.1,0.1,0.1,0.1,0.2,0.2c0.3-0.1,0.8,0,1.3,0.1c0.8,0.3,1.4,0.8,1.3,1.2c0,0,0,0.1-0.1,0.1
			c0-0.4-0.6-0.8-1.3-1c-0.7-0.2-1.4-0.2-1.7,0.1c0,0,0,0,0,0c-0.6-0.3-2-1.1-1.5-0.6c0.4,0.4,1,0.7,1.4,0.9c0.1,0.3,0.6,0.7,1.3,1
			c0.5,0.2,1,0.2,1.3,0.1c0,0,0,0,0.1,0c0.3-0.1,0.6-0.1,0.9-0.1c0.1,0,0.1,0,0.2,0c0,0.1,0,0.2,0.1,0.3c-0.1,0-0.1,0-0.2,0
			c-0.8,0-1.4,0.2-1.6,0.5c0,0,0,0,0,0c-0.7-0.1-2.3-0.5-1.6-0.2c0.5,0.3,1.2,0.4,1.6,0.5c0.2,0.3,0.8,0.5,1.5,0.6
			c0.4,0,0.8-0.1,1.1-0.2c0.5,0.4,1.2,0.6,1.6,0.3c0.2-0.1,0.3-0.3,0.3-0.5c0.3,0,0.6,0,0.8,0c0,0.1,0.1,0.2,0.2,0.2
			c0.4,0.6,1.1,0.8,1.5,0.5c0.3-0.2,0.3-0.8,0.1-1.2c0.2-0.1,0.4-0.2,0.5-0.3c0.4,0.5,1.1,0.7,1.4,0.5c0.4-0.3,0.3-1-0.1-1.5
			c0,0,0,0-0.1-0.1c0,0,0.1-0.1,0.1-0.1c0.4,0.3,0.9,0.4,1.2,0.2c0.4-0.3,0.3-1-0.1-1.5c0,0-0.1-0.1-0.1-0.1c0,0,0.1,0,0.1-0.1
			c0.5-0.4,0.5-1.2,0-1.9c0.3,0.1,0.6,0,0.8-0.1c0.5-0.3,0.5-1.2,0-1.9c0-0.2,0.1-0.4,0.1-0.7c0-0.7-0.2-1.4-0.5-1.6
			c-0.1-0.4-0.2-1.1-0.4-1.6c-0.3-0.7,0,0.9,0.1,1.6c0,0,0,0,0,0c-0.2,0.1-0.4,0.5-0.5,0.9c0.3,0.2,0.6,0.4,0.9,0.7
			c0,0.1,0.1,0.1,0.1,0.2c-0.6-0.7-1.4-0.9-1.9-0.5c-0.2,0.2-0.4,0.5-0.4,0.8c-0.2-0.5-0.1-1,0.2-1.2c0.2-0.1,0.5-0.2,0.7-0.1
			c-0.1-0.2-0.2-0.4-0.3-0.6c0.2-0.3,0.3-0.9,0.1-1.6c-0.2-0.7-0.6-1.3-1-1.3c-0.2-0.4-0.5-1-0.9-1.4c-0.5-0.6,0.3,0.9,0.6,1.5
			c0,0,0,0,0,0c-0.3,0.2-0.3,0.9-0.1,1.7c0.2,0.7,0.6,1.3,1,1.3c0,0-0.1,0.1-0.1,0.1c-0.4,0.1-0.9-0.5-1.1-1.3
			c-0.1-0.4-0.2-0.8-0.1-1.1c-0.1-0.1-0.3-0.2-0.4-0.4c0,0,0,0,0,0c-0.1-0.7-0.5-1.3-0.8-1.4c-0.1-0.4-0.4-1-0.7-1.5
			C30,8,30.7,9.6,30.9,10.2c0,0,0,0,0,0c-0.2,0.1-0.3,0.4-0.3,0.7c-0.1-0.1-0.1-0.2-0.2-0.3c0,0,0-0.1,0-0.1c0,0-0.1-0.1-0.1-0.1
			c0,0-0.1-0.1-0.1-0.1c-0.4-0.6-1-1-1.4-0.9c-0.3-0.3-0.8-0.8-1.3-1c-0.7-0.4,0.6,0.7,1.1,1.2c0,0,0,0,0,0c-0.1,0.2-0.1,0.4,0,0.7
			c-0.1-0.1-0.2-0.2-0.3-0.3c0-0.1,0-0.2,0.1-0.3c-0.3-0.1-0.7-0.1-1-0.1c-0.3-0.3-0.8-0.7-1.2-0.9C25.6,8.3,26.4,9,27,9.6
			c-0.3,0-0.6,0-0.8,0.1c-0.3-0.3-0.6-0.4-0.9-0.4c-0.3-0.3-0.8-0.8-1.3-1c-0.1,0-0.2-0.1-0.2-0.1C23.6,8.1,24.5,9,25,9.4"/>
	</defs>
	<clipPath id="SVGID_2_">
		<use xlink:href="#SVGID_1_"  style="overflow:visible;"/>
	</clipPath>
	
		<linearGradient id="SVGID_3_" gradientUnits="userSpaceOnUse" x1="0" y1="70.3814" x2="1" y2="70.3814" gradientTransform="matrix(11.8426 15.7157 -15.7157 11.8426 1127.9286 -825.4009)">
		<stop  offset="0" style="stop-color:#DB2133"/>
		<stop  offset="0.8437" style="stop-color:#F2932A"/>
		<stop  offset="1" style="stop-color:#F7A521"/>
	</linearGradient>
	<polygon class="st0" points="11.7,14.1 25.8,32.9 44.6,18.8 30.4,0 	"/>
</g>
<g>
	<defs>
		<path id="SVGID_4_" d="M41.5,18.2c0,0-0.1,0-0.1-0.1c0,0.1-0.1,0.3-0.1,0.4c-0.4,0.6-0.5,1.3-0.1,1.5c0.4,0.3,1.1-0.1,1.6-0.7
			c0.2-0.2,0.3-0.5,0.4-0.7c0.2-0.4,0.1-0.8-0.1-1c-0.1-0.1-0.2-0.1-0.3-0.1C42.3,17.6,41.9,17.8,41.5,18.2 M34.3,30.9
			c0.4-0.6,1.1-0.8,1.4-0.6c0.2,0.2,0.3,0.5,0.1,0.9c0-0.3-0.1-0.5-0.3-0.6c-0.3-0.3-0.9-0.1-1.4,0.4C34.3,31,34.3,30.9,34.3,30.9
			 M32.3,29.8c0.4-0.6,1.1-0.8,1.4-0.6c0.2,0.2,0.3,0.5,0.1,0.9c0-0.3-0.1-0.5-0.3-0.6c-0.4-0.3-0.9-0.1-1.4,0.4
			C32.2,29.9,32.3,29.8,32.3,29.8 M37.2,30c0.6-0.8,1.4-1.1,1.9-0.8c0.3,0.2,0.4,0.7,0.2,1.2c0-0.3-0.1-0.6-0.4-0.8
			c-0.5-0.4-1.3-0.1-1.9,0.5C37.1,30.1,37.1,30,37.2,30 M35.2,28.8c0.6-0.8,1.4-1.1,1.9-0.8c0.3,0.2,0.4,0.7,0.2,1.2
			c0-0.3-0.1-0.6-0.4-0.8c-0.5-0.4-1.3-0.1-1.9,0.5C35.2,28.9,35.2,28.9,35.2,28.8 M31.2,28.3c0.4-0.6,1.1-0.8,1.4-0.6
			c0.2,0.2,0.3,0.5,0.1,0.9c0-0.3-0.1-0.5-0.3-0.6c-0.4-0.3-0.9-0.1-1.4,0.4C31.1,28.4,31.1,28.3,31.2,28.3 M39.1,27.8
			c0.8-0.6,1.7-0.6,2-0.2c0.2,0.3,0.1,0.8-0.2,1.2c0.1-0.3,0.1-0.6-0.1-0.9c-0.3-0.5-1.2-0.5-1.9-0.1C39,27.9,39,27.9,39.1,27.8
			 M33.2,27.7c0.6-0.8,1.4-1.1,1.9-0.8c0.3,0.2,0.4,0.7,0.2,1.2c0-0.3-0.1-0.6-0.4-0.8c-0.5-0.4-1.3-0.1-1.9,0.5
			C33.1,27.8,33.1,27.8,33.2,27.7 M39.9,26.4c0.6-0.8,1.4-1.1,1.9-0.8c0.3,0.2,0.4,0.7,0.2,1.2c0-0.3-0.1-0.6-0.4-0.8
			c-0.5-0.4-1.3-0.1-1.9,0.5C39.8,26.5,39.8,26.5,39.9,26.4 M36.7,26.3c0.6-0.8,1.4-1.1,1.9-0.8c0.3,0.2,0.4,0.7,0.2,1.2
			c0-0.3-0.1-0.6-0.3-0.8c-0.5-0.4-1.3-0.1-1.9,0.5C36.6,26.4,36.6,26.3,36.7,26.3 M31.3,25.9c0.6-0.8,1.4-1.1,1.9-0.8
			c0.3,0.2,0.4,0.7,0.2,1.2c0-0.3-0.1-0.6-0.4-0.8c-0.5-0.4-1.3-0.1-1.9,0.5C31.2,26,31.3,25.9,31.3,25.9 M33.8,25.7
			c0.6-0.8,1.4-1.1,1.9-0.8c0.3,0.2,0.4,0.7,0.2,1.2c0-0.3-0.1-0.6-0.4-0.8c-0.5-0.4-1.3-0.1-1.9,0.5C33.7,25.8,33.7,25.8,33.8,25.7
			 M40.2,24.6c0.8-0.6,1.7-0.6,2.1-0.2c0.2,0.3,0.1,0.8-0.2,1.2c0.1-0.3,0.1-0.6-0.1-0.9c-0.3-0.5-1.2-0.5-1.9-0.1
			C40.1,24.7,40.2,24.7,40.2,24.6 M36,24.6c0.6-0.8,1.4-1.1,1.9-0.8c0.3,0.2,0.4,0.7,0.2,1.2c0-0.3-0.1-0.6-0.4-0.8
			c-0.5-0.4-1.3-0.1-1.9,0.5C35.9,24.7,36,24.6,36,24.6 M43.1,24.4c-0.2-0.2-0.2-0.6,0-1c0.1,0,0.3-0.1,0.4-0.2
			c-0.3,0.5-0.4,1-0.3,1.3C43.2,24.4,43.1,24.4,43.1,24.4 M33.6,23.4c0.6-0.8,1.4-1.1,1.9-0.8c0.3,0.2,0.4,0.7,0.2,1.2
			c0-0.3-0.1-0.6-0.4-0.8c-0.5-0.4-1.3-0.1-1.9,0.5C33.5,23.5,33.5,23.4,33.6,23.4 M38.7,23.1c0.6-0.8,1.4-1.1,1.9-0.8
			c0.3,0.2,0.4,0.7,0.2,1.2c0-0.3-0.1-0.6-0.4-0.8c-0.5-0.4-1.3-0.1-1.9,0.5C38.7,23.2,38.7,23.2,38.7,23.1 M34,22.3
			c0.6-0.8,1.4-1.1,1.9-0.8c0.3,0.2,0.4,0.7,0.2,1.2c0-0.3-0.1-0.6-0.4-0.8c-0.5-0.4-1.3-0.1-1.9,0.5C33.9,22.4,33.9,22.4,34,22.3
			 M38.6,21.6c0.6-0.8,1.4-1.1,1.9-0.8c0.3,0.2,0.4,0.7,0.2,1.2c0-0.3-0.1-0.6-0.4-0.8C39.9,20.9,39.2,21.1,38.6,21.6
			c0.1,0.3,0.1,0.6,0,1c0-0.3-0.1-0.6-0.4-0.8c-0.5-0.4-1.3-0.1-1.9,0.5c0-0.1,0.1-0.1,0.1-0.2c0.6-0.8,1.4-1.1,1.9-0.8
			C38.5,21.4,38.5,21.5,38.6,21.6C38.6,21.6,38.6,21.6,38.6,21.6 M38.9,17.9c0,0,0.1,0,0.1,0.1c0.3,0.2,0.1,1-0.4,1.7
			c-0.1,0.1-0.1,0.2-0.2,0.2c0,0.1,0,0.2-0.1,0.3c0-0.3-0.1-0.6-0.4-0.8c-0.4-0.3-1.1-0.2-1.6,0.3c0.2,0.3,0.2,0.7,0.1,1.1
			c0-0.3-0.1-0.6-0.3-0.8c-0.5-0.4-1.3-0.1-1.9,0.5c0-0.1,0.1-0.1,0.1-0.2c0.6-0.8,1.4-1.1,1.9-0.8c0,0,0.1,0,0.1,0.1
			c0.6-0.7,1.4-1,1.8-0.7c0.1,0.1,0.2,0.3,0.3,0.5C38.9,18.9,39,18.2,38.9,17.9 M42.2,16.3c-0.5,0.3-1,0.7-1.3,1
			c-0.2,0-0.6,0.1-0.9,0.4c-0.3,0-0.6-0.1-0.8-0.1c0.6-0.5,1.4-1.2,0.8-0.9c-0.5,0.2-0.9,0.6-1.2,0.9c-0.3,0-0.7,0.1-1,0.1
			c0,0.1,0.1,0.2,0.1,0.3c-0.1,0.1-0.2,0.2-0.3,0.3c0.1-0.3,0.1-0.6,0-0.7c0,0,0,0,0,0c0.5-0.5,1.8-1.5,1.1-1.2
			c-0.5,0.3-1,0.7-1.3,1c-0.4,0-0.9,0.3-1.4,0.9c0,0-0.1,0.1-0.1,0.1c0,0-0.1,0.1-0.1,0.1c0,0,0,0.1,0,0.1c-0.1,0.1-0.1,0.2-0.2,0.3
			c0-0.3-0.2-0.6-0.3-0.7c0,0,0,0,0,0c0.3-0.6,0.9-2.2,0.4-1.5c-0.3,0.5-0.6,1.1-0.7,1.5c-0.3,0.1-0.7,0.7-0.8,1.4c0,0,0,0,0,0
			c-0.1,0.1-0.3,0.2-0.4,0.4c0,0.3,0,0.7-0.1,1.1c-0.3,0.8-0.8,1.4-1.1,1.3c0,0-0.1,0-0.1-0.1c0.4,0,0.8-0.6,1-1.3
			c0.2-0.7,0.2-1.4-0.1-1.7c0,0,0,0,0,0c0.3-0.6,1.1-2.1,0.6-1.5c-0.4,0.4-0.7,1.1-0.9,1.4c-0.3,0.1-0.7,0.6-1,1.3
			c-0.2,0.7-0.2,1.4,0.1,1.6c-0.1,0.2-0.2,0.4-0.3,0.6c0.3-0.1,0.5-0.1,0.7,0.1c0.3,0.2,0.4,0.7,0.2,1.2c0-0.3-0.1-0.6-0.4-0.8
			c-0.5-0.4-1.3-0.1-1.9,0.5c0-0.1,0.1-0.1,0.1-0.2c0.3-0.3,0.6-0.6,0.9-0.7c-0.1-0.5-0.3-0.8-0.6-0.9c0,0,0,0,0,0
			c0.1-0.7,0.4-2.3,0.1-1.6c-0.2,0.5-0.3,1.2-0.4,1.6C30.2,22.3,30,23,30,23.7c0,0.2,0,0.5,0.1,0.7c-0.4,0.7-0.4,1.5,0,1.9
			c0.2,0.2,0.5,0.2,0.8,0.1c-0.5,0.7-0.5,1.6,0,1.9c0,0,0.1,0.1,0.1,0.1c0,0-0.1,0.1-0.1,0.1c-0.4,0.6-0.5,1.3-0.1,1.5
			c0.3,0.2,0.8,0.1,1.2-0.2c0,0,0.1,0.1,0.1,0.1c0,0,0,0-0.1,0.1c-0.4,0.6-0.5,1.3-0.1,1.5c0.4,0.3,1,0.1,1.4-0.5
			c0.2,0.1,0.4,0.2,0.5,0.3c-0.2,0.5-0.2,1,0.1,1.2c0.4,0.3,1,0.1,1.5-0.5c0.1-0.1,0.1-0.2,0.2-0.2c0.3,0,0.5,0,0.8,0
			c0.1,0.2,0.2,0.4,0.3,0.5c0.4,0.3,1,0.2,1.6-0.3c0.3,0.1,0.7,0.2,1.1,0.2c0.7,0,1.4-0.2,1.5-0.6c0.4-0.1,1.1-0.2,1.6-0.5
			c0.7-0.3-0.9,0-1.6,0.2c0,0,0,0,0,0c-0.2-0.3-0.8-0.6-1.6-0.5c-0.1,0-0.1,0-0.2,0c0-0.1,0-0.2,0.1-0.3c0,0,0.1,0,0.2,0
			c0.3,0,0.6,0,0.9,0.1c0,0,0,0,0.1,0c0.3,0.1,0.8,0.1,1.3-0.1c0.7-0.2,1.2-0.6,1.3-1c0.4-0.2,1-0.5,1.4-0.9
			c0.6-0.5-0.9,0.3-1.5,0.6c0,0,0,0,0,0C42.7,29,42,29,41.3,29.2c-0.7,0.2-1.3,0.7-1.3,1c0,0-0.1-0.1-0.1-0.1
			c-0.1-0.4,0.5-0.9,1.3-1.2c0.5-0.1,0.9-0.2,1.3-0.1c0.1-0.1,0.1-0.1,0.2-0.2c0.3,0,0.8-0.2,1.2-0.5c0.6-0.4,1-0.9,1-1.3
			c0.3-0.3,0.8-0.8,1.1-1.3c0.4-0.7-0.8,0.5-1.2,1c0,0,0,0,0,0c-0.3-0.2-1,0-1.6,0.4c-0.6,0.4-1.1,1-1,1.3c0,0-0.1-0.1-0.1-0.1
			c-0.2-0.3,0.2-1,0.9-1.5c0.1,0,0.1-0.1,0.2-0.1c0,0-0.1,0-0.1,0c-0.3-0.2-0.1-1,0.4-1.7c0.1-0.1,0.1-0.1,0.2-0.2
			c0.1,0,0.3,0,0.5-0.1c-0.2,0.1-0.3,0.3-0.5,0.5c-0.5,0.6-0.6,1.2-0.5,1.6c0.5-0.3,1-0.4,1.3-0.3c0.1-0.1,0.2-0.2,0.3-0.4
			c0.4-0.6,0.6-1.2,0.5-1.6c0.2-0.4,0.5-1,0.6-1.6c0.2-0.8-0.5,0.7-0.8,1.4c0,0,0,0,0,0c-0.1,0-0.3,0-0.5,0.1
			c0.1-0.1,0.2-0.2,0.3-0.3c0.1-0.1,0.1-0.1,0.2-0.2c0.4-0.6,0.6-1.2,0.5-1.6c0.2-0.4,0.5-1,0.6-1.6c0.2-0.8-0.5,0.7-0.8,1.4
			c0,0,0,0,0,0c-0.2,0-0.4,0-0.7,0.2c0.1-0.1,0.1-0.3,0.2-0.4c0.1-0.4,0.2-0.7,0.1-0.9c0.2-0.4,0.5-1,0.6-1.6
			c0.2-0.8-0.5,0.7-0.8,1.4c0,0,0,0,0,0c-0.4-0.1-0.9,0.3-1.4,0.9c-0.5,0.6-0.7,1.3-0.5,1.6c0,0-0.1,0-0.1-0.1
			c-0.3-0.2-0.1-1,0.4-1.7c0.3-0.4,0.7-0.7,1-0.9c0,0,0-0.1-0.1-0.1c0.1-0.1,0.1-0.2,0.2-0.3c0.4-0.6,0.6-1.2,0.5-1.6
			c0.2-0.4,0.5-1,0.6-1.6c0.2-0.8-0.5,0.7-0.8,1.4c0,0,0,0,0,0c-0.4-0.1-0.9,0.3-1.4,0.9c-0.5,0.6-0.7,1.3-0.5,1.6
			c0,0-0.1,0-0.1-0.1c-0.2-0.1-0.2-0.5-0.1-0.8c-0.5,0.5-1,0.7-1.3,0.5c-0.2-0.2-0.3-0.6-0.1-1.1c-0.5,0.6-1.1,0.9-1.4,0.7
			c0,0-0.1-0.1-0.1-0.1c0.4,0.1,0.9-0.3,1.4-0.9c0.5-0.6,0.7-1.3,0.5-1.6c0,0,0,0,0,0c0.4-0.4,1.4-1.3,1.3-1.3
			C42.3,16.2,42.3,16.2,42.2,16.3"/>
	</defs>
	<clipPath id="SVGID_5_">
		<use xlink:href="#SVGID_4_"  style="overflow:visible;"/>
	</clipPath>
	
		<linearGradient id="SVGID_6_" gradientUnits="userSpaceOnUse" x1="0" y1="70.3814" x2="1" y2="70.3814" gradientTransform="matrix(-11.8426 15.7157 15.7157 11.8426 -1061.8276 -817.3118)">
		<stop  offset="0" style="stop-color:#DB2133"/>
		<stop  offset="0.8437" style="stop-color:#F2932A"/>
		<stop  offset="1" style="stop-color:#F7A521"/>
	</linearGradient>
	<polygon class="st1" points="54.4,22.2 40.3,41 21.5,26.9 35.7,8.1 	"/>
</g>
<g>
	<defs>
		<path id="SVGID_7_" d="M9.2,24.8c-0.2,0-0.3,0-0.4,0c0,0.1,0,0.1,0,0.2c-0.7,0.3-1.1,0.8-1,1.1c0.1,0.3,0.4,0.4,0.9,0.4
			c0.2,0,0.5,0,0.8-0.1c0.8-0.2,1.3-0.8,1.2-1.2c-0.1-0.3-0.5-0.5-0.9-0.5C9.6,24.7,9.4,24.8,9.2,24.8 M13.1,28.2
			c0.5,0,0.9,0.1,1,0.4c0,0,0,0.1,0,0.1c-0.2-0.2-0.7-0.3-1.3-0.2C12.9,28.4,13,28.3,13.1,28.2 M15.6,27.7c-0.2-0.6,0.5-1.2,1.4-1.5
			c0.1,0,0.1,0,0.2-0.1c-0.8,0.3-1.3,1-1.2,1.6c0.1,0.3,0.3,0.5,0.7,0.6C16.2,28.3,15.8,28.1,15.6,27.7 M17.8,27.8
			c-0.3-0.5,0-1.3,0.8-1.9c0.1,0,0.1-0.1,0.2-0.1c-0.7,0.6-1,1.4-0.6,1.9c0.2,0.2,0.5,0.4,0.8,0.4c-0.2,0.1-0.3,0.1-0.5,0.1
			C18.2,28.1,17.9,28,17.8,27.8 M14.4,27.8c-0.3-0.5,0-1.3,0.8-1.9c0.1,0,0.1-0.1,0.2-0.1c-0.7,0.6-1,1.4-0.6,1.8
			c0.2,0.2,0.5,0.4,0.8,0.4c-0.2,0-0.3,0.1-0.5,0.1C14.8,28.1,14.5,28,14.4,27.8 M19.9,26.4c-0.2-0.6,0.5-1.2,1.4-1.5
			c0.1,0,0.1,0,0.2-0.1c-0.8,0.3-1.3,1-1.2,1.6c0.1,0.3,0.3,0.5,0.7,0.6C20.5,27,20,26.8,19.9,26.4 M12.9,25.5
			c-0.2-0.6,0.5-1.2,1.4-1.5c0.1,0,0.1,0,0.2-0.1c-0.8,0.3-1.3,1-1.2,1.6c0.1,0.3,0.3,0.5,0.7,0.6C13.5,26.1,13,25.9,12.9,25.5
			 M16.6,24.7c-0.2-0.6,0.5-1.2,1.4-1.5c0.1,0,0.1,0,0.2-0.1c-0.8,0.3-1.3,1-1.2,1.6c0.1,0.3,0.3,0.5,0.7,0.6
			C17.1,25.2,16.7,25,16.6,24.7 M19.5,24.2c-0.2-0.6,0.5-1.2,1.4-1.5c0.1,0,0.1,0,0.2-0.1c-0.8,0.3-1.3,1-1.2,1.6
			c0.1,0.3,0.3,0.5,0.7,0.6C20,24.8,19.6,24.6,19.5,24.2 M22.1,23.6c-0.1-0.4,0.3-0.9,1-1.1c0.1,0,0.1,0,0.2,0
			c-0.6,0.2-1,0.7-0.8,1.1c0.1,0.2,0.2,0.4,0.5,0.4C22.5,24.1,22.2,23.9,22.1,23.6 M15.2,23.5c-0.2-0.6,0.5-1.2,1.4-1.5
			c0.1,0,0.1,0,0.2-0.1c-0.8,0.3-1.3,1-1.2,1.6c0.1,0.3,0.3,0.5,0.7,0.6C15.8,24.1,15.3,23.8,15.2,23.5 M11.6,24.9
			c-0.2-0.6,0.5-1.2,1.4-1.5c0,0,0,0,0,0c-0.1-0.1-0.1-0.2-0.2-0.3c-0.2-0.6,0.5-1.2,1.4-1.5c0.1,0,0.1,0,0.2-0.1
			c-0.8,0.3-1.3,1-1.2,1.6c0.1,0.3,0.3,0.5,0.7,0.6c-0.4,0-0.7-0.1-0.9-0.3c-0.7,0.3-1.2,1-1,1.5c0.1,0.3,0.3,0.5,0.7,0.6
			C12.1,25.5,11.7,25.3,11.6,24.9 M19.1,21.9c-0.2-0.6,0.5-1.2,1.4-1.5c0.1,0,0.1,0,0.2-0.1c-0.8,0.3-1.3,1-1.2,1.6
			c0.1,0.3,0.3,0.5,0.7,0.6C19.7,22.4,19.3,22.2,19.1,21.9 M21.8,21.3c-0.1-0.4,0.3-0.9,1-1.1c0.1,0,0.1,0,0.2,0
			c-0.6,0.2-1,0.7-0.8,1.1c0.1,0.2,0.2,0.4,0.5,0.4C22.2,21.8,21.9,21.6,21.8,21.3 M17.1,21.8c-0.2-0.6,0.5-1.2,1.4-1.5
			c0.1,0,0.1,0,0.2-0.1c-0.8,0.3-1.3,1-1.2,1.6c0.1,0.3,0.3,0.5,0.7,0.6C17.6,22.4,17.2,22.1,17.1,21.8 M13.8,20.8
			c-0.2-0.6,0.5-1.2,1.4-1.5c0.1,0,0.1,0,0.2-0.1c-0.8,0.3-1.3,1-1.2,1.6c0.1,0.3,0.3,0.5,0.7,0.6C14.3,21.4,13.9,21.2,13.8,20.8
			 M14.9,20.7c-0.2-0.6,0.5-1.2,1.4-1.5c0.1,0,0.1,0,0.2-0.1c-0.8,0.3-1.3,1-1.2,1.6c0.1,0.3,0.3,0.5,0.7,0.6
			C15.5,21.3,15.1,21.1,14.9,20.7 M11,22.5c-0.2-0.1-0.3-0.2-0.3-0.4c-0.2-0.5,0.4-1.2,1.2-1.5c0,0,0-0.1,0-0.1
			c-0.2-0.6,0.5-1.2,1.4-1.5c0.1,0,0.1,0,0.2-0.1c-0.8,0.3-1.3,1-1.2,1.6c0.1,0.3,0.3,0.5,0.7,0.6c-0.5,0-0.9-0.2-1-0.5
			c-0.6,0.4-1,0.9-0.8,1.4c0.1,0.3,0.3,0.5,0.7,0.6c-0.1,0-0.2,0-0.3,0c-0.1,0-0.2,0.1-0.3,0.1c-0.8,0.3-1.6,0.2-1.7-0.2
			c0,0,0-0.1,0-0.1c0.1,0.2,0.4,0.2,0.8,0.2C10.4,22.6,10.7,22.5,11,22.5 M18.1,19.5c-0.2-0.6,0.5-1.2,1.4-1.5c0.1,0,0.1,0,0.2-0.1
			c-0.8,0.3-1.3,1-1.2,1.6c0.1,0.3,0.3,0.5,0.7,0.6C18.6,20.1,18.2,19.8,18.1,19.5 M14.5,15.7c-0.8,0.1,0.9,0.3,1.5,0.5c0,0,0,0,0,0
			c0,0.3,0.3,0.6,0.7,0.8c0.2-0.2,0.6-0.4,1-0.5c0.1,0,0.1,0,0.2-0.1c-0.8,0.3-1.3,1-1.2,1.6c0.1,0.3,0.3,0.5,0.7,0.6
			c-0.5,0-1-0.2-1.1-0.6c-0.1-0.2,0-0.5,0.2-0.7c-0.2,0-0.4,0-0.6,0.1c-0.2-0.3-0.8-0.6-1.5-0.6c-0.7,0-1.4,0.1-1.6,0.4
			c-0.4,0-1.1,0.1-1.6,0.3c-0.7,0.3,0.9,0,1.6-0.1c0,0,0,0,0,0c0.1,0.3,0.8,0.6,1.5,0.7c0.8,0,1.4-0.2,1.6-0.5c0,0,0,0.1,0,0.1
			c0,0.4-0.8,0.7-1.6,0.6c-0.4,0-0.8-0.1-1.1-0.3c-0.2,0.1-0.3,0.2-0.5,0.2c0,0,0,0,0,0c-0.7-0.1-1.4,0-1.6,0.3
			c-0.4,0-1.1,0-1.7,0.2C8.7,19.1,10.3,19,11,19c0,0,0,0,0,0c0.1,0.2,0.3,0.4,0.5,0.5c-0.1,0-0.3,0-0.4,0.1c0,0,0,0-0.1-0.1
			c0,0-0.1,0.1-0.1,0.1c0,0-0.1,0-0.1,0c-0.7,0.2-1.2,0.6-1.3,1c-0.4,0.2-1,0.5-1.4,0.9c-0.6,0.5,0.9-0.3,1.5-0.6c0,0,0,0,0,0
			c0.1,0.1,0.4,0.2,0.7,0.2c-0.1,0.1-0.3,0.1-0.4,0.2c-0.1,0-0.2-0.1-0.3-0.2c-0.2,0.3-0.3,0.6-0.5,0.9c-0.4,0.2-0.9,0.5-1.3,0.8
			c-0.5,0.4,0.5-0.1,1.1-0.4c-0.1,0.3-0.2,0.5-0.2,0.8c-0.4,0.2-0.6,0.5-0.7,0.7c-0.4,0.2-1,0.5-1.4,0.9c-0.6,0.5,0.9-0.3,1.5-0.6
			c0,0,0,0,0,0c0.2,0.3,0.9,0.3,1.7,0.1c0.7-0.2,1.3-0.7,1.3-1c0,0,0.1,0.1,0.1,0.1c0.1,0.3-0.4,0.8-1.1,1.1c0.5,0,0.9,0.2,1,0.5
			c0.1,0.4-0.3,0.8-0.9,1.1c0.4,0,0.7,0.1,0.7,0.4c0,0,0,0.1,0,0.1c-0.2-0.3-0.9-0.3-1.7-0.1S8,27.2,8,27.6c0,0,0,0,0,0
			c-0.7,0.1-2.3,0.2-1.6,0.3c0.6,0.1,1.3,0,1.7,0C8.4,28.1,9,28.2,9.8,28c0.1,0,0.2-0.1,0.3-0.1c0,0,0.1,0.1,0.1,0.1
			c0.2-0.3,0.6-0.5,1.1-0.7c0.8-0.3,1.6-0.2,1.7,0.2c0,0,0,0.1,0,0.1c-0.2-0.3-0.9-0.3-1.7-0.1c-0.7,0.2-1.3,0.7-1.3,1c0,0,0,0,0,0
			c-0.7,0.1-2.3,0.2-1.6,0.3c0.6,0.1,1.3,0,1.7,0c0.2,0.1,0.5,0.2,0.9,0.2c0.1,0,0.3,0,0.4-0.1c-0.3,0.2-0.4,0.4-0.5,0.6
			c0,0,0,0,0,0c-0.7,0.1-2.3,0.2-1.6,0.3c0.6,0.1,1.3,0,1.7,0c0.3,0.2,0.9,0.3,1.6,0.1c0.1,0,0.2-0.1,0.3-0.1
			c0.1-0.1,0.3-0.1,0.4-0.2c-0.2,0.2-0.3,0.3-0.3,0.5c0,0,0,0,0,0c-0.7,0.1-2.3,0.2-1.6,0.3c0.6,0.1,1.3,0,1.7,0
			c0.3,0.2,0.9,0.3,1.6,0.1c0.2-0.1,0.3-0.1,0.5-0.2c0-0.3,0.3-0.7,0.8-1.1c-0.3-0.2-0.9-0.3-1.7-0.1c-0.2,0.1-0.4,0.2-0.6,0.3
			c0.2-0.1,0.3-0.3,0.3-0.4c0.1,0,0.2-0.1,0.3-0.1c0.8-0.3,1.6-0.2,1.7,0.2c0,0,0,0.1,0,0.1c0,0,0.1-0.1,0.1-0.1
			c0.7-0.5,1.5-0.7,1.7-0.4c0,0,0,0.1,0.1,0.1c-0.3-0.2-1,0-1.6,0.5c-0.6,0.5-1,1-0.9,1.4c0,0,0,0,0,0c-0.6,0.3-2.1,1-1.4,0.8
			c0.6-0.1,1.2-0.4,1.6-0.6c0.3,0.1,1,0,1.6-0.5c0.4-0.3,0.7-0.7,0.8-1c0.1,0,0.2-0.1,0.3-0.1c0.1-0.3,0.2-0.7,0.5-1.1
			c0.5-0.7,1.2-1.1,1.5-0.8c0,0,0.1,0.1,0.1,0.1c-0.4-0.1-0.9,0.3-1.4,0.9c-0.5,0.6-0.7,1.3-0.5,1.6c0,0,0,0,0,0
			c-0.5,0.5-1.8,1.5-1.1,1.2c0.5-0.3,1-0.7,1.3-1c0.4,0,0.9-0.3,1.4-0.9c0.3-0.4,0.5-0.9,0.5-1.2c0,0,0,0,0.1,0
			c0-0.3,0.1-0.6,0.2-0.9c0,0,0-0.1,0.1-0.1c0.1,0,0.2,0,0.3,0c0,0.1-0.1,0.1-0.1,0.2c-0.3,0.7-0.3,1.4,0,1.7c0,0,0,0,0,0
			c-0.4,0.6-1.3,2-0.7,1.4c0.4-0.4,0.8-1,1-1.4c0.4-0.1,0.8-0.6,1.1-1.3c0.1-0.4,0.2-0.8,0.2-1.1c0.6-0.4,0.9-0.9,0.8-1.4
			c-0.1-0.2-0.2-0.3-0.3-0.5c0.1-0.3,0.2-0.5,0.2-0.8c0.1,0,0.2,0,0.3-0.1c0.7-0.2,1.1-0.7,1-1.2c-0.1-0.4-0.6-0.6-1.1-0.5
			c0-0.2-0.1-0.4-0.1-0.6c0.6-0.2,1-0.7,0.9-1.2c-0.1-0.5-0.8-0.7-1.5-0.4c0,0-0.1,0-0.1,0c0,0-0.1-0.1-0.1-0.1
			c0.5-0.3,0.7-0.7,0.6-1c-0.1-0.5-0.8-0.6-1.5-0.4c-0.1,0-0.1,0-0.1,0.1c-0.6,0.2-1,0.7-0.8,1.1c0.1,0.2,0.2,0.4,0.5,0.4
			c-0.4,0-0.7-0.2-0.8-0.4c-0.1-0.4,0.3-0.9,1-1.1c0.1,0,0.1,0,0.2,0c0-0.1,0-0.1,0-0.2c-0.2-0.6-1-0.8-1.8-0.7
			c0.2-0.3,0.2-0.5,0.1-0.8c-0.2-0.6-0.9-0.8-1.8-0.7c-0.2-0.1-0.4-0.2-0.6-0.3c-0.7-0.3-1.4-0.3-1.6-0.1c-0.4-0.1-0.9-0.2-1.5-0.2
			C14.7,15.7,14.6,15.7,14.5,15.7"/>
	</defs>
	<clipPath id="SVGID_8_">
		<use xlink:href="#SVGID_7_"  style="overflow:visible;"/>
	</clipPath>
	
		<linearGradient id="SVGID_9_" gradientUnits="userSpaceOnUse" x1="0" y1="70.3814" x2="1" y2="70.3814" gradientTransform="matrix(18.8183 -5.7533 5.7533 18.8183 -399.0766 -1297.838)">
		<stop  offset="0" style="stop-color:#DB2133"/>
		<stop  offset="0.8437" style="stop-color:#F2932A"/>
		<stop  offset="1" style="stop-color:#F7A521"/>
	</linearGradient>
	<polygon class="st2" points="7.3,37.1 29.5,30.4 23.4,10.3 1.2,17.1 	"/>
</g>
<g>
	<defs>
		<path id="SVGID_10_" d="M62,13.5c-0.1,0.2-0.2,0.5-0.2,0.7c-0.1,0.8,0.1,1.5,0.6,1.6c0.4,0.1,0.8-0.4,1-1.1
			c0.1-0.2,0.1-0.3,0.2-0.4c0,0-0.1,0-0.2-0.1c0-0.5-0.1-1-0.3-1.2c-0.1-0.1-0.2-0.1-0.3-0.2c0,0,0,0-0.1,0
			C62.4,12.9,62.2,13.1,62,13.5 M60.8,27.5c0.4,0.1,0.7,0.7,0.5,1.4c0,0.1,0,0.1,0,0.2c0.1-0.6-0.2-1.2-0.7-1.3
			c-0.2,0-0.4,0.1-0.6,0.2C60.2,27.7,60.5,27.5,60.8,27.5 M62.7,27.3c0.4,0.1,0.7,0.7,0.5,1.4c0,0.1,0,0.1,0,0.2
			c0.1-0.6-0.2-1.2-0.7-1.3c-0.2,0-0.4,0.1-0.6,0.2C62.1,27.5,62.4,27.2,62.7,27.3 M58.6,26.8c0.4,0.1,0.7,0.7,0.5,1.4
			c0,0.1,0,0.1,0,0.2c0.1-0.6-0.2-1.2-0.7-1.3c-0.2,0-0.4,0.1-0.6,0.2C58,26.9,58.3,26.7,58.6,26.8 M64.1,25c0.6,0.1,0.9,1,0.7,1.9
			c0,0.1,0,0.1,0,0.2c0.1-0.9-0.3-1.6-0.9-1.7c-0.3,0-0.6,0.1-0.8,0.3C63.4,25.2,63.7,24.9,64.1,25 M61.5,24.9
			c0.6,0.1,0.9,1,0.7,1.9c0,0.1,0,0.1,0,0.2c0.1-0.9-0.3-1.6-0.9-1.7c-0.3,0-0.6,0.1-0.8,0.3C60.7,25.1,61.1,24.9,61.5,24.9
			 M59.3,24.2c0.6,0.1,0.9,1,0.7,1.9c0,0.1,0,0.1,0,0.2c0.1-0.9-0.3-1.6-0.9-1.7c-0.3-0.1-0.6,0.1-0.8,0.3
			C58.5,24.4,58.9,24.1,59.3,24.2 M57.1,23.6c0.6,0.1,0.9,1,0.7,1.9c0,0.1,0,0.1,0,0.2c0.1-0.9-0.3-1.6-0.9-1.7
			c-0.3,0-0.6,0.1-0.8,0.3C56.3,23.8,56.7,23.5,57.1,23.6 M62.5,23.1c0.6,0.1,0.9,1,0.7,1.9c0,0.1,0,0.1,0,0.2
			c0.1-0.9-0.3-1.6-0.9-1.7c-0.3,0-0.6,0.1-0.8,0.3C61.7,23.3,62.1,23,62.5,23.1 M64.4,21.7c0.6,0.1,0.9,1,0.7,1.9
			c0,0.1,0,0.1,0,0.2c0.1-0.9-0.3-1.6-0.9-1.7c-0.3,0-0.6,0.1-0.8,0.3C63.6,21.9,64,21.6,64.4,21.7 M60.1,21.4
			c0.6,0.1,0.9,1,0.7,1.9c0,0.1,0,0.1,0,0.2c0.1-0.9-0.3-1.6-0.9-1.7c-0.3,0-0.6,0.1-0.8,0.3C59.4,21.6,59.8,21.3,60.1,21.4
			 M56.8,21c0.6-0.1,1.2,0.6,1.3,1.6c0,0.1,0,0.1,0,0.2c-0.2-0.9-0.8-1.5-1.4-1.4c-0.3,0-0.5,0.3-0.7,0.6
			C56.1,21.5,56.4,21.1,56.8,21 M61.8,20.7c0.6,0.1,0.9,1,0.7,1.9c0,0.1,0,0.1,0,0.2c0.1-0.9-0.3-1.6-0.9-1.7
			c-0.3,0-0.6,0.1-0.8,0.3C61,20.9,61.4,20.6,61.8,20.7 M64.8,20.6c0.6,0.1,0.9,1,0.7,1.9c0,0.1,0,0.1,0,0.2
			c0.1-0.9-0.3-1.6-0.9-1.7c-0.3,0-0.6,0.1-0.8,0.3C64.1,20.8,64.5,20.5,64.8,20.6 M57.8,19.2c0.6,0.1,0.9,1,0.7,1.9
			c0,0.1,0,0.1,0,0.2c0.1-0.9-0.3-1.6-0.9-1.7c-0.3,0-0.6,0.1-0.8,0.3C57,19.4,57.4,19.1,57.8,19.2 M58.3,18
			c0.6-0.1,1.2,0.6,1.3,1.6c0,0.1,0,0.1,0,0.2c-0.2-0.9-0.8-1.5-1.4-1.4c-0.3,0-0.5,0.3-0.7,0.6C57.7,18.5,57.9,18.1,58.3,18
			 M61,17.7c0.6,0.1,0.9,1,0.7,1.9c0,0.1,0,0.1,0,0.2c0.1-0.9-0.3-1.6-0.9-1.7c-0.3,0-0.6,0.1-0.8,0.3C60.2,18,60.6,17.7,61,17.7
			 M62.2,16.8c0.6,0.1,0.9,1,0.7,1.9c0,0,0,0,0,0c0.1,0,0.2-0.1,0.3,0c0.6,0.1,0.9,1,0.7,1.9c0,0.1,0,0.1,0,0.2
			c0.1-0.9-0.3-1.6-0.9-1.7c-0.3,0-0.6,0.1-0.8,0.3c0.2-0.3,0.4-0.6,0.7-0.7c0-0.8-0.3-1.5-0.9-1.6c-0.3,0-0.6,0.1-0.8,0.3
			C61.4,17,61.8,16.7,62.2,16.8 M57.8,17.4c-0.1,0-0.1,0-0.1-0.1c0.3-0.1,0.6-0.5,0.7-1.1c0,0.2,0.1,0.3,0.1,0.5
			C58.3,17.1,58.1,17.4,57.8,17.4C57.8,17.4,57.8,17.4,57.8,17.4 M64.2,17.7c0-0.1,0-0.2,0-0.3c0.1-0.9,0.6-1.5,1-1.5
			c0,0,0.1,0,0.1,0.1c-0.3,0.1-0.7,0.7-0.8,1.4c0.2-0.1,0.3-0.2,0.5-0.1c0.5,0.1,0.9,0.9,0.8,1.8c0,0,0.1,0,0.1,0
			c0.6,0.1,0.9,1,0.7,1.9c0,0.1,0,0.1,0,0.2c0.1-0.9-0.3-1.6-0.9-1.7c-0.3,0-0.6,0.1-0.8,0.3c0.2-0.4,0.5-0.7,0.9-0.7
			c0-0.7-0.4-1.3-0.9-1.4c-0.3,0-0.6,0.1-0.8,0.3C64.1,17.9,64.2,17.8,64.2,17.7 M61.7,10.8c-0.3,0.5-0.6,1.1-0.7,1.5
			c-0.3,0.1-0.7,0.7-0.8,1.4c0,0.1,0,0.2,0,0.3c0,0-0.1,0-0.1,0c0.1,0.3,0.2,0.8,0.1,1.3c-0.1,0.9-0.6,1.5-1,1.5c0,0-0.1,0-0.1-0.1
			c0.3-0.1,0.7-0.7,0.8-1.5c0.1-0.8,0-1.4-0.3-1.6c0,0,0,0,0,0c0.2-0.6,0.9-2.2,0.4-1.5c-0.3,0.5-0.6,1.1-0.7,1.5
			c-0.2,0.1-0.4,0.3-0.6,0.7c-0.1,0.1-0.1,0.3-0.1,0.4c-0.1-0.3-0.2-0.6-0.3-0.7c0,0,0,0,0,0c0.2-0.6,0.9-2.2,0.4-1.5
			c-0.3,0.5-0.6,1.1-0.7,1.5c-0.3,0.1-0.7,0.7-0.8,1.4c0,0.1,0,0.2,0,0.3c0,0.1,0,0.3,0,0.4c-0.1-0.2-0.2-0.4-0.3-0.5c0,0,0,0,0,0
			c0.2-0.6,0.9-2.2,0.4-1.5c-0.3,0.5-0.6,1.1-0.7,1.5c-0.3,0.1-0.7,0.7-0.8,1.4c0,0.2,0,0.3,0,0.5c0.3,0.2,0.5,0.6,0.7,1.2
			c0.3-0.1,0.7-0.7,0.8-1.4c0-0.2,0.1-0.5,0-0.7c0.1,0.2,0.2,0.4,0.3,0.5c0,0.1,0,0.2,0,0.3c-0.1,0.9-0.6,1.5-1,1.5c0,0-0.1,0-0.1,0
			c0,0.1,0,0.1,0,0.2c0.2,0.9,0,1.6-0.4,1.7c0,0-0.1,0-0.1,0c0.3-0.2,0.4-0.9,0.3-1.6c-0.1-0.8-0.5-1.4-0.8-1.4c0,0,0,0,0,0
			c0-0.7,0.1-2.3-0.1-1.6c-0.2,0.6-0.2,1.3-0.2,1.7c-0.3,0.2-0.4,0.9-0.3,1.6c0.1,0.5,0.3,0.9,0.5,1.2c0,0.1,0,0.2,0,0.3
			c0.3,0.2,0.6,0.5,0.8,1c0.4,0.8,0.4,1.6,0.1,1.8c0,0-0.1,0-0.1,0c0.2-0.3,0.2-1-0.2-1.7c-0.3-0.7-0.9-1.2-1.2-1.2c0,0,0,0,0,0
			c-0.2-0.7-0.6-2.3-0.6-1.5c0,0.6,0.2,1.3,0.3,1.6c-0.2,0.3-0.1,1,0.2,1.6c0.2,0.5,0.5,0.8,0.8,1c0,0,0,0,0,0.1
			c0.2,0.1,0.5,0.3,0.7,0.6c0,0,0.1,0.1,0.1,0.1c-0.1,0.1-0.1,0.2-0.2,0.2c0-0.1-0.1-0.1-0.1-0.2c-0.5-0.6-1.1-0.9-1.5-0.8
			c0,0,0,0,0,0c-0.4-0.6-1.2-2-1-1.3c0.2,0.5,0.5,1.2,0.8,1.5c-0.1,0.3,0.2,1,0.7,1.5c0.3,0.3,0.6,0.5,0.9,0.7
			c0.1,0.7,0.4,1.2,0.9,1.3c0.2,0,0.4,0,0.6-0.1c0.2,0.2,0.4,0.4,0.6,0.6c0,0.1-0.1,0.2-0.1,0.3c-0.1,0.7,0.2,1.3,0.6,1.4
			c0.4,0.1,0.8-0.3,1-0.8c0.2,0.1,0.4,0.1,0.6,0.2c-0.1,0.7,0.2,1.3,0.6,1.3c0.5,0.1,0.9-0.4,1.1-1.1c0,0,0-0.1,0-0.1
			c0.1,0,0.1,0,0.2,0c0,0.5,0.3,0.9,0.7,1c0.5,0.1,0.9-0.4,1.1-1.1c0-0.1,0-0.1,0-0.2c0,0,0.1,0,0.2,0c0.6,0.1,1.2-0.5,1.4-1.3
			c0.2,0.3,0.4,0.4,0.6,0.5c0.6,0.1,1.2-0.5,1.4-1.3c0.2-0.1,0.4-0.2,0.5-0.4c0.6-0.5,0.9-1.1,0.8-1.4c0.3-0.3,0.7-0.9,0.9-1.4
			c0.3-0.7-0.7,0.6-1.1,1.2c0,0,0,0,0,0c-0.2-0.1-0.6,0-1.1,0.2c0.1,0.3,0.1,0.7,0,1.1c0,0.1,0,0.1,0,0.2c0.1-0.9-0.3-1.6-0.9-1.7
			c-0.3,0-0.6,0.1-0.8,0.3c0.3-0.5,0.7-0.8,1-0.7c0.2,0,0.4,0.2,0.6,0.5c0.1-0.2,0.2-0.4,0.2-0.6c0.4,0,0.9-0.4,1.2-1.1
			c0.4-0.6,0.5-1.3,0.3-1.6c0.1-0.4,0.4-1.1,0.4-1.6c0.1-0.8-0.4,0.8-0.7,1.5c0,0,0,0,0,0c-0.4,0-0.9,0.4-1.3,1.1
			c-0.4,0.7-0.5,1.4-0.3,1.6c0,0-0.1,0-0.1,0c-0.3-0.2-0.3-1,0.2-1.8c0.2-0.4,0.5-0.7,0.7-0.9c0-0.2,0-0.4,0-0.5c0,0,0,0,0,0
			c0.4-0.6,0.6-1.2,0.5-1.6c0.2-0.4,0.5-1,0.6-1.6c0.1-0.8-0.5,0.8-0.8,1.4c0,0,0,0,0,0c-0.2,0-0.4,0.1-0.7,0.3
			c0-0.1,0.1-0.2,0.1-0.4c0,0,0.1,0,0.1,0c0-0.1,0-0.1,0-0.2c0,0,0-0.1,0-0.1c0.1-0.7,0-1.4-0.3-1.6c0-0.4,0-1.1-0.2-1.7
			c-0.2-0.7-0.1,0.9-0.1,1.6c0,0,0,0,0,0c-0.2,0-0.4,0.2-0.5,0.5c0-0.2,0-0.3,0-0.4c0.1-0.1,0.2-0.1,0.3-0.2
			c-0.2-0.3-0.4-0.6-0.6-0.8c0-0.4,0-1-0.2-1.5c-0.2-0.6-0.2,0.4-0.1,1.2c-0.2-0.2-0.4-0.4-0.6-0.6c0-0.4-0.1-0.8-0.3-0.9
			c0-0.4,0-1.1-0.2-1.7c0-0.1-0.1-0.2-0.1-0.2c-0.1-0.1-0.1,1.2,0,1.8c0,0,0,0,0,0c-0.3,0.1-0.7,0.7-0.8,1.5c-0.1,0.8,0,1.4,0.3,1.6
			c0,0-0.1,0-0.1,0c-0.4-0.1-0.6-0.7-0.5-1.5c-0.2,0.4-0.5,0.7-0.8,0.7c-0.4-0.1-0.6-0.6-0.6-1.3c-0.2,0.3-0.4,0.5-0.7,0.5
			c0,0-0.1,0-0.1-0.1c0.3-0.1,0.7-0.7,0.8-1.5c0.1-0.8,0-1.4-0.3-1.6c0,0,0,0,0,0c0.2-0.5,0.7-1.7,0.5-1.7
			C61.8,10.7,61.8,10.7,61.7,10.8"/>
	</defs>
	<clipPath id="SVGID_11_">
		<use xlink:href="#SVGID_10_"  style="overflow:visible;"/>
	</clipPath>
	
		<linearGradient id="SVGID_12_" gradientUnits="userSpaceOnUse" x1="0" y1="70.3921" x2="1" y2="70.3921" gradientTransform="matrix(-3.2014 19.416 -19.416 -3.2014 1429.4471 236.1785)">
		<stop  offset="0" style="stop-color:#DB2133"/>
		<stop  offset="0.8437" style="stop-color:#F2932A"/>
		<stop  offset="1" style="stop-color:#F7A521"/>
	</linearGradient>
	<polygon class="st3" points="53.3,8 49.7,29.9 68.9,33.1 72.5,11.2 	"/>
</g>
<g>
	<defs>
		<path id="SVGID_13_" d="M41.3,15.1c-0.7,0.1-1.2,0.5-1.2,0.9c0.1,0.4,0.8,0.7,1.6,0.6c0.3,0,0.5-0.1,0.8-0.2
			c0.4-0.2,0.7-0.5,0.6-0.8c0-0.1-0.1-0.2-0.1-0.3c-0.2-0.2-0.7-0.4-1.2-0.4c0-0.1,0-0.1-0.1-0.2C41.6,15,41.4,15.1,41.3,15.1
			 M30.2,20.1c1-0.1,1.8,0.3,1.9,0.8c0,0.4-0.3,0.8-0.8,1c0.3-0.2,0.4-0.5,0.4-0.8c-0.1-0.6-0.8-1-1.7-1
			C30.1,20.1,30.2,20.1,30.2,20.1 M34.2,21.4c0.1-0.6-0.5-1.2-1.3-1.5c0.1,0,0.1,0,0.2,0c1,0.2,1.6,0.8,1.5,1.4
			c-0.1,0.4-0.5,0.6-1,0.7C33.9,21.9,34.2,21.7,34.2,21.4 M38.4,20.5c0-0.3,0.3-0.5,0.7-0.7c0.1,0.1,0.3,0.1,0.4,0.2
			c-0.6,0.1-1,0.4-1.1,0.7C38.4,20.6,38.4,20.5,38.4,20.5 M34.7,19.6c1-0.1,1.8,0.3,1.9,0.8c0,0.4-0.3,0.8-0.8,1
			c0.3-0.2,0.4-0.5,0.4-0.8c-0.1-0.6-0.8-1-1.7-1C34.5,19.6,34.6,19.6,34.7,19.6 M27.6,18.6c0.7-0.1,1.3,0.2,1.4,0.6
			c0,0.3-0.2,0.6-0.6,0.7c0.2-0.2,0.3-0.4,0.3-0.6c0-0.4-0.6-0.7-1.2-0.7C27.5,18.7,27.6,18.6,27.6,18.6 M37.3,20
			c0.1-0.6-0.5-1.2-1.3-1.5c0.1,0,0.1,0,0.2,0c1,0.2,1.6,0.8,1.5,1.4c-0.1,0.4-0.5,0.6-1,0.7C37,20.5,37.2,20.3,37.3,20 M29.7,17.9
			c1-0.1,1.8,0.3,1.9,0.8c0,0.4-0.3,0.8-0.8,1c0.3-0.2,0.4-0.5,0.4-0.8c-0.1-0.6-0.8-1-1.7-1C29.6,17.9,29.7,17.9,29.7,17.9
			 M32.6,17.1c1-0.1,1.8,0.3,1.9,0.8c0,0.4-0.3,0.8-0.8,1c0.3-0.2,0.4-0.5,0.4-0.8c-0.1-0.6-0.8-1-1.7-1
			C32.4,17.1,32.5,17.1,32.6,17.1 M36.3,16.5c1-0.1,1.8,0.3,1.9,0.8c0,0.4-0.3,0.8-0.8,1c0.2-0.2,0.4-0.5,0.4-0.8
			c-0.1-0.6-0.8-1-1.7-1C36.1,16.5,36.2,16.5,36.3,16.5 M27,16.4c0.7-0.1,1.3,0.2,1.4,0.6c0,0.3-0.2,0.6-0.6,0.7
			c0.2-0.2,0.3-0.4,0.3-0.6c-0.1-0.4-0.6-0.7-1.2-0.7C26.9,16.4,26.9,16.4,27,16.4 M29.1,15.6c1-0.1,1.8,0.3,1.9,0.8
			c0,0.4-0.3,0.8-0.8,1c0.2-0.2,0.4-0.5,0.4-0.8c-0.1-0.6-0.8-1-1.7-1C29,15.6,29,15.6,29.1,15.6 M33.3,15.5c1-0.1,1.8,0.3,1.9,0.8
			c0,0.4-0.3,0.8-0.8,1c0.3-0.2,0.4-0.5,0.4-0.8c-0.1-0.6-0.8-1-1.7-1C33.2,15.5,33.3,15.5,33.3,15.5 M31,14.7
			c1-0.1,1.8,0.3,1.9,0.8c0,0.4-0.3,0.8-0.8,1c0.3-0.2,0.4-0.5,0.4-0.8c-0.1-0.6-0.8-1-1.7-1C30.8,14.7,30.9,14.7,31,14.7
			 M27.3,14.5c0.7-0.1,1.3,0.2,1.4,0.6c0,0.3-0.2,0.5-0.6,0.7c0.2-0.2,0.3-0.4,0.3-0.6c-0.1-0.4-0.6-0.7-1.2-0.7
			C27.2,14.5,27.3,14.5,27.3,14.5 M35.4,14.2c1-0.1,1.8,0.3,1.9,0.8c0,0.1,0,0.2,0,0.3c0,0,0,0,0,0c1-0.1,1.8,0.3,1.9,0.8
			c0,0.4-0.3,0.8-0.8,1c0.2-0.2,0.4-0.5,0.4-0.8c-0.1-0.6-0.7-1-1.5-1c-0.1,0.2-0.4,0.5-0.7,0.6c0.3-0.2,0.4-0.5,0.4-0.8
			c-0.1-0.6-0.8-1-1.7-1C35.3,14.2,35.3,14.2,35.4,14.2 M29.2,13c1-0.1,1.8,0.3,1.9,0.8c0,0.4-0.3,0.8-0.8,1
			c0.3-0.2,0.4-0.5,0.4-0.8c-0.1-0.6-0.8-1-1.7-1C29,13,29.1,13,29.2,13 M32.5,12.9c1-0.1,1.8,0.3,1.9,0.8c0,0.4-0.3,0.8-0.8,1
			c0.3-0.2,0.4-0.5,0.4-0.8c-0.1-0.6-0.8-1-1.7-1C32.4,12.9,32.4,12.9,32.5,12.9 M33.6,12.5c1-0.1,1.8,0.3,1.9,0.8
			c0,0.4-0.3,0.8-0.8,1c0.3-0.2,0.4-0.5,0.4-0.8c-0.1-0.6-0.8-1-1.7-1C33.4,12.5,33.5,12.5,33.6,12.5 M35.2,11.4
			c1-0.1,1.8,0.3,1.9,0.8c0,0,0,0.1,0,0.1c0.9-0.1,1.7,0.3,1.7,0.8c0,0.2,0,0.4-0.2,0.5c0.8-0.1,1.4-0.4,1.5-0.7c0,0,0,0.1,0,0.1
			c0,0.4-0.6,0.8-1.5,0.9c-0.1,0-0.2,0-0.3,0c-0.1,0.1-0.2,0.1-0.3,0.2c0.3-0.2,0.4-0.5,0.4-0.8c-0.1-0.5-0.6-0.9-1.3-1
			c0,0.3-0.3,0.6-0.8,0.8c0.2-0.2,0.4-0.5,0.4-0.8c-0.1-0.6-0.8-1-1.7-1C35.1,11.4,35.1,11.4,35.2,11.4 M32.7,9
			c-0.5,0.2-1.1,0.6-1.5,0.8c-0.3-0.1-0.9,0.2-1.5,0.7c-0.2,0.2-0.3,0.3-0.4,0.5c-0.8,0.2-1.4,0.7-1.3,1.3c0,0.3,0.2,0.5,0.5,0.7
			c-0.9,0.2-1.5,0.7-1.4,1.3c0,0.1,0,0.1,0,0.2c-0.1,0-0.1,0-0.2,0c-0.7,0.1-1.2,0.5-1.2,1c0,0.4,0.5,0.7,1,0.7c0,0.1,0,0.1,0,0.2
			c0,0-0.1,0-0.1,0c-0.7,0.1-1.2,0.5-1.2,1c0.1,0.5,0.6,0.8,1.3,0.7c0,0.2,0.1,0.4,0.2,0.6c-0.5,0.2-0.9,0.5-0.8,0.9
			c0.1,0.5,0.7,0.8,1.4,0.7c0.1,0,0.2,0,0.3-0.1c0.2,0.2,0.3,0.4,0.5,0.6c-0.1,0.2-0.2,0.4-0.1,0.6c0.1,0.5,0.6,0.9,1.3,1
			c0.1,0.3,0.3,0.6,0.6,0.9c0.5,0.5,1.1,0.8,1.5,0.7c0.3,0.2,0.9,0.6,1.5,0.8c0.7,0.3-0.7-0.6-1.2-1c0,0,0,0,0,0
			c0.1-0.3-0.1-1-0.7-1.5c-0.1-0.1-0.1-0.1-0.2-0.1c0.1,0,0.2-0.1,0.3-0.2c0,0,0.1,0.1,0.1,0.1c0.2,0.2,0.4,0.5,0.5,0.7
			c0,0,0,0,0.1,0c0.2,0.3,0.5,0.6,1,0.9c0.7,0.4,1.3,0.5,1.6,0.3c0.4,0.1,1.1,0.4,1.6,0.4c0.8,0-0.8-0.4-1.5-0.6c0,0,0,0,0,0
			c0-0.4-0.4-0.9-1.1-1.3c-0.7-0.4-1.4-0.5-1.7-0.3c0-0.1,0-0.1,0-0.1c0.2-0.3,1-0.3,1.8,0.2c0.4,0.2,0.8,0.5,1,0.8
			c0.1,0,0.2,0,0.3,0c0.2,0.2,0.7,0.4,1.2,0.5c0.7,0.2,1.4,0.1,1.6-0.2c0.4,0,1.1,0,1.7-0.1c0.8-0.2-0.9-0.2-1.6-0.2c0,0,0,0,0,0
			c-0.1-0.4-0.6-0.7-1.4-0.9s-1.4-0.1-1.7,0.2c0,0,0-0.1,0-0.1c0.1-0.4,0.9-0.5,1.7-0.3c0.1,0,0.1,0,0.2,0c0,0,0-0.1,0-0.1
			c0-0.4,0.6-0.8,1.5-0.9c0.1,0,0.2,0,0.3,0c0.1,0.1,0.2,0.2,0.4,0.3c-0.2,0-0.4,0-0.7,0c-0.8,0.1-1.4,0.4-1.5,0.7
			c0.6,0.2,1,0.4,1.1,0.7c0.2,0,0.3,0,0.5,0c0.7-0.1,1.3-0.4,1.5-0.7c0.4-0.1,1.1-0.3,1.6-0.6c0.7-0.4-0.9,0.1-1.6,0.3c0,0,0,0,0,0
			c-0.1-0.1-0.2-0.2-0.4-0.3c0.1,0,0.3,0,0.4,0c0.1,0,0.2,0,0.3,0c0.7-0.1,1.3-0.4,1.5-0.7c0.4-0.1,1.1-0.3,1.6-0.6
			c0.7-0.4-0.9,0.1-1.6,0.3c0,0,0,0,0,0c-0.1-0.2-0.3-0.3-0.7-0.4c0.1,0,0.3-0.1,0.4-0.1c0.4-0.1,0.6-0.3,0.7-0.5
			c0.4-0.1,1.1-0.3,1.6-0.6c0.7-0.4-0.9,0.1-1.6,0.3c0,0,0,0,0,0c-0.2-0.3-0.9-0.5-1.6-0.4c-0.8,0.1-1.4,0.4-1.5,0.8
			c0,0,0-0.1,0-0.1c0-0.4,0.6-0.8,1.5-0.9c0.5-0.1,1,0,1.3,0.1c0,0,0-0.1,0-0.1c0.1,0,0.2,0,0.3,0c0.7-0.1,1.3-0.4,1.5-0.7
			c0.4-0.1,1.1-0.3,1.6-0.6c0.7-0.4-0.9,0.1-1.6,0.3c0,0,0,0,0,0c-0.2-0.3-0.9-0.5-1.6-0.4c-0.8,0.1-1.4,0.4-1.5,0.8
			c0,0,0-0.1,0-0.1c0-0.2,0.2-0.5,0.5-0.6c-0.7,0-1.2-0.3-1.3-0.6c0-0.3,0.2-0.6,0.7-0.8c-0.8,0-1.4-0.2-1.5-0.5c0,0,0-0.1,0-0.1
			c0.2,0.3,0.9,0.5,1.6,0.4c0.8-0.1,1.4-0.4,1.5-0.8c0,0,0,0,0,0c0.6,0,1.9,0.2,1.8,0c0,0-0.1,0-0.2-0.1C43,14.1,42.3,14,41.9,14
			c-0.1-0.2-0.5-0.3-0.9-0.4c-0.2-0.2-0.3-0.4-0.5-0.7c0.8,0.1,1.8,0.1,1.2-0.1c-0.5-0.2-1.1-0.2-1.5-0.3c-0.2-0.2-0.5-0.4-0.8-0.6
			c0,0.1-0.1,0.2-0.2,0.3c-0.1,0-0.3,0-0.4,0c0.3-0.1,0.5-0.3,0.6-0.5c0,0,0,0,0,0c0.7,0.1,2.3,0.2,1.6,0c-0.5-0.2-1.2-0.2-1.7-0.3
			c-0.2-0.3-0.9-0.4-1.6-0.4c0,0-0.1,0-0.1,0c-0.1,0-0.1,0-0.2-0.1c0,0,0,0.1,0,0.1c-0.1,0-0.3,0.1-0.4,0.1c0.2-0.3,0.3-0.5,0.3-0.7
			c0,0,0,0,0,0c0.6-0.3,2.2-0.8,1.4-0.7c-0.6,0.1-1.2,0.3-1.6,0.5c-0.3-0.2-1,0-1.6,0.4c0,0,0,0,0,0c-0.2,0-0.4,0-0.5,0
			c-0.2,0.2-0.5,0.5-0.9,0.7c-0.8,0.4-1.6,0.4-1.8,0.1c0,0,0-0.1,0-0.1c0.3,0.2,1,0.1,1.7-0.2c0.7-0.4,1.2-0.9,1.1-1.2c0,0,0,0,0,0
			c0.7-0.2,2.3-0.6,1.5-0.6c-0.6,0-1.3,0.2-1.6,0.3c-0.3-0.2-1-0.1-1.6,0.2c-0.7,0.3-1.1,0.8-1.1,1.2c-0.2,0.1-0.4,0.1-0.6,0.2
			c0.3,0.1,0.4,0.4,0.4,0.6c0,0.4-0.3,0.8-0.8,1c0.3-0.2,0.4-0.5,0.4-0.8c-0.1-0.6-0.8-1-1.7-1c0.1,0,0.1,0,0.2,0
			c0.4,0,0.8,0,1.1,0.1c0.3-0.4,0.4-0.8,0.3-1c0,0,0,0,0,0c0.5-0.3,1.6-1.1,1.4-1.1C32.9,8.9,32.8,8.9,32.7,9"/>
	</defs>
	<clipPath id="SVGID_14_">
		<use xlink:href="#SVGID_13_"  style="overflow:visible;"/>
	</clipPath>
	
		<linearGradient id="SVGID_15_" gradientUnits="userSpaceOnUse" x1="0" y1="70.3949" x2="1" y2="70.3949" gradientTransform="matrix(-19.5463 2.2744 2.2744 19.5463 -114.9736 -1360.0209)">
		<stop  offset="0" style="stop-color:#DB2133"/>
		<stop  offset="0.8437" style="stop-color:#F2932A"/>
		<stop  offset="1" style="stop-color:#F7A521"/>
	</linearGradient>
	<polygon class="st4" points="47.6,25 25.7,27.5 23.6,9.1 45.5,6.6 	"/>
</g>
<g>
	<defs>
		<path id="SVGID_16_" d="M40.2,13.1c-0.1,0.3,0,0.6,0.3,1c0.2,0.2,0.4,0.3,0.6,0.5c0.7,0.4,1.5,0.4,1.7,0c0.1-0.3,0-0.6-0.3-1
			c-0.1-0.1-0.3-0.2-0.4-0.3c-0.1-0.1-0.2-0.2-0.3-0.3c0,0-0.1,0.1-0.1,0.1c-0.3-0.1-0.6-0.2-0.9-0.2C40.6,12.8,40.3,12.9,40.2,13.1
			 M48.3,22.1c0.3-0.5,1.2-0.5,2.1,0c0.1,0,0.1,0.1,0.2,0.1c-0.8-0.4-1.6-0.3-1.9,0.2c-0.1,0.3-0.1,0.6,0,0.9
			C48.3,22.9,48.1,22.4,48.3,22.1 M51.9,21.8c0.2-0.4,0.9-0.4,1.5,0c0,0,0.1,0.1,0.1,0.1c-0.6-0.3-1.2-0.2-1.4,0.2
			c-0.1,0.2-0.1,0.4,0,0.7C51.8,22.4,51.7,22,51.9,21.8 M46.1,22.3c-0.2-0.2-0.3-0.5-0.3-0.7c0.1-0.6,1-0.9,1.9-0.7
			c0.1,0,0.1,0,0.2,0c-0.9-0.1-1.6,0.2-1.8,0.8c-0.1,0.3,0.1,0.6,0.3,0.8C46.3,22.5,46.2,22.4,46.1,22.3 M49.6,20.3
			c0.3-0.5,1.2-0.5,2.1,0c0.1,0,0.1,0.1,0.2,0.1c-0.8-0.4-1.6-0.3-1.9,0.2c-0.1,0.3-0.1,0.6,0,0.9C49.6,21,49.5,20.6,49.6,20.3
			 M53.3,20c0.2-0.4,0.9-0.4,1.5,0c0,0,0.1,0.1,0.1,0.1c-0.6-0.3-1.2-0.2-1.4,0.2c-0.1,0.2-0.1,0.4,0,0.7
			C53.3,20.5,53.2,20.2,53.3,20 M44.4,19.9c0.3-0.5,1.2-0.5,2.1,0c0.1,0,0.1,0.1,0.2,0.1c-0.8-0.4-1.6-0.3-1.9,0.2
			c-0.1,0.3-0.1,0.6,0,0.9C44.4,20.7,44.3,20.3,44.4,19.9 M41.8,18.3c0.2,0,0.3,0,0.5,0c0.4,0.3,0.5,0.7,0.4,0.9
			c0,0-0.1,0.1-0.1,0.1C42.7,19.1,42.3,18.7,41.8,18.3 M43.8,19.8c-0.2-0.2-0.3-0.5-0.3-0.7c0.1-0.6,1-0.9,1.9-0.7
			c0.1,0,0.1,0,0.2,0.1c-0.9-0.1-1.6,0.2-1.8,0.8c-0.1,0.3,0.1,0.6,0.3,0.8C44,20,43.9,19.9,43.8,19.8 M47.3,18.5
			c0.3-0.5,1.2-0.5,2.1,0c0.1,0,0.1,0.1,0.2,0.1c-0.8-0.4-1.6-0.3-1.9,0.2c-0.1,0.3-0.1,0.6,0,0.9C47.3,19.3,47.1,18.8,47.3,18.5
			 M51.1,18.4c0.3-0.5,1.2-0.5,2.1,0c0.1,0,0.1,0.1,0.2,0.1c-0.8-0.4-1.6-0.3-1.9,0.2c-0.1,0.3-0.1,0.6,0,0.9
			C51.1,19.2,50.9,18.7,51.1,18.4 M53.7,18.1c0.2-0.4,0.9-0.4,1.5,0c0,0,0.1,0.1,0.1,0.1c-0.6-0.3-1.2-0.2-1.4,0.2
			c-0.1,0.2-0.1,0.4,0,0.7C53.7,18.7,53.6,18.4,53.7,18.1 M49.7,16.8c0.3-0.5,1.2-0.5,2.1,0c0.1,0,0.1,0.1,0.2,0.1
			c-0.8-0.4-1.6-0.3-1.9,0.2c-0.1,0.3-0.1,0.6,0,0.9C49.7,17.6,49.5,17.2,49.7,16.8 M47.2,16.7c0.3-0.5,1.2-0.5,2.1,0
			c0.1,0,0.1,0.1,0.2,0.1c-0.8-0.4-1.6-0.3-1.9,0.2c-0.1,0.3-0.1,0.6,0,0.9C47.2,17.5,47,17,47.2,16.7 M44.2,16.4
			c0.3-0.5,1.2-0.5,2.1,0c0.1,0,0.1,0.1,0.2,0.1c-0.8-0.4-1.6-0.3-1.9,0.2c-0.1,0.3-0.1,0.6,0,0.9C44.1,17.2,44,16.8,44.2,16.4
			 M52.1,16c0.3-0.5,1.2-0.5,2.1,0c0.1,0,0.1,0.1,0.2,0.1c-0.8-0.4-1.6-0.3-1.9,0.2c-0.1,0.3-0.1,0.6,0,0.9
			C52,16.8,51.9,16.3,52.1,16 M45.8,14.6c0.3-0.5,1.2-0.5,2.1,0c0.1,0,0.1,0.1,0.2,0.1c-0.8-0.4-1.6-0.3-1.9,0.2
			c-0.1,0.3-0.1,0.6,0,0.9c-0.2-0.3-0.4-0.6-0.4-0.9c-0.8-0.3-1.5-0.2-1.8,0.3c-0.1,0.3-0.1,0.6,0,0.9c-0.4-0.4-0.5-0.9-0.3-1.2
			c0.3-0.5,1.2-0.5,2.1,0c0,0,0,0,0,0C45.8,14.9,45.8,14.7,45.8,14.6 M49,14.6c0.3-0.5,1.2-0.5,2.1,0c0.1,0,0.1,0.1,0.2,0.1
			c-0.8-0.4-1.6-0.3-1.9,0.2c-0.1,0.3-0.1,0.6,0,0.9C49,15.4,48.8,14.9,49,14.6 M48.2,13.8c0.3-0.5,1.2-0.5,2.1,0
			c0.1,0,0.1,0.1,0.2,0.1c-0.8-0.4-1.6-0.3-1.9,0.2c-0.1,0.3-0.1,0.6,0,0.9C48.1,14.6,48,14.1,48.2,13.8 M45.2,13.4
			c-0.1,0-0.2-0.1-0.3-0.1c-0.8-0.4-1.2-1.1-1-1.4c0,0,0.1-0.1,0.1-0.1c0,0.2,0.1,0.5,0.4,0.7c0.2,0.2,0.4,0.4,0.7,0.5
			c0-0.2,0-0.4,0.1-0.5c0.3-0.5,1.1-0.5,1.9-0.1c0,0,0-0.1,0-0.1c0.3-0.5,1.2-0.5,2.1,0c0.1,0,0.1,0.1,0.2,0.1
			c-0.8-0.4-1.6-0.3-1.9,0.2c-0.1,0.3-0.1,0.6,0,0.9c-0.3-0.4-0.5-0.7-0.4-1.1c-0.7-0.2-1.3-0.1-1.6,0.4c-0.1,0.3-0.1,0.6,0,0.9
			C45.4,13.5,45.3,13.4,45.2,13.4 M47.6,10.5C47.6,10.5,47.5,10.6,47.6,10.5c-0.1,0.2-0.1,0.5,0,0.8c-0.1-0.1-0.2-0.2-0.3-0.2
			c0,0,0-0.1,0-0.1c-0.1,0-0.1,0-0.2,0c0,0-0.1,0-0.1-0.1c-0.7-0.4-1.3-0.5-1.6-0.3c-0.4-0.1-1.1-0.4-1.6-0.4
			c-0.8,0,0.8,0.4,1.5,0.7c0,0,0,0,0,0c0,0.2,0.1,0.4,0.3,0.7c-0.1-0.1-0.3-0.1-0.4-0.1c0-0.1-0.1-0.2-0.1-0.3
			c-0.3,0.1-0.6,0.2-1,0.3c-0.4-0.1-1-0.3-1.5-0.4c-0.7,0,0.4,0.3,1.1,0.5c-0.3,0.1-0.5,0.2-0.7,0.4c-0.4-0.1-0.8-0.1-1,0
			c-0.4-0.1-1.1-0.4-1.6-0.4c-0.8-0.1,0.8,0.4,1.5,0.6c0,0,0,0,0,0c0,0.4,0.4,0.9,1.1,1.3c0.7,0.4,1.4,0.5,1.7,0.3
			c0,0.1,0,0.1,0,0.1c-0.2,0.3-0.8,0.3-1.6-0.1c0.3,0.3,0.5,0.7,0.3,1c-0.2,0.3-0.8,0.4-1.4,0.1c0.3,0.3,0.4,0.6,0.3,0.8
			c0,0-0.1,0.1-0.1,0.1c0-0.4-0.4-0.9-1.1-1.3c-0.7-0.4-1.4-0.5-1.7-0.3c0,0,0,0,0,0c-0.5-0.4-1.8-1.5-1.3-0.9
			c0.3,0.5,0.9,0.9,1.2,1.2c0,0.4,0.4,0.9,1.1,1.2c0.1,0.1,0.2,0.1,0.3,0.2c0,0,0,0.1,0,0.1c0.3,0,0.8,0.1,1.3,0.4
			c0.8,0.4,1.2,1.1,1,1.4c0,0-0.1,0.1-0.1,0.1c0-0.4-0.4-0.9-1.1-1.3c-0.7-0.4-1.4-0.5-1.7-0.3c0,0,0,0,0,0
			c-0.5-0.4-1.8-1.5-1.3-0.9c0.3,0.5,0.9,0.9,1.2,1.2c0,0.2,0.2,0.5,0.4,0.8c0.1,0.1,0.2,0.2,0.3,0.3c-0.3-0.1-0.6,0-0.7,0.1
			c0,0,0,0,0,0c-0.5-0.4-1.8-1.5-1.3-0.9c0.3,0.5,0.9,0.9,1.2,1.2c0,0.4,0.4,0.9,1.1,1.2c0.1,0,0.2,0.1,0.2,0.1
			c0.1,0.1,0.3,0.1,0.4,0.1c-0.2,0-0.4,0-0.5,0.1c0,0,0,0,0,0c-0.5-0.4-1.8-1.5-1.3-0.9c0.3,0.5,0.9,0.9,1.2,1.2
			c0,0.4,0.4,0.9,1.1,1.2c0.2,0.1,0.3,0.2,0.5,0.2c0.2-0.2,0.8-0.3,1.3-0.2c0-0.4-0.4-0.9-1.1-1.2c-0.2-0.1-0.4-0.2-0.6-0.3
			c0.2,0,0.4,0,0.5-0.1c0.1,0,0.2,0.1,0.2,0.1c0.8,0.4,1.2,1.1,1,1.4c0,0,0,0.1-0.1,0.1c0.1,0,0.1,0,0.2,0c0.9,0.2,1.5,0.6,1.5,1
			c0,0,0,0.1-0.1,0.1c-0.1-0.3-0.7-0.7-1.5-0.8c-0.8-0.1-1.4,0-1.6,0.3c0,0,0,0,0,0c-0.6-0.2-2.2-0.9-1.5-0.4
			c0.5,0.3,1.1,0.6,1.5,0.7c0.1,0.3,0.7,0.7,1.4,0.8c0.5,0.1,1,0.1,1.3-0.1c0.1,0,0.2,0.1,0.2,0.1c0.3-0.2,0.7-0.3,1.2-0.4
			c0.9-0.1,1.6,0.1,1.7,0.5c0,0,0,0.1,0,0.1c-0.2-0.3-0.9-0.5-1.6-0.4c-0.8,0.1-1.4,0.4-1.5,0.7c0,0,0,0,0,0c-0.7-0.1-2.3-0.2-1.6,0
			c0.5,0.2,1.2,0.2,1.7,0.3c0.2,0.3,0.9,0.4,1.6,0.4c0.5-0.1,1-0.2,1.2-0.4c0,0,0,0,0.1,0c0.2-0.2,0.5-0.3,0.8-0.5
			c0,0,0.1,0,0.1-0.1c0,0.1,0.1,0.2,0.2,0.2c-0.1,0-0.1,0-0.2,0.1c-0.7,0.3-1.2,0.8-1.2,1.1c0,0,0,0,0,0c-0.7,0.1-2.3,0.4-1.5,0.5
			c0.6,0,1.3-0.1,1.7-0.2c0.3,0.2,0.9,0.2,1.6-0.1c0.4-0.2,0.7-0.4,0.9-0.6c0.7,0.2,1.3,0.1,1.6-0.4c0.1-0.2,0.1-0.4,0.1-0.6
			c0.3-0.1,0.5-0.2,0.7-0.4c0.1,0.1,0.2,0.1,0.2,0.2c0.6,0.3,1.3,0.3,1.5-0.1c0.2-0.3,0-0.8-0.4-1.2c0.1-0.2,0.3-0.3,0.4-0.5
			c0.6,0.3,1.3,0.2,1.5-0.1c0.2-0.4-0.1-1-0.7-1.4c0,0,0,0-0.1,0c0-0.1,0-0.1,0-0.2c0.5,0.2,1,0.1,1.2-0.3c0.2-0.4-0.1-1-0.7-1.4
			c0,0-0.1,0-0.1-0.1c0,0,0.1-0.1,0.1-0.1c0.3-0.5-0.1-1.3-0.8-1.8c0.3-0.1,0.5-0.2,0.7-0.4c0.3-0.5,0-1.2-0.7-1.7
			c0-0.2-0.1-0.4-0.2-0.6c-0.3-0.7-0.7-1.2-1.1-1.2c-0.2-0.3-0.5-0.8-0.9-1.2c0-0.1-0.1-0.1-0.1-0.1c-0.6-0.5,0.4,0.8,0.7,1.4
			c0,0,0,0,0,0c-0.2,0.2-0.2,0.6-0.1,1.1c0.3,0,0.7,0.1,1.1,0.3c0.1,0,0.1,0.1,0.2,0.1c-0.8-0.4-1.6-0.3-1.9,0.2
			c-0.1,0.3-0.1,0.6,0,0.9c-0.4-0.4-0.5-0.9-0.3-1.2c0.1-0.2,0.4-0.3,0.6-0.4c-0.2-0.1-0.3-0.3-0.5-0.4c0.1-0.3-0.1-1-0.6-1.5
			c-0.5-0.6-1.1-0.9-1.4-0.8c-0.3-0.3-0.9-0.7-1.4-0.9c-0.7-0.3,0.6,0.7,1.1,1.1c0,0,0,0,0,0c-0.2,0.3,0.1,1,0.6,1.6
			c0.5,0.6,1.1,0.9,1.5,0.8c0,0-0.1,0.1-0.1,0.1c-0.3,0.3-1-0.1-1.6-0.8c-0.3-0.3-0.5-0.7-0.6-1c-0.2-0.1-0.3-0.1-0.5-0.2
			c0,0,0,0,0,0c-0.4-0.6-1-1-1.3-1c-0.3-0.3-0.8-0.8-1.3-1.1c-0.1-0.1-0.2-0.1-0.2-0.1C46.2,9.2,47.1,10.1,47.6,10.5"/>
	</defs>
	<clipPath id="SVGID_17_">
		<use xlink:href="#SVGID_16_"  style="overflow:visible;"/>
	</clipPath>
	
		<linearGradient id="SVGID_18_" gradientUnits="userSpaceOnUse" x1="0" y1="70.4041" x2="1" y2="70.4041" gradientTransform="matrix(17.1501 9.649 -9.649 17.1501 717.596 -1194.9781)">
		<stop  offset="0" style="stop-color:#DB2133"/>
		<stop  offset="0.8437" style="stop-color:#F2932A"/>
		<stop  offset="1" style="stop-color:#F7A521"/>
	</linearGradient>
	<polygon class="st5" points="30.5,21.6 51.9,33.6 63.4,13.1 42,1.1 	"/>
</g>
<g>
	<defs>
		<path id="SVGID_19_" d="M102.8,9.6c-0.2,0.2-0.3,0.6-0.1,1c0.1,0.2,0.2,0.5,0.4,0.7c0.5,0.7,1.2,1,1.6,0.7
			c0.3-0.2,0.3-0.9-0.1-1.5c-0.1-0.2-0.1-0.3-0.1-0.4c0,0-0.1,0-0.1,0.1c-0.4-0.4-0.8-0.6-1.1-0.6C103,9.5,102.9,9.5,102.8,9.6
			 M110,22.2c0.3-0.3,1,0,1.4,0.6c0,0,0.1,0.1,0.1,0.1c-0.4-0.5-1-0.7-1.4-0.4c-0.2,0.1-0.3,0.3-0.3,0.6
			C109.7,22.7,109.8,22.4,110,22.2 M112.1,21.1c0.3-0.3,1,0,1.4,0.6c0,0,0.1,0.1,0.1,0.1c-0.4-0.5-1-0.7-1.4-0.4
			c-0.2,0.1-0.3,0.3-0.3,0.6C111.8,21.7,111.8,21.3,112.1,21.1 M106.7,21.1c0.5-0.3,1.3,0,1.9,0.8c0,0.1,0.1,0.1,0.1,0.2
			c-0.6-0.7-1.4-0.9-1.9-0.5c-0.2,0.2-0.4,0.5-0.3,0.8C106.3,21.8,106.3,21.3,106.7,21.1 M108.6,19.9c0.5-0.3,1.3,0,1.9,0.8
			c0,0.1,0.1,0.1,0.1,0.2c-0.6-0.7-1.4-0.9-1.9-0.5c-0.2,0.2-0.4,0.5-0.4,0.8C108.2,20.6,108.3,20.2,108.6,19.9 M113.2,19.6
			c0.3-0.3,1,0,1.4,0.6c0,0,0.1,0.1,0.1,0.1c-0.4-0.5-1-0.7-1.4-0.4c-0.2,0.1-0.3,0.3-0.3,0.6C112.9,20.1,113,19.8,113.2,19.6
			 M104.6,19.6c0.3-0.5,1.2-0.4,2.1,0.2c0.1,0,0.1,0.1,0.2,0.1c-0.8-0.4-1.6-0.4-1.9,0.1c-0.2,0.2-0.2,0.6-0.1,0.9
			C104.5,20.4,104.4,19.9,104.6,19.6 M110.7,18.8c0.5-0.3,1.3,0,1.9,0.8c0,0.1,0.1,0.1,0.1,0.2c-0.6-0.7-1.4-0.9-1.9-0.5
			c-0.2,0.2-0.4,0.5-0.4,0.8C110.3,19.5,110.4,19.1,110.7,18.8 M104,17.6c0.5-0.3,1.3,0,1.9,0.8c0,0.1,0.1,0.1,0.1,0.2
			c-0.6-0.7-1.4-0.9-1.9-0.5c-0.2,0.2-0.4,0.5-0.4,0.8C103.6,18.3,103.7,17.8,104,17.6 M107.2,17.4c0.5-0.3,1.3,0,1.9,0.8
			c0,0.1,0.1,0.1,0.1,0.2c-0.6-0.7-1.4-0.9-1.9-0.5c-0.2,0.2-0.4,0.5-0.4,0.8C106.8,18.1,106.9,17.6,107.2,17.4 M112.5,17
			c0.5-0.3,1.3,0,1.9,0.8c0,0.1,0.1,0.1,0.1,0.2c-0.6-0.7-1.4-0.9-1.9-0.5c-0.2,0.2-0.4,0.5-0.4,0.8C112.2,17.7,112.2,17.2,112.5,17
			 M110.1,16.8c0.5-0.3,1.3,0,1.9,0.8c0,0.1,0.1,0.1,0.1,0.2c-0.6-0.7-1.4-0.9-1.9-0.5c-0.2,0.2-0.4,0.5-0.4,0.8
			C109.7,17.5,109.7,17.1,110.1,16.8 M103.5,16.4c0.3-0.5,1.2-0.4,2.1,0.2c0.1,0,0.1,0.1,0.2,0.1c-0.8-0.4-1.6-0.4-1.9,0.1
			c-0.2,0.2-0.2,0.6-0.1,0.9C103.4,17.2,103.3,16.7,103.5,16.4 M107.8,15.7c0.5-0.3,1.3,0,1.9,0.8c0,0.1,0.1,0.1,0.1,0.2
			c-0.6-0.7-1.4-0.9-1.9-0.5c-0.2,0.2-0.4,0.5-0.4,0.8C107.5,16.4,107.5,15.9,107.8,15.7 M102.2,15.1c0.1,0.1,0.3,0.2,0.4,0.2
			c0.2,0.5,0.2,0.9,0,1c0,0-0.1,0-0.1,0.1C102.7,16.1,102.5,15.6,102.2,15.1 M110.3,14.5c0.5-0.3,1.3,0,1.9,0.8
			c0,0.1,0.1,0.1,0.1,0.2c-0.6-0.7-1.4-0.9-1.9-0.5c-0.2,0.2-0.4,0.5-0.3,0.8C109.9,15.2,110,14.7,110.3,14.5 M105.1,14.2
			c0.5-0.3,1.3,0,1.9,0.8c0,0.1,0.1,0.1,0.1,0.2c-0.6-0.7-1.4-0.9-1.9-0.5c-0.2,0.2-0.4,0.5-0.4,0.8C104.7,15,104.8,14.5,105.1,14.2
			 M109.9,13.4c0.5-0.3,1.3,0,1.9,0.8c0,0.1,0.1,0.1,0.1,0.2c-0.6-0.7-1.4-0.9-1.9-0.5c-0.2,0.2-0.4,0.5-0.4,0.8
			C109.5,14.1,109.6,13.7,109.9,13.4 M105.2,12.7c0.5-0.3,1.3,0,1.9,0.8c0,0,0,0,0,0c0-0.1,0.1-0.2,0.2-0.3c0.5-0.3,1.3,0,1.9,0.8
			c0,0.1,0.1,0.1,0.1,0.2c-0.6-0.7-1.4-0.9-1.9-0.5c-0.2,0.2-0.4,0.5-0.4,0.8c-0.1-0.4-0.1-0.7,0-0.9c-0.6-0.6-1.3-0.8-1.8-0.4
			c-0.2,0.2-0.4,0.5-0.4,0.8C104.9,13.4,104.9,13,105.2,12.7 M107.3,11.9c-0.1-0.1-0.1-0.2-0.2-0.3c-0.5-0.7-0.7-1.5-0.4-1.7
			c0,0,0.1,0,0.1-0.1c-0.2,0.3,0,1,0.5,1.6c0-0.2,0.1-0.4,0.3-0.5c0.4-0.3,1.2,0,1.8,0.7c0,0,0,0,0.1-0.1c0.5-0.3,1.3,0,1.9,0.8
			c0,0.1,0.1,0.1,0.1,0.2c-0.6-0.7-1.4-0.9-1.9-0.5c-0.2,0.2-0.4,0.5-0.4,0.8c-0.1-0.4-0.1-0.9,0.1-1.1c-0.5-0.5-1.2-0.6-1.6-0.3
			c-0.2,0.2-0.4,0.5-0.4,0.8C107.4,12.1,107.4,12,107.3,11.9 M104.6,9.4C104.6,9.4,104.6,9.4,104.6,9.4c-0.2,0.3,0,1,0.5,1.6
			c0.5,0.6,1.1,1,1.4,0.9c0,0-0.1,0.1-0.1,0.1c-0.3,0.2-0.9-0.1-1.4-0.7c0.2,0.5,0.2,0.9-0.1,1.1c-0.3,0.2-0.9,0-1.3-0.5
			c0.1,0.4,0.1,0.7-0.1,0.8c0,0-0.1,0-0.1,0.1c0.2-0.3,0-1-0.5-1.6c-0.5-0.6-1.1-1-1.4-0.9c0,0,0,0,0,0c-0.3-0.6-1-2.1-0.8-1.4
			c0.1,0.6,0.4,1.2,0.6,1.6c-0.1,0.3,0.1,1,0.5,1.6c0.1,0.1,0.1,0.2,0.2,0.3c0,0,0,0.1-0.1,0.1c0.3,0.1,0.7,0.4,1,0.9
			c0.5,0.7,0.7,1.5,0.4,1.7c0,0-0.1,0.1-0.1,0.1c0.2-0.3,0-1-0.5-1.6c-0.5-0.6-1.1-1-1.4-0.9c0,0,0,0,0,0c-0.3-0.6-1-2.1-0.8-1.4
			c0.1,0.6,0.4,1.2,0.6,1.6c-0.1,0.2,0,0.5,0.1,0.9c0.1,0.1,0.1,0.3,0.2,0.4c-0.3-0.2-0.5-0.3-0.7-0.2c0,0,0,0,0,0
			c-0.3-0.6-1-2.1-0.8-1.4c0.1,0.6,0.4,1.2,0.6,1.6c-0.1,0.3,0.1,1,0.5,1.6c0.1,0.1,0.1,0.1,0.2,0.2c0.1,0.1,0.2,0.2,0.3,0.3
			c-0.2-0.1-0.4-0.1-0.5-0.1c0,0,0,0,0,0c-0.3-0.6-1-2.1-0.8-1.4c0.1,0.6,0.4,1.2,0.6,1.6c-0.1,0.3,0.1,1,0.5,1.6
			c0.1,0.1,0.2,0.3,0.3,0.4c0.3-0.1,0.8,0,1.3,0.3c0.1-0.3,0-1-0.5-1.6c-0.1-0.2-0.3-0.4-0.5-0.5c0.2,0.1,0.4,0.1,0.5,0.1
			c0.1,0.1,0.1,0.1,0.2,0.2c0.5,0.7,0.7,1.5,0.4,1.7c0,0-0.1,0-0.1,0c0.1,0,0.1,0.1,0.2,0.1c0.7,0.5,1.2,1.2,0.9,1.5
			c0,0-0.1,0.1-0.1,0.1c0.1-0.4-0.3-0.9-1-1.3c-0.6-0.4-1.3-0.6-1.6-0.4c0,0,0,0,0,0c-0.5-0.5-1.6-1.7-1.2-1c0.3,0.5,0.8,1,1.1,1.3
			c0,0.4,0.4,0.9,1,1.3c0.4,0.3,0.9,0.4,1.2,0.5c0.1,0.1,0.1,0.1,0.2,0.2c0.3-0.1,0.8,0,1.3,0.1c0.8,0.3,1.4,0.8,1.3,1.2
			c0,0,0,0.1-0.1,0.1c0-0.4-0.6-0.8-1.3-1c-0.7-0.2-1.4-0.2-1.7,0.1c0,0,0,0,0,0c-0.6-0.3-2-1.1-1.5-0.6c0.4,0.4,1,0.7,1.4,0.9
			c0.1,0.3,0.6,0.7,1.3,1c0.5,0.2,1,0.2,1.3,0.1c0,0,0,0,0.1,0c0.3-0.1,0.6-0.1,0.9-0.1c0.1,0,0.1,0,0.2,0c0,0.1,0,0.2,0.1,0.3
			c-0.1,0-0.1,0-0.2,0c-0.8,0-1.4,0.2-1.6,0.5c0,0,0,0,0,0c-0.7-0.1-2.3-0.5-1.6-0.2c0.5,0.3,1.2,0.4,1.6,0.5
			c0.2,0.3,0.8,0.5,1.5,0.6c0.4,0,0.8-0.1,1.1-0.2c0.5,0.4,1.2,0.6,1.6,0.3c0.2-0.1,0.3-0.3,0.3-0.5c0.3,0,0.6,0,0.8,0
			c0,0.1,0.1,0.2,0.2,0.2c0.4,0.6,1.1,0.8,1.5,0.5c0.3-0.2,0.3-0.8,0.1-1.2c0.2-0.1,0.4-0.2,0.5-0.3c0.4,0.5,1.1,0.7,1.4,0.5
			c0.4-0.3,0.3-1-0.1-1.5c0,0,0,0-0.1-0.1c0,0,0.1-0.1,0.1-0.1c0.4,0.3,0.9,0.4,1.2,0.2c0.4-0.3,0.3-1-0.1-1.5c0,0-0.1-0.1-0.1-0.1
			c0.1,0,0.1,0,0.1-0.1c0.5-0.4,0.5-1.2,0-1.9c0.3,0.1,0.6,0,0.8-0.1c0.5-0.3,0.5-1.2,0-1.9c0-0.2,0.1-0.4,0.1-0.7
			c0-0.7-0.2-1.4-0.5-1.6c0-0.4-0.2-1.1-0.4-1.6c-0.3-0.7,0,0.9,0.1,1.6c0,0,0,0,0,0c-0.2,0.1-0.4,0.5-0.6,0.9
			c0.3,0.2,0.6,0.4,0.9,0.7c0,0.1,0.1,0.1,0.1,0.2c-0.6-0.7-1.4-0.9-1.9-0.5c-0.2,0.2-0.4,0.5-0.4,0.8c-0.2-0.5-0.1-1,0.2-1.2
			c0.2-0.1,0.5-0.2,0.7-0.1c-0.1-0.2-0.2-0.4-0.3-0.6c0.2-0.3,0.3-0.9,0.1-1.6c-0.2-0.7-0.6-1.3-1-1.3c-0.2-0.4-0.5-1-0.9-1.4
			c-0.5-0.6,0.3,0.9,0.6,1.5c0,0,0,0,0,0c-0.3,0.2-0.3,0.9-0.1,1.7c0.2,0.7,0.6,1.3,1,1.3c0,0-0.1,0.1-0.1,0.1
			c-0.4,0.1-0.9-0.5-1.1-1.3c-0.1-0.4-0.2-0.8-0.1-1.1c-0.1-0.1-0.3-0.2-0.4-0.4c0,0,0,0,0,0c-0.1-0.7-0.5-1.3-0.8-1.4
			c-0.1-0.4-0.4-1-0.7-1.5c-0.5-0.6,0.2,0.9,0.4,1.5c0,0,0,0,0,0c-0.2,0.1-0.3,0.4-0.3,0.7c-0.1-0.1-0.1-0.2-0.2-0.3
			c0,0,0-0.1,0-0.1c0,0-0.1-0.1-0.1-0.1c0,0-0.1-0.1-0.1-0.1c-0.4-0.6-1-1-1.4-0.9c-0.3-0.3-0.8-0.8-1.3-1c-0.7-0.4,0.6,0.7,1.1,1.2
			c0,0,0,0,0,0c-0.1,0.2-0.1,0.4,0,0.7c-0.1-0.1-0.2-0.2-0.3-0.3c0-0.1,0-0.2,0.1-0.3c-0.3-0.1-0.7-0.1-1-0.1
			c-0.3-0.3-0.8-0.7-1.2-0.9c-0.6-0.3,0.2,0.4,0.8,0.9c-0.3,0-0.6,0-0.8,0.1c-0.3-0.3-0.6-0.4-0.9-0.4c-0.3-0.3-0.8-0.8-1.3-1
			c-0.1,0-0.2-0.1-0.2-0.1C103.2,8.1,104.2,9,104.6,9.4"/>
	</defs>
	<clipPath id="SVGID_20_">
		<use xlink:href="#SVGID_19_"  style="overflow:visible;"/>
	</clipPath>
	
		<linearGradient id="SVGID_21_" gradientUnits="userSpaceOnUse" x1="0" y1="70.3814" x2="1" y2="70.3814" gradientTransform="matrix(11.8426 15.7157 -15.7157 11.8426 1207.5747 -825.4009)">
		<stop  offset="0" style="stop-color:#DB2133"/>
		<stop  offset="0.8437" style="stop-color:#F2932A"/>
		<stop  offset="1" style="stop-color:#F7A521"/>
	</linearGradient>
	<polygon class="st6" points="91.3,14.1 105.5,32.9 124.2,18.8 110.1,0 	"/>
</g>
<g>
	<defs>
		<path id="SVGID_22_" d="M121.1,18.2c0,0-0.1,0-0.1-0.1c0,0.1-0.1,0.3-0.1,0.4c-0.4,0.6-0.5,1.3-0.1,1.5c0.4,0.3,1.1-0.1,1.6-0.7
			c0.2-0.2,0.3-0.5,0.4-0.7c0.2-0.4,0.1-0.8-0.1-1c-0.1-0.1-0.2-0.1-0.3-0.1C121.9,17.6,121.5,17.8,121.1,18.2 M114,30.9
			c0.4-0.6,1.1-0.8,1.4-0.6c0.2,0.2,0.3,0.5,0.1,0.9c0-0.3-0.1-0.5-0.3-0.6c-0.3-0.3-0.9-0.1-1.4,0.4C113.9,31,114,30.9,114,30.9
			 M111.9,29.8c0.4-0.6,1.1-0.8,1.4-0.6c0.2,0.2,0.3,0.5,0.1,0.9c0-0.3-0.1-0.5-0.3-0.6c-0.3-0.3-0.9-0.1-1.4,0.4
			C111.9,29.9,111.9,29.8,111.9,29.8 M116.8,30c0.6-0.8,1.4-1.1,1.9-0.8c0.3,0.2,0.4,0.7,0.2,1.2c0-0.3-0.1-0.6-0.4-0.8
			c-0.5-0.4-1.3-0.1-1.9,0.5C116.8,30.1,116.8,30,116.8,30 M114.9,28.8c0.6-0.8,1.4-1.1,1.9-0.8c0.3,0.2,0.4,0.7,0.2,1.2
			c0-0.3-0.1-0.6-0.4-0.8c-0.5-0.4-1.3-0.1-1.9,0.5C114.8,28.9,114.8,28.9,114.9,28.8 M110.8,28.3c0.4-0.6,1.1-0.8,1.4-0.6
			c0.2,0.2,0.3,0.5,0.1,0.9c0-0.3-0.1-0.5-0.3-0.6c-0.3-0.3-0.9-0.1-1.4,0.4C110.7,28.4,110.8,28.3,110.8,28.3 M118.8,27.8
			c0.8-0.6,1.7-0.6,2.1-0.2c0.2,0.3,0.1,0.8-0.2,1.2c0.1-0.3,0.1-0.6-0.1-0.9c-0.3-0.5-1.2-0.5-1.9-0.1
			C118.6,27.9,118.7,27.9,118.8,27.8 M112.8,27.7c0.6-0.8,1.4-1.1,1.9-0.8c0.3,0.2,0.4,0.7,0.2,1.2c0-0.3-0.1-0.6-0.4-0.8
			c-0.5-0.4-1.3-0.1-1.9,0.5C112.7,27.8,112.8,27.8,112.8,27.7 M119.5,26.4c0.6-0.8,1.4-1.1,1.9-0.8c0.3,0.2,0.4,0.7,0.2,1.2
			c0-0.3-0.1-0.6-0.3-0.8c-0.5-0.4-1.3-0.1-1.9,0.5C119.4,26.5,119.5,26.5,119.5,26.4 M116.3,26.3c0.6-0.8,1.4-1.1,1.9-0.8
			c0.3,0.2,0.4,0.7,0.2,1.2c0-0.3-0.1-0.6-0.4-0.8c-0.5-0.4-1.3-0.1-1.9,0.5C116.2,26.4,116.3,26.3,116.3,26.3 M110.9,25.9
			c0.6-0.8,1.4-1.1,1.9-0.8c0.3,0.2,0.4,0.7,0.2,1.2c0-0.3-0.1-0.6-0.4-0.8c-0.5-0.4-1.3-0.1-1.9,0.5
			C110.9,26,110.9,25.9,110.9,25.9 M113.4,25.7c0.6-0.8,1.4-1.1,1.9-0.8c0.3,0.2,0.4,0.7,0.2,1.2c0-0.3-0.1-0.6-0.4-0.8
			c-0.5-0.4-1.3-0.1-1.9,0.5C113.4,25.8,113.4,25.8,113.4,25.7 M119.9,24.6c0.8-0.6,1.7-0.6,2.1-0.2c0.2,0.3,0.1,0.8-0.2,1.2
			c0.1-0.3,0.1-0.6-0.1-0.9c-0.3-0.5-1.2-0.5-1.9-0.1C119.8,24.7,119.8,24.7,119.9,24.6 M115.7,24.6c0.6-0.8,1.4-1.1,1.9-0.8
			c0.3,0.2,0.4,0.7,0.2,1.2c0-0.3-0.1-0.6-0.4-0.8c-0.5-0.4-1.3-0.1-1.9,0.5C115.6,24.7,115.6,24.6,115.7,24.6 M122.8,24.4
			c-0.2-0.2-0.2-0.6,0-1c0.1,0,0.3-0.1,0.4-0.2c-0.3,0.5-0.4,1-0.3,1.3C122.8,24.4,122.8,24.4,122.8,24.4 M113.2,23.4
			c0.6-0.8,1.4-1.1,1.9-0.8c0.3,0.2,0.4,0.7,0.2,1.2c0-0.3-0.1-0.6-0.4-0.8c-0.5-0.4-1.3-0.1-1.9,0.5
			C113.1,23.5,113.2,23.4,113.2,23.4 M118.4,23.1c0.6-0.8,1.4-1.1,1.9-0.8c0.3,0.2,0.4,0.7,0.2,1.2c0-0.3-0.1-0.6-0.4-0.8
			c-0.5-0.4-1.3-0.1-1.9,0.5C118.3,23.2,118.3,23.2,118.4,23.1 M113.6,22.3c0.6-0.8,1.4-1.1,1.9-0.8c0.3,0.2,0.4,0.7,0.2,1.2
			c0-0.3-0.1-0.6-0.4-0.8c-0.5-0.4-1.3-0.1-1.9,0.5C113.5,22.4,113.6,22.4,113.6,22.3 M118.2,21.6c0.6-0.8,1.4-1.1,1.9-0.8
			c0.3,0.2,0.4,0.7,0.2,1.2c0-0.3-0.1-0.6-0.4-0.8C119.5,20.9,118.8,21.1,118.2,21.6c0.1,0.3,0.1,0.6,0,1c0-0.3-0.1-0.6-0.4-0.8
			c-0.5-0.4-1.3-0.1-1.9,0.5c0-0.1,0.1-0.1,0.1-0.2c0.6-0.8,1.4-1.1,1.9-0.8C118.1,21.4,118.2,21.5,118.2,21.6
			C118.2,21.6,118.2,21.6,118.2,21.6 M118.5,17.9c0.1,0,0.1,0,0.1,0.1c0.3,0.2,0.1,1-0.4,1.7c-0.1,0.1-0.1,0.2-0.2,0.2
			c0,0.1,0,0.2-0.1,0.3c0-0.3-0.1-0.6-0.4-0.8c-0.4-0.3-1.1-0.2-1.6,0.3c0.2,0.3,0.2,0.7,0.1,1.1c0-0.3-0.1-0.6-0.4-0.8
			c-0.5-0.4-1.3-0.1-1.9,0.5c0-0.1,0.1-0.1,0.1-0.2c0.6-0.8,1.4-1.1,1.9-0.8c0,0,0.1,0,0.1,0.1c0.6-0.7,1.4-1,1.8-0.7
			c0.1,0.1,0.2,0.3,0.3,0.5C118.5,18.9,118.7,18.2,118.5,17.9 M121.8,16.3c-0.5,0.3-1,0.7-1.3,1c-0.2,0-0.6,0.1-0.9,0.4
			c-0.3,0-0.6-0.1-0.8-0.1c0.6-0.5,1.4-1.2,0.8-0.9c-0.5,0.2-0.9,0.6-1.2,0.9c-0.3,0-0.7,0.1-1,0.1c0,0.1,0.1,0.2,0.1,0.3
			c-0.1,0.1-0.2,0.2-0.3,0.3c0.1-0.3,0.1-0.6,0-0.7c0,0,0,0,0,0c0.5-0.5,1.8-1.5,1.1-1.2c-0.5,0.3-1,0.7-1.3,1
			c-0.4,0-0.9,0.3-1.4,0.9c0,0-0.1,0.1-0.1,0.1c0,0-0.1,0.1-0.1,0.1c0,0,0,0.1,0,0.1c-0.1,0.1-0.1,0.2-0.2,0.3
			c0-0.3-0.1-0.6-0.3-0.7c0,0,0,0,0,0c0.3-0.6,0.9-2.2,0.4-1.5c-0.3,0.5-0.6,1.1-0.7,1.5c-0.3,0.1-0.7,0.7-0.8,1.4c0,0,0,0,0,0
			c-0.1,0.1-0.3,0.2-0.4,0.4c0,0.3,0,0.7-0.1,1.1c-0.3,0.8-0.8,1.4-1.1,1.3c0,0-0.1,0-0.1-0.1c0.4,0,0.8-0.6,1-1.3
			c0.2-0.7,0.2-1.4-0.1-1.7c0,0,0,0,0,0c0.3-0.6,1.1-2.1,0.6-1.5c-0.4,0.4-0.7,1.1-0.9,1.4c-0.3,0.1-0.7,0.6-1,1.3
			c-0.2,0.7-0.2,1.4,0.1,1.6c-0.1,0.2-0.2,0.4-0.3,0.6c0.3-0.1,0.5-0.1,0.7,0.1c0.3,0.2,0.4,0.7,0.2,1.2c0-0.3-0.1-0.6-0.4-0.8
			c-0.5-0.4-1.3-0.1-1.9,0.5c0-0.1,0.1-0.1,0.1-0.2c0.3-0.3,0.6-0.6,0.9-0.7c-0.1-0.5-0.3-0.8-0.6-0.9c0,0,0,0,0,0
			c0.1-0.7,0.4-2.3,0.1-1.6c-0.2,0.5-0.3,1.2-0.4,1.6c-0.3,0.2-0.5,0.8-0.5,1.6c0,0.2,0,0.5,0.1,0.7c-0.4,0.7-0.4,1.5,0,1.9
			c0.2,0.2,0.5,0.2,0.8,0.1c-0.5,0.7-0.5,1.6,0,1.9c0,0,0.1,0.1,0.1,0.1c0,0-0.1,0.1-0.1,0.1c-0.4,0.6-0.5,1.3-0.1,1.5
			c0.3,0.2,0.8,0.1,1.2-0.2c0,0,0.1,0.1,0.1,0.1c0,0,0,0-0.1,0.1c-0.4,0.6-0.5,1.3-0.1,1.5c0.4,0.3,1,0.1,1.4-0.5
			c0.2,0.1,0.4,0.2,0.5,0.3c-0.2,0.5-0.2,1,0.1,1.2c0.4,0.3,1,0.1,1.5-0.5c0.1-0.1,0.1-0.2,0.2-0.2c0.3,0,0.5,0,0.8,0
			c0.1,0.2,0.2,0.4,0.3,0.5c0.4,0.3,1,0.2,1.6-0.3c0.3,0.1,0.7,0.2,1.1,0.2c0.7,0,1.4-0.2,1.5-0.6c0.4-0.1,1.1-0.2,1.6-0.5
			c0.7-0.3-0.9,0-1.6,0.2c0,0,0,0,0,0c-0.2-0.3-0.8-0.6-1.6-0.5c-0.1,0-0.1,0-0.2,0c0-0.1,0-0.2,0.1-0.3c0.1,0,0.1,0,0.2,0
			c0.3,0,0.6,0,0.9,0.1c0,0,0,0,0.1,0c0.3,0.1,0.8,0.1,1.3-0.1c0.7-0.2,1.2-0.6,1.3-1c0.4-0.2,1-0.5,1.4-0.9
			c0.6-0.5-0.9,0.3-1.5,0.6c0,0,0,0,0,0c-0.2-0.3-0.9-0.3-1.7-0.1c-0.7,0.2-1.3,0.7-1.3,1c0,0-0.1-0.1-0.1-0.1
			c-0.1-0.4,0.5-0.9,1.3-1.2c0.5-0.1,0.9-0.2,1.3-0.1c0.1-0.1,0.1-0.1,0.2-0.2c0.3,0,0.8-0.2,1.2-0.5c0.6-0.4,1-0.9,1-1.3
			c0.3-0.3,0.8-0.8,1.1-1.3c0.4-0.7-0.8,0.5-1.2,1c0,0,0,0,0,0c-0.3-0.2-1,0-1.6,0.4c-0.6,0.4-1.1,1-1,1.3c0,0-0.1-0.1-0.1-0.1
			c-0.2-0.3,0.2-1,0.9-1.5c0.1,0,0.1-0.1,0.2-0.1c0,0-0.1,0-0.1,0c-0.3-0.2-0.1-1,0.4-1.7c0.1-0.1,0.1-0.1,0.2-0.2
			c0.1,0,0.3,0,0.5-0.1c-0.2,0.1-0.3,0.3-0.5,0.5c-0.5,0.6-0.6,1.2-0.5,1.6c0.5-0.3,1-0.4,1.3-0.3c0.1-0.1,0.2-0.2,0.3-0.4
			c0.5-0.6,0.6-1.2,0.5-1.6c0.2-0.4,0.5-1,0.6-1.6c0.2-0.8-0.5,0.7-0.8,1.4c0,0,0,0,0,0c-0.1,0-0.3,0-0.5,0.1
			c0.1-0.1,0.2-0.2,0.3-0.3c0.1-0.1,0.1-0.1,0.2-0.2c0.4-0.6,0.6-1.2,0.5-1.6c0.2-0.4,0.5-1,0.6-1.6c0.2-0.8-0.5,0.7-0.8,1.4
			c0,0,0,0,0,0c-0.2,0-0.4,0-0.7,0.2c0.1-0.1,0.1-0.3,0.2-0.4c0.1-0.4,0.2-0.7,0.1-0.9c0.2-0.4,0.5-1,0.6-1.6
			c0.2-0.8-0.5,0.7-0.8,1.4c0,0,0,0,0,0c-0.4-0.1-0.9,0.3-1.4,0.9c-0.5,0.6-0.7,1.3-0.5,1.6c0,0-0.1,0-0.1-0.1
			c-0.3-0.2-0.1-1,0.4-1.7c0.3-0.4,0.7-0.7,1-0.9c0,0,0-0.1-0.1-0.1c0.1-0.1,0.1-0.2,0.2-0.3c0.4-0.6,0.6-1.2,0.5-1.6
			c0.2-0.4,0.5-1,0.6-1.6c0.2-0.8-0.5,0.7-0.8,1.4c0,0,0,0,0,0c-0.4-0.1-0.9,0.3-1.4,0.9c-0.5,0.6-0.7,1.3-0.5,1.6
			c-0.1,0-0.1,0-0.1-0.1c-0.2-0.1-0.2-0.5-0.1-0.8c-0.5,0.5-1,0.7-1.3,0.5c-0.2-0.2-0.3-0.6-0.1-1.1c-0.5,0.6-1.1,0.9-1.4,0.7
			c0,0-0.1-0.1-0.1-0.1c0.4,0.1,0.9-0.3,1.4-0.9c0.5-0.6,0.7-1.3,0.5-1.6c0,0,0,0,0,0c0.4-0.4,1.4-1.3,1.3-1.3
			C122,16.2,121.9,16.2,121.8,16.3"/>
	</defs>
	<clipPath id="SVGID_23_">
		<use xlink:href="#SVGID_22_"  style="overflow:visible;"/>
	</clipPath>
	
		<linearGradient id="SVGID_24_" gradientUnits="userSpaceOnUse" x1="0" y1="70.3814" x2="1" y2="70.3814" gradientTransform="matrix(-11.8426 15.7157 15.7157 11.8426 -982.1815 -817.3118)">
		<stop  offset="0" style="stop-color:#DB2133"/>
		<stop  offset="0.8437" style="stop-color:#F2932A"/>
		<stop  offset="1" style="stop-color:#F7A521"/>
	</linearGradient>
	<polygon class="st7" points="134.1,22.2 119.9,41 101.2,26.9 115.3,8.1 	"/>
</g>
<g>
	<defs>
		<path id="SVGID_25_" d="M88.8,24.8c-0.2,0-0.3,0-0.4,0c0,0.1,0,0.1,0,0.2c-0.7,0.3-1.1,0.8-1,1.1c0.1,0.3,0.4,0.4,0.9,0.4
			c0.2,0,0.5,0,0.8-0.1c0.8-0.2,1.3-0.8,1.2-1.2c-0.1-0.3-0.5-0.5-0.9-0.5C89.2,24.7,89,24.8,88.8,24.8 M92.7,28.2
			c0.5,0,0.9,0.1,1,0.4c0,0,0,0.1,0,0.1c-0.2-0.2-0.7-0.3-1.3-0.2C92.5,28.4,92.6,28.3,92.7,28.2 M95.3,27.7
			c-0.2-0.6,0.5-1.2,1.4-1.5c0.1,0,0.1,0,0.2-0.1c-0.8,0.3-1.3,1-1.2,1.6c0.1,0.3,0.3,0.5,0.7,0.6C95.8,28.3,95.4,28.1,95.3,27.7
			 M97.4,27.8c-0.3-0.5,0-1.3,0.8-1.9c0.1,0,0.1-0.1,0.2-0.1c-0.7,0.6-1,1.4-0.6,1.9c0.2,0.2,0.5,0.4,0.8,0.4
			c-0.2,0.1-0.3,0.1-0.5,0.1C97.8,28.1,97.6,28,97.4,27.8 M94,27.8c-0.3-0.5,0-1.3,0.8-1.9c0.1,0,0.1-0.1,0.2-0.1
			c-0.7,0.6-1,1.4-0.6,1.8c0.2,0.2,0.5,0.4,0.8,0.4c-0.2,0-0.3,0.1-0.5,0.1C94.4,28.1,94.2,28,94,27.8 M99.6,26.4
			c-0.2-0.6,0.5-1.2,1.4-1.5c0.1,0,0.1,0,0.2-0.1c-0.8,0.3-1.3,1-1.2,1.6c0.1,0.3,0.3,0.5,0.7,0.6C100.1,27,99.7,26.8,99.6,26.4
			 M92.6,25.5C92.4,25,93,24.3,94,24c0.1,0,0.1,0,0.2-0.1c-0.8,0.3-1.3,1-1.2,1.6c0.1,0.3,0.3,0.5,0.7,0.6
			C93.1,26.1,92.7,25.9,92.6,25.5 M96.2,24.7c-0.2-0.6,0.5-1.2,1.4-1.5c0.1,0,0.1,0,0.2-0.1c-0.8,0.3-1.3,1-1.2,1.6
			c0.1,0.3,0.3,0.5,0.7,0.6C96.8,25.2,96.3,25,96.2,24.7 M99.1,24.2c-0.2-0.6,0.5-1.2,1.4-1.5c0.1,0,0.1,0,0.2-0.1
			c-0.8,0.3-1.3,1-1.2,1.6c0.1,0.3,0.3,0.5,0.7,0.6C99.7,24.8,99.2,24.6,99.1,24.2 M101.8,23.6c-0.1-0.4,0.3-0.9,1-1.1
			c0.1,0,0.1,0,0.2,0c-0.6,0.2-1,0.7-0.8,1.1c0.1,0.2,0.2,0.4,0.5,0.4C102.2,24.1,101.8,23.9,101.8,23.6 M94.9,23.5
			c-0.2-0.6,0.5-1.2,1.4-1.5c0.1,0,0.1,0,0.2-0.1c-0.8,0.3-1.3,1-1.2,1.6c0.1,0.3,0.3,0.5,0.7,0.6C95.4,24.1,95,23.8,94.9,23.5
			 M91.2,24.9c-0.2-0.6,0.5-1.2,1.4-1.5c0,0,0,0,0,0c-0.1-0.1-0.1-0.2-0.2-0.3c-0.2-0.6,0.5-1.2,1.4-1.5c0.1,0,0.1,0,0.2-0.1
			c-0.8,0.3-1.3,1-1.2,1.6c0.1,0.3,0.3,0.5,0.7,0.6c-0.4,0-0.7-0.1-0.9-0.3c-0.7,0.3-1.2,1-1,1.5c0.1,0.3,0.3,0.5,0.7,0.6
			C91.7,25.5,91.3,25.3,91.2,24.9 M98.8,21.9c-0.2-0.6,0.5-1.2,1.4-1.5c0.1,0,0.1,0,0.2-0.1c-0.8,0.3-1.3,1-1.2,1.6
			c0.1,0.3,0.3,0.5,0.7,0.6C99.3,22.4,98.9,22.2,98.8,21.9 M101.4,21.3c-0.1-0.4,0.3-0.9,1-1.1c0.1,0,0.1,0,0.2,0
			c-0.6,0.2-1,0.7-0.8,1.1c0.1,0.2,0.2,0.4,0.5,0.4C101.8,21.8,101.5,21.6,101.4,21.3 M96.7,21.8c-0.2-0.6,0.5-1.2,1.4-1.5
			c0.1,0,0.1,0,0.2-0.1c-0.8,0.3-1.3,1-1.2,1.6c0.1,0.3,0.3,0.5,0.7,0.6C97.2,22.4,96.8,22.1,96.7,21.8 M93.4,20.8
			c-0.2-0.6,0.5-1.2,1.4-1.5c0.1,0,0.1,0,0.2-0.1c-0.8,0.3-1.3,1-1.2,1.6c0.1,0.3,0.3,0.5,0.7,0.6C94,21.4,93.6,21.2,93.4,20.8
			 M94.6,20.7c-0.2-0.6,0.5-1.2,1.4-1.5c0.1,0,0.1,0,0.2-0.1c-0.8,0.3-1.3,1-1.2,1.6c0.1,0.3,0.3,0.5,0.7,0.6
			C95.1,21.3,94.7,21.1,94.6,20.7 M90.7,22.5c-0.2-0.1-0.3-0.2-0.3-0.4c-0.2-0.5,0.4-1.2,1.2-1.5c0,0,0-0.1,0-0.1
			c-0.2-0.6,0.5-1.2,1.4-1.5c0.1,0,0.1,0,0.2-0.1c-0.8,0.3-1.3,1-1.2,1.6c0.1,0.3,0.3,0.5,0.7,0.6c-0.5,0-0.9-0.2-1-0.5
			c-0.6,0.4-1,0.9-0.8,1.4c0.1,0.3,0.3,0.5,0.7,0.6c-0.1,0-0.2,0-0.3,0c-0.1,0-0.2,0.1-0.3,0.1c-0.8,0.3-1.6,0.2-1.7-0.2
			c0,0,0-0.1,0-0.1c0.1,0.2,0.4,0.2,0.8,0.2C90.1,22.6,90.4,22.5,90.7,22.5 M97.7,19.5c-0.2-0.6,0.5-1.2,1.4-1.5
			c0.1,0,0.1,0,0.2-0.1c-0.8,0.3-1.3,1-1.2,1.6c0.1,0.3,0.3,0.5,0.7,0.6C98.2,20.1,97.8,19.8,97.7,19.5 M94.2,15.7
			c-0.8,0.1,0.9,0.3,1.5,0.5c0,0,0,0,0,0c0,0.3,0.3,0.6,0.7,0.8c0.2-0.2,0.6-0.4,1-0.5c0.1,0,0.1,0,0.2-0.1c-0.8,0.3-1.3,1-1.2,1.6
			c0.1,0.3,0.3,0.5,0.7,0.6c-0.6,0-1-0.2-1.1-0.6c-0.1-0.2,0-0.5,0.2-0.7c-0.2,0-0.4,0-0.6,0.1c-0.2-0.3-0.8-0.6-1.5-0.6
			c-0.7,0-1.4,0.1-1.6,0.4c-0.4,0-1.1,0.1-1.6,0.3c-0.7,0.3,0.9,0,1.6-0.1c0,0,0,0,0,0c0.1,0.3,0.8,0.6,1.5,0.7
			c0.8,0,1.4-0.2,1.6-0.5c0,0,0,0.1,0,0.1c0,0.4-0.8,0.7-1.6,0.6c-0.4,0-0.8-0.1-1.1-0.3c-0.2,0.1-0.3,0.2-0.5,0.2c0,0,0,0,0,0
			c-0.7-0.1-1.4,0-1.6,0.3c-0.4,0-1.1,0-1.7,0.2C88.3,19.1,90,19,90.7,19c0,0,0,0,0,0c0.1,0.2,0.3,0.4,0.5,0.5c-0.1,0-0.3,0-0.4,0.1
			c0,0,0,0-0.1-0.1c0,0-0.1,0.1-0.1,0.1c0,0-0.1,0-0.1,0c-0.7,0.2-1.2,0.6-1.3,1c-0.4,0.2-1,0.5-1.4,0.9c-0.6,0.5,0.9-0.3,1.5-0.6
			c0,0,0,0,0,0c0.1,0.1,0.4,0.2,0.7,0.2c-0.1,0.1-0.3,0.1-0.4,0.2c-0.1,0-0.2-0.1-0.3-0.2c-0.2,0.3-0.3,0.6-0.5,0.9
			c-0.4,0.2-0.9,0.5-1.3,0.8c-0.5,0.4,0.5-0.1,1.1-0.4c-0.1,0.3-0.2,0.5-0.2,0.8c-0.4,0.2-0.6,0.5-0.7,0.7c-0.4,0.2-1,0.5-1.4,0.9
			c-0.6,0.5,0.9-0.3,1.5-0.6c0,0,0,0,0,0c0.2,0.3,0.9,0.3,1.7,0.1c0.7-0.2,1.3-0.7,1.3-1c0,0,0.1,0.1,0.1,0.1
			c0.1,0.3-0.4,0.8-1.1,1.1c0.5,0,0.9,0.2,1,0.5c0.1,0.4-0.3,0.8-0.9,1.1c0.4,0,0.7,0.1,0.7,0.4c0,0,0,0.1,0,0.1
			c-0.2-0.3-0.9-0.3-1.7-0.1c-0.7,0.2-1.3,0.7-1.3,1c0,0,0,0,0,0c-0.7,0.1-2.3,0.2-1.6,0.3c0.6,0.1,1.3,0,1.7,0
			c0.3,0.2,0.9,0.3,1.6,0.1c0.1,0,0.2-0.1,0.3-0.1c0,0,0.1,0.1,0.1,0.1c0.2-0.3,0.6-0.5,1.1-0.7c0.8-0.3,1.6-0.2,1.7,0.2
			c0,0,0,0.1,0,0.1c-0.2-0.3-0.9-0.3-1.7-0.1c-0.7,0.2-1.3,0.7-1.3,1c0,0,0,0,0,0c-0.7,0.1-2.3,0.2-1.6,0.3c0.6,0.1,1.3,0,1.7,0
			c0.2,0.1,0.5,0.2,0.9,0.2c0.1,0,0.3,0,0.4-0.1c-0.3,0.2-0.4,0.4-0.5,0.6c0,0,0,0,0,0c-0.7,0.1-2.3,0.2-1.6,0.3
			c0.6,0.1,1.3,0,1.7,0c0.3,0.2,0.9,0.3,1.6,0.1c0.1,0,0.2-0.1,0.3-0.1c0.1-0.1,0.3-0.1,0.4-0.2c-0.2,0.2-0.3,0.3-0.3,0.5
			c0,0,0,0,0,0c-0.7,0.1-2.3,0.2-1.6,0.3c0.6,0.1,1.3,0,1.7,0c0.3,0.2,0.9,0.3,1.6,0.1c0.2-0.1,0.3-0.1,0.5-0.2
			c0-0.3,0.3-0.7,0.8-1.1c-0.3-0.2-0.9-0.3-1.6-0.1c-0.2,0.1-0.4,0.2-0.6,0.3c0.2-0.1,0.3-0.3,0.3-0.4c0.1,0,0.2-0.1,0.3-0.1
			c0.8-0.3,1.6-0.2,1.7,0.2c0,0,0,0.1,0,0.1c0,0,0.1-0.1,0.1-0.1c0.7-0.5,1.5-0.7,1.7-0.4c0,0,0.1,0.1,0.1,0.1c-0.3-0.2-1,0-1.6,0.5
			c-0.6,0.5-1,1-0.9,1.4c0,0,0,0,0,0c-0.6,0.3-2.1,1-1.4,0.8c0.6-0.1,1.2-0.4,1.6-0.6c0.3,0.1,1,0,1.6-0.5c0.4-0.3,0.7-0.7,0.8-1
			c0.1,0,0.2-0.1,0.3-0.1c0.1-0.3,0.2-0.7,0.5-1.1c0.5-0.7,1.2-1.1,1.5-0.8c0,0,0.1,0.1,0.1,0.1c-0.4-0.1-0.9,0.3-1.4,0.9
			c-0.5,0.6-0.7,1.3-0.5,1.6c0,0,0,0,0,0c-0.5,0.5-1.8,1.5-1.1,1.2c0.5-0.3,1-0.7,1.3-1c0.4,0,0.9-0.3,1.4-0.9
			c0.3-0.4,0.5-0.9,0.5-1.2c0,0,0,0,0.1,0c0-0.3,0.1-0.6,0.2-0.9c0,0,0-0.1,0.1-0.1c0.1,0,0.2,0,0.3,0c0,0.1-0.1,0.1-0.1,0.2
			c-0.3,0.7-0.3,1.4,0,1.7c0,0,0,0,0,0c-0.4,0.6-1.3,2-0.7,1.4c0.4-0.4,0.8-1,1-1.4c0.4-0.1,0.8-0.6,1.1-1.3
			c0.1-0.4,0.2-0.8,0.2-1.1c0.6-0.4,0.9-0.9,0.8-1.4c-0.1-0.2-0.2-0.3-0.3-0.5c0.1-0.3,0.2-0.5,0.2-0.8c0.1,0,0.2,0,0.3-0.1
			c0.7-0.2,1.1-0.7,1-1.2c-0.1-0.4-0.6-0.6-1.1-0.5c0-0.2-0.1-0.4-0.1-0.6c0.6-0.2,1-0.7,0.9-1.2c-0.1-0.5-0.8-0.7-1.5-0.4
			c0,0-0.1,0-0.1,0c0,0-0.1-0.1-0.1-0.1c0.5-0.3,0.7-0.7,0.6-1c-0.1-0.5-0.8-0.6-1.5-0.4c0,0-0.1,0-0.1,0.1c-0.6,0.2-1,0.7-0.8,1.1
			c0.1,0.2,0.2,0.4,0.5,0.4c-0.4,0-0.7-0.2-0.8-0.4c-0.1-0.4,0.3-0.9,1-1.1c0.1,0,0.1,0,0.2,0c0-0.1,0-0.1,0-0.2
			c-0.2-0.6-1-0.8-1.8-0.7c0.2-0.3,0.2-0.5,0.1-0.8c-0.2-0.6-0.9-0.8-1.8-0.7c-0.2-0.1-0.4-0.2-0.6-0.3c-0.7-0.3-1.4-0.3-1.6-0.1
			c-0.4-0.1-0.9-0.2-1.5-0.2C94.3,15.7,94.3,15.7,94.2,15.7"/>
	</defs>
	<clipPath id="SVGID_26_">
		<use xlink:href="#SVGID_25_"  style="overflow:visible;"/>
	</clipPath>
	
		<linearGradient id="SVGID_27_" gradientUnits="userSpaceOnUse" x1="0" y1="70.3814" x2="1" y2="70.3814" gradientTransform="matrix(18.8183 -5.7533 5.7533 18.8183 -319.4304 -1297.838)">
		<stop  offset="0" style="stop-color:#DB2133"/>
		<stop  offset="0.8437" style="stop-color:#F2932A"/>
		<stop  offset="1" style="stop-color:#F7A521"/>
	</linearGradient>
	<polygon class="st8" points="87,37.1 109.2,30.4 103,10.3 80.8,17.1 	"/>
</g>
<g>
	<defs>
		<path id="SVGID_28_" d="M141.6,13.5c-0.1,0.2-0.2,0.5-0.2,0.7c-0.1,0.8,0.1,1.5,0.6,1.6c0.4,0.1,0.8-0.4,1-1.1
			c0.1-0.2,0.1-0.3,0.2-0.4c-0.1,0-0.1,0-0.2-0.1c0-0.5-0.1-1-0.3-1.2c-0.1-0.1-0.2-0.1-0.3-0.2c0,0,0,0-0.1,0
			C142.1,12.9,141.8,13.1,141.6,13.5 M140.4,27.5c0.4,0.1,0.7,0.7,0.5,1.4c0,0.1,0,0.1,0,0.2c0.1-0.6-0.2-1.2-0.7-1.3
			c-0.2,0-0.4,0.1-0.6,0.2C139.9,27.7,140.2,27.5,140.4,27.5 M142.3,27.3c0.4,0.1,0.7,0.7,0.5,1.4c0,0.1,0,0.1,0,0.2
			c0.1-0.6-0.2-1.2-0.7-1.3c-0.2,0-0.4,0.1-0.6,0.2C141.8,27.5,142,27.2,142.3,27.3 M138.2,26.8c0.4,0.1,0.7,0.7,0.5,1.4
			c0,0.1,0,0.1,0,0.2c0.1-0.6-0.2-1.2-0.7-1.3c-0.2,0-0.4,0.1-0.6,0.2C137.7,26.9,138,26.7,138.2,26.8 M143.8,25
			c0.6,0.1,0.9,1,0.7,1.9c0,0.1,0,0.1,0,0.2c0.1-0.9-0.3-1.6-0.9-1.7c-0.3,0-0.6,0.1-0.8,0.3C143,25.2,143.4,24.9,143.8,25
			 M141.1,24.9c0.6,0.1,0.9,1,0.7,1.9c0,0.1,0,0.1,0,0.2c0.1-0.9-0.3-1.6-0.9-1.7c-0.3,0-0.6,0.1-0.8,0.3
			C140.4,25.1,140.8,24.9,141.1,24.9 M138.9,24.2c0.6,0.1,0.9,1,0.7,1.9c0,0.1,0,0.1,0,0.2c0.1-0.9-0.3-1.6-0.9-1.7
			c-0.3-0.1-0.6,0.1-0.8,0.3C138.1,24.4,138.5,24.1,138.9,24.2 M136.7,23.6c0.6,0.1,0.9,1,0.7,1.9c0,0.1,0,0.1,0,0.2
			c0.1-0.9-0.3-1.6-0.9-1.7c-0.3,0-0.6,0.1-0.8,0.3C136,23.8,136.3,23.5,136.7,23.6 M142.2,23.1c0.6,0.1,0.9,1,0.7,1.9
			c0,0.1,0,0.1,0,0.2c0.1-0.9-0.3-1.6-0.9-1.7c-0.3,0-0.6,0.1-0.8,0.3C141.4,23.3,141.8,23,142.2,23.1 M144,21.7
			c0.6,0.1,0.9,1,0.7,1.9c0,0.1,0,0.1,0,0.2c0.1-0.9-0.3-1.6-0.9-1.7c-0.3,0-0.6,0.1-0.8,0.3C143.2,21.9,143.6,21.6,144,21.7
			 M139.8,21.4c0.6,0.1,0.9,1,0.7,1.9c0,0.1,0,0.1,0,0.2c0.1-0.9-0.3-1.6-0.9-1.7c-0.3,0-0.6,0.1-0.8,0.3
			C139,21.6,139.4,21.3,139.8,21.4 M136.4,21c0.6-0.1,1.2,0.6,1.3,1.6c0,0.1,0,0.1,0,0.2c-0.2-0.9-0.8-1.5-1.4-1.4
			c-0.3,0-0.5,0.3-0.7,0.6C135.8,21.5,136,21.1,136.4,21 M141.4,20.7c0.6,0.1,0.9,1,0.7,1.9c0,0.1,0,0.1,0,0.2
			c0.1-0.9-0.3-1.6-0.9-1.7c-0.3,0-0.6,0.1-0.8,0.3C140.7,20.9,141.1,20.6,141.4,20.7 M144.5,20.6c0.6,0.1,0.9,1,0.7,1.9
			c0,0.1,0,0.1,0,0.2c0.1-0.9-0.3-1.6-0.9-1.7c-0.3,0-0.6,0.1-0.8,0.3C143.7,20.8,144.1,20.5,144.5,20.6 M137.4,19.2
			c0.6,0.1,0.9,1,0.7,1.9c0,0.1,0,0.1,0,0.2c0.1-0.9-0.3-1.6-0.9-1.7c-0.3,0-0.6,0.1-0.8,0.3C136.7,19.4,137.1,19.1,137.4,19.2
			 M138,18c0.6-0.1,1.2,0.6,1.3,1.6c0,0.1,0,0.1,0,0.2c-0.2-0.9-0.8-1.5-1.4-1.4c-0.3,0-0.5,0.3-0.7,0.6
			C137.3,18.5,137.6,18.1,138,18 M140.6,17.7c0.6,0.1,0.9,1,0.7,1.9c0,0.1,0,0.1,0,0.2c0.1-0.9-0.3-1.6-0.9-1.7
			c-0.3,0-0.6,0.1-0.8,0.3C139.9,18,140.2,17.7,140.6,17.7 M141.8,16.8c0.6,0.1,0.9,1,0.7,1.9c0,0,0,0,0,0c0.1,0,0.2-0.1,0.3,0
			c0.6,0.1,0.9,1,0.7,1.9c0,0.1,0,0.1,0,0.2c0.1-0.9-0.3-1.6-0.9-1.7c-0.3,0-0.6,0.1-0.8,0.3c0.2-0.3,0.4-0.6,0.7-0.7
			c0-0.8-0.3-1.5-0.9-1.6c-0.3,0-0.6,0.1-0.8,0.3C141,17,141.4,16.7,141.8,16.8 M137.4,17.4c0,0-0.1,0-0.1-0.1
			c0.3-0.1,0.6-0.5,0.7-1.1c0,0.2,0.1,0.3,0.1,0.5C138,17.1,137.7,17.4,137.4,17.4C137.5,17.4,137.4,17.4,137.4,17.4 M143.9,17.7
			c0-0.1,0-0.2,0-0.3c0.1-0.9,0.6-1.5,1-1.5c0,0,0.1,0,0.1,0.1c-0.3,0.1-0.7,0.7-0.8,1.4c0.2-0.1,0.3-0.2,0.5-0.1
			c0.5,0.1,0.9,0.9,0.8,1.8c0,0,0.1,0,0.1,0c0.6,0.1,0.9,1,0.7,1.9c0,0.1,0,0.1,0,0.2c0.1-0.9-0.3-1.6-0.9-1.7
			c-0.3,0-0.6,0.1-0.8,0.3c0.2-0.4,0.5-0.7,0.9-0.7c0-0.7-0.4-1.3-0.9-1.4c-0.3,0-0.6,0.1-0.8,0.3C143.8,17.9,143.8,17.8,143.9,17.7
			 M141.3,10.8c-0.3,0.5-0.6,1.1-0.7,1.5c-0.3,0.1-0.7,0.7-0.8,1.4c0,0.1,0,0.2,0,0.3c0,0-0.1,0-0.1,0c0.1,0.3,0.2,0.8,0.1,1.3
			c-0.1,0.9-0.6,1.5-1,1.5c0,0-0.1,0-0.1-0.1c0.3-0.1,0.7-0.7,0.8-1.5c0.1-0.8,0-1.4-0.3-1.6c0,0,0,0,0,0c0.2-0.6,0.9-2.2,0.4-1.5
			c-0.3,0.5-0.6,1.1-0.7,1.5c-0.2,0.1-0.4,0.3-0.6,0.7c-0.1,0.1-0.1,0.3-0.1,0.4c-0.1-0.3-0.2-0.6-0.3-0.7c0,0,0,0,0,0
			c0.2-0.6,0.9-2.2,0.4-1.5c-0.3,0.5-0.6,1.1-0.7,1.5c-0.3,0.1-0.7,0.7-0.8,1.4c0,0.1,0,0.2,0,0.3c0,0.1,0,0.3,0,0.4
			c-0.1-0.2-0.2-0.4-0.3-0.5c0,0,0,0,0,0c0.2-0.6,0.9-2.2,0.4-1.5c-0.3,0.5-0.6,1.1-0.7,1.5c-0.3,0.1-0.7,0.7-0.8,1.4
			c0,0.2,0,0.3,0,0.5c0.3,0.2,0.5,0.6,0.7,1.2c0.3-0.1,0.7-0.7,0.8-1.4c0-0.2,0.1-0.5,0-0.7c0.1,0.2,0.2,0.4,0.3,0.5
			c0,0.1,0,0.2,0,0.3c-0.1,0.9-0.6,1.5-1,1.5c0,0-0.1,0-0.1,0c0,0.1,0,0.1,0,0.2c0.2,0.9,0,1.6-0.4,1.7c0,0-0.1,0-0.1,0
			c0.3-0.2,0.4-0.9,0.3-1.6c-0.1-0.8-0.5-1.4-0.8-1.4c0,0,0,0,0,0c0-0.7,0.1-2.3-0.1-1.6c-0.2,0.6-0.2,1.3-0.2,1.7
			c-0.3,0.2-0.4,0.9-0.3,1.6c0.1,0.5,0.3,0.9,0.5,1.2c0,0.1,0,0.2,0,0.3c0.3,0.2,0.6,0.5,0.8,1c0.4,0.8,0.4,1.6,0.1,1.8
			c0,0-0.1,0-0.1,0c0.2-0.3,0.2-1-0.2-1.7c-0.3-0.7-0.9-1.2-1.2-1.2c0,0,0,0,0,0c-0.2-0.7-0.6-2.3-0.6-1.5c0,0.6,0.2,1.3,0.3,1.6
			c-0.2,0.3-0.1,1,0.2,1.6c0.2,0.5,0.5,0.8,0.8,1c0,0,0,0,0,0.1c0.2,0.1,0.5,0.3,0.7,0.6c0,0,0.1,0.1,0.1,0.1
			c-0.1,0.1-0.1,0.2-0.2,0.2c0-0.1-0.1-0.1-0.1-0.2c-0.5-0.6-1.1-0.9-1.5-0.8c0,0,0,0,0,0c-0.4-0.6-1.2-2-1-1.3
			c0.2,0.5,0.5,1.2,0.8,1.5c-0.1,0.3,0.2,1,0.7,1.5c0.3,0.3,0.6,0.5,0.9,0.7c0.1,0.7,0.4,1.2,0.9,1.3c0.2,0,0.4,0,0.6-0.1
			c0.2,0.2,0.4,0.4,0.6,0.6c0,0.1-0.1,0.2-0.1,0.3c-0.1,0.7,0.2,1.3,0.6,1.4c0.4,0.1,0.8-0.3,1-0.8c0.2,0.1,0.4,0.1,0.6,0.2
			c-0.1,0.7,0.2,1.3,0.6,1.3c0.5,0.1,0.9-0.4,1.1-1.1c0,0,0-0.1,0-0.1c0.1,0,0.1,0,0.2,0c0,0.5,0.3,0.9,0.7,1
			c0.5,0.1,0.9-0.4,1.1-1.1c0-0.1,0-0.1,0-0.2c0.1,0,0.1,0,0.2,0c0.6,0.1,1.2-0.5,1.4-1.3c0.2,0.3,0.4,0.4,0.6,0.5
			c0.6,0.1,1.2-0.5,1.4-1.3c0.2-0.1,0.4-0.2,0.5-0.4c0.6-0.5,0.9-1.1,0.8-1.4c0.3-0.3,0.7-0.9,0.9-1.4c0.3-0.7-0.7,0.6-1.1,1.2
			c0,0,0,0,0,0c-0.2-0.1-0.6,0-1.1,0.2c0.1,0.3,0.1,0.7,0,1.1c0,0.1,0,0.1,0,0.2c0.1-0.9-0.3-1.6-0.9-1.7c-0.3,0-0.6,0.1-0.8,0.3
			c0.3-0.5,0.7-0.8,1-0.7c0.2,0,0.4,0.2,0.6,0.5c0.1-0.2,0.2-0.4,0.2-0.6c0.4,0,0.9-0.4,1.2-1.1c0.4-0.6,0.5-1.3,0.3-1.6
			c0.1-0.4,0.4-1.1,0.4-1.6c0.1-0.8-0.4,0.8-0.7,1.5c0,0,0,0,0,0c-0.4,0-0.9,0.4-1.3,1.1c-0.4,0.7-0.5,1.4-0.3,1.6
			c-0.1,0-0.1,0-0.1,0c-0.3-0.2-0.3-1,0.2-1.8c0.2-0.4,0.5-0.7,0.7-0.9c0-0.2,0-0.4,0-0.5c0,0,0,0,0,0c0.4-0.6,0.6-1.2,0.5-1.6
			c0.2-0.4,0.5-1,0.6-1.6c0.1-0.8-0.5,0.8-0.8,1.4c0,0,0,0,0,0c-0.2,0-0.4,0.1-0.7,0.3c0-0.1,0.1-0.2,0.1-0.4c0,0,0.1,0,0.1,0
			c0-0.1,0-0.1,0-0.2c0,0,0-0.1,0-0.1c0.1-0.7,0-1.4-0.3-1.6c0-0.4,0-1.1-0.2-1.7c-0.2-0.7-0.1,0.9-0.1,1.6c0,0,0,0,0,0
			c-0.2,0-0.4,0.2-0.5,0.5c0-0.2,0-0.3,0-0.4c0.1-0.1,0.2-0.1,0.3-0.2c-0.2-0.3-0.4-0.6-0.6-0.8c0-0.4,0-1-0.2-1.5
			c-0.2-0.6-0.2,0.4-0.1,1.2c-0.2-0.2-0.4-0.4-0.6-0.6c0-0.4-0.1-0.8-0.3-0.9c0-0.4,0-1.1-0.2-1.7c0-0.1-0.1-0.2-0.1-0.2
			c-0.1-0.1-0.1,1.2,0,1.8c0,0,0,0,0,0c-0.3,0.1-0.7,0.7-0.8,1.5c-0.1,0.8,0,1.4,0.3,1.6c-0.1,0-0.1,0-0.1,0
			c-0.4-0.1-0.6-0.7-0.5-1.5c-0.2,0.4-0.5,0.7-0.8,0.7c-0.4-0.1-0.6-0.6-0.6-1.3c-0.2,0.3-0.4,0.5-0.7,0.5c0,0-0.1,0-0.1-0.1
			c0.3-0.1,0.7-0.7,0.8-1.5c0.1-0.8,0-1.4-0.3-1.6c0,0,0,0,0,0c0.2-0.5,0.7-1.7,0.5-1.7C141.5,10.7,141.4,10.7,141.3,10.8"/>
	</defs>
	<clipPath id="SVGID_29_">
		<use xlink:href="#SVGID_28_"  style="overflow:visible;"/>
	</clipPath>
	
		<linearGradient id="SVGID_30_" gradientUnits="userSpaceOnUse" x1="0" y1="70.3921" x2="1" y2="70.3921" gradientTransform="matrix(-3.2014 19.416 -19.416 -3.2014 1509.0934 236.1785)">
		<stop  offset="0" style="stop-color:#DB2133"/>
		<stop  offset="0.8437" style="stop-color:#F2932A"/>
		<stop  offset="1" style="stop-color:#F7A521"/>
	</linearGradient>
	<polygon class="st9" points="133,8 129.4,29.9 148.5,33.1 152.1,11.2 	"/>
</g>
<g>
	<defs>
		<path id="SVGID_31_" d="M120.9,15.1c-0.7,0.1-1.2,0.5-1.2,0.9c0.1,0.4,0.8,0.7,1.6,0.6c0.3,0,0.5-0.1,0.8-0.2
			c0.4-0.2,0.7-0.5,0.6-0.8c0-0.1-0.1-0.2-0.1-0.3c-0.2-0.2-0.7-0.4-1.2-0.4c0-0.1,0-0.1-0.1-0.2C121.2,15,121.1,15.1,120.9,15.1
			 M109.9,20.1c1-0.1,1.8,0.3,1.9,0.8c0,0.4-0.3,0.8-0.8,1c0.2-0.2,0.4-0.5,0.4-0.8c-0.1-0.6-0.8-1-1.7-1
			C109.7,20.1,109.8,20.1,109.9,20.1 M113.9,21.4c0.1-0.6-0.5-1.2-1.3-1.5c0.1,0,0.1,0,0.2,0c1,0.2,1.6,0.8,1.5,1.4
			c-0.1,0.4-0.5,0.6-1,0.7C113.6,21.9,113.8,21.7,113.9,21.4 M118,20.5c0-0.3,0.3-0.5,0.7-0.7c0.1,0.1,0.3,0.1,0.4,0.2
			c-0.6,0.1-1,0.4-1.1,0.7C118,20.6,118,20.5,118,20.5 M114.3,19.6c1-0.1,1.8,0.3,1.9,0.8c0,0.4-0.3,0.8-0.8,1
			c0.3-0.2,0.4-0.5,0.4-0.8c-0.1-0.6-0.8-1-1.7-1C114.2,19.6,114.2,19.6,114.3,19.6 M107.3,18.6c0.7-0.1,1.3,0.2,1.4,0.6
			c0,0.3-0.2,0.6-0.6,0.7c0.2-0.2,0.3-0.4,0.3-0.6c-0.1-0.4-0.6-0.7-1.2-0.7C107.2,18.7,107.2,18.6,107.3,18.6 M116.9,20
			c0.1-0.6-0.5-1.2-1.3-1.5c0.1,0,0.1,0,0.2,0c1,0.2,1.6,0.8,1.5,1.4c-0.1,0.4-0.5,0.6-1,0.7C116.7,20.5,116.9,20.3,116.9,20
			 M109.4,17.9c1-0.1,1.8,0.3,1.9,0.8c0,0.4-0.3,0.8-0.8,1c0.3-0.2,0.4-0.5,0.4-0.8c-0.1-0.6-0.8-1-1.7-1
			C109.2,17.9,109.3,17.9,109.4,17.9 M112.2,17.1c1-0.1,1.8,0.3,1.9,0.8c0,0.4-0.3,0.8-0.8,1c0.3-0.2,0.4-0.5,0.4-0.8
			c-0.1-0.6-0.8-1-1.7-1C112.1,17.1,112.1,17.1,112.2,17.1 M115.9,16.5c1-0.1,1.8,0.3,1.9,0.8c0,0.4-0.3,0.8-0.8,1
			c0.2-0.2,0.4-0.5,0.4-0.8c-0.1-0.6-0.8-1-1.7-1C115.8,16.5,115.8,16.5,115.9,16.5 M106.6,16.4c0.7-0.1,1.3,0.2,1.4,0.6
			c0,0.3-0.2,0.6-0.6,0.7c0.2-0.2,0.3-0.4,0.3-0.6c-0.1-0.4-0.6-0.7-1.2-0.7C106.5,16.4,106.6,16.4,106.6,16.4 M108.8,15.6
			c1-0.1,1.8,0.3,1.9,0.8c0,0.4-0.3,0.8-0.8,1c0.2-0.2,0.4-0.5,0.4-0.8c-0.1-0.6-0.8-1-1.7-1C108.6,15.6,108.7,15.6,108.8,15.6
			 M113,15.5c1-0.1,1.8,0.3,1.9,0.8c0,0.4-0.3,0.8-0.8,1c0.3-0.2,0.4-0.5,0.4-0.8c-0.1-0.6-0.8-1-1.7-1
			C112.8,15.5,112.9,15.5,113,15.5 M110.6,14.7c1-0.1,1.8,0.3,1.9,0.8c0,0.4-0.3,0.8-0.8,1c0.3-0.2,0.4-0.5,0.4-0.8
			c-0.1-0.6-0.8-1-1.7-1C110.5,14.7,110.6,14.7,110.6,14.7 M107,14.5c0.7-0.1,1.3,0.2,1.4,0.6c0,0.3-0.2,0.5-0.6,0.7
			c0.2-0.2,0.3-0.4,0.3-0.6c-0.1-0.4-0.6-0.7-1.2-0.7C106.8,14.5,106.9,14.5,107,14.5 M115.1,14.2c1-0.1,1.8,0.3,1.9,0.8
			c0,0.1,0,0.2-0.1,0.3c0,0,0,0,0,0c1-0.1,1.8,0.3,1.9,0.8c0,0.4-0.3,0.8-0.8,1c0.3-0.2,0.4-0.5,0.4-0.8c-0.1-0.6-0.7-1-1.5-1
			c-0.1,0.2-0.4,0.5-0.7,0.6c0.3-0.2,0.4-0.5,0.4-0.8c-0.1-0.6-0.8-1-1.7-1C114.9,14.2,115,14.2,115.1,14.2 M108.8,13
			c1-0.1,1.8,0.3,1.9,0.8c0,0.4-0.3,0.8-0.8,1c0.2-0.2,0.4-0.5,0.4-0.8c-0.1-0.6-0.8-1-1.7-1C108.7,13,108.7,13,108.8,13
			 M112.2,12.9c1-0.1,1.8,0.3,1.9,0.8c0,0.4-0.3,0.8-0.8,1c0.3-0.2,0.4-0.5,0.4-0.8c-0.1-0.6-0.8-1-1.7-1
			C112,12.9,112.1,12.9,112.2,12.9 M113.2,12.5c1-0.1,1.8,0.3,1.9,0.8c0,0.4-0.3,0.8-0.8,1c0.2-0.2,0.4-0.5,0.4-0.8
			c-0.1-0.6-0.8-1-1.7-1C113.1,12.5,113.2,12.5,113.2,12.5 M114.9,11.4c1-0.1,1.8,0.3,1.9,0.8c0,0,0,0.1,0,0.1
			c0.9-0.1,1.7,0.3,1.7,0.8c0,0.2,0,0.4-0.2,0.5c0.8-0.1,1.4-0.4,1.5-0.7c0,0,0,0.1,0,0.1c0,0.4-0.6,0.8-1.5,0.9c-0.1,0-0.2,0-0.3,0
			c-0.1,0.1-0.2,0.1-0.3,0.2c0.3-0.2,0.4-0.5,0.4-0.8c-0.1-0.5-0.6-0.9-1.3-1c0,0.3-0.3,0.6-0.8,0.8c0.3-0.2,0.4-0.5,0.4-0.8
			c-0.1-0.6-0.8-1-1.7-1C114.7,11.4,114.8,11.4,114.9,11.4 M112.4,9c-0.5,0.2-1.1,0.6-1.5,0.8c-0.3-0.1-0.9,0.2-1.5,0.7
			c-0.2,0.2-0.3,0.3-0.4,0.5c-0.8,0.2-1.4,0.7-1.3,1.3c0,0.3,0.2,0.5,0.5,0.7c-0.9,0.2-1.5,0.7-1.4,1.3c0,0.1,0,0.1,0,0.2
			c0,0-0.1,0-0.2,0c-0.7,0.1-1.2,0.5-1.2,1c0,0.4,0.5,0.7,1,0.7c0,0.1,0,0.1,0,0.2c0,0-0.1,0-0.1,0c-0.7,0.1-1.2,0.5-1.2,1
			c0.1,0.5,0.6,0.8,1.3,0.7c0,0.2,0.1,0.4,0.2,0.6c-0.5,0.2-0.9,0.5-0.8,0.9c0.1,0.5,0.7,0.8,1.4,0.7c0.1,0,0.2,0,0.3-0.1
			c0.2,0.2,0.3,0.4,0.5,0.6c-0.1,0.2-0.2,0.4-0.1,0.6c0.1,0.5,0.6,0.9,1.3,1c0.1,0.3,0.3,0.6,0.6,0.9c0.5,0.5,1.1,0.8,1.5,0.7
			c0.3,0.2,0.9,0.6,1.5,0.8c0.7,0.3-0.7-0.6-1.2-1c0,0,0,0,0,0c0.1-0.3-0.2-1-0.7-1.5c-0.1-0.1-0.1-0.1-0.2-0.1
			c0.1,0,0.2-0.1,0.3-0.2c0,0,0.1,0.1,0.1,0.1c0.2,0.2,0.4,0.5,0.5,0.7c0,0,0,0,0.1,0c0.2,0.3,0.5,0.6,1,0.9
			c0.7,0.4,1.3,0.5,1.6,0.3c0.4,0.1,1.1,0.4,1.6,0.4c0.8,0-0.8-0.4-1.5-0.6c0,0,0,0,0,0c0-0.4-0.4-0.9-1.1-1.3
			c-0.7-0.4-1.4-0.5-1.7-0.3c0-0.1,0-0.1,0-0.1c0.2-0.3,1-0.3,1.8,0.2c0.4,0.2,0.8,0.5,1,0.8c0.1,0,0.2,0,0.3,0
			c0.2,0.2,0.7,0.4,1.2,0.5c0.7,0.2,1.4,0.1,1.6-0.2c0.4,0,1.1,0,1.7-0.1c0.8-0.2-0.9-0.2-1.6-0.2c0,0,0,0,0,0
			c-0.1-0.4-0.6-0.7-1.4-0.9c-0.8-0.2-1.4-0.1-1.7,0.2c0,0,0-0.1,0-0.1c0.1-0.4,0.9-0.5,1.7-0.3c0.1,0,0.1,0,0.2,0c0,0,0-0.1,0-0.1
			c0-0.4,0.6-0.8,1.5-0.9c0.1,0,0.2,0,0.3,0c0.1,0.1,0.2,0.2,0.4,0.3c-0.2,0-0.4,0-0.7,0c-0.8,0.1-1.4,0.4-1.5,0.7
			c0.6,0.2,1,0.4,1.1,0.7c0.2,0,0.3,0,0.5,0c0.7-0.1,1.3-0.4,1.5-0.7c0.4-0.1,1.1-0.3,1.6-0.6c0.7-0.4-0.9,0.1-1.6,0.3c0,0,0,0,0,0
			c-0.1-0.1-0.2-0.2-0.4-0.3c0.1,0,0.3,0,0.4,0c0.1,0,0.2,0,0.3,0c0.7-0.1,1.3-0.4,1.5-0.7c0.4-0.1,1.1-0.3,1.6-0.6
			c0.7-0.4-0.9,0.1-1.6,0.3c0,0,0,0,0,0c-0.1-0.2-0.3-0.3-0.7-0.4c0.1,0,0.3-0.1,0.4-0.1c0.4-0.1,0.6-0.3,0.7-0.5
			c0.4-0.1,1.1-0.3,1.6-0.6c0.7-0.4-0.9,0.1-1.6,0.3c0,0,0,0,0,0c-0.2-0.3-0.9-0.5-1.6-0.4c-0.8,0.1-1.4,0.4-1.5,0.8
			c0,0,0-0.1,0-0.1c0-0.4,0.6-0.8,1.5-0.9c0.5-0.1,1,0,1.3,0.1c0,0,0-0.1,0-0.1c0.1,0,0.2,0,0.3,0c0.7-0.1,1.3-0.4,1.5-0.7
			c0.4-0.1,1.1-0.3,1.6-0.6c0.7-0.4-0.9,0.1-1.6,0.3c0,0,0,0,0,0c-0.2-0.3-0.9-0.5-1.6-0.4c-0.8,0.1-1.4,0.4-1.5,0.8
			c0,0,0-0.1,0-0.1c0-0.2,0.2-0.5,0.5-0.6c-0.7,0-1.2-0.3-1.3-0.6c0-0.3,0.2-0.6,0.7-0.8c-0.8,0-1.4-0.2-1.5-0.5c0,0,0-0.1,0-0.1
			c0.2,0.3,0.9,0.5,1.6,0.4c0.8-0.1,1.4-0.4,1.5-0.8c0,0,0,0,0,0c0.6,0,1.9,0.2,1.8,0c0,0-0.1,0-0.2-0.1c-0.5-0.2-1.2-0.2-1.7-0.3
			c-0.1-0.2-0.5-0.3-0.9-0.4c-0.2-0.2-0.3-0.4-0.5-0.7c0.8,0.1,1.8,0.1,1.2-0.1c-0.5-0.2-1.1-0.2-1.5-0.3c-0.2-0.2-0.5-0.4-0.8-0.6
			c0,0.1-0.1,0.2-0.2,0.3c-0.1,0-0.3,0-0.4,0c0.3-0.1,0.5-0.3,0.6-0.5c0,0,0,0,0,0c0.7,0.1,2.3,0.2,1.6,0c-0.5-0.2-1.2-0.2-1.7-0.3
			c-0.2-0.3-0.9-0.4-1.6-0.4c0,0-0.1,0-0.1,0c-0.1,0-0.1,0-0.2-0.1c0,0,0,0.1,0,0.1c-0.1,0-0.3,0.1-0.4,0.1c0.2-0.3,0.3-0.5,0.3-0.7
			c0,0,0,0,0,0c0.6-0.3,2.2-0.8,1.4-0.7c-0.6,0.1-1.2,0.3-1.6,0.5c-0.3-0.2-1,0-1.6,0.4c0,0,0,0,0,0c-0.2,0-0.4,0-0.5,0
			c-0.2,0.2-0.5,0.5-0.9,0.7c-0.8,0.4-1.6,0.4-1.8,0.1c0,0,0-0.1,0-0.1c0.3,0.2,1,0.1,1.7-0.2s1.2-0.9,1.1-1.2c0,0,0,0,0,0
			c0.7-0.2,2.3-0.6,1.5-0.6c-0.6,0-1.3,0.2-1.6,0.3c-0.3-0.2-1-0.1-1.6,0.2c-0.7,0.3-1.1,0.8-1.1,1.2c-0.2,0.1-0.4,0.1-0.6,0.2
			c0.3,0.1,0.4,0.4,0.4,0.6c0,0.4-0.3,0.8-0.8,1c0.2-0.2,0.4-0.5,0.4-0.8c-0.1-0.6-0.8-1-1.7-1c0.1,0,0.1,0,0.2,0
			c0.4,0,0.8,0,1.1,0.1c0.3-0.4,0.4-0.8,0.3-1c0,0,0,0,0,0c0.5-0.3,1.6-1.1,1.4-1.1C112.5,8.9,112.5,8.9,112.4,9"/>
	</defs>
	<clipPath id="SVGID_32_">
		<use xlink:href="#SVGID_31_"  style="overflow:visible;"/>
	</clipPath>
	
		<linearGradient id="SVGID_33_" gradientUnits="userSpaceOnUse" x1="0" y1="70.395" x2="1" y2="70.395" gradientTransform="matrix(-19.5463 2.2744 2.2744 19.5463 -35.3274 -1360.0209)">
		<stop  offset="0" style="stop-color:#DB2133"/>
		<stop  offset="0.8437" style="stop-color:#F2932A"/>
		<stop  offset="1" style="stop-color:#F7A521"/>
	</linearGradient>
	<polygon class="st10" points="127.2,25 105.4,27.5 103.2,9.1 125.1,6.6 	"/>
</g>
<g>
	<defs>
		<path id="SVGID_34_" d="M119.9,13.1c-0.1,0.3,0,0.6,0.3,1c0.2,0.2,0.4,0.3,0.6,0.5c0.7,0.4,1.5,0.4,1.7,0c0.1-0.3,0-0.6-0.3-1
			c-0.1-0.1-0.3-0.2-0.4-0.3c-0.1-0.1-0.2-0.2-0.3-0.3c0,0-0.1,0.1-0.1,0.1c-0.3-0.1-0.6-0.2-0.9-0.2
			C120.2,12.8,120,12.9,119.9,13.1 M128,22.1c0.3-0.5,1.2-0.5,2.1,0c0.1,0,0.1,0.1,0.2,0.1c-0.8-0.4-1.6-0.3-1.9,0.2
			c-0.1,0.3-0.1,0.6,0,0.9C127.9,22.9,127.8,22.4,128,22.1 M131.5,21.8c0.2-0.4,0.9-0.4,1.5,0c0,0,0.1,0.1,0.1,0.1
			c-0.6-0.3-1.2-0.2-1.4,0.2c-0.1,0.2-0.1,0.4,0,0.7C131.5,22.4,131.4,22,131.5,21.8 M125.7,22.3c-0.2-0.2-0.3-0.5-0.3-0.7
			c0.1-0.6,1-0.9,1.9-0.7c0.1,0,0.1,0,0.2,0c-0.9-0.1-1.6,0.2-1.8,0.8c-0.1,0.3,0.1,0.6,0.3,0.8C126,22.5,125.9,22.4,125.7,22.3
			 M129.3,20.3c0.3-0.5,1.2-0.5,2.1,0c0.1,0,0.1,0.1,0.2,0.1c-0.8-0.4-1.6-0.3-1.9,0.2c-0.1,0.3-0.1,0.6,0,0.9
			C129.2,21,129.1,20.6,129.3,20.3 M132.9,20c0.2-0.4,0.9-0.4,1.5,0c0,0,0.1,0.1,0.1,0.1c-0.6-0.3-1.2-0.2-1.4,0.2
			c-0.1,0.2-0.1,0.4,0,0.7C132.9,20.5,132.8,20.2,132.9,20 M124.1,19.9c0.3-0.5,1.2-0.5,2.1,0c0.1,0,0.1,0.1,0.2,0.1
			c-0.8-0.4-1.6-0.3-1.9,0.2c-0.1,0.3-0.1,0.6,0,0.9C124,20.7,123.9,20.3,124.1,19.9 M121.5,18.3c0.2,0,0.3,0,0.5,0
			c0.4,0.3,0.5,0.7,0.4,0.9c0,0-0.1,0.1-0.1,0.1C122.3,19.1,122,18.7,121.5,18.3 M123.4,19.8c-0.2-0.2-0.3-0.5-0.3-0.7
			c0.1-0.6,1-0.9,1.9-0.7c0.1,0,0.1,0,0.2,0.1c-0.9-0.1-1.6,0.2-1.8,0.8c-0.1,0.3,0.1,0.6,0.3,0.8C123.7,20,123.5,19.9,123.4,19.8
			 M127,18.5c0.3-0.5,1.2-0.5,2.1,0c0.1,0,0.1,0.1,0.2,0.1c-0.8-0.4-1.6-0.3-1.9,0.2c-0.1,0.3-0.1,0.6,0,0.9
			C126.9,19.3,126.8,18.8,127,18.5 M130.7,18.4c0.3-0.5,1.2-0.5,2.1,0c0.1,0,0.1,0.1,0.2,0.1c-0.8-0.4-1.6-0.3-1.9,0.2
			c-0.1,0.3-0.1,0.6,0,0.9C130.7,19.2,130.6,18.7,130.7,18.4 M133.4,18.1c0.2-0.4,0.9-0.4,1.5,0c0,0,0.1,0.1,0.1,0.1
			c-0.6-0.3-1.2-0.2-1.4,0.2c-0.1,0.2-0.1,0.4,0,0.7C133.3,18.7,133.2,18.4,133.4,18.1 M129.4,16.8c0.3-0.5,1.2-0.5,2.1,0
			c0.1,0,0.1,0.1,0.2,0.1c-0.8-0.4-1.6-0.3-1.9,0.2c-0.1,0.3-0.1,0.6,0,0.9C129.3,17.6,129.2,17.2,129.4,16.8 M126.9,16.7
			c0.3-0.5,1.2-0.5,2.1,0c0.1,0,0.1,0.1,0.2,0.1c-0.8-0.4-1.6-0.3-1.9,0.2c-0.1,0.3-0.1,0.6,0,0.9C126.8,17.5,126.7,17,126.9,16.7
			 M123.8,16.4c0.3-0.5,1.2-0.5,2.1,0c0.1,0,0.1,0.1,0.2,0.1c-0.8-0.4-1.6-0.3-1.9,0.2c-0.1,0.3-0.1,0.6,0,0.9
			C123.8,17.2,123.6,16.8,123.8,16.4 M131.7,16c0.3-0.5,1.2-0.5,2.1,0c0.1,0,0.1,0.1,0.2,0.1c-0.8-0.4-1.6-0.3-1.9,0.2
			c-0.1,0.3-0.1,0.6,0,0.9C131.7,16.8,131.5,16.3,131.7,16 M125.5,14.6c0.3-0.5,1.2-0.5,2.1,0c0.1,0,0.1,0.1,0.2,0.1
			c-0.8-0.4-1.6-0.3-1.9,0.2c-0.1,0.3-0.1,0.6,0,0.9c-0.2-0.3-0.4-0.6-0.4-0.9c-0.8-0.3-1.5-0.2-1.8,0.3c-0.1,0.3-0.1,0.6,0,0.9
			c-0.4-0.4-0.5-0.9-0.3-1.2c0.3-0.5,1.2-0.5,2.1,0c0,0,0,0,0,0C125.4,14.9,125.4,14.7,125.5,14.6 M128.7,14.6
			c0.3-0.5,1.2-0.5,2.1,0c0.1,0,0.1,0.1,0.2,0.1c-0.8-0.4-1.6-0.3-1.9,0.2c-0.1,0.3-0.1,0.6,0,0.9C128.6,15.4,128.5,14.9,128.7,14.6
			 M127.8,13.8c0.3-0.5,1.2-0.5,2.1,0c0.1,0,0.1,0.1,0.2,0.1c-0.8-0.4-1.6-0.3-1.9,0.2c-0.1,0.3-0.1,0.6,0,0.9
			C127.8,14.6,127.7,14.1,127.8,13.8 M124.9,13.4c-0.1,0-0.2-0.1-0.3-0.1c-0.8-0.4-1.2-1.1-1-1.4c0,0,0.1-0.1,0.1-0.1
			c0,0.2,0.1,0.5,0.4,0.7c0.2,0.2,0.4,0.4,0.7,0.5c0-0.2,0-0.4,0.1-0.5c0.3-0.5,1.1-0.5,1.9-0.1c0,0,0-0.1,0-0.1
			c0.3-0.5,1.2-0.5,2.1,0c0.1,0,0.1,0.1,0.2,0.1c-0.8-0.4-1.6-0.3-1.9,0.2c-0.1,0.3-0.1,0.6,0,0.9c-0.3-0.4-0.5-0.7-0.4-1.1
			c-0.7-0.2-1.3-0.1-1.6,0.4c-0.1,0.3-0.1,0.6,0,0.9C125,13.5,125,13.4,124.9,13.4 M127.2,10.5C127.2,10.5,127.2,10.6,127.2,10.5
			c-0.1,0.2-0.1,0.5,0,0.8c-0.1-0.1-0.2-0.2-0.3-0.2c0,0,0-0.1,0-0.1c-0.1,0-0.1,0-0.2,0c0,0-0.1,0-0.1-0.1
			c-0.7-0.4-1.3-0.5-1.6-0.3c-0.4-0.1-1.1-0.4-1.6-0.4c-0.8,0,0.8,0.4,1.5,0.7c0,0,0,0,0,0c0,0.2,0.1,0.4,0.3,0.7
			c-0.1-0.1-0.3-0.1-0.4-0.1c0-0.1-0.1-0.2-0.1-0.3c-0.3,0.1-0.7,0.2-1,0.3c-0.4-0.1-1-0.3-1.5-0.4c-0.7,0,0.4,0.3,1.1,0.5
			c-0.3,0.1-0.5,0.2-0.7,0.4c-0.4-0.1-0.8-0.1-1,0c-0.4-0.1-1.1-0.4-1.6-0.4c-0.8-0.1,0.8,0.4,1.5,0.6c0,0,0,0,0,0
			c0,0.4,0.4,0.9,1.1,1.3c0.7,0.4,1.4,0.5,1.7,0.3c0,0.1,0,0.1,0,0.1c-0.2,0.3-0.9,0.3-1.6-0.1c0.3,0.3,0.5,0.7,0.3,1
			c-0.2,0.3-0.8,0.4-1.4,0.1c0.3,0.3,0.4,0.6,0.3,0.8c0,0-0.1,0.1-0.1,0.1c0-0.4-0.4-0.9-1.1-1.3c-0.7-0.4-1.4-0.5-1.7-0.3
			c0,0,0,0,0,0c-0.5-0.4-1.8-1.5-1.3-0.9c0.3,0.5,0.9,0.9,1.2,1.2c0,0.4,0.4,0.9,1.1,1.2c0.1,0.1,0.2,0.1,0.3,0.2c0,0,0,0.1,0,0.1
			c0.3,0,0.8,0.1,1.3,0.4c0.8,0.4,1.2,1.1,1,1.4c0,0-0.1,0.1-0.1,0.1c0-0.4-0.4-0.9-1.1-1.3c-0.7-0.4-1.4-0.5-1.7-0.3c0,0,0,0,0,0
			c-0.5-0.4-1.8-1.5-1.3-0.9c0.3,0.5,0.9,0.9,1.2,1.2c0,0.2,0.2,0.5,0.4,0.8c0.1,0.1,0.2,0.2,0.3,0.3c-0.3-0.1-0.6,0-0.7,0.1
			c0,0,0,0,0,0c-0.5-0.4-1.8-1.5-1.3-0.9c0.3,0.5,0.9,0.9,1.2,1.2c0,0.4,0.4,0.9,1.1,1.2c0.1,0,0.2,0.1,0.2,0.1
			c0.1,0.1,0.3,0.1,0.4,0.1c-0.2,0-0.4,0-0.5,0.1c0,0,0,0,0,0c-0.5-0.4-1.8-1.5-1.3-0.9c0.3,0.5,0.9,0.9,1.2,1.2
			c0,0.4,0.4,0.9,1.1,1.2c0.2,0.1,0.3,0.2,0.5,0.2c0.2-0.2,0.8-0.3,1.3-0.2c0-0.4-0.4-0.9-1.1-1.2c-0.2-0.1-0.4-0.2-0.6-0.3
			c0.2,0,0.4,0,0.5-0.1c0.1,0,0.2,0.1,0.2,0.1c0.8,0.4,1.2,1.1,1,1.4c0,0,0,0.1-0.1,0.1c0.1,0,0.1,0,0.2,0c0.9,0.2,1.5,0.6,1.5,1
			c0,0,0,0.1-0.1,0.1c-0.1-0.3-0.7-0.7-1.5-0.8c-0.8-0.1-1.4,0-1.6,0.3c0,0,0,0,0,0c-0.6-0.2-2.2-0.9-1.5-0.4
			c0.5,0.3,1.1,0.6,1.5,0.7c0.1,0.3,0.7,0.7,1.4,0.8c0.5,0.1,1,0.1,1.3-0.1c0.1,0,0.2,0.1,0.2,0.1c0.3-0.2,0.7-0.3,1.2-0.4
			c0.9-0.1,1.6,0.1,1.7,0.5c0,0,0,0.1,0,0.1c-0.2-0.3-0.9-0.5-1.6-0.4c-0.8,0.1-1.4,0.4-1.5,0.7c0,0,0,0,0,0c-0.7-0.1-2.3-0.2-1.6,0
			c0.5,0.2,1.2,0.2,1.7,0.3c0.2,0.3,0.9,0.4,1.6,0.4c0.5-0.1,1-0.2,1.2-0.4c0,0,0,0,0.1,0c0.2-0.2,0.5-0.3,0.8-0.5
			c0,0,0.1,0,0.1-0.1c0,0.1,0.1,0.2,0.2,0.2c-0.1,0-0.1,0-0.2,0.1c-0.7,0.3-1.2,0.8-1.2,1.1c0,0,0,0,0,0c-0.7,0.1-2.3,0.4-1.5,0.5
			c0.6,0,1.3-0.1,1.7-0.2c0.3,0.2,0.9,0.2,1.6-0.1c0.4-0.2,0.7-0.4,0.9-0.6c0.7,0.2,1.3,0.1,1.6-0.4c0.1-0.2,0.1-0.4,0.1-0.6
			c0.3-0.1,0.5-0.2,0.7-0.4c0.1,0.1,0.2,0.1,0.2,0.2c0.6,0.3,1.3,0.3,1.5-0.1c0.2-0.3,0-0.8-0.4-1.2c0.1-0.2,0.3-0.3,0.4-0.5
			c0.6,0.3,1.3,0.2,1.5-0.1c0.2-0.4-0.1-1-0.7-1.4c0,0,0,0-0.1,0c0-0.1,0-0.1,0-0.2c0.5,0.2,1,0.1,1.2-0.3c0.2-0.4-0.1-1-0.7-1.4
			c0,0-0.1,0-0.1-0.1c0,0,0.1-0.1,0.1-0.1c0.3-0.5-0.1-1.3-0.8-1.8c0.3-0.1,0.5-0.2,0.7-0.4c0.3-0.5,0-1.2-0.7-1.7
			c0-0.2-0.1-0.4-0.2-0.6c-0.3-0.7-0.7-1.2-1.1-1.2c-0.2-0.3-0.5-0.8-0.9-1.2c0-0.1-0.1-0.1-0.1-0.1c-0.6-0.5,0.4,0.8,0.7,1.4
			c0,0,0,0,0,0c-0.2,0.2-0.2,0.6-0.1,1.1c0.3,0,0.7,0.1,1.1,0.3c0.1,0,0.1,0.1,0.2,0.1c-0.8-0.4-1.6-0.3-1.9,0.2
			c-0.1,0.3-0.1,0.6,0,0.9c-0.4-0.4-0.5-0.9-0.3-1.2c0.1-0.2,0.4-0.3,0.6-0.4c-0.2-0.1-0.3-0.3-0.5-0.4c0.1-0.3-0.1-1-0.6-1.5
			s-1.1-0.9-1.4-0.8c-0.3-0.3-0.9-0.7-1.4-0.9c-0.7-0.3,0.6,0.7,1.1,1.1c0,0,0,0,0,0c-0.2,0.3,0.1,1,0.6,1.6
			c0.5,0.6,1.1,0.9,1.5,0.8c0,0-0.1,0.1-0.1,0.1c-0.3,0.3-1-0.1-1.6-0.8c-0.3-0.3-0.5-0.7-0.6-1c-0.2-0.1-0.3-0.1-0.5-0.2
			c0,0,0,0,0,0c-0.4-0.6-1-1-1.3-1c-0.3-0.3-0.8-0.8-1.3-1.1c-0.1-0.1-0.2-0.1-0.2-0.1C125.8,9.2,126.8,10.1,127.2,10.5"/>
	</defs>
	<clipPath id="SVGID_35_">
		<use xlink:href="#SVGID_34_"  style="overflow:visible;"/>
	</clipPath>
	
		<linearGradient id="SVGID_36_" gradientUnits="userSpaceOnUse" x1="0" y1="70.4041" x2="1" y2="70.4041" gradientTransform="matrix(17.1501 9.649 -9.649 17.1501 797.2422 -1194.9781)">
		<stop  offset="0" style="stop-color:#DB2133"/>
		<stop  offset="0.8437" style="stop-color:#F2932A"/>
		<stop  offset="1" style="stop-color:#F7A521"/>
	</linearGradient>
	<polygon class="st11" points="110.2,21.6 131.5,33.6 143,13.1 121.7,1.1 	"/>
</g>
<g>
	<defs>
		<rect id="SVGID_37_" y="0" width="155.8" height="70.4"/>
	</defs>
	<clipPath id="SVGID_38_">
		<use xlink:href="#SVGID_37_"  style="overflow:visible;"/>
	</clipPath>
	<path class="st12" d="M74.1,70.4H1.2c-0.7,0-1.2-0.5-1.2-1.2C0,68.6,0.5,68,1.2,68h72.9c0.6,0,1.2,0.5,1.2,1.2
		C75.3,69.9,74.8,70.4,74.1,70.4"/>
	<path class="st13" d="M64.8,24.5H10.5c-5.1,0-9.3,6.3-9.3,14.1s4.2,14.1,9.3,14.1h54.4c5.1,0,9.3-6.3,9.3-14.1S70,24.5,64.8,24.5"
		/>
	<path class="st14" d="M70.7,46.9H16.3c-5.1,0-9.3-6.3-9.3-14.1c0-3,0.6-5.7,1.6-8c-4.3,1.3-7.5,7-7.5,13.9c0,7.8,4.2,14.1,9.3,14.1
		h54.4c3.2,0,6-2.4,7.7-6.1C71.9,46.8,71.3,46.9,70.7,46.9"/>
	<polygon class="st15" points="68.2,63.3 7.1,63.3 3.5,57.4 72,57.4 	"/>
	<path class="st16" d="M8.2,61c1.9,0,3.5,1.6,3.5,3.5S10.2,68,8.2,68s-3.5-1.6-3.5-3.5S6.3,61,8.2,61"/>
	<path class="st16" d="M63.5,50.4h-2.4c-0.6,0-1.2,0.5-1.2,1.2v5.9h4.7v-5.9C64.7,50.9,64.2,50.4,63.5,50.4"/>
	<path class="st12" d="M74.1,58.6H1.2c-0.7,0-1.2-0.5-1.2-1.2c0-0.7,0.5-1.2,1.2-1.2h72.9c0.6,0,1.2,0.5,1.2,1.2
		C75.3,58.1,74.8,58.6,74.1,58.6"/>
	<path class="st16" d="M20,61c1.9,0,3.5,1.6,3.5,3.5S21.9,68,20,68s-3.5-1.6-3.5-3.5S18,61,20,61"/>
	<path class="st17" d="M8.2,63.3c0.6,0,1.2,0.5,1.2,1.2c0,0.7-0.5,1.2-1.2,1.2c-0.6,0-1.2-0.5-1.2-1.2C7.1,63.9,7.6,63.3,8.2,63.3"
		/>
	<path class="st17" d="M20,63.3c0.6,0,1.2,0.5,1.2,1.2c0,0.7-0.5,1.2-1.2,1.2c-0.7,0-1.2-0.5-1.2-1.2C18.8,63.9,19.3,63.3,20,63.3"
		/>
	<path class="st16" d="M55.3,61c1.9,0,3.5,1.6,3.5,3.5S57.2,68,55.3,68c-1.9,0-3.5-1.6-3.5-3.5S53.3,61,55.3,61"/>
	<path class="st16" d="M67.1,61c1.9,0,3.5,1.6,3.5,3.5S69,68,67.1,68c-1.9,0-3.5-1.6-3.5-3.5S65.1,61,67.1,61"/>
	<path class="st17" d="M55.3,63.3c0.6,0,1.2,0.5,1.2,1.2c0,0.7-0.5,1.2-1.2,1.2c-0.7,0-1.2-0.5-1.2-1.2
		C54.1,63.9,54.6,63.3,55.3,63.3"/>
	<path class="st17" d="M67.1,63.3c0.6,0,1.2,0.5,1.2,1.2c0,0.7-0.5,1.2-1.2,1.2c-0.6,0-1.2-0.5-1.2-1.2
		C65.9,63.9,66.4,63.3,67.1,63.3"/>
	<path class="st12" d="M154.6,70.4H81.7c-0.7,0-1.2-0.5-1.2-1.2c0-0.6,0.5-1.2,1.2-1.2h72.9c0.6,0,1.2,0.5,1.2,1.2
		C155.8,69.9,155.2,70.4,154.6,70.4"/>
	<path class="st13" d="M145.3,24.5H90.9c-5.1,0-9.3,6.3-9.3,14.1s4.2,14.1,9.3,14.1h54.4c5.1,0,9.3-6.3,9.3-14.1
		S150.4,24.5,145.3,24.5"/>
	<path class="st14" d="M151.2,46.9H96.8c-5.1,0-9.3-6.3-9.3-14.1c0-3,0.6-5.7,1.6-8c-4.3,1.3-7.5,7-7.5,13.9
		c0,7.8,4.2,14.1,9.3,14.1h54.4c3.2,0,6-2.4,7.7-6.1C152.4,46.8,151.8,46.9,151.2,46.9"/>
	<path class="st16" d="M94.6,50.4h-2.4c-0.6,0-1.2,0.5-1.2,1.2v5.9h4.7v-5.9C95.8,50.9,95.2,50.4,94.6,50.4"/>
	<polygon class="st15" points="148.7,63.3 87.5,63.3 84,57.4 152.5,57.4 	"/>
	<path class="st16" d="M88.7,61c1.9,0,3.5,1.6,3.5,3.5S90.7,68,88.7,68c-1.9,0-3.5-1.6-3.5-3.5S86.8,61,88.7,61"/>
	<path class="st16" d="M144,50.4h-2.4c-0.6,0-1.2,0.5-1.2,1.2v5.9h4.7v-5.9C145.2,50.9,144.6,50.4,144,50.4"/>
	<path class="st12" d="M154.6,58.6H81.7c-0.7,0-1.2-0.5-1.2-1.2c0-0.7,0.5-1.2,1.2-1.2h72.9c0.6,0,1.2,0.5,1.2,1.2
		C155.8,58.1,155.2,58.6,154.6,58.6"/>
	<path class="st16" d="M100.5,61c1.9,0,3.5,1.6,3.5,3.5s-1.6,3.5-3.5,3.5c-1.9,0-3.5-1.6-3.5-3.5S98.5,61,100.5,61"/>
	<path class="st17" d="M88.7,63.3c0.6,0,1.2,0.5,1.2,1.2c0,0.7-0.5,1.2-1.2,1.2c-0.7,0-1.2-0.5-1.2-1.2
		C87.5,63.9,88.1,63.3,88.7,63.3"/>
	<path class="st17" d="M100.5,63.3c0.6,0,1.2,0.5,1.2,1.2c0,0.7-0.5,1.2-1.2,1.2c-0.6,0-1.2-0.5-1.2-1.2
		C99.3,63.9,99.8,63.3,100.5,63.3"/>
	<path class="st16" d="M135.8,61c1.9,0,3.5,1.6,3.5,3.5s-1.6,3.5-3.5,3.5c-1.9,0-3.5-1.6-3.5-3.5S133.8,61,135.8,61"/>
	<path class="st16" d="M147.5,61c1.9,0,3.5,1.6,3.5,3.5s-1.6,3.5-3.5,3.5c-1.9,0-3.5-1.6-3.5-3.5S145.6,61,147.5,61"/>
</g>
</svg>
