<?xml version="1.0" encoding="utf-8"?>
<!-- Generator: Adobe Illustrator 23.1.1, SVG Export Plug-In . SVG Version: 6.00 Build 0)  -->
<svg version="1.1" id="Layer_1" xmlns="http://www.w3.org/2000/svg" xmlns:xlink="http://www.w3.org/1999/xlink" x="0px" y="0px"
	 viewBox="0 0 107.1 79.4" style="enable-background:new 0 0 107.1 79.4;" xml:space="preserve">
<style type="text/css">
	.st0{fill:#007064;}
	.st1{fill:#00969B;}
	.st2{clip-path:url(#SVGID_2_);fill:#025457;}
	.st3{clip-path:url(#SVGID_2_);fill:#00969B;}
	.st4{clip-path:url(#SVGID_2_);fill:#00786A;}
	.st5{clip-path:url(#SVGID_2_);fill:#004446;}
	.st6{clip-path:url(#SVGID_2_);fill:#004042;}
</style>
<polygon class="st0" points="7.8,0 1.6,6.4 1.6,14.2 45.2,14.2 45.2,6.4 38.7,0 "/>
<rect x="1.6" y="14.2" class="st1" width="43.5" height="51.1"/>
<g>
	<defs>
		<rect id="SVGID_1_" width="107.1" height="79.4"/>
	</defs>
	<clipPath id="SVGID_2_">
		<use xlink:href="#SVGID_1_"  style="overflow:visible;"/>
	</clipPath>
	<path class="st2" d="M23.8,50.4H23c-5.6,0-10.2-4.5-10.2-10.2v-5.6c0-5.6,4.5-10.2,10.2-10.2h0.8c5.6,0,10.2,4.5,10.2,10.2v5.6
		C33.9,45.9,29.4,50.4,23.8,50.4"/>
	<rect x="45.2" y="31.6" class="st3" width="40.6" height="16.8"/>
	<rect x="85.7" y="31.6" class="st4" width="15.4" height="16.8"/>
	<rect x="85.7" y="48.5" class="st5" width="15.4" height="17"/>
	<rect x="45.2" y="48.5" class="st2" width="40.6" height="17"/>
	<rect x="0" y="65.4" class="st2" width="107.1" height="7"/>
	<rect x="0" y="72.4" class="st6" width="107.1" height="7"/>
	<rect x="52.7" y="20.9" class="st6" width="6.3" height="10.7"/>
	<rect x="68.5" y="20.9" class="st6" width="6.3" height="10.7"/>
	<rect x="89.8" y="20.9" class="st6" width="6.3" height="10.7"/>
	<path class="st3" d="M93.2,20.9h-0.5c-3.8,0-7-3.1-7-7V3.5h14.5v10.4C100.2,17.8,97.1,20.9,93.2,20.9"/>
</g>
</svg>
