<?xml version="1.0" encoding="utf-8"?>
<!-- Generator: Adobe Illustrator 23.1.1, SVG Export Plug-In . SVG Version: 6.00 Build 0)  -->
<svg version="1.1" id="Layer_1" xmlns="http://www.w3.org/2000/svg" xmlns:xlink="http://www.w3.org/1999/xlink" x="0px" y="0px"
	 viewBox="0 0 40.7 42.8" style="enable-background:new 0 0 40.7 42.8;" xml:space="preserve">
<style type="text/css">
	.st0{clip-path:url(#SVGID_2_);fill:none;stroke:#BB1B1B;stroke-width:7;stroke-miterlimit:10;}
	.st1{clip-path:url(#SVGID_4_);fill:url(#SVGID_5_);}
	.st2{clip-path:url(#SVGID_7_);fill:#391C19;}
	.st3{clip-path:url(#SVGID_7_);fill:#E6E5E5;}
</style>
<g>
	<defs>
		<rect id="SVGID_1_" y="0" width="40.7" height="42.8"/>
	</defs>
	<clipPath id="SVGID_2_">
		<use xlink:href="#SVGID_1_"  style="overflow:visible;"/>
	</clipPath>
	<path class="st0" d="M7.3,30.7l-2.4-4.4c0,0-4.7-7.5,2.9-15c7.6-7.5,8.5-7.9,9.8-7.9c1.2,0,4.4,1.7,7.1,2.2
		c2.7,0.5,5.5,0.7,6.8,1.9c1.3,1.2,1.6,4.5,2.8,7.5c1.2,3.1,3.2,9.4,2.8,11.4c-0.4,2-3.6,5.4-9,8.9c-5.6,3.5-7,4-8.8,3.9
		c-1.8-0.1-7.9-1.9-9-3.1C9.8,35.5,7.3,30.7,7.3,30.7z"/>
</g>
<g>
	<defs>
		<path id="SVGID_3_" d="M7.8,11.4c-7.6,7.5-2.9,15-2.9,15l2.4,4.4c0,0,2.4,4.8,3,5.4c1.1,1.2,7.2,3.1,9,3.1
			c1.8,0.1,3.2-0.4,8.8-3.9c5.4-3.4,8.6-6.9,9-8.9c0.4-2-1.6-8.4-2.8-11.4c-1.2-3.1-1.5-6.3-2.8-7.5c-1.3-1.2-4.1-1.4-6.8-1.9
			c-2.7-0.5-5.9-2.2-7.1-2.2C16.4,3.5,15.5,3.9,7.8,11.4"/>
	</defs>
	<clipPath id="SVGID_4_">
		<use xlink:href="#SVGID_3_"  style="overflow:visible;"/>
	</clipPath>
	
		<radialGradient id="SVGID_5_" cx="0" cy="42.7699" r="1" gradientTransform="matrix(17.3759 0 0 -17.3759 20.3514 764.5487)" gradientUnits="userSpaceOnUse">
		<stop  offset="0" style="stop-color:#F4B92C"/>
		<stop  offset="0.7366" style="stop-color:#FFEB00"/>
		<stop  offset="1" style="stop-color:#F4BB08"/>
	</radialGradient>
	<rect x="0.2" y="3.5" class="st1" width="37.3" height="35.8"/>
</g>
<g>
	<defs>
		<rect id="SVGID_6_" y="0" width="40.7" height="42.8"/>
	</defs>
	<clipPath id="SVGID_7_">
		<use xlink:href="#SVGID_6_"  style="overflow:visible;"/>
	</clipPath>
	<path class="st2" d="M21.7,12.6c0,0,4.5-0.8,7.4,3.8c2.9,4.6,1.2,10.5-2.7,12.7c-4,2.2-9.2,4.6-11.8,0.8s-3.3-8.4-2.3-11.4
		C13.1,15.4,15.3,12.6,21.7,12.6"/>
	<path class="st3" d="M15.1,28.7c0,0-3.5-5-2.4-9.2c1.1-4.1,6.7-5.8,10.1-5.5c3.4,0.2,7,1.7,6.5,7.4c-0.4,5.6-3.7,7-8.9,9
		C16.7,31.8,15.1,28.7,15.1,28.7"/>
</g>
</svg>
