<?xml version="1.0" encoding="utf-8"?>
<!-- Generator: Adobe Illustrator 23.1.1, SVG Export Plug-In . SVG Version: 6.00 Build 0)  -->
<svg version="1.1" id="Layer_1" xmlns="http://www.w3.org/2000/svg" xmlns:xlink="http://www.w3.org/1999/xlink" x="0px" y="0px"
	 viewBox="0 0 54.3 45.3" style="enable-background:new 0 0 54.3 45.3;" xml:space="preserve">
<style type="text/css">
	.st0{clip-path:url(#SVGID_2_);fill:#A3793C;}
	.st1{clip-path:url(#SVGID_2_);fill:#FCC01F;}
	.st2{clip-path:url(#SVGID_2_);fill:#F8AC2E;}
	.st3{clip-path:url(#SVGID_2_);fill:#6F4A21;}
</style>
<g>
	<defs>
		<rect id="SVGID_1_" y="0" width="54.3" height="45.3"/>
	</defs>
	<clipPath id="SVGID_2_">
		<use xlink:href="#SVGID_1_"  style="overflow:visible;"/>
	</clipPath>
	<path class="st0" d="M25.4,13.6c2,0,3.6-1.6,3.6-3.6c0-2-1.6-3.6-3.6-3.6c0,0-0.1,0-0.1,0c0.1-0.3,0.1-0.6,0.1-0.9
		c0-1.3-0.7-2.6-1.9-3.2c-1.2-0.6-2.6-0.6-3.7,0.2c-0.5-1.5-2-2.5-3.6-2.4c-1.6,0.1-3,1.3-3.3,2.9c-0.3-0.1-0.7-0.1-1-0.2
		c-2,0-3.6,1.6-3.6,3.6c0,0,0,0.1,0,0.1C7.9,6.4,7.6,6.3,7.2,6.3c-2,0-3.6,1.6-3.6,3.6c0,2,1.6,3.6,3.6,3.6H25.4z"/>
	<polygon class="st1" points="26.3,44.4 6.3,44.4 4.5,17.2 28.1,17.2 	"/>
	<rect x="2.7" y="13.6" class="st1" width="27.2" height="3.6"/>
	<polygon class="st2" points="27.8,20.8 28.1,17.2 4.5,17.2 4.8,20.8 	"/>
	<path class="st0" d="M48,44.4c1.7,0,3.2-1.2,3.5-2.8c0.4-1.6-0.4-3.3-2-4.1c0.5-1.3,0.2-2.7-0.7-3.7c-0.9-1-2.4-1.4-3.7-1
		c-0.3-1.5-1.6-2.7-3.2-2.8c0.8-1.2,0.8-2.7,0-3.9c-0.8-1.2-2.2-1.8-3.6-1.5c-0.9-1.6-2.8-2.3-4.4-1.6c-0.6-1.3-1.9-2.1-3.3-2.1
		c-1.4,0-2.7,0.8-3.3,2.1c-1.7-0.6-3.6,0-4.4,1.6c-1.4-0.2-2.7,0.4-3.5,1.6c-0.8,1.2-0.8,2.7-0.1,3.8c-1.6,0.2-2.8,1.3-3.2,2.8
		c-0.3-0.1-0.7-0.1-1-0.2c-1.2,0-2.3,0.6-3,1.6c-0.7,1-0.8,2.2-0.4,3.3c-1.5,0.7-2.3,2.4-2,4.1c0.4,1.6,1.8,2.8,3.5,2.8H48z"/>
	<rect x="9.1" y="9.1" class="st3" width="1.8" height="1.8"/>
	<rect y="43.5" class="st3" width="1.8" height="1.8"/>
	<rect x="3.6" y="43.5" class="st3" width="50.7" height="1.8"/>
	<rect x="14.5" y="37.1" class="st3" width="1.8" height="1.8"/>
	<rect x="44.4" y="37.1" class="st3" width="1.8" height="1.8"/>
	<rect x="29.9" y="39.8" class="st3" width="1.8" height="1.8"/>
	<rect x="21.7" y="32.6" class="st3" width="1.8" height="1.8"/>
	<rect x="20.8" y="39.8" class="st3" width="1.8" height="1.8"/>
	<rect x="29" y="25.4" class="st3" width="1.8" height="1.8"/>
	<rect x="15.4" y="4.5" class="st3" width="1.8" height="1.8"/>
	<rect x="19.9" y="9.1" class="st3" width="1.8" height="1.8"/>
	<path class="st3" d="M41.6,42.1c0,0-2.2-2.1-7.2-3.1c-5-0.9-7.8,0.2-7.8,0.2l-0.7-1.7c0.1-0.1,3.3-1.4,8.9-0.3
		c5.5,1.1,8,3.4,8.1,3.5L41.6,42.1z"/>
</g>
</svg>
