<?xml version="1.0" encoding="utf-8"?>
<!-- Generator: Adobe Illustrator 23.1.1, SVG Export Plug-In . SVG Version: 6.00 Build 0)  -->
<svg version="1.1" id="Layer_1" xmlns="http://www.w3.org/2000/svg" xmlns:xlink="http://www.w3.org/1999/xlink" x="0px" y="0px"
	 viewBox="0 0 58.8 93.5" style="enable-background:new 0 0 58.8 93.5;" xml:space="preserve">
<style type="text/css">
	.st0{fill:#556B7A;}
	.st1{fill:#E7ECED;}
	.st2{fill:#90979B;}
	.st3{fill:#B0B6BC;}
	.st4{clip-path:url(#SVGID_2_);fill:#B0B6BC;}
	.st5{clip-path:url(#SVGID_2_);fill:#020203;}
</style>
<rect x="18.8" y="80.5" class="st0" width="21.2" height="11.6"/>
<rect x="22.7" y="1.4" class="st1" width="13.5" height="11.6"/>
<polygon class="st1" points="40,80.5 18.8,80.5 18.8,92.1 8.2,92.1 8.2,74.7 18.8,74.7 40,74.7 50.6,74.7 50.6,92.1 40,92.1 "/>
<polygon class="st2" points="9.2,59.3 49.6,59.3 44.8,68.9 40,68.9 18.8,68.9 14,68.9 "/>
<polygon class="st2" points="44.8,18.8 49.6,28.4 9.2,28.4 14,18.8 "/>
<rect x="18.8" y="68.9" class="st3" width="21.2" height="5.8"/>
<polygon class="st3" points="40,13 40,18.8 18.8,18.8 18.8,13 22.7,13 36.1,13 "/>
<g>
	<defs>
		<rect id="SVGID_1_" y="0" width="58.8" height="93.5"/>
	</defs>
	<clipPath id="SVGID_2_">
		<use xlink:href="#SVGID_1_"  style="overflow:visible;"/>
	</clipPath>
	<path class="st4" d="M57.4,53.5v3.9c0,1.1-0.9,1.9-1.9,1.9h-5.8H9.2H3.4c-1.1,0-1.9-0.9-1.9-1.9v-3.9c0-1.1,0.9-1.9,1.9-1.9h52.1
		C56.5,51.6,57.4,52.4,57.4,53.5"/>
	<path class="st4" d="M54.5,30.4v3.9c0,1.1-0.9,1.9-1.9,1.9H6.3c-1.1,0-1.9-0.9-1.9-1.9v-3.9c0-1.1,0.9-1.9,1.9-1.9h2.9h40.5h2.9
		C53.6,28.4,54.5,29.3,54.5,30.4"/>
	<path class="st5" d="M6.3,37.6h46.3c1.9,0,3.4-1.5,3.4-3.4v-3.9c0-1.9-1.5-3.4-3.4-3.4h-2l-4.8-9.6h-4.3v-5.8h-3.9V2.9h10.1V0H11.1
		v2.9h10.1v8.7h-3.9v5.8h-4.3L8.3,27h-2c-1.9,0-3.4,1.5-3.4,3.4v3.9C2.9,36.1,4.4,37.6,6.3,37.6 M34.7,11.6H24.1V2.9h10.6V11.6z
		 M20.2,14.5h18.3v2.9H20.2V14.5z M14.9,20.2h5.4v4.3h2.9v-4.3H28v4.3h2.9v-4.3h4.8v4.3h2.9v-4.3h5.4l3.4,6.7H11.5L14.9,20.2z
		 M5.8,30.4c0-0.3,0.2-0.5,0.5-0.5h46.3c0.3,0,0.5,0.2,0.5,0.5v3.9c0,0.3-0.2,0.5-0.5,0.5H6.3c-0.3,0-0.5-0.2-0.5-0.5V30.4z"/>
	<rect x="26.5" y="5.8" class="st5" width="5.8" height="2.9"/>
	<path class="st5" d="M55.4,50.1H3.4c-1.9,0-3.4,1.5-3.4,3.4v3.9c0,1.9,1.5,3.4,3.4,3.4h4.9l4.8,9.6h4.3v2.9H6.7v17.4H1.4v2.9h55.9
		v-2.9h-5.3V73.3H41.5v-2.9h4.3l4.8-9.6h4.9c1.9,0,3.4-1.5,3.4-3.4v-3.9C58.8,51.6,57.3,50.1,55.4,50.1 M38.6,90.6H20.2v-8.7h18.3
		V90.6z M49.2,90.6h-7.7V79H17.3v11.6H9.6V76.2h39.5V90.6z M20.2,70.4h18.3v2.9H20.2V70.4z M43.9,67.5h-5.4v-4.3h-2.9v4.3h-4.8v-4.3
		H28v4.3h-4.8v-4.3h-2.9v4.3h-5.4l-3.4-6.7h35.8L43.9,67.5z M55.9,57.4c0,0.3-0.2,0.5-0.5,0.5H3.4c-0.3,0-0.5-0.2-0.5-0.5v-3.9
		c0-0.3,0.2-0.5,0.5-0.5h52.1c0.3,0,0.5,0.2,0.5,0.5V57.4z"/>
	<rect x="26.5" y="84.8" class="st5" width="5.8" height="2.9"/>
</g>
</svg>
