<?xml version="1.0" encoding="utf-8"?>
<!-- Generator: Adobe Illustrator 23.1.1, SVG Export Plug-In . SVG Version: 6.00 Build 0)  -->
<svg version="1.1" id="Layer_1" xmlns="http://www.w3.org/2000/svg" xmlns:xlink="http://www.w3.org/1999/xlink" x="0px" y="0px"
	 viewBox="0 0 60.4 53.7" style="enable-background:new 0 0 60.4 53.7;" xml:space="preserve">
<style type="text/css">
	.st0{fill:#CAB42D;}
	.st1{fill:#A37B2B;}
	.st2{fill:#815F4B;}
	.st3{fill:#F6D011;}
	.st4{fill:#8B6755;}
	.st5{fill:#F08707;}
	.st6{fill:#F9AF17;}
	.st7{fill:#8A632E;}
	.st8{fill:none;}
</style>
<g>
	<path class="st0" d="M34.8,37.5c0,0-15.2,0.4-24.5,6.9l11.5-2.7l-6.6,7l12.2-4.4c0,0-8.3,7.7-8.2,9.5c0,0,5.1-4.2,9.1-5.8
		c4.9-1.9,5.5-2.1,5.5-2.1s-7.2,8.3-6.4,7.8c9.7-5.7,14.3-7.8,16.3-8.4c4.3-1.3,3.7-2,9.4-3.2s5.8-2.7,0-4.1S51.6,36.6,34.8,37.5"/>
	<path class="st1" d="M43.1,43.2c0,0,10.1-0.3,7.5-3.2c-2.5-2.9-2.7-1.4-4.7-3.4c-2-1.9-1.8-1.2-2.4-3.9c-0.6-2.7-6.3-5.2-7.7-5.2
		c-1.4,0-2.6,0.7-3.5,2.5c-0.9,1.7-4.1,1.7-4.3,3.2c-0.2,1.5-3.9,2.2-2.8,5.3C26.1,41.1,43.1,43.2,43.1,43.2"/>
	<path class="st2" d="M43.5,41.3c-0.2,0.1-0.4,0.1-0.5,0.1c-0.4,0-0.7,0-1.1,0.1c-0.2,0-0.3,0-0.5,0.1c-0.2,0-0.3,0.1-0.5,0.1
		c-0.2,0-0.3,0.1-0.5,0.1c-0.1,0-0.1,0.1-0.2,0.1c-0.1,0-0.2,0-0.3,0c-0.4,0-0.7,0-1.1-0.1c-0.4,0-0.7-0.1-1.1-0.1
		c-0.3,0-0.6,0-0.9,0c0.2,0.1,0.3,0.2,0.3,0.3c0,0,0,0,0,0c0.1,0,0.3,0,0.4,0l0.5,0.1c0.4,0,0.7,0,1.1,0c0.2,0,0.4,0,0.5,0
		c0.2,0,0.4,0,0.5,0c0.4,0,0.7-0.1,1.1-0.2c0.3-0.1,0.7-0.2,1.1-0.2c0.4,0,0.7-0.1,1.1-0.1c0.7-0.1,1.3-0.3,1.9-0.7
		c-0.2,0-0.3-0.1-0.3-0.2c-0.1-0.1-0.1-0.2-0.1-0.2c-0.3,0.1-0.6,0.2-0.9,0.4C43.8,41.1,43.7,41.2,43.5,41.3"/>
	<path class="st2" d="M43.5,41.8c-0.4,0.1-0.7,0.1-1.1,0.1c-0.4,0-0.7,0.1-1.1,0.2c-0.4,0.1-0.7,0.1-1.1,0.2c-0.2,0-0.4,0-0.6,0
		c-0.2,0-0.4,0-0.5,0c-0.4,0-0.7,0-1.1-0.1l-0.5-0.1c-0.1,0-0.3,0-0.4,0c0,0.1-0.3,0.2-0.3,0.2c-0.3,0-0.5,0.1-0.6,0.3
		c-0.1,0.1-0.1,0.2-0.1,0.2c0.1,0,0.5,0,1.1-0.1c0.7-0.1,1.5,0,2.5,0c0.4,0,0.7,0.1,1.1,0.1c1.3,0.1,4.3-1.2,5-1.5
		c-0.1-0.1-0.2-0.2-0.4-0.2c0,0-0.1,0-0.1,0c-0.3,0.2-0.5,0.4-0.8,0.5C44.2,41.7,43.8,41.8,43.5,41.8"/>
	<path class="st2" d="M38.1,41.2c0.1,0,0.2,0,0.3,0.1c0.1,0,0.2,0.1,0.3,0.2c-0.2,0-0.4,0-0.6,0l-0.6-0.1c0.1-0.1,0.2-0.1,0.3-0.1
		C37.9,41.2,38,41.2,38.1,41.2 M43.5,40.6c0.1,0,0.2-0.1,0.3-0.1c0.1,0,0.2-0.1,0.3-0.1c0.5-0.1,0.9-0.3,1.4-0.3
		c-0.4,0.2-0.9,0.3-1.3,0.5c-0.1,0-0.2,0.1-0.3,0.1c-0.1,0-0.2,0.1-0.4,0.1c-0.2,0-0.5,0-0.7,0C43,40.7,43.2,40.7,43.5,40.6
		 M37.8,41.6c0.4,0,0.7,0,1.1,0c0.4,0,0.7,0,1.1,0c0.1,0,0.2,0,0.2,0c0.1,0,0.1-0.1,0.2-0.1c0.2-0.1,0.4-0.1,0.5-0.2
		c0.2,0,0.3-0.1,0.5-0.1c0.2,0,0.4,0,0.5,0l1.1,0c0.2,0,0.3,0,0.5-0.1c0.2,0,0.3-0.1,0.5-0.2c0.2-0.1,0.3-0.1,0.5-0.2
		c0.1,0,0.3-0.1,0.4-0.1c0,0,0,0,0-0.1c0,0,0,0,0.1-0.1c0,0,0.9-0.3,1.1-0.4c0.2-0.1,0.2-0.2,0.2-0.3c0,0-0.1-0.1-0.2-0.1
		c-0.3,0-0.6,0.1-0.9,0.2c-0.3,0.1-0.6,0.2-0.9,0.3c-0.2,0-0.3,0.1-0.5,0.1c-0.7,0.2-1.7,0.4-3,0.8c-1.1,0.4-1.2,0.3-1.6,0.1
		c-0.2-0.1-0.3-0.2-0.7-0.2c-0.7-0.1-1.7,0.1-2.3,0.4c0.2,0.1,0.4,0.2,0.6,0.3C37.1,41.6,37.4,41.6,37.8,41.6"/>
	<path class="st3" d="M42.4,41.8c-0.4,0-0.7,0.1-1.1,0.2c-0.3,0.1-0.7,0.1-1.1,0.2c-0.2,0-0.4,0-0.5,0c-0.2,0-0.4,0-0.5,0
		c-0.4,0-0.7,0-1.1,0l-0.5-0.1c-0.1,0-0.3,0-0.4,0c0,0-0.1,0-0.1,0c0,0,0.1,0,0.1,0c0.1,0,0.3,0,0.4,0l0.5,0.1
		c0.4,0.1,0.7,0.1,1.1,0.1c0.2,0,0.4,0,0.5,0c0.2,0,0.4,0,0.6,0c0.4,0,0.7-0.1,1.1-0.2c0.3-0.1,0.7-0.2,1.1-0.2
		c0.4-0.1,0.7-0.1,1.1-0.1c0.4-0.1,0.7-0.2,1.1-0.3c0.3-0.1,0.6-0.3,0.8-0.5c0,0,0.1,0,0.1-0.1c0,0-0.1,0-0.1,0.1
		c-0.6,0.4-1.2,0.6-1.9,0.7C43.1,41.8,42.7,41.8,42.4,41.8"/>
	<path class="st3" d="M43.9,40.9c-0.2,0.1-0.3,0.2-0.5,0.2c-0.2,0-0.3,0.1-0.5,0.1l-1.1,0c-0.2,0-0.4,0-0.5,0
		c-0.2,0-0.4,0.1-0.5,0.1c-0.2,0-0.4,0.1-0.5,0.2c-0.1,0-0.2,0.1-0.2,0.1c-0.1,0-0.1,0-0.2,0c-0.3,0-0.7,0-1.1,0c-0.3,0-0.7,0-1.1,0
		c-0.3,0-0.6,0-0.9,0.1c0,0-0.1,0-0.1,0c0.1,0,0.1,0,0.2,0c0.3,0,0.6,0,0.9,0c0.4,0,0.7,0.1,1.1,0.1c0.4,0,0.7,0.1,1.1,0.1
		c0.1,0,0.2,0,0.3,0c0.1,0,0.2-0.1,0.2-0.1c0.1-0.1,0.3-0.1,0.5-0.1c0.2,0,0.3-0.1,0.5-0.1c0.2,0,0.3,0,0.5-0.1c0.4,0,0.7,0,1.1,0
		c0.2,0,0.4,0,0.5-0.1C43.7,41.2,43.8,41.1,43.9,40.9c0.3-0.1,0.6-0.2,0.9-0.3c0,0,0.1,0,0.1,0c0,0-0.1,0-0.1,0
		c-0.1,0-0.3,0.1-0.4,0.1C44.3,40.8,44.1,40.9,43.9,40.9"/>
	<path class="st3" d="M43.8,40.7c0.1,0,0.2-0.1,0.3-0.1c0.4-0.2,0.9-0.3,1.3-0.5c-0.5,0.1-0.9,0.2-1.4,0.3c-0.1,0-0.2,0.1-0.3,0.1
		c-0.1,0-0.2,0.1-0.3,0.1c-0.2,0.1-0.5,0.1-0.7,0.2c0.2,0,0.5,0,0.7,0C43.6,40.8,43.7,40.7,43.8,40.7"/>
	<path class="st3" d="M38.1,41.4c0.2,0,0.4,0.1,0.6,0c-0.1-0.1-0.2-0.1-0.3-0.2c-0.1,0-0.2-0.1-0.3-0.1c-0.1,0-0.2,0-0.3,0
		c-0.1,0-0.2,0-0.3,0.1L38.1,41.4z"/>
	<path class="st2" d="M36.8,33.1c0,0.1,0.1,0.1,0.2,0.1c0.1,0,0.1,0,0.2,0c0.1,0,0.1,0,0.2,0c-0.1,0-0.3,0-0.4,0
		C36.9,33.3,36.8,33.2,36.8,33.1c-0.1,0-0.1-0.1-0.1-0.2c0-0.1-0.1-0.3-0.2-0.4c0-0.1-0.1-0.1-0.1-0.2c-0.1-0.1-0.1-0.1-0.2-0.1
		c0.1,0.1,0.3,0.1,0.3,0.3c0.1,0.1,0.2,0.3,0.2,0.4C36.8,33,36.8,33.1,36.8,33.1 M34.8,31.2c-0.1,0-0.2,0-0.2-0.1
		c0,0-0.1-0.1-0.1-0.1c0,0,0-0.1-0.1-0.1c0,0,0.1,0,0.1,0.1c0,0,0.1,0.1,0.1,0.1C34.7,31.1,34.7,31.1,34.8,31.2
		c0.1-0.1,0.2-0.1,0.2-0.1c0,0,0.1,0,0.1,0c0,0,0.1,0,0.1,0c0,0,0,0,0,0.1c0,0,0,0,0,0c0,0,0,0,0,0c0,0-0.1,0-0.1,0
		C35,31.2,34.9,31.2,34.8,31.2 M37,32.8C37,32.8,37,32.8,37,32.8c-0.1,0-0.1-0.1-0.1-0.1c0,0,0-0.1,0-0.1c0,0,0,0,0-0.1
		c0,0-0.1-0.1-0.1-0.1c-0.2-0.1-0.3-0.3-0.4-0.5c-0.1-0.2-0.2-0.3-0.3-0.5c-0.1-0.1-0.1-0.2-0.2-0.2c-0.1-0.1-0.2-0.1-0.2-0.1
		C35.4,31,35.2,31,35,30.9c-0.3-0.1-0.7-0.2-1-0.4c0,0,0,0-0.1,0c0,0-0.1,0-0.1,0c0,0.1,0,0.3,0,0.4c0,0,0.2,0.1,0.3,0.1
		c0.2,0.1,0.4,0.1,0.6,0.2l0.1,0c0.3,0.2,0.5,0.2,0.8,0.6c0.2,0.3,0.4,0.6,0.5,0.9c0.1,0.1,0.1,0.2,0.2,0.3c0.1,0.2,0.2,0.3,0.5,0.3
		c0.1,0,0.2,0.1,0.3,0.1c0.4,0.1,0.4,0.1,0.5,0.1c0,0,0.1,0,0.1,0l0-0.6c-0.2-0.1-0.3-0.2-0.5-0.2C37.1,32.8,37.1,32.8,37,32.8"/>
	<path class="st2" d="M36.6,32.1c0,0-0.1-0.1-0.1-0.1c0,0-0.1-0.1-0.1-0.2c0,0,0.1,0.1,0.1,0.1C36.6,32,36.6,32,36.6,32.1
		c0.1,0,0.2,0.1,0.3,0.1C36.8,32.2,36.7,32.1,36.6,32.1 M35.1,30.7C35.1,30.7,35,30.7,35.1,30.7C35,30.7,35,30.6,35.1,30.7
		c0-0.1,0.1-0.1,0.1-0.1c0.1,0,0.1,0.1,0.2,0.1c0,0-0.1,0-0.1,0C35.2,30.7,35.2,30.7,35.1,30.7C35.2,30.6,35.1,30.6,35.1,30.7
		 M37.2,32.2c-0.1-0.1-0.1-0.1-0.2-0.2l-0.2-0.2c-0.1-0.1-0.3-0.3-0.4-0.4c-0.1-0.1-0.2-0.3-0.4-0.4l-0.2-0.2
		c-0.1-0.1-0.1-0.1-0.2-0.2c-0.1-0.1-0.3-0.2-0.4-0.3c-0.1-0.1-0.3-0.1-0.5,0c0,0.1-0.1,0.2-0.2,0.2c-0.1,0-0.3,0-0.5,0
		c0.3,0.1,0.6,0.2,0.9,0.3c0.2,0.1,0.4,0.1,0.6,0.2c0.1,0,0.2,0.1,0.3,0.2c0.1,0.1,0.1,0.2,0.2,0.2c0.1,0.2,0.2,0.4,0.3,0.5
		c0.1,0.2,0.2,0.3,0.4,0.4c0,0,0.1,0.1,0.1,0.1c0,0,0,0.1,0,0.1c0,0,0,0.1,0,0.1c0,0,0.1,0.1,0.1,0.1c0,0,0.1,0,0.1,0
		c0.2,0.1,0.3,0.2,0.5,0.3l0-0.1c0,0,0,0,0,0c0,0,0,0,0,0c0.1,0.2,0.2,0.4,0.2,0.4c0,0,0,0,0-0.2c0,0,0,0,0,0c0-0.1,0-0.2,0.1-0.2
		c-0.1-0.1-0.3-0.2-0.4-0.3C37.5,32.5,37.4,32.4,37.2,32.2"/>
	<path class="st2" d="M36.7,31.4C36.7,31.4,36.7,31.4,36.7,31.4C36.7,31.4,36.7,31.4,36.7,31.4C36.7,31.4,36.7,31.4,36.7,31.4
		c0-0.1,0-0.2,0-0.2c0-0.1,0-0.1-0.1-0.2c-0.1-0.1-0.1-0.2-0.3-0.3c0.1,0,0.1,0,0.2,0.1c0.1,0.1,0.1,0.1,0.1,0.2
		c0,0.1,0.1,0.1,0.1,0.2C36.7,31.3,36.7,31.3,36.7,31.4C36.7,31.4,36.7,31.4,36.7,31.4C36.7,31.4,36.7,31.4,36.7,31.4
		C36.7,31.4,36.7,31.4,36.7,31.4 M35,30.1c-0.1,0-0.2,0-0.2-0.1c-0.1,0-0.1-0.1-0.2-0.1c0,0-0.1-0.1-0.1-0.1c0,0,0-0.1-0.1-0.1
		c0,0,0.1,0,0.1,0.1c0,0,0.1,0,0.1,0.1c0.1,0,0.1,0.1,0.2,0.1S35,30,35,30.1c0.1,0,0.2,0,0.2,0C35.2,30.1,35.1,30.1,35,30.1
		 M37.8,32.2c-0.1,0-0.2-0.1-0.3-0.2c-0.2-0.2-0.3-0.4-0.4-0.6C37,31.3,37,31.1,36.9,31c-0.1-0.1-0.1-0.2-0.2-0.3
		c-0.1-0.1-0.2-0.2-0.3-0.2c-0.1-0.1-0.2-0.1-0.3-0.1c-0.1,0-0.2-0.1-0.3-0.1c-0.1-0.1-0.2-0.1-0.3-0.2c-0.2-0.2-0.3-0.3-0.5-0.5
		c-0.1-0.1-0.2-0.2-0.3-0.2c-0.1,0-0.1,0-0.2,0c0,0-0.1,0-0.1,0c-0.1,0.1-0.2,0.2-0.3,0.4c0,0,0,0,0,0c0,0.1,0.4,0.4,0.6,0.4
		c0.1,0,0.1,0.1,0.1,0.2c0,0,0,0,0,0c0.1,0,0.1,0,0.2,0c0.1,0,0.2,0,0.3,0.1c0.2,0.1,0.3,0.2,0.5,0.3c0.1,0.1,0.1,0.1,0.2,0.2
		l0.2,0.2c0.1,0.1,0.2,0.3,0.4,0.4c0.1,0.1,0.2,0.3,0.4,0.4c0.1,0.1,0.3,0.3,0.4,0.4c0.1,0.1,0.3,0.2,0.4,0.3
		c0.1,0.1,0.3,0.2,0.4,0.3c0,0,0,0,0,0c0.1-0.1,0.3,0.1,0.4,0.2c0.1,0,0.1,0.1,0.2,0.1c0,0,0,0,0,0c0-0.1,0-0.2,0-0.4
		c-0.2-0.1-0.4-0.2-0.6-0.3C38,32.3,37.9,32.3,37.8,32.2"/>
	<path class="st2" d="M34.6,29.2c-0.1,0-0.2,0.1-0.2,0.2c0,0,0.1,0,0.1,0C34.5,29.3,34.5,29.3,34.6,29.2c0,0.1,0,0.1,0,0.1
		c0.1,0.1,0.2,0.1,0.3,0.2c0.2,0.2,0.3,0.3,0.5,0.5c0.1,0.1,0.2,0.1,0.3,0.2c0.1,0.1,0.2,0.1,0.3,0.1c0.1,0,0.2,0.1,0.3,0.1
		c0.1,0.1,0.2,0.2,0.3,0.2c0.1,0.1,0.2,0.2,0.2,0.3c0.1,0.1,0.1,0.2,0.2,0.3c0.1,0.2,0.2,0.4,0.4,0.6c0.1,0.1,0.2,0.2,0.3,0.2
		c0.1,0,0.2,0.1,0.3,0.2c0.2,0.1,0.4,0.2,0.6,0.3c0-0.2-0.1-0.3-0.2-0.5c-0.3-0.3-0.7-0.5-1-0.6c0,0-0.1,0-0.1,0
		c-0.3-0.1-0.3-0.4-0.3-0.7c0-0.1,0-0.2-0.1-0.3c-0.1-0.2-0.1-0.2-0.3-0.3c0,0-0.1,0-0.2,0c-0.3-0.1-0.7-0.3-1.3-0.7
		c-0.5-0.4-0.5-0.4-0.6-0.4C34.7,29.2,34.6,29.2,34.6,29.2"/>
	<path class="st3" d="M37.1,32.8c0,0-0.1,0-0.1-0.1c0,0,0,0,0-0.1c0,0,0-0.1,0-0.1c0,0-0.1-0.1-0.1-0.1c-0.2-0.1-0.3-0.3-0.4-0.4
		c-0.1-0.2-0.2-0.3-0.3-0.5c-0.1-0.1-0.1-0.2-0.2-0.2c-0.1-0.1-0.2-0.1-0.3-0.2c-0.2-0.1-0.4-0.1-0.6-0.2c-0.3-0.1-0.6-0.2-0.9-0.3
		c-0.1,0-0.1-0.1-0.2-0.1c0.1,0,0.1,0,0.2,0.1c0.3,0.1,0.6,0.3,1,0.4c0.2,0.1,0.4,0.1,0.6,0.2c0.1,0,0.2,0.1,0.2,0.1
		c0.1,0.1,0.1,0.2,0.2,0.2c0.1,0.2,0.2,0.4,0.3,0.5c0.1,0.2,0.2,0.3,0.4,0.5c0,0,0.1,0.1,0.1,0.1c0,0,0,0,0,0.1c0,0,0,0,0,0.1
		C36.9,32.7,36.9,32.7,37.1,32.8C37,32.8,37,32.8,37.1,32.8c0,0.1,0.1,0.1,0.1,0.1c0.2,0.1,0.3,0.1,0.5,0.2c0,0,0,0,0,0c0,0,0,0,0,0
		c-0.2-0.1-0.3-0.2-0.5-0.3C37.2,32.8,37.1,32.8,37.1,32.8"/>
	<path class="st3" d="M37.3,32.2c-0.1-0.1-0.3-0.3-0.4-0.4c-0.1-0.1-0.3-0.3-0.4-0.4c-0.1-0.1-0.3-0.3-0.4-0.4l-0.2-0.2
		c-0.1-0.1-0.1-0.1-0.2-0.2c-0.1-0.1-0.3-0.2-0.5-0.3c-0.1,0-0.2-0.1-0.3-0.1c-0.1,0-0.1,0-0.2,0c0,0,0,0,0,0c0,0,0,0,0,0
		c0.2-0.1,0.3,0,0.5,0c0.2,0.1,0.3,0.2,0.4,0.3c0.1,0.1,0.1,0.1,0.2,0.2l0.2,0.2c0.1,0.1,0.2,0.3,0.4,0.4c0.1,0.1,0.3,0.3,0.4,0.4
		l0.2,0.2C37.1,32.1,37.2,32.2,37.3,32.2c0.1,0.2,0.3,0.2,0.4,0.3c0.1,0.1,0.3,0.2,0.4,0.3c0,0,0,0,0,0c0,0,0,0,0,0
		c-0.1-0.1-0.3-0.2-0.4-0.3C37.6,32.4,37.4,32.3,37.3,32.2"/>
	<path class="st3" d="M37.8,32.2c-0.1,0-0.2-0.1-0.3-0.2c-0.2-0.2-0.3-0.4-0.4-0.6c-0.1-0.1-0.1-0.2-0.2-0.3
		c-0.1-0.1-0.2-0.2-0.2-0.3c-0.1-0.1-0.2-0.2-0.3-0.2c-0.1-0.1-0.2-0.1-0.3-0.1c-0.1,0-0.2-0.1-0.3-0.1c-0.1-0.1-0.2-0.1-0.3-0.2
		c-0.2-0.2-0.3-0.3-0.5-0.5c-0.1-0.1-0.2-0.2-0.3-0.2c0,0-0.1,0-0.1,0c0,0-0.1,0-0.1,0c0,0-0.1,0-0.1,0c0,0,0,0-0.1,0c0,0,0,0,0.1,0
		c0,0,0.1,0,0.1,0c0.1,0,0.1,0,0.2,0c0.1,0.1,0.2,0.1,0.3,0.2c0.2,0.2,0.3,0.4,0.5,0.5c0.1,0.1,0.2,0.2,0.3,0.2
		c0.1,0.1,0.2,0.1,0.3,0.1c0.1,0,0.2,0.1,0.3,0.1c0.1,0.1,0.2,0.1,0.3,0.2s0.2,0.2,0.2,0.3c0.1,0.1,0.1,0.2,0.2,0.3
		c0.1,0.2,0.2,0.4,0.4,0.6C37.5,32.1,37.6,32.2,37.8,32.2c0.1,0.1,0.2,0.1,0.3,0.2c0.2,0.1,0.4,0.2,0.6,0.3c0,0,0,0,0.1,0l-0.1,0
		c-0.2-0.1-0.4-0.2-0.6-0.3C38,32.3,37.9,32.2,37.8,32.2"/>
	<path class="st3" d="M40.7,34.8c-0.2,0.1-0.4,0.2-0.5,0.3C40.4,35,40.6,35,40.7,34.8c0.2,0,0.4-0.1,0.6-0.2c0.3-0.2,0.7-0.4,1-0.6
		c0,0,0.1,0,0.1-0.1c0,0-0.1,0-0.1,0.1c-0.3,0.2-0.7,0.3-1,0.5L40.7,34.8z"/>
	<path class="st2" d="M34.9,39.6c-0.4,0.1-0.8,0.1-1.2,0c-0.2,0-0.4,0-0.6-0.1c-0.2,0-0.4-0.1-0.6-0.1c0.2,0,0.4,0,0.6,0l0.6,0
		C34.1,39.6,34.5,39.6,34.9,39.6c-0.1-0.1-0.1-0.1-0.1-0.2c0-0.1,0.1-0.1,0.4-0.1c0.5,0,0.8-0.1,0.9-0.2c-0.2,0-0.5,0-1,0
		c-0.7,0-1.4,0-2.3-0.1c-0.3,0-0.6,0-1-0.1c-1.2-0.1-5,0.5-5.8,0.7c0,0,0.1,0,0.2,0.1c0.1,0,0.2,0.1,0.3,0.1c0,0,0,0,0,0
		c0,0,0,0.1,0,0.1c0.2,0,0.3-0.1,0.5-0.1c0.2,0,0.4-0.1,0.6-0.1c0.2,0,0.4-0.1,0.6-0.1c0.2,0,0.4,0,0.6,0c0.4,0,0.8,0,1.2,0
		c0.4,0,0.8,0,1.2,0c-0.2,0-0.4,0.1-0.6,0.1c-0.2,0-0.4,0-0.6,0c-0.4,0-0.8,0-1.2,0c-0.2,0-0.4,0-0.6,0c-0.2,0-0.4,0.1-0.6,0.1
		c-0.4,0.1-0.7,0.1-1.1,0.1c0,0,0,0,0,0c0,0,0,0-0.1,0c0,0-1,0.1-1.4,0.2c-0.2,0-0.3,0.1-0.4,0.1c0,0,0,0,0.1,0c0.3,0,0.6,0,1-0.1
		c0.3,0,0.7-0.1,1-0.1c0.2,0,0.4,0,0.6,0c0.8-0.1,1.9-0.2,3.3-0.4c1.3-0.2,1.3-0.1,1.6,0c0.1,0,0.2,0.1,0.5,0.1
		c0.5,0.1,1.7,0,2.4-0.1C35,39.7,34.9,39.7,34.9,39.6"/>
	<path class="st3" d="M28.2,39.8c0.2,0,0.4,0,0.6,0c0.4,0,0.8,0,1.2,0c0.2,0,0.4,0,0.6,0c0.2,0,0.4-0.1,0.6-0.1c-0.4,0-0.8,0-1.2,0
		c-0.4,0-0.8,0-1.2,0c-0.2,0-0.4,0-0.6,0c-0.2,0-0.4,0.1-0.6,0.1s-0.4,0.1-0.6,0.1c-0.2,0-0.3,0.1-0.5,0.1c0,0-0.1,0-0.1,0
		c0,0,0,0,0.1,0c0.4,0,0.7-0.1,1.1-0.1C27.8,39.9,28,39.8,28.2,39.8"/>
	<path class="st4" d="M40.6,37.6c0,0,0.1,0,0.1-0.1c0.1,0,0.1,0,0.2,0c-0.1,0-0.1,0-0.1,0L40.6,37.6c0,0.1-0.1,0.2-0.2,0.2
		C40.4,37.7,40.5,37.6,40.6,37.6 M40.9,37.2c0.2,0,0.4-0.1,0.5-0.1c0.2,0,0.4-0.1,0.6-0.1c0.1,0,0.2,0,0.3,0c0,0,0.1,0,0.1,0
		c0,0,0.1,0,0.1,0.1c0,0-0.1,0-0.1,0c0,0-0.1,0-0.1,0c-0.1,0-0.2,0-0.3,0c-0.2,0-0.4,0.1-0.5,0.1L40.9,37.2
		c-0.2,0.1-0.4,0.1-0.5,0.2C40.5,37.3,40.7,37.2,40.9,37.2 M40.2,37c0,0,0.1,0,0.1,0c0.1,0,0.1,0,0.2,0c0.1,0,0.3,0,0.4,0
		c-0.1,0-0.3,0-0.4,0.1c-0.1,0-0.1,0-0.2,0C40.2,37,40.2,37,40.2,37C40.1,37,40.1,37,40.2,37C40.1,37,40.1,37,40.2,37 M40.6,36.4
		c0.1,0,0.1-0.1,0.2-0.1c0.1,0,0.1,0,0.2,0c-0.1,0-0.1,0-0.2,0.1C40.7,36.4,40.7,36.5,40.6,36.4c-0.1,0.1-0.2,0.2-0.3,0.3
		C40.3,36.6,40.4,36.5,40.6,36.4 M41.7,36.5c0.2,0,0.3,0,0.5-0.1c0.2,0,0.3,0,0.5,0c0.2,0,0.3,0,0.5,0c-0.2,0-0.3,0.1-0.5,0.1
		c-0.2,0-0.3,0-0.5,0L41.7,36.5c-0.1,0.1-0.1,0.1-0.2,0.1c-0.1,0-0.2,0-0.2,0C41.4,36.6,41.5,36.5,41.7,36.5 M42.9,37.2l-0.2,0
		c-0.1,0-0.1,0-0.2,0c0.1,0,0.1-0.1,0.2-0.1C42.7,37.2,42.8,37.2,42.9,37.2c0.1-0.1,0.3-0.1,0.4,0C43.2,37.2,43,37.2,42.9,37.2
		 M42.6,37.7c-0.2,0-0.4,0.1-0.6,0.1c-0.2,0-0.4,0-0.6,0c-0.2,0-0.4,0-0.6-0.1c0.1,0,0.2,0,0.3,0c0.1,0,0.2,0,0.3,0
		c0.2,0,0.4,0,0.6-0.1L42.6,37.7c0.2-0.1,0.4-0.1,0.5-0.1C42.9,37.6,42.8,37.6,42.6,37.7 M43,37.9c0,0,0.1,0,0.2-0.1
		c0.4-0.1,0.7-0.2,0.7-0.4c0-0.2-0.1-0.2-0.2-0.2c-0.1,0-0.2-0.1-0.3-0.2c0-0.1,0-0.1,0-0.2c0-0.1,0.1-0.1,0.2-0.2
		c0.1,0,0.2-0.1,0.2-0.1c0,0,0-0.1,0-0.1c-0.1-0.3-1.2-0.3-1.9-0.3c-0.2,0-0.4,0-0.6,0c-0.5,0-0.9,0-1.1,0.2
		c-0.2,0.2-0.3,0.6-0.2,1.2c0,0.3,0.2,0.5,0.5,0.7C41.2,38.5,42.8,38.1,43,37.9"/>
	<path class="st3" d="M42,37.7c-0.2,0-0.4,0-0.6,0.1c-0.1,0-0.2,0-0.3,0c-0.1,0-0.2,0-0.3,0c0.2,0.1,0.4,0.1,0.6,0.1
		C41.6,37.8,41.8,37.8,42,37.7c0.2,0.1,0.4,0,0.6,0c0.2,0,0.4-0.1,0.5-0.1c-0.2,0-0.4,0-0.6,0.1L42,37.7z"/>
	<path class="st3" d="M41.4,37.1c0.2,0,0.4-0.1,0.5-0.1c0.1,0,0.2,0,0.3,0c0,0,0.1,0,0.1,0c0,0,0.1,0,0.1,0c0,0-0.1,0-0.1-0.1
		c0,0-0.1,0-0.1,0c-0.1,0-0.2,0-0.3,0C41.8,37,41.6,37,41.4,37.1c-0.2,0-0.4,0-0.6,0c-0.2,0-0.4,0.1-0.5,0.2c0.2,0,0.4-0.1,0.6-0.1
		L41.4,37.1z"/>
	<path class="st3" d="M41.5,36.6c0.1,0,0.2,0,0.2,0l0.5,0c0.2,0,0.3,0,0.5,0c0.2,0,0.3,0,0.5-0.1c-0.2,0-0.3,0-0.5,0
		c-0.2,0-0.3,0-0.5,0c-0.2,0-0.3,0-0.5,0.1c-0.2,0-0.3,0.1-0.4,0.1C41.3,36.6,41.4,36.6,41.5,36.6"/>
	<path class="st3" d="M42.7,37.2c-0.1,0-0.1,0-0.2,0.1C42.5,37.3,42.6,37.3,42.7,37.2l0.2,0.1c0.1,0,0.3,0,0.4,0c-0.1,0-0.3,0-0.4,0
		C42.8,37.2,42.7,37.2,42.7,37.2"/>
	<path class="st3" d="M40.3,37c0.1,0,0.1,0,0.2,0c0.1,0,0.3,0,0.4-0.1c-0.1,0-0.3,0-0.4,0C40.4,36.9,40.3,36.9,40.3,37
		c-0.1-0.1-0.1,0-0.1,0c0,0-0.1,0-0.1,0.1c0,0,0.1,0,0.1,0C40.2,37,40.2,37,40.3,37"/>
	<path class="st4" d="M35.7,39.5c-0.2-0.2-0.3-0.3-0.5-0.5c-0.2-0.2-0.3-0.3-0.5-0.4c-0.4-0.3-0.7-0.5-1.1-0.8
		c-0.2-0.1-0.4-0.3-0.5-0.4c-0.2-0.2-0.3-0.3-0.5-0.5c0.4,0.3,0.7,0.6,1.1,0.8c0.4,0.3,0.7,0.5,1.1,0.8c0.2,0.1,0.4,0.3,0.5,0.4
		C35.4,39.1,35.6,39.3,35.7,39.5c0.2,0.1,0.4,0.2,0.5,0.4c0.2,0.2,0.3,0.3,0.5,0.5C36.3,40.1,36,39.8,35.7,39.5 M37.1,40.4
		c-1.3-1.5-2.4-2.7-3.2-3c-1-0.3-3.6-2.8-3.7-2.9c-0.3-0.3-0.6-0.7-0.8-0.8c0,0.1,0.1,0.3,0.4,0.7c1.2,1.9,6.4,5.9,6.5,5.9
		c0,0,0,0,0,0c0.8,0.7,1.7,1.3,2,1.4c0-0.1-0.1-0.2-0.4-0.5C37.6,41,37.3,40.7,37.1,40.4"/>
	<path class="st3" d="M35.7,39.4c-0.2-0.2-0.3-0.3-0.5-0.5c-0.2-0.2-0.3-0.3-0.5-0.4c-0.4-0.3-0.7-0.5-1.1-0.8
		c-0.4-0.2-0.7-0.5-1.1-0.8c0.2,0.2,0.3,0.3,0.5,0.5c0.2,0.1,0.3,0.3,0.5,0.4c0.4,0.3,0.7,0.5,1.1,0.8c0.2,0.1,0.4,0.3,0.5,0.4
		C35.3,39.2,35.5,39.4,35.7,39.4c0.3,0.4,0.6,0.7,1,1c-0.2-0.2-0.3-0.3-0.5-0.5C36,39.8,35.9,39.6,35.7,39.4"/>
	<path class="st2" d="M40.5,39.5c-0.2-0.1-0.4-0.2-0.6-0.3c-0.2-0.1-0.4-0.2-0.6-0.4c0.2,0.1,0.4,0.2,0.6,0.3
		c0.2,0.1,0.4,0.2,0.6,0.3c0.4,0.2,0.8,0.4,1.2,0.6C41.3,39.8,40.9,39.7,40.5,39.5 M37.5,37.9c-0.4-0.2-0.8-0.4-1.2-0.6
		c-0.4-0.2-0.8-0.4-1.2-0.7c-0.4-0.2-0.8-0.5-1.2-0.8c0.4,0.2,0.8,0.5,1.2,0.7c0.4,0.2,0.8,0.4,1.2,0.7
		C36.7,37.4,37.1,37.6,37.5,37.9l1.3,0.6C38.4,38.3,38,38.1,37.5,37.9 M33.5,35.4l-0.2,0.2c2.2,1.7,8.6,4.5,8.9,4.6
		c0.3,0,0.7,0.1,0.9,0.1C41.6,40,34.3,35.9,33.5,35.4"/>
	<path class="st3" d="M36.3,37.2c-0.4-0.2-0.8-0.4-1.2-0.7c-0.4-0.2-0.8-0.5-1.2-0.7c0.4,0.3,0.8,0.5,1.2,0.8
		c0.4,0.2,0.8,0.5,1.2,0.7c0.4,0.2,0.8,0.4,1.2,0.6c0.4,0.2,0.8,0.4,1.3,0.6l-1.2-0.6C37.1,37.6,36.7,37.4,36.3,37.2"/>
	<path class="st3" d="M40,39.1c-0.2-0.1-0.4-0.2-0.6-0.3C39.6,39,39.8,39.1,40,39.1c0.2,0.2,0.4,0.3,0.6,0.4
		c0.4,0.2,0.8,0.4,1.2,0.5c-0.4-0.2-0.8-0.4-1.2-0.6C40.4,39.3,40.2,39.2,40,39.1"/>
	<path class="st4" d="M37.7,35.1c-0.2,0-0.4-0.1-0.6-0.1c-0.2-0.1-0.4-0.1-0.5-0.2c0.2,0,0.4,0,0.6,0.1l0.6,0.1
		c0.3,0.1,0.7,0.1,1,0.2c0,0-0.1-0.1,0-0.1c0-0.1,0.1-0.1,0.4-0.1c0.4,0.1,0.7,0,0.9,0c-0.2,0-0.5-0.1-0.9-0.1
		c-0.6-0.1-1.3-0.2-2.1-0.4c-0.3-0.1-0.6-0.1-0.9-0.2c-1-0.2-4.6-0.2-5.3-0.2c0,0,0.1,0.1,0.2,0.1c0.1,0,0.2,0.1,0.2,0.1
		c0,0,0,0,0,0c0,0,0,0.1,0,0.1c0.2,0,0.3,0,0.5,0c0.2,0,0.4,0,0.5,0c0.2,0,0.3,0,0.5,0c0.2,0,0.4,0,0.5,0c0.4,0.1,0.7,0.1,1,0.2
		c0.3,0.1,0.7,0.1,1,0.1c-0.2,0-0.4,0-0.5,0c-0.2,0-0.4,0-0.5,0c-0.4,0-0.7-0.1-1-0.2c-0.2,0-0.3,0-0.5,0c-0.2,0-0.4,0-0.5,0
		c-0.3,0-0.7,0-1-0.1c0,0,0,0,0,0c0,0,0,0-0.1,0c0,0-0.9,0-1.3,0c-0.2,0-0.3,0-0.4,0.1c0,0,0,0,0.1,0c0.2,0,0.6,0,0.9,0.1
		c0.3,0,0.6,0,0.9,0c0.2,0,0.3,0,0.5,0c0.7,0.1,1.7,0.1,3.1,0.2c1.2,0,1.2,0.1,1.4,0.2c0.1,0,0.2,0.1,0.4,0.2
		c0.5,0.2,1.5,0.2,2.2,0.2c-0.1-0.1-0.2-0.1-0.2-0.2C38.4,35.2,38,35.1,37.7,35.1"/>
	<path class="st3" d="M32.7,34.4c0.2,0,0.3,0,0.5,0c0.3,0,0.7,0.1,1,0.2c0.2,0,0.4,0,0.5,0c0.2,0,0.4,0,0.5,0
		c-0.4-0.1-0.7-0.1-1-0.2c-0.3-0.1-0.7-0.1-1-0.2c-0.2,0-0.4,0-0.5,0c-0.2,0-0.4,0-0.5,0c-0.2,0-0.4,0-0.5,0c-0.2,0-0.3,0-0.5,0
		c0,0,0,0-0.1,0c0,0,0,0,0.1,0c0.3,0,0.7,0.1,1,0.1C32.3,34.4,32.5,34.4,32.7,34.4"/>
	<path class="st4" d="M48.5,38.5c-0.2,0-0.4,0-0.6-0.1c-0.2,0-0.4-0.1-0.6-0.1c0.2,0,0.4,0,0.6,0l0.6,0c0.3,0,0.7,0,1,0.1
		c0,0-0.1-0.1-0.1-0.1c0-0.1,0.1-0.1,0.4-0.1c0.4,0,0.7-0.1,0.9-0.2c-0.2,0-0.5,0-0.9,0c-0.6,0-1.3,0-2.1-0.1
		c-0.3,0-0.6-0.1-0.9-0.1c-1.1-0.1-4.6,0.4-5.3,0.5c0,0,0.1,0,0.2,0.1c0.1,0,0.2,0.1,0.2,0.1c0,0,0,0,0,0c0,0,0,0.1,0,0.1
		c0.2,0,0.3-0.1,0.5-0.1c0.2,0,0.4-0.1,0.5-0.1c0.2,0,0.3-0.1,0.5-0.1c0.2,0,0.4,0,0.5,0c0.4,0,0.7,0,1.1,0c0.4,0,0.7,0,1.1,0
		c-0.2,0-0.4,0-0.5,0.1c-0.2,0-0.4,0-0.5,0c-0.4,0-0.7,0-1.1,0c-0.2,0-0.3,0-0.5,0c-0.2,0-0.3,0.1-0.5,0.1c-0.3,0-0.7,0.1-1,0.1
		c0,0,0,0,0,0c0,0,0,0,0,0c0,0-0.9,0.1-1.3,0.2c-0.2,0-0.3,0.1-0.4,0.1c0,0,0,0,0.1,0c0.2,0,0.6,0,0.9-0.1c0.3,0,0.6-0.1,0.9-0.1
		c0.2,0,0.3,0,0.5,0c0.7,0,1.7-0.1,3.1-0.3c1.2-0.1,1.2-0.1,1.4,0c0.1,0,0.2,0.1,0.4,0.1c0.5,0.1,1.5,0,2.2-0.1
		c-0.1,0-0.2-0.1-0.2-0.1C49.2,38.5,48.8,38.5,48.5,38.5"/>
	<path class="st3" d="M43.4,38.5c0.2,0,0.3,0,0.5,0c0.4,0,0.7,0,1.1,0c0.2,0,0.4,0,0.5,0c0.2,0,0.4,0,0.5-0.1c-0.4,0-0.7,0-1.1,0
		c-0.4,0-0.7,0-1.1,0c-0.2,0-0.4,0-0.5,0c-0.2,0-0.4,0.1-0.5,0.1c-0.2,0-0.3,0.1-0.5,0.1c-0.2,0-0.3,0.1-0.5,0.1c0,0,0,0-0.1,0
		c0,0,0,0,0.1,0c0.3,0,0.7,0,1-0.1C43.1,38.6,43.3,38.5,43.4,38.5"/>
	<path class="st3" d="M29.6,37.8c-0.3,0-0.5,0.1-0.8,0.2c0.3,0,0.5,0,0.8,0c0.3,0,0.5,0,0.8-0.1c0.5-0.1,0.9-0.2,1.4-0.3
		c0,0,0.1,0,0.1,0c-0.1,0-0.1,0-0.2,0c-0.5,0.1-0.9,0.1-1.4,0.2L29.6,37.8z"/>
	<path class="st3" d="M27.8,36.7c-0.4,0-0.7-0.1-1.1-0.1c0.4,0.1,0.7,0.2,1.1,0.2c0.4,0.1,0.7,0.1,1.1,0.2c0.7,0.1,1.3,0.1,1.9,0.1
		c0.1,0,0.1,0,0.2,0c-0.1,0-0.1,0-0.2,0c-0.6-0.1-1.3-0.2-1.9-0.3L27.8,36.7z"/>
	<path class="st5" d="M24.1,13.5c0,0.1,0.1,0.2,0.2,0.2c0,0,0.1,0.1,0.1,0.1c0.3,0.5,0.7,0.9,1.1,1.3c0,0,0,0,0,0
		c0,0,0.1,0.1,0.1,0.1c0,0,0,0,0,0c0,0,0,0,0.1,0.1c0,0,0,0,0,0c0,0,0,0,0.1,0.1c0,0,0,0,0,0c0,0,0,0,0.1,0c0,0,0,0,0,0
		c0,0,0,0,0.1,0c0,0,0,0,0,0c0,0,0,0,0.1,0c0,0,0,0,0,0c0,0,0,0,0.1,0c0,0,0,0,0,0c0,0,0,0,0.1,0c0,0,0,0,0,0c0,0,0.1,0,0.1,0.1l0,0
		c0,0,0,0,0.1,0c0,0,0,0,0,0c0,0,0,0,0.1,0l0,0c0,0,0,0,0.1,0c0,0,0,0,0,0c0,0,0,0,0.1,0c0,0,0,0,0,0c0,0,0,0,0.1,0c0,0,0,0,0,0
		c0,0,0,0,0.1,0c0,0,0,0,0,0c0,0,0,0,0.1,0c0,0,0,0,0,0c0,0,0.1,0,0.1,0c0,0,0,0,0,0c0,0,0.1,0,0.1,0c0,0,0,0,0,0c0,0,0,0,0.1,0
		c0,0,0,0,0,0c0,0,0,0,0.1,0c0,0,0,0,0,0c0,0,0,0,0,0c0,0,0,0,0,0c0,0,0,0,0,0c0,0,0,0,0,0c0,0,0,0,0,0c0,0,0,0,0,0c0,0,0,0,0.1,0
		c0,0,0,0,0,0l0.1,0c0,0,0,0,0,0c0,0,0.1,0,0.1,0c0,0,0,0,0,0c0,0,0,0,0.1,0c0,0,0,0,0,0c0,0,0,0,0,0h0h0h0.1c0,0,0,0,0,0
		c0,0,0,0,0.1,0c0,0,0,0,0,0c0,0,0,0,0.1,0c0,0,0,0,0,0c0,0,0.1,0,0.1,0c0,0,0,0,0,0c0,0,0,0,0.1,0c0,0,0,0,0,0c0,0,0,0,0.1,0
		c0,0,0,0,0,0c0,0,0,0,0,0c0,0,0,0,0,0c0,0,0,0,0,0c0,0,0,0,0,0c0,0,0,0,0,0c0,0,0,0,0,0c0,0,0,0,0,0c0,0,0,0,0,0c0,0,0,0,0,0
		c0,0,0,0,0,0c0,0,0,0,0.1,0c0,0,0,0,0,0c0,0,0,0,0.1,0c0,0,0,0,0,0c0,0,0,0,0.1,0c0,0,0,0,0,0l0,0c0,0,0,0,0,0c0,0,0,0,0,0
		c0,0,0,0,0,0c0,0,0,0,0,0l0,0l0,0c0,0,0,0,0,0c0,0,0,0,0,0c0,0,0,0,0,0c0,0,0,0,0,0c0,0,0,0,0,0c0,0,0,0,0,0c0,0,0,0,0,0l0,0
		c0,0,0,0,0,0c0,0,0,0,0.1,0c0,0,0,0,0,0c0,0,0,0,0,0c0,0,0,0,0,0c0,0,0,0,0,0c0,0,0,0,0,0c0,0,0,0,0,0c0,0,0,0,0,0c0,0,0,0,0,0
		c0,0,0,0,0,0c0,0,0,0,0,0c0,0,0,0,0,0c0,0,0,0,0,0c0,0,0,0,0,0c0,0,0,0,0,0c0,0,0,0,0,0c0,0,0,0,0,0c0,0,0,0,0,0c0,0,0,0,0,0
		c0,0,0,0,0.1-0.1c0.3-0.3,0.6-0.7,0.8-1c0,0,0,0,0-0.1c0-0.1,0.1-0.1,0.1-0.2c0,0,0-0.1,0-0.1c0.1-0.2,0.2-0.5,0.2-0.7c0,0,0,0,0,0
		c0.1-0.8-0.2-1.8-1.3-2.9c0,0-0.1-0.1-0.1-0.1c0,0,0,0,0,0c0,0-0.1-0.1-0.1-0.1c0,0,0,0,0,0c0,0-0.1-0.1-0.1-0.1c0,0,0,0,0,0
		c0,0-0.1-0.1-0.1-0.1c0,0,0,0,0,0c0,0-0.1-0.1-0.1-0.1c0,0,0,0,0,0c0,0-0.1-0.1-0.1-0.1l0,0c0,0-0.1-0.1-0.1-0.1c0,0,0,0,0,0
		c0,0-0.1-0.1-0.1-0.1c0,0,0,0,0,0c0,0-0.1-0.1-0.1-0.1c0,0,0,0,0,0c-0.1,0-0.1-0.1-0.2-0.1c0,0,0,0,0,0c0,0-0.1-0.1-0.1-0.1
		c0,0,0,0,0,0l-0.2-0.1c0,0,0,0,0,0c0,0-0.1,0-0.1-0.1c0,0,0,0,0,0c-0.1,0-0.1-0.1-0.2-0.1c0,0,0,0,0,0c0,0-0.1,0-0.1-0.1
		c0,0,0,0,0,0c-0.1-0.1-0.2-0.1-0.3-0.1c0,0,0,0,0,0c0,0-0.1,0-0.1-0.1c0,0,0,0,0,0c-0.1,0-0.1,0-0.2-0.1c0,0,0,0,0,0
		c0,0-0.1,0-0.1,0c0,0,0,0,0,0c-0.1,0-0.1,0-0.2-0.1c0,0,0,0,0,0c0,0-0.1,0-0.1,0c0,0,0,0,0,0c-0.1,0-0.1,0-0.2,0c0,0,0,0,0,0
		c0,0-0.1,0-0.1,0c0,0,0,0,0,0c0,0-0.1,0-0.1,0c0,0,0,0,0,0c-0.1,0-0.1,0-0.2,0c0,0,0,0,0,0c0,0-0.1,0-0.1,0c0,0,0,0,0,0
		c0,0-0.1,0-0.1,0c0,0,0,0,0,0c0,0-0.1,0-0.1,0c0,0,0,0,0,0c0,0-0.1,0-0.1,0c0,0,0,0,0,0c0,0-0.1,0-0.1,0h0
		c-0.1,0.8-0.2,1.6-0.5,2.5c-0.2,0.8-0.5,1.6-0.8,2.4c0,0,0,0,0,0.1C23.8,13,24,13.3,24.1,13.5"/>
	<path class="st6" d="M20.9,18.1c0.1,0.1,0.1,0.1,0.2,0.2c0,0,0,0,0.1,0.1c0,0,0.1,0.1,0.1,0.1c0,0,0.1,0.1,0.1,0.1
		c0,0,0.1,0.1,0.1,0.1c0,0,0.1,0.1,0.1,0.1c0,0,0.1,0.1,0.1,0.1c0,0,0.1,0.1,0.1,0.1c0,0,0.1,0.1,0.1,0.1c0,0,0.1,0.1,0.1,0.1
		c0,0,0.1,0.1,0.1,0.1c0,0,0.1,0.1,0.1,0.1c0,0,0.1,0.1,0.1,0.1c0,0,0.1,0.1,0.1,0.1c0,0,0.1,0.1,0.1,0.1c0,0,0.1,0.1,0.1,0.1
		c0,0,0.1,0,0.1,0.1c0,0,0.1,0,0.1,0.1c0,0,0.1,0,0.1,0.1c0,0,0.1,0,0.1,0.1c0,0,0.1,0,0.1,0.1c0,0,0.1,0,0.1,0.1c0,0,0.1,0,0.1,0.1
		c0,0,0.1,0,0.1,0.1c0,0,0.1,0,0.1,0.1c0,0,0.1,0,0.1,0.1c0,0,0.1,0,0.1,0.1c0,0,0.1,0,0.1,0.1c0,0,0.1,0,0.1,0.1l0.1,0.1
		c0,0,0.1,0,0.1,0c0,0,0.1,0,0.1,0c0,0,0.1,0,0.1,0c0,0,0.1,0,0.1,0c0,0,0.1,0,0.1,0c0,0,0.1,0,0.1,0c0,0,0.1,0,0.1,0
		c0,0,0.1,0,0.1,0c0,0,0.1,0,0.1,0c0,0,0.1,0,0.1,0c0,0,0.1,0,0.1,0c0,0,0.1,0,0.1,0c0,0,0.1,0,0.1,0c0,0,0.1,0,0.1,0
		c0,0,0.1,0,0.1,0c0,0,0.1,0,0.1,0c0,0,0.1,0,0.1,0c0,0,0.1,0,0.1,0c0,0,0.1,0,0.1,0c0,0,0.1,0,0.1,0l0.1,0c0,0,0.1,0,0.1,0
		c0,0,0.1,0,0.1,0c0,0,0,0,0.1,0c0.1,0,0.1,0,0.2,0c0,0,0,0,0.1,0c0,0,0.1,0,0.1,0c0,0,0.1,0,0.1,0c0,0,0.1,0,0.1,0c0,0,0.1,0,0.1,0
		c0,0,0.1,0,0.1,0c0,0,0.1,0,0.1,0c0,0,0.1,0,0.1,0c0,0,0.1,0,0.1,0c0,0,0.1,0,0.1,0c0,0,0.1,0,0.1,0c0,0,0,0,0.1,0
		c0.1,0,0.1,0,0.2,0c0,0,0,0,0.1,0c0.1,0,0.1,0,0.1,0c0,0,0.1,0,0.1,0c0,0,0.1,0,0.1,0c0,0,0.1,0,0.1,0c0,0,0.1,0,0.1,0
		c0,0,0.1,0,0.1,0c0,0,0.1,0,0.1,0c0,0,0.1,0,0.1,0c0,0,0.1,0,0.1,0c0,0,0.1,0,0.1,0c0,0,0.1,0,0.1,0c0,0,0.1,0,0.1,0
		c0,0,0.1,0,0.1,0c0,0,0.1,0,0.1,0c0,0,0.1,0,0.1,0c0,0,0.1,0,0.1,0c0,0,0.1,0,0.1,0c0,0,0.1,0,0.1,0c0,0,0.1,0,0.1,0
		c0,0,0.1,0,0.1,0c0,0,0.1,0,0.1,0c0,0,0.1,0,0.1,0c0,0,0.1,0,0.1,0c0,0,0.1,0,0.1,0c0,0,0.1,0,0.1,0c0,0,0.1,0,0.1-0.1
		c0,0,0.1,0,0.1,0c0,0,0.1,0,0.1-0.1c0,0,0.1,0,0.1,0c0,0,0.1,0,0.1-0.1l0.1-0.1c0,0,0.1,0,0.1-0.1c0,0,0.1,0,0.1-0.1
		c0,0,0.1,0,0.1-0.1c0,0,0.1,0,0.1-0.1c0,0,0.1,0,0.1-0.1c0,0,0.1,0,0.1-0.1c0,0,0.1,0,0.1-0.1c0,0,0.1,0,0.1-0.1c0,0,0.1,0,0.1-0.1
		c0,0,0.1,0,0.1-0.1c0,0,0.1,0,0.1-0.1c0,0,0.1,0,0.1-0.1c0,0,0.1,0,0.1-0.1c0,0,0.1,0,0.1-0.1c0,0,0.1,0,0.1-0.1
		c0,0,0.1-0.1,0.1-0.1c0,0,0.1,0,0.1-0.1c0,0,0.1-0.1,0.1-0.1c0,0,0,0,0.1-0.1c0,0,0.1-0.1,0.1-0.1c0,0,0,0,0.1-0.1
		c0,0,0.1-0.1,0.1-0.1c0,0,0,0,0.1-0.1c0.1-0.1,0.1-0.1,0.2-0.2c0,0,0,0,0,0c0.1-0.1,0.2-0.2,0.3-0.3c0.1-0.1,0.2-0.2,0.3-0.4
		c0.1-0.1,0.1-0.1,0.2-0.2c0.1-0.1,0.1-0.2,0.2-0.3c0-0.1,0.1-0.1,0.1-0.2c0.2-0.3,0.4-0.6,0.6-0.8c0,0,0,0,0,0
		c0.1-0.1,0.1-0.2,0.2-0.4c0.1-0.1,0.1-0.2,0.2-0.4c0-0.1,0.1-0.1,0.1-0.2c0.1-0.1,0.1-0.2,0.2-0.4c0-0.1,0.1-0.3,0.1-0.4
		c0.1-0.2,0.1-0.4,0.2-0.6c0-0.1,0.1-0.3,0.1-0.4c0-0.3,0.1-0.5,0.1-0.8c0-0.1,0-0.1,0-0.2c0-0.1,0-0.3,0-0.4c0-0.1,0-0.1,0-0.2
		c0-0.3,0-0.5-0.1-0.8c0-0.1,0-0.1,0-0.2c-0.3-1.7-1.3-3.4-3-5.1c0,0,0,0,0,0c-0.1-0.1-0.1-0.1-0.2-0.2c0,0,0,0-0.1,0
		c-0.1-0.1-0.1-0.1-0.2-0.2c0,0,0,0,0,0c-0.1-0.1-0.1-0.1-0.2-0.2c0,0,0,0-0.1,0c-0.1,0-0.1-0.1-0.2-0.1c0,0,0,0,0,0
		c-0.1-0.1-0.1-0.1-0.2-0.2l0,0c-0.1,0-0.1-0.1-0.2-0.1c0,0,0,0-0.1,0c-0.1-0.1-0.1-0.1-0.2-0.2c0,0,0,0,0,0c-0.1,0-0.1-0.1-0.2-0.1
		c0,0,0,0-0.1,0C31.2,4.1,31.1,4.1,31,4c0,0,0,0,0,0C31,4,30.9,3.9,30.8,3.8c0,0,0,0-0.1,0c-0.1,0-0.1-0.1-0.2-0.1c0,0,0,0,0,0
		c-0.1-0.1-0.2-0.1-0.2-0.2c0,0,0,0-0.1,0c-0.1,0-0.1-0.1-0.2-0.1c0,0,0,0-0.1,0c-0.1,0-0.2-0.1-0.2-0.1l-0.1,0
		c-0.1,0-0.1-0.1-0.2-0.1l-0.1,0c-0.1,0-0.2-0.1-0.2-0.1c0,0,0,0,0,0c-0.1,0-0.1-0.1-0.2-0.1c0,0,0,0-0.1,0c-0.1,0-0.2-0.1-0.2-0.1
		c0,0,0,0,0,0c-0.1,0-0.2-0.1-0.2-0.1c0,0-0.1,0-0.1,0c-0.1,0-0.1-0.1-0.2-0.1c0,0,0,0,0,0c-0.1,0-0.2-0.1-0.2-0.1c0,0,0,0-0.1,0
		c-0.1,0-0.1-0.1-0.2-0.1c0,0,0,0-0.1,0c-0.1,0-0.2-0.1-0.2-0.1c0,0,0,0-0.1,0c-0.1,0-0.1-0.1-0.2-0.1c0,0,0,0-0.1,0
		c-0.1,0-0.2-0.1-0.2-0.1l-0.1,0c-0.1,0-0.1-0.1-0.2-0.1c0,0-0.1,0-0.1,0c-0.1,0-0.2-0.1-0.2-0.1c0,0,0,0,0,0
		c-0.1,0-0.2-0.1-0.2-0.1c0,0-0.1,0-0.1,0c-0.1,0-0.1,0-0.2-0.1c0,0,0,0,0,0c-0.1,0-0.2-0.1-0.3-0.1c0,0,0,0-0.1,0
		C25,1,25,1,24.9,0.9c0,0,0,0-0.1,0c-0.1,0-0.2,0-0.3-0.1c0,0,0,0-0.1,0c-0.1,0-0.1,0-0.2-0.1c0,0,0,0-0.1,0c-0.1,0-0.2,0-0.2-0.1
		c0,0,0,0,0,0c-0.1,0-0.1,0-0.2,0c0,0,0,0-0.1,0c-0.1,0-0.2,0-0.2-0.1c0,0,0,0,0,0c-0.1,0-0.2,0-0.2,0c0,0,0,0-0.1,0
		c-0.1,0-0.1,0-0.2,0c0,0,0,0,0,0c0,0,0,0-0.1,0c0,0,0,0,0,0c0.6,0.6,1.1,1.2,1.4,2C24.6,3.2,24.8,4,25,4.9c0,0.3,0.1,0.6,0.1,1
		c0,0,0,0,0.1,0c0.1,0,0.1,0,0.2,0c0,0,0,0,0.1,0c0.1,0,0.1,0,0.2,0c0,0,0,0,0,0c0.1,0,0.1,0,0.2,0c0,0,0,0,0.1,0c0.1,0,0.1,0,0.2,0
		c0,0,0,0,0,0c0.1,0,0.2,0,0.2,0c0,0,0,0,0.1,0c0.1,0,0.1,0,0.2,0c0,0,0,0,0.1,0c0.1,0,0.2,0,0.2,0.1c0.2,0.1,0.4,0.1,0.7,0.2
		c0.2,0.1,0.3,0.1,0.5,0.2c1.2,0.5,2.4,1.2,3.3,2.1c0.1,0.1,0.2,0.2,0.3,0.2c0,0,0.1,0.1,0.1,0.1c0.6,0.6,1,1.2,1.3,1.8
		c0,0,0,0.1,0.1,0.1c0,0.1,0.1,0.2,0.1,0.3c0.1,0.1,0.1,0.3,0.2,0.4c0,0.1,0.1,0.2,0.1,0.3c0,0.1,0,0.2,0.1,0.3
		c0.1,0.4,0.1,0.7,0.1,1.1c0,0.4-0.1,0.8-0.2,1.2c0,0.1,0,0.2-0.1,0.2c0,0.1-0.1,0.2-0.1,0.2c-0.1,0.3-0.3,0.7-0.6,1
		c-0.2,0.2-0.3,0.4-0.5,0.7c-0.1,0.1-0.2,0.2-0.3,0.3c0,0-0.1,0.1-0.1,0.1c-0.1,0.1-0.3,0.3-0.4,0.4c0,0-0.1,0.1-0.1,0.1
		c-0.9,0.7-2,1.1-3.1,1.2h0c0,0-0.1,0-0.1,0h0c0,0-0.1,0-0.1,0c0,0,0,0,0,0c0,0-0.1,0-0.1,0c0,0,0,0,0,0c0,0-0.1,0-0.1,0
		c0,0,0,0,0,0c0,0-0.1,0-0.1,0c0,0,0,0,0,0c0,0-0.1,0-0.1,0c0,0,0,0-0.1,0c0,0-0.1,0-0.1,0c0,0,0,0-0.1,0c0,0-0.1,0-0.1,0
		c0,0,0,0-0.1,0c0,0-0.1,0-0.1,0c0,0,0,0-0.1,0c0,0-0.1,0-0.1,0c0,0,0,0-0.1,0c0,0,0,0-0.1,0c0,0,0,0-0.1,0c0,0,0,0-0.1,0
		c0,0,0,0-0.1,0c0,0-0.1,0-0.1,0c0,0,0,0-0.1,0c0,0,0,0-0.1,0c0,0,0,0-0.1,0c0,0,0,0-0.1,0c0,0,0,0-0.1,0c0,0,0,0-0.1,0
		c0,0,0,0-0.1,0c0,0,0,0-0.1,0c0,0,0,0-0.1,0c0,0,0,0-0.1,0c0,0,0,0-0.1,0c0,0,0,0-0.1,0c0,0,0,0-0.1,0c0,0,0,0-0.1,0c0,0,0,0-0.1,0
		c0,0,0,0-0.1,0c0,0,0,0-0.1,0c0,0,0,0-0.1,0c0,0,0,0-0.1,0c0,0,0,0-0.1,0c0,0,0,0-0.1,0c0,0,0,0-0.1-0.1c0,0,0,0-0.1,0
		c0,0,0,0-0.1-0.1l-0.1,0c0,0,0,0-0.1-0.1c0,0,0,0-0.1,0c0,0,0,0-0.1-0.1c0,0,0,0-0.1,0c0,0,0,0-0.1-0.1c0,0,0,0-0.1,0
		c0,0,0,0-0.1-0.1c0,0,0,0-0.1,0c0,0-0.1,0-0.1-0.1c0,0,0,0,0,0c0,0-0.1-0.1-0.1-0.1c0,0,0,0,0,0c0,0-0.1-0.1-0.1-0.1
		c-0.5-0.5-1-1.1-1.4-1.7c0,0.1-0.1,0.2-0.1,0.2c-0.6,1-1.2,1.9-1.9,2.7C20.7,17.9,20.8,18,20.9,18.1C20.9,18.1,20.9,18.1,20.9,18.1
		"/>
	<path class="st7" d="M7.5,13.1C7.5,13.1,7.6,13.1,7.5,13.1C7.6,13.1,7.6,13,7.5,13.1c0.1,0,0.1,0,0.1,0c0,0,0,0,0.1,0h0h0h0
		c0,0,0.1,0,0.1,0c0,0,0,0,0,0c0,0,0,0,0.1,0c0,0,0,0,0,0c0,0,0,0,0.1,0c0,0,0,0,0,0c0,0,0,0,0.1,0l0,0c0,0,0,0,0.1,0c0,0,0,0,0,0
		c0,0,0,0,0.1,0c0,0,0,0,0,0c0,0,0,0,0.1,0c0,0,0,0,0,0c0,0,0.1,0,0.1,0c0,0,0,0,0,0c0,0,0.1,0,0.1,0c0,0,0,0,0,0c0,0,0,0,0.1,0
		c0,0,0,0,0,0c0,0,0,0,0.1,0c0,0,0,0,0,0c0,0,0,0,0.1,0c0,0,0,0,0,0c0,0,0,0,0.1,0c0,0,0,0,0,0c0,0,0,0,0.1,0c0,0,0,0,0,0
		c0,0,0,0,0.1,0.1c0,0,0,0,0,0c0,0,0.1,0.1,0.1,0.1h0c0.3,0.3,0.6,0.7,0.7,1.1c0,0.1,0.1,0.3,0.1,0.4c0,0,0,0.1,0,0.1
		c0,0.1,0,0.1,0,0.2c0,0,0,0.1,0,0.1c0,0.1,0,0.2,0,0.3c0,0,0,0.1,0,0.1c0,0.1-0.1,0.2-0.1,0.3c-0.1,0.1-0.2,0.3-0.3,0.4
		c0,0,0,0-0.1,0.1c0,0,0,0,0,0c0,0,0,0,0,0c0,0,0,0,0,0c0,0,0,0,0,0c0,0,0,0,0,0c0,0,0,0,0,0c0,0,0,0,0,0c0,0,0,0,0,0c0,0,0,0,0,0
		c0,0,0,0-0.1,0c0,0,0,0,0,0c0,0,0,0-0.1,0c0,0,0,0,0,0c0,0-0.1,0-0.1,0c0,0,0,0,0,0c0,0,0,0-0.1,0c0,0,0,0,0,0c0,0,0,0-0.1,0
		c0,0,0,0,0,0c0,0,0,0-0.1,0c0,0,0,0,0,0c0,0,0,0-0.1,0c0,0,0,0,0,0c0,0,0,0-0.1,0c0,0,0,0,0,0c0,0-0.1,0-0.1,0c0,0,0,0,0,0h0
		c0,0,0,0,0,0c0,0-0.1,0-0.1,0c0,0,0,0,0,0c0,0,0,0-0.1,0c0,0,0,0,0,0c0,0,0,0-0.1,0c0,0,0,0,0,0c0,0,0,0-0.1,0c0,0,0,0,0,0
		c0,0,0,0-0.1,0c0,0,0,0,0,0c0,0,0,0-0.1,0c0,0,0,0,0,0c0,0,0,0-0.1,0c0,0,0,0,0,0c0,0-0.1,0-0.1,0c0,0,0,0,0,0c0,0-0.1,0-0.1,0
		c0,0,0,0,0,0c0,0,0,0-0.1,0c0,0,0,0,0,0c0,0,0,0-0.1,0c0,0,0,0,0,0c0,0,0,0-0.1,0c0,0,0,0,0,0c0,0,0,0-0.1,0c0,0,0,0,0,0
		c0,0,0,0-0.1,0c0,0,0,0,0,0c0,0,0,0-0.1-0.1c0,0,0,0,0,0c0,0-0.1-0.1-0.1-0.1c0,0,0,0-0.1-0.1c-0.1-0.2-0.3-0.3-0.4-0.5
		c-0.1-0.1-0.1-0.2-0.1-0.3c0,0,0-0.1-0.1-0.1c0-0.1,0-0.1-0.1-0.2c0,0,0-0.1,0-0.1c0-0.1,0-0.1,0-0.2c0-0.1,0-0.3,0-0.4
		c0-0.1,0-0.1,0-0.2c0-0.2,0.1-0.3,0.1-0.5c0.1-0.2,0.2-0.3,0.3-0.5v0c0,0,0,0,0.1-0.1c0,0,0,0,0,0c0,0,0,0,0,0c0,0,0,0,0,0
		c0,0,0,0,0,0c0,0,0,0,0,0c0,0,0,0,0,0c0,0,0,0,0,0c0,0,0,0,0,0c0,0,0,0,0,0c0,0,0,0,0.1,0c0,0,0,0,0,0c0,0,0,0,0.1,0c0,0,0,0,0,0
		c0,0,0.1,0,0.1,0c0,0,0,0,0,0c0,0,0,0,0.1,0c0,0,0,0,0,0c0,0,0,0,0.1,0c0,0,0,0,0,0C7.4,13.1,7.4,13.1,7.5,13.1
		C7.5,13.1,7.5,13.1,7.5,13.1C7.5,13.1,7.5,13.1,7.5,13.1 M23.3,6.5c0-0.3,0-0.6,0-0.9c-0.1-1.6-0.7-2.9-1.7-3.9
		c0,0-0.1-0.1-0.1-0.1c0,0,0,0,0,0c-0.1,0-0.1-0.1-0.2-0.1c0,0,0,0,0,0c-0.1,0-0.1-0.1-0.2-0.1c0,0,0,0,0,0c-0.1,0-0.1-0.1-0.2-0.1
		c0,0,0,0,0,0c0,0-0.1-0.1-0.2-0.1c0,0,0,0,0,0c-0.1,0-0.1-0.1-0.2-0.1c0,0,0,0,0,0c-0.1,0-0.1-0.1-0.2-0.1c0,0,0,0,0,0
		c-0.1,0-0.1-0.1-0.2-0.1c0,0,0,0,0,0c-0.1,0-0.1-0.1-0.2-0.1c0,0,0,0,0,0c-0.1,0-0.1-0.1-0.2-0.1l0,0c-0.1,0-0.1,0-0.2-0.1
		c0,0,0,0,0,0c-0.1,0-0.1,0-0.2-0.1c0,0,0,0,0,0c-0.1,0-0.1,0-0.2-0.1c0,0,0,0,0,0c-0.1,0-0.1,0-0.2-0.1c0,0,0,0-0.1,0
		c-0.1,0-0.1,0-0.2,0c0,0,0,0,0,0c-0.1,0-0.2,0-0.2,0c0,0,0,0-0.1,0c-0.1,0-0.2,0-0.2,0c0,0,0,0,0,0c-0.1,0-0.1,0-0.2,0
		c0,0,0,0-0.1,0c-0.1,0-0.2,0-0.2,0c0,0,0,0,0,0c-0.1,0-0.1,0-0.2,0c0,0,0,0-0.1,0c-0.1,0-0.2,0-0.2,0h0c-0.1,0-0.1,0-0.2,0
		c0,0,0,0-0.1,0c-0.1,0-0.1,0-0.2,0c0,0-0.1,0-0.1,0c0,0,0,0,0,0C16.1,0,16,0,16,0c0,0,0,0-0.1,0c-0.1,0-0.2,0-0.2,0c0,0,0,0,0,0
		c-0.1,0-0.2,0-0.3,0c0,0,0,0-0.1,0c-0.1,0-0.1,0-0.2,0c0,0,0,0-0.1,0c-0.1,0-0.2,0-0.3,0c0,0,0,0-0.1,0c-0.1,0-0.2,0-0.2,0
		c0,0,0,0-0.1,0c-0.1,0-0.2,0-0.3,0.1c0,0,0,0,0,0c-0.1,0-0.2,0-0.2,0.1c0,0-0.1,0-0.1,0c-0.1,0-0.2,0-0.3,0.1h0
		c-3,0.8-6.1,2.6-8.2,4.8C4.3,6.1,3.6,7,3.1,7.9C3,8,3,8.2,2.9,8.3C2.8,8.5,2.7,8.7,2.7,8.8C2.6,9,2.5,9.1,2.5,9.2
		c-0.4,1-0.5,2-0.5,3c0,0.5,0.1,0.9,0.2,1.4c0,0.1,0,0.2,0.1,0.2c0,0.1,0,0.1,0.1,0.2c0.3,1.1,0.8,2.1,1.6,3.1
		c0.3,0.4,0.7,0.8,1,1.2c1.8,1.8,4,2.8,6.1,2.9c0.1,0,0.2,0,0.2,0c0,0,0.1,0,0.1,0c0,0,0.1,0,0.1,0c0,0,0.1,0,0.1,0c0,0,0.1,0,0.1,0
		c0.1,0,0.1,0,0.2,0c0,0,0,0,0.1,0c0.1,0,0.1,0,0.2,0c0,0,0,0,0.1,0c0.1,0,0.1,0,0.2,0c0,0,0.1,0,0.1,0c0,0,0.1,0,0.1,0
		c0,0,0.1,0,0.1,0c0,0,0.1,0,0.1,0c0,0,0.1,0,0.1,0c0,0,0.1,0,0.1,0c0,0,0.1,0,0.1,0c0,0,0.1,0,0.1,0c0,0,0.1,0,0.1,0
		c0,0,0.1,0,0.1,0c0,0,0.1,0,0.1,0c0,0,0.1,0,0.1,0c0,0,0.1,0,0.1,0c0,0,0.1,0,0.1,0c0,0,0.1,0,0.1,0c0,0,0.1,0,0.1,0
		c0,0,0.1,0,0.1,0c0,0,0.1,0,0.1,0c0,0,0.1,0,0.1,0c0,0,0.1,0,0.1-0.1c0,0,0.1,0,0.1,0c0,0,0.1,0,0.1-0.1c0,0,0.1,0,0.1,0
		c0,0,0.1,0,0.1-0.1c0,0,0.1,0,0.1-0.1c0,0,0.1,0,0.1-0.1c0,0,0.1,0,0.1-0.1c0,0,0.1,0,0.1-0.1c0,0,0.1,0,0.1-0.1c0,0,0.1,0,0.1-0.1
		c0,0,0.1,0,0.1-0.1c0,0,0.1,0,0.1-0.1c0,0,0.1,0,0.1-0.1c0,0,0.1-0.1,0.1-0.1c0,0,0.1,0,0.1-0.1c0,0,0.1-0.1,0.1-0.1
		c0,0,0.1,0,0.1-0.1c0,0,0.1-0.1,0.1-0.1c0,0,0.1,0,0.1-0.1c0,0,0.1-0.1,0.1-0.1c0,0,0.1,0,0.1-0.1c0,0,0.1-0.1,0.1-0.1
		c0,0,0.1,0,0.1-0.1c0,0,0.1-0.1,0.1-0.1c0,0,0.1,0,0.1-0.1c0,0,0.1-0.1,0.1-0.1c0,0,0.1-0.1,0.1-0.1c0,0,0.1-0.1,0.1-0.1
		c0,0,0.1,0,0.1-0.1c0,0,0.1-0.1,0.1-0.1c0,0,0,0,0.1-0.1c0.1-0.1,0.1-0.1,0.2-0.2c0,0,0,0,0,0c2.2-2.2,4-5.2,4.8-8.2
		c0.1-0.5,0.2-1,0.3-1.5c0-0.1,0-0.2,0-0.3C23.3,7.6,23.3,7,23.3,6.5"/>
	<rect x="-27.6" y="27.5" class="st8" width="85" height="26.2"/>
</g>
</svg>
