<?xml version="1.0" encoding="utf-8"?>
<!-- Generator: Adobe Illustrator 23.1.1, SVG Export Plug-In . SVG Version: 6.00 Build 0)  -->
<svg version="1.1" id="Layer_1" xmlns="http://www.w3.org/2000/svg" xmlns:xlink="http://www.w3.org/1999/xlink" x="0px" y="0px"
	 viewBox="0 0 110.9 79.8" style="enable-background:new 0 0 110.9 79.8;" xml:space="preserve">
<style type="text/css">
	.st0{fill:#878787;}
	.st1{clip-path:url(#SVGID_2_);fill:#020203;}
	.st2{clip-path:url(#SVGID_2_);fill:none;stroke:#F0BD5F;stroke-width:2;stroke-miterlimit:10;}
	.st3{clip-path:url(#SVGID_4_);fill:url(#SVGID_5_);}
</style>
<polygon class="st0" points="42.9,77.1 21.5,77.1 21.5,37.4 31.1,36.2 35.9,30.6 42.9,30.6 "/>
<rect x="68" y="30.6" class="st0" width="21.5" height="46.5"/>
<g>
	<defs>
		<rect id="SVGID_1_" width="110.9" height="79.8"/>
	</defs>
	<clipPath id="SVGID_2_">
		<use xlink:href="#SVGID_1_"  style="overflow:visible;"/>
	</clipPath>
	<path class="st1" d="M100.1,79.8c6.3-2.2,10.8-8.2,10.8-15.2V43.1c0-8.3-6.3-15.1-14.3-16v-5.5c0-3-2.4-5.4-5.4-5.4H73.4
		c-3,0-5.4,2.4-5.4,5.4V27H38.1l-1.9,3.6h6.7v46.5H21.5V37.4l-3.6-0.7v40.5h-1.8c-0.6,0-1.2-0.1-1.8-0.1V34.7l-3.6-2.4v43.6
		c-4.2-2-7.2-6.3-7.2-11.3V43.1c0-4.8,2.7-9.1,7-11.2L9,28.6c-5.6,2.7-9,8.3-9,14.5v21.5c0,7,4.5,13,10.8,15.2 M94.8,77.1H93V30.6
		h1.8c0.6,0,1.2,0.1,1.8,0.1V77C96,77,95.4,77.1,94.8,77.1 M68,30.6h21.5v46.5H68V30.6z M46.5,37.7h17.9v3.6H46.5V37.7z M46.5,44.9
		h17.9v3.6H46.5V44.9z M46.5,52.1h17.9v3.6H46.5V52.1z M46.5,59.2h17.9v3.6H46.5V59.2z M46.5,66.4h17.9v3.6H46.5V66.4z M71.6,21.6
		c0-1,0.8-1.8,1.8-1.8h17.9c1,0,1.8,0.8,1.8,1.8V27H71.6V21.6z M64.4,34.2H46.5v-3.6h17.9V34.2z M46.5,73.5h17.9v3.6H46.5V73.5z
		 M107.4,64.6c0,5-2.9,9.3-7.2,11.3V31.8c4.2,2,7.2,6.3,7.2,11.3V64.6z"/>
	<path class="st2" d="M23.1,37.7c-9,0-16.3-7.3-16.3-16.3c0-9,7.3-16.3,16.3-16.3s16.3,7.3,16.3,16.3C39.4,30.4,32,37.7,23.1,37.7z"
		/>
	<path class="st1" d="M35.8,73.5h-3.6v-3.6h3.6V73.5z M28.6,73.5H25v-3.6h3.6V73.5z"/>
	<path class="st1" d="M85.9,37.7h-3.6v-3.6h3.6V37.7z M78.7,37.7h-3.6v-3.6h3.6V37.7z"/>
</g>
<g>
	<defs>
		<path id="SVGID_3_" d="M28.2,14c-0.1,0-0.1-0.1-0.2-0.1c0,0.2-0.1,0.4-0.2,0.6c-0.5,0.8-0.6,1.7-0.2,2.1c0.5,0.4,1.5-0.1,2.1-1
			c0.2-0.3,0.4-0.6,0.5-1c0.2-0.6,0.2-1.1-0.2-1.4c-0.1-0.1-0.3-0.1-0.4-0.1C29.2,13.1,28.6,13.4,28.2,14 M18.3,31.5
			c0.6-0.8,1.5-1.1,1.9-0.8c0.3,0.2,0.4,0.7,0.2,1.2c0-0.4-0.1-0.7-0.4-0.8c-0.5-0.4-1.3-0.1-1.9,0.6C18.2,31.6,18.2,31.6,18.3,31.5
			 M15.4,30c0.6-0.8,1.5-1.1,1.9-0.8c0.3,0.2,0.4,0.7,0.2,1.2c0-0.3-0.1-0.7-0.4-0.8c-0.5-0.4-1.3-0.1-1.9,0.6
			C15.3,30.1,15.4,30.1,15.4,30 M22.2,30.3c0.8-1.1,2-1.6,2.6-1.1c0.4,0.3,0.5,1,0.3,1.7c0-0.5-0.2-0.9-0.5-1.1
			c-0.7-0.5-1.8-0.2-2.6,0.8C22.1,30.4,22.1,30.3,22.2,30.3 M19.5,28.6c0.8-1.1,2-1.6,2.6-1.1c0.4,0.3,0.5,1,0.3,1.7
			c0-0.5-0.2-0.9-0.5-1.1c-0.7-0.5-1.8-0.2-2.6,0.8C19.4,28.8,19.5,28.7,19.5,28.6 M13.9,27.9c0.6-0.8,1.5-1.1,1.9-0.8
			c0.3,0.2,0.4,0.7,0.2,1.2c0-0.3-0.1-0.6-0.4-0.8c-0.5-0.4-1.3-0.1-1.9,0.6C13.8,28,13.8,28,13.9,27.9 M24.8,27.3
			c1.1-0.8,2.4-0.9,2.8-0.2c0.3,0.4,0.2,1.1-0.3,1.7c0.2-0.5,0.1-0.9-0.1-1.2c-0.5-0.7-1.6-0.7-2.7-0.1
			C24.7,27.4,24.8,27.3,24.8,27.3 M16.6,27.1c0.8-1.1,2-1.6,2.6-1.1c0.4,0.3,0.5,1,0.3,1.7c0-0.5-0.2-0.9-0.5-1.1
			c-0.7-0.5-1.8-0.2-2.6,0.8C16.5,27.3,16.6,27.2,16.6,27.1 M25.9,25.3c0.8-1.1,2-1.6,2.6-1.1c0.4,0.3,0.5,1,0.3,1.7
			c0-0.5-0.2-0.9-0.5-1.1c-0.7-0.5-1.8-0.2-2.6,0.8C25.8,25.5,25.9,25.4,25.9,25.3 M21.5,25.1c0.8-1.1,2-1.6,2.6-1.1
			c0.4,0.3,0.5,1,0.3,1.7c0-0.5-0.2-0.9-0.5-1.1c-0.7-0.5-1.8-0.2-2.6,0.8C21.4,25.3,21.4,25.2,21.5,25.1 M14.1,24.6
			c0.8-1.1,2-1.6,2.6-1.1c0.4,0.3,0.5,1,0.3,1.7c0-0.5-0.2-0.9-0.5-1.1c-0.7-0.5-1.8-0.2-2.6,0.8C13.9,24.7,14,24.7,14.1,24.6
			 M17.5,24.4c0.8-1.1,2-1.6,2.6-1.1c0.4,0.3,0.5,1,0.3,1.7c0-0.5-0.2-0.9-0.5-1.1c-0.7-0.5-1.8-0.2-2.6,0.8
			C17.4,24.5,17.4,24.4,17.5,24.4 M26.4,22.8c1.1-0.8,2.4-0.9,2.8-0.2c0.3,0.4,0.2,1.1-0.3,1.7c0.1-0.5,0.1-0.9-0.1-1.2
			c-0.5-0.7-1.6-0.7-2.7-0.1C26.2,23,26.3,22.9,26.4,22.8 M20.6,22.8c0.8-1.1,2-1.6,2.6-1.1c0.4,0.3,0.5,1,0.3,1.7
			c0-0.5-0.2-0.9-0.5-1.1c-0.7-0.5-1.8-0.2-2.6,0.8C20.5,23,20.5,22.9,20.6,22.8 M30.4,22.5c-0.3-0.2-0.3-0.8,0-1.4
			c0.2-0.1,0.4-0.1,0.6-0.3c-0.4,0.7-0.6,1.4-0.4,1.8C30.5,22.6,30.4,22.6,30.4,22.5 M17.2,21.1c0.8-1.1,2-1.6,2.6-1.1
			c0.4,0.3,0.5,1,0.3,1.7c0-0.5-0.2-0.9-0.5-1.1c-0.7-0.5-1.8-0.2-2.6,0.8C17.1,21.3,17.1,21.2,17.2,21.1 M24.3,20.8
			c0.8-1.1,2-1.6,2.6-1.1c0.4,0.3,0.5,1,0.3,1.7c0-0.5-0.2-0.9-0.5-1.1c-0.7-0.5-1.8-0.2-2.6,0.8C24.2,20.9,24.3,20.9,24.3,20.8
			 M17.8,19.7c0.8-1.1,2-1.6,2.6-1.1c0.4,0.3,0.5,1,0.3,1.7c0-0.5-0.2-0.9-0.5-1.1c-0.7-0.5-1.8-0.2-2.6,0.8
			C17.7,19.8,17.7,19.7,17.8,19.7 M24.2,18.7c0.8-1.1,2-1.6,2.6-1.1c0.4,0.3,0.5,1,0.3,1.7c0-0.5-0.2-0.9-0.5-1.1
			C25.9,17.7,24.9,18,24.2,18.7c0.1,0.4,0.1,0.9,0,1.4c0-0.5-0.2-0.9-0.5-1.1c-0.7-0.5-1.8-0.2-2.6,0.8c0.1-0.1,0.1-0.2,0.2-0.2
			c0.8-1.1,2-1.6,2.6-1.1C24,18.5,24.1,18.6,24.2,18.7C24.1,18.7,24.1,18.7,24.2,18.7 M24.5,13.6c0.1,0,0.1,0,0.2,0.1
			c0.4,0.3,0.2,1.4-0.5,2.4c-0.1,0.1-0.2,0.2-0.3,0.3c0,0.1-0.1,0.3-0.1,0.4c0-0.5-0.2-0.9-0.5-1.1c-0.6-0.4-1.5-0.2-2.2,0.4
			c0.3,0.4,0.3,0.9,0.1,1.5c0-0.5-0.2-0.9-0.5-1.1c-0.7-0.5-1.8-0.2-2.6,0.8c0.1-0.1,0.1-0.2,0.2-0.2c0.8-1.1,2-1.6,2.6-1.1
			C21,16,21,16,21,16c0.8-1,1.9-1.4,2.5-0.9c0.2,0.1,0.3,0.4,0.4,0.6C24.5,14.9,24.8,14,24.5,13.6 M29.1,11.3
			c-0.7,0.4-1.4,1-1.8,1.4c-0.3,0-0.8,0.2-1.2,0.5c-0.4-0.1-0.8-0.1-1.2-0.1c0.8-0.7,1.9-1.7,1.1-1.3c-0.6,0.3-1.3,0.9-1.7,1.3
			c-0.5,0-0.9,0.1-1.4,0.2c0.1,0.1,0.1,0.2,0.1,0.4c-0.1,0.1-0.3,0.3-0.4,0.4c0.1-0.4,0.2-0.8,0-1c0,0,0,0,0,0
			c0.7-0.6,2.4-2.1,1.5-1.6c-0.7,0.4-1.4,1-1.8,1.4c-0.5-0.1-1.3,0.4-1.9,1.3c0,0.1-0.1,0.1-0.1,0.2c-0.1,0-0.1,0.1-0.2,0.1
			c0,0,0,0.1,0.1,0.1c-0.1,0.2-0.2,0.3-0.3,0.5c-0.1-0.5-0.2-0.8-0.4-1c0,0,0,0,0,0c0.4-0.9,1.3-3,0.6-2.1c-0.5,0.6-0.8,1.5-1,2.1
			c-0.5,0.2-0.9,1-1.1,2c0,0,0,0,0,0c-0.2,0.2-0.4,0.3-0.5,0.5c0.1,0.4,0,1-0.2,1.6c-0.3,1.2-1.1,2-1.6,1.8c-0.1,0-0.1-0.1-0.2-0.1
			c0.5-0.1,1.1-0.8,1.4-1.9c0.3-1,0.2-2-0.1-2.3c0,0,0,0,0,0c0.4-0.8,1.5-2.8,0.8-2c-0.5,0.6-1,1.5-1.2,2c-0.5,0.1-1,0.9-1.3,1.8
			c-0.3,1-0.2,1.9,0.1,2.3c-0.1,0.3-0.3,0.5-0.4,0.8c0.4-0.1,0.8-0.1,1,0.1c0.4,0.3,0.5,1,0.3,1.7c0-0.5-0.2-0.9-0.5-1.1
			c-0.7-0.5-1.8-0.2-2.6,0.8c0.1-0.1,0.1-0.2,0.2-0.2c0.4-0.5,0.8-0.8,1.2-1c-0.1-0.7-0.4-1.2-0.8-1.3c0,0,0,0,0,0
			c0.2-0.9,0.6-3.2,0.1-2.2c-0.3,0.7-0.5,1.7-0.5,2.3c-0.4,0.3-0.7,1.1-0.7,2.2c0,0.3,0.1,0.6,0.1,0.9c-0.6,1-0.6,2.1,0,2.6
			c0.3,0.2,0.7,0.3,1.1,0.2c-0.6,1-0.7,2.2,0,2.7c0.1,0,0.1,0.1,0.2,0.1c0,0.1-0.1,0.1-0.1,0.2C13,29,12.9,30,13.5,30.4
			c0.4,0.3,1.1,0.2,1.6-0.3c0,0.1,0.1,0.1,0.1,0.2c0,0,0,0.1-0.1,0.1c-0.6,0.8-0.7,1.7-0.1,2.1c0.5,0.4,1.4,0.1,2-0.6
			c0.2,0.2,0.5,0.3,0.8,0.4c-0.3,0.7-0.3,1.4,0.1,1.7c0.5,0.4,1.4,0.1,2-0.7c0.1-0.1,0.2-0.2,0.2-0.3c0.4,0,0.8,0.1,1.1,0
			c0.1,0.3,0.2,0.5,0.4,0.7c0.6,0.4,1.4,0.2,2.2-0.4c0.4,0.2,0.9,0.2,1.5,0.2c1,0,1.9-0.3,2.1-0.8c0.6-0.1,1.5-0.3,2.2-0.7
			c1-0.5-1.3,0-2.2,0.2c0,0,0,0,0,0c-0.2-0.4-1.1-0.8-2.2-0.8c-0.1,0-0.2,0-0.3,0c0-0.1,0.1-0.3,0.1-0.4c0.1,0,0.1,0,0.2,0
			c0.4,0,0.9,0,1.2,0.1c0,0,0.1,0,0.1-0.1c0.5,0.1,1.1,0.1,1.8-0.1c1-0.3,1.7-0.9,1.8-1.3c0.5-0.3,1.4-0.7,2-1.3
			c0.8-0.7-1.2,0.4-2,0.8c0,0,0,0,0,0c-0.3-0.4-1.3-0.4-2.3-0.1c-1,0.3-1.8,0.9-1.8,1.4c0-0.1-0.1-0.1-0.1-0.2
			c-0.2-0.5,0.7-1.2,1.8-1.6c0.7-0.2,1.3-0.3,1.7-0.2c0.1-0.1,0.2-0.2,0.2-0.3c0.5,0,1.1-0.3,1.7-0.6c0.9-0.6,1.4-1.3,1.4-1.8
			c0.4-0.4,1.1-1.1,1.5-1.8c0.6-0.9-1,0.7-1.7,1.4c0,0,0,0,0,0c-0.4-0.3-1.4-0.1-2.3,0.5c-0.9,0.6-1.5,1.4-1.4,1.9
			c-0.1,0-0.1-0.1-0.1-0.1c-0.3-0.5,0.3-1.4,1.3-2.1c0.1,0,0.1-0.1,0.2-0.1c0,0-0.1,0-0.1-0.1c-0.4-0.3-0.2-1.4,0.5-2.4
			c0.1-0.1,0.2-0.2,0.2-0.3c0.2,0,0.4,0,0.7-0.2c-0.2,0.2-0.4,0.4-0.6,0.7c-0.6,0.8-0.9,1.7-0.7,2.2c0.7-0.4,1.4-0.6,1.8-0.5
			c0.2-0.2,0.3-0.3,0.5-0.5c0.6-0.8,0.9-1.7,0.7-2.2c0.3-0.5,0.7-1.4,0.9-2.2c0.2-1.1-0.7,1-1.2,1.9c0,0,0,0,0,0
			c-0.2,0-0.5,0-0.7,0.2c0.1-0.1,0.3-0.3,0.4-0.4c0.1-0.1,0.2-0.2,0.2-0.3c0.6-0.8,0.9-1.7,0.7-2.2c0.3-0.5,0.7-1.4,0.9-2.2
			c0.2-1.1-0.7,1-1.2,1.9c0,0,0,0,0,0c-0.3-0.1-0.6,0.1-1,0.3c0.1-0.2,0.2-0.4,0.3-0.5c0.2-0.5,0.3-0.9,0.1-1.2
			c0.3-0.5,0.7-1.4,0.8-2.2c0.2-1.1-0.7,1-1.2,1.9c0,0,0,0,0,0c-0.5-0.1-1.3,0.4-1.9,1.3c-0.6,0.9-0.9,1.8-0.7,2.2
			c-0.1,0-0.1,0-0.2-0.1c-0.4-0.3-0.2-1.4,0.5-2.4c0.4-0.6,1-1,1.4-1.2c0-0.1-0.1-0.1-0.1-0.2c0.1-0.1,0.2-0.2,0.3-0.4
			c0.6-0.8,0.9-1.7,0.7-2.2c0.3-0.5,0.7-1.4,0.9-2.2c0.2-1.1-0.7,1-1.2,1.9c0,0,0,0,0,0c-0.5-0.1-1.3,0.4-1.9,1.3
			c-0.6,0.9-0.9,1.8-0.7,2.2c-0.1,0-0.1,0-0.2-0.1c-0.3-0.2-0.3-0.6-0.1-1.1c-0.6,0.7-1.4,1-1.8,0.6c-0.3-0.3-0.4-0.8-0.1-1.5
			c-0.7,0.8-1.5,1.2-1.9,0.9c-0.1,0-0.1-0.1-0.1-0.2c0.5,0.1,1.3-0.4,1.9-1.3c0.6-0.9,0.9-1.8,0.7-2.2c0,0,0,0,0,0
			c0.6-0.5,2-1.7,1.7-1.7C29.3,11.2,29.2,11.3,29.1,11.3"/>
	</defs>
	<clipPath id="SVGID_4_">
		<use xlink:href="#SVGID_3_"  style="overflow:visible;"/>
	</clipPath>
	
		<linearGradient id="SVGID_5_" gradientUnits="userSpaceOnUse" x1="0" y1="79.774" x2="1" y2="79.774" gradientTransform="matrix(-16.3692 21.7226 21.7226 16.3692 -1700.9204 -1294.6385)">
		<stop  offset="0" style="stop-color:#DB2133"/>
		<stop  offset="0.8437" style="stop-color:#F2932A"/>
		<stop  offset="1" style="stop-color:#F7A521"/>
	</linearGradient>
	<polygon class="st3" points="46,19.5 26.5,45.4 0.6,25.9 20.1,0 	"/>
</g>
</svg>
