<?xml version="1.0" encoding="utf-8"?>
<!-- Generator: Adobe Illustrator 23.1.1, SVG Export Plug-In . SVG Version: 6.00 Build 0)  -->
<svg version="1.1" id="Layer_1" xmlns="http://www.w3.org/2000/svg" xmlns:xlink="http://www.w3.org/1999/xlink" x="0px" y="0px"
	 viewBox="0 0 73.4 74.5" style="enable-background:new 0 0 73.4 74.5;" xml:space="preserve">
<style type="text/css">
	.st0{clip-path:url(#SVGID_2_);fill:#BEC3C8;}
	.st1{clip-path:url(#SVGID_2_);fill:#95A5A5;}
	.st2{clip-path:url(#SVGID_2_);fill:#FFFFFF;}
</style>
<g>
	<defs>
		<rect id="SVGID_1_" y="0" width="73.4" height="74.5"/>
	</defs>
	<clipPath id="SVGID_2_">
		<use xlink:href="#SVGID_1_"  style="overflow:visible;"/>
	</clipPath>
	<path class="st0" d="M73.4,34.7v2.7L59.4,65.8v2.7c0,0.5-0.6,0.9-1.3,0.9h-43c-0.7,0-1.3-0.4-1.3-0.9v-2.7L0,37.4v-2.7
		c0-0.5,0.6-0.9,1.3-0.9h70.8C72.8,33.8,73.4,34.2,73.4,34.7"/>
	<path class="st1" d="M59.4,69.5v3.8c0,0.7-0.6,1.3-1.3,1.3h-43c-0.7,0-1.3-0.6-1.3-1.3v-3.8H59.4z"/>
	<path class="st2" d="M63.2,38.8l-4.5,13.4c-0.3,1-1.3,1.7-2.4,1.7H17c-1.1,0-2.1-0.7-2.4-1.7l-4.5-13.4"/>
	<path class="st0" d="M30.4,38.8H43v2.5c0,1.4-1.1,2.5-2.5,2.5h-7.6c-1.4,0-2.5-1.1-2.5-2.5V38.8z"/>
	<path class="st1" d="M73.4,35v3.8H0V35c0-0.7,0.6-1.3,1.3-1.3h70.8C72.8,33.8,73.4,34.3,73.4,35"/>
	<path class="st1" d="M60.7,21.6c-1-0.2-2-0.3-3.1-0.4c-0.1,0-0.2-0.1-0.3-0.2c-0.5-1.7-1.2-3.4-2.1-5c-0.1-0.1,0-0.2,0-0.3
		c0.6-0.8,1.3-1.7,1.9-2.5c0.8-1.1,0.7-2.7-0.3-3.7l-3.4-3.4c-1-1-2.5-1.1-3.7-0.3c-0.8,0.6-1.7,1.2-2.5,1.9c-0.1,0.1-0.2,0.1-0.3,0
		c-1.6-0.9-3.2-1.6-5-2.1c-0.1,0-0.2-0.1-0.2-0.3c-0.1-1-0.3-2.1-0.4-3.1C41.3,1,40.1,0,38.7,0h-4.8c-1.4,0-2.6,1-2.8,2.4
		c-0.2,1-0.3,2-0.4,3.1c0,0.1-0.1,0.2-0.2,0.3c-1.7,0.5-3.4,1.2-5,2.1c-0.1,0.1-0.2,0-0.3,0c-0.8-0.6-1.7-1.3-2.5-1.9
		C21.6,5.1,20,5.2,19,6.2l-3.4,3.4c-1,1-1.1,2.5-0.3,3.7c0.6,0.8,1.2,1.7,1.9,2.5c0.1,0.1,0.1,0.2,0,0.3c-0.9,1.6-1.6,3.2-2.1,5
		c0,0.1-0.1,0.2-0.3,0.2c-1,0.1-2.1,0.3-3.1,0.4c-1.4,0.2-2.4,1.4-2.4,2.8v4.8c0,1.4,1,2.6,2.4,2.8c1,0.2,2,0.3,3.1,0.4
		c0.1,0,0.2,0.1,0.3,0.2c0.5,1.7,1.2,3.4,2.1,5c0.1,0.1,0,0.2,0,0.3c-0.6,0.8-1.3,1.7-1.9,2.5c-0.8,1.1-0.7,2.7,0.3,3.7l3.4,3.4
		c1,1,2.5,1.1,3.7,0.3c0.8-0.6,1.7-1.2,2.5-1.9c0.1-0.1,0.2-0.1,0.3,0c1.6,0.9,3.2,1.6,5,2.1c0.1,0,0.2,0.1,0.2,0.3
		c0.1,1,0.3,2.1,0.4,3.1c0.2,1.4,1.4,2.4,2.8,2.4h4.8c1.4,0,2.6-1,2.8-2.4c0.2-1,0.3-2,0.4-3.1c0-0.1,0.1-0.2,0.2-0.3
		c1.7-0.5,3.4-1.2,5-2.1c0.1-0.1,0.2,0,0.3,0c0.8,0.6,1.7,1.3,2.5,1.9c1.1,0.8,2.7,0.7,3.7-0.3l3.4-3.4c1-1,1.1-2.5,0.3-3.7
		c-0.6-0.8-1.2-1.7-1.9-2.5c-0.1-0.1-0.1-0.2,0-0.3c0.9-1.6,1.6-3.2,2.1-5c0-0.1,0.1-0.2,0.3-0.2c1-0.1,2.1-0.3,3.1-0.4
		c1.4-0.2,2.4-1.4,2.4-2.8v-4.8C63.1,23,62.1,21.8,60.7,21.6 M60.6,29.2c0,0.2-0.1,0.3-0.3,0.3c-1,0.1-2,0.3-3,0.4
		c-1.1,0.1-2,0.9-2.3,2c-0.4,1.5-1,3-1.8,4.4c-0.6,1-0.5,2.2,0.2,3.1c0.6,0.8,1.2,1.6,1.8,2.4c0.1,0.1,0.1,0.3,0,0.4l-3.4,3.4
		c-0.1,0.1-0.3,0.1-0.4,0c-0.8-0.6-1.6-1.2-2.4-1.8c-0.9-0.7-2.1-0.8-3.1-0.2c-1.4,0.8-2.9,1.4-4.4,1.8c-1.1,0.3-1.9,1.2-2,2.3
		c-0.1,1-0.3,2-0.4,3c0,0.1-0.2,0.3-0.3,0.3h-4.8c-0.2,0-0.3-0.1-0.3-0.3c-0.1-1-0.3-2-0.4-3c-0.1-1.1-0.9-2-2-2.3
		c-1.5-0.4-3-1-4.4-1.8c-0.4-0.2-0.9-0.4-1.4-0.4c-0.6,0-1.2,0.2-1.7,0.6c-0.8,0.6-1.6,1.2-2.4,1.8c-0.1,0.1-0.3,0.1-0.4,0l-3.4-3.4
		c-0.1-0.1-0.1-0.3,0-0.4c0.6-0.8,1.2-1.6,1.8-2.4c0.7-0.9,0.8-2.1,0.2-3.1C18.7,35,18,33.5,17.6,32c-0.3-1.1-1.2-1.9-2.3-2
		c-1-0.1-2-0.3-3-0.4c-0.1,0-0.3-0.2-0.3-0.3v-4.8c0-0.2,0.1-0.3,0.3-0.3c1-0.1,2-0.3,3-0.4c1.1-0.1,2-0.9,2.3-2
		c0.4-1.5,1-3,1.8-4.4c0.6-1,0.5-2.2-0.2-3.1c-0.6-0.8-1.2-1.6-1.8-2.4c-0.1-0.1-0.1-0.3,0-0.4l3.4-3.4c0.1-0.1,0.3-0.1,0.4,0
		c0.8,0.6,1.6,1.2,2.4,1.8c0.9,0.7,2.1,0.8,3.1,0.2c1.4-0.8,2.9-1.4,4.4-1.8c1.1-0.3,1.9-1.2,2-2.3c0.1-1,0.3-2,0.4-3
		c0-0.1,0.2-0.3,0.3-0.3h4.8c0.2,0,0.3,0.1,0.3,0.3c0.1,1,0.3,2,0.4,3c0.1,1.1,0.9,2,2,2.3c1.5,0.4,3,1,4.4,1.8
		c1,0.6,2.2,0.5,3.1-0.2c0.8-0.6,1.6-1.2,2.4-1.8c0.1-0.1,0.3-0.1,0.4,0l3.4,3.4c0.1,0.1,0.1,0.3,0,0.4c-0.6,0.8-1.2,1.6-1.8,2.4
		c-0.7,0.9-0.8,2.1-0.2,3.1c0.8,1.4,1.4,2.9,1.8,4.4c0.3,1.1,1.2,1.9,2.3,2c1,0.1,2,0.3,3,0.4c0.1,0,0.3,0.2,0.3,0.3V29.2z"/>
	<path class="st1" d="M36.3,15.2c-6.4,0-11.6,5.2-11.6,11.6c0,6.4,5.2,11.6,11.6,11.6s11.6-5.2,11.6-11.6
		C47.9,20.4,42.7,15.2,36.3,15.2 M36.3,35.9c-5,0-9.1-4.1-9.1-9.1c0-5,4.1-9.1,9.1-9.1s9.1,4.1,9.1,9.1
		C45.4,31.8,41.3,35.9,36.3,35.9"/>
	<path class="st1" d="M73.4,35v3.8H0V35c0-0.7,0.6-1.3,1.3-1.3h70.8C72.8,33.8,73.4,34.3,73.4,35"/>
	<path class="st2" d="M63.2,38.8l-4.5,13.4c-0.3,1-1.3,1.7-2.4,1.7H17c-1.1,0-2.1-0.7-2.4-1.7l-4.5-13.4"/>
</g>
</svg>
