<?xml version="1.0" encoding="utf-8"?>
<!-- Generator: Adobe Illustrator 23.1.1, SVG Export Plug-In . SVG Version: 6.00 Build 0)  -->
<svg version="1.1" id="Layer_1" xmlns="http://www.w3.org/2000/svg" xmlns:xlink="http://www.w3.org/1999/xlink" x="0px" y="0px"
	 viewBox="0 0 145.1 74.1" style="enable-background:new 0 0 145.1 74.1;" xml:space="preserve">
<style type="text/css">
	.st0{clip-path:url(#SVGID_2_);}
	.st1{clip-path:url(#SVGID_4_);fill:url(#SVGID_5_);}
	.st2{clip-path:url(#SVGID_7_);fill:url(#SVGID_8_);}
	.st3{clip-path:url(#SVGID_10_);fill:url(#SVGID_11_);}
	.st4{clip-path:url(#SVGID_13_);fill:url(#SVGID_14_);}
	.st5{clip-path:url(#SVGID_16_);fill:url(#SVGID_17_);}
	.st6{clip-path:url(#SVGID_19_);fill:url(#SVGID_20_);}
	.st7{clip-path:url(#SVGID_2_);fill:#262321;}
	.st8{clip-path:url(#SVGID_22_);fill:#FFF266;}
	.st9{clip-path:url(#SVGID_22_);fill:#322F2D;}
	.st10{opacity:0.2;clip-path:url(#SVGID_22_);}
	.st11{clip-path:url(#SVGID_24_);}
	.st12{clip-path:url(#SVGID_22_);fill:#D5EDE7;}
	.st13{clip-path:url(#SVGID_22_);fill:#575756;}
	.st14{clip-path:url(#SVGID_22_);fill:#FDEEF6;}
	.st15{clip-path:url(#SVGID_26_);}
	.st16{clip-path:url(#SVGID_28_);}
	.st17{clip-path:url(#SVGID_30_);}
	.st18{clip-path:url(#SVGID_22_);fill:#FFD94F;}
	.st19{clip-path:url(#SVGID_32_);}
	.st20{clip-path:url(#SVGID_34_);}
	.st21{clip-path:url(#SVGID_36_);}
	.st22{clip-path:url(#SVGID_38_);}
	.st23{clip-path:url(#SVGID_40_);}
	.st24{clip-path:url(#SVGID_42_);}
	.st25{clip-path:url(#SVGID_22_);fill:#986A47;}
</style>
<g>
	<defs>
		<rect id="SVGID_1_" width="145.1" height="74.1"/>
	</defs>
	<clipPath id="SVGID_2_">
		<use xlink:href="#SVGID_1_"  style="overflow:visible;"/>
	</clipPath>
	<g class="st0">
		<defs>
			<path id="SVGID_3_" d="M36.2,8.5C36,8.6,35.9,9,36.1,9.4c0.1,0.2,0.2,0.4,0.3,0.6c0.4,0.6,1.1,0.9,1.4,0.6
				c0.3-0.2,0.2-0.8-0.1-1.3c-0.1-0.1-0.1-0.3-0.1-0.4c0,0-0.1,0-0.1,0.1c-0.3-0.4-0.7-0.6-1-0.6C36.3,8.4,36.2,8.4,36.2,8.5
				 M42.5,19.6c0.3-0.2,0.8,0,1.2,0.5c0,0,0.1,0.1,0.1,0.1c-0.4-0.4-0.9-0.6-1.2-0.4c-0.2,0.1-0.2,0.3-0.2,0.5
				C42.3,20.1,42.3,19.8,42.5,19.6 M44.3,18.7c0.3-0.2,0.8,0,1.2,0.5c0,0,0.1,0.1,0.1,0.1c-0.4-0.4-0.9-0.6-1.2-0.4
				c-0.2,0.1-0.2,0.3-0.2,0.5C44.1,19.1,44.1,18.8,44.3,18.7 M39.5,18.6c0.4-0.3,1.2,0,1.7,0.7c0,0.1,0.1,0.1,0.1,0.2
				c-0.5-0.6-1.2-0.8-1.7-0.5c-0.2,0.2-0.3,0.4-0.3,0.7C39.2,19.3,39.3,18.8,39.5,18.6 M41.3,17.6c0.4-0.3,1.2,0,1.7,0.7
				c0,0.1,0.1,0.1,0.1,0.2c-0.5-0.6-1.2-0.8-1.7-0.5c-0.2,0.2-0.3,0.4-0.3,0.7C40.9,18.2,41,17.8,41.3,17.6 M45.3,17.3
				c0.3-0.2,0.8,0,1.2,0.5c0,0,0.1,0.1,0.1,0.1c-0.4-0.4-0.9-0.6-1.2-0.4c-0.2,0.1-0.2,0.3-0.2,0.5C45.1,17.8,45.1,17.5,45.3,17.3
				 M37.7,17.3c0.3-0.4,1.1-0.4,1.8,0.1c0.1,0,0.1,0.1,0.2,0.1c-0.7-0.4-1.4-0.4-1.7,0.1c-0.2,0.2-0.2,0.5-0.1,0.8
				C37.6,18,37.5,17.6,37.7,17.3 M43.1,16.6c0.4-0.3,1.2,0,1.7,0.7c0,0.1,0.1,0.1,0.1,0.2c-0.5-0.6-1.2-0.8-1.7-0.5
				c-0.2,0.2-0.3,0.4-0.3,0.7C42.8,17.3,42.8,16.8,43.1,16.6 M37.2,15.5c0.4-0.3,1.2,0,1.7,0.7c0,0.1,0.1,0.1,0.1,0.2
				c-0.5-0.6-1.2-0.8-1.7-0.5C37.1,16,37,16.3,37,16.6C36.8,16.1,36.9,15.7,37.2,15.5 M40,15.4c0.4-0.3,1.2,0,1.7,0.7
				c0,0.1,0.1,0.1,0.1,0.2c-0.5-0.6-1.2-0.8-1.7-0.5c-0.2,0.2-0.3,0.4-0.3,0.7C39.7,16,39.7,15.6,40,15.4 M44.7,15
				c0.4-0.3,1.2,0,1.7,0.7c0,0.1,0.1,0.1,0.1,0.2c-0.5-0.6-1.2-0.8-1.7-0.5c-0.2,0.2-0.3,0.4-0.3,0.7C44.4,15.6,44.5,15.2,44.7,15
				 M42.5,14.9c0.4-0.3,1.2,0,1.7,0.7c0,0.1,0.1,0.1,0.1,0.2c-0.5-0.6-1.2-0.8-1.7-0.5c-0.2,0.2-0.3,0.4-0.3,0.7
				C42.2,15.5,42.3,15.1,42.5,14.9 M36.7,14.5c0.3-0.4,1.1-0.4,1.8,0.1c0.1,0,0.1,0.1,0.2,0.1c-0.7-0.4-1.4-0.4-1.7,0.1
				c-0.2,0.2-0.2,0.5-0.1,0.8C36.6,15.2,36.5,14.7,36.7,14.5 M40.6,13.9c0.4-0.3,1.2,0,1.7,0.7c0,0.1,0.1,0.1,0.1,0.2
				c-0.5-0.6-1.2-0.8-1.7-0.5c-0.2,0.2-0.3,0.4-0.3,0.7C40.2,14.5,40.3,14.1,40.6,13.9 M35.6,13.3c0.1,0.1,0.3,0.2,0.4,0.2
				c0.2,0.4,0.2,0.8,0,0.9c0,0-0.1,0-0.1,0.1C36,14.2,35.9,13.8,35.6,13.3 M42.8,12.8c0.4-0.3,1.2,0,1.7,0.7c0,0.1,0.1,0.1,0.1,0.2
				c-0.5-0.6-1.2-0.8-1.7-0.5c-0.2,0.2-0.3,0.4-0.3,0.7C42.4,13.4,42.5,13,42.8,12.8 M38.2,12.6c0.4-0.3,1.2,0,1.7,0.7
				c0,0.1,0.1,0.1,0.1,0.2c-0.5-0.6-1.2-0.8-1.7-0.5c-0.2,0.2-0.3,0.4-0.3,0.7C37.9,13.2,37.9,12.8,38.2,12.6 M42.4,11.9
				c0.4-0.3,1.2,0,1.7,0.7c0,0.1,0.1,0.1,0.1,0.2c-0.5-0.6-1.2-0.8-1.7-0.5c-0.2,0.2-0.3,0.4-0.3,0.7C42.1,12.5,42.1,12.1,42.4,11.9
				 M38.3,11.2c0.4-0.3,1.2,0,1.7,0.7c0,0,0,0,0,0c0-0.1,0.1-0.2,0.2-0.2c0.4-0.3,1.2,0,1.7,0.7c0,0.1,0.1,0.1,0.1,0.2
				c-0.5-0.6-1.2-0.8-1.7-0.5c-0.2,0.2-0.3,0.4-0.3,0.7c-0.1-0.3-0.1-0.6,0-0.8c-0.5-0.5-1.2-0.7-1.6-0.4c-0.2,0.2-0.3,0.4-0.3,0.7
				C38,11.9,38,11.5,38.3,11.2 M40.1,10.5c-0.1-0.1-0.1-0.1-0.2-0.2c-0.5-0.6-0.6-1.3-0.3-1.5c0,0,0.1,0,0.1-0.1
				c-0.1,0.3,0,0.8,0.4,1.4c0-0.2,0.1-0.3,0.2-0.4c0.4-0.3,1.1,0,1.6,0.6c0,0,0,0,0.1-0.1c0.4-0.3,1.2,0,1.7,0.7
				c0,0.1,0.1,0.1,0.1,0.2c-0.5-0.6-1.2-0.8-1.7-0.5c-0.2,0.2-0.3,0.4-0.3,0.7c-0.1-0.4-0.1-0.8,0.1-1c-0.5-0.4-1.1-0.5-1.4-0.3
				c-0.2,0.2-0.3,0.4-0.3,0.7C40.2,10.7,40.2,10.6,40.1,10.5 M37.8,8.3C37.8,8.3,37.7,8.3,37.8,8.3c-0.2,0.3,0,0.9,0.4,1.4
				c0.4,0.5,0.9,0.9,1.2,0.8c0,0,0,0.1-0.1,0.1c-0.3,0.2-0.8-0.1-1.2-0.6c0.2,0.4,0.1,0.8-0.1,0.9c-0.3,0.2-0.8,0-1.2-0.4
				c0.1,0.3,0.1,0.6-0.1,0.7c0,0-0.1,0-0.1,0.1c0.2-0.3,0-0.9-0.4-1.4C35.8,9.4,35.3,9,35,9.1c0,0,0,0,0,0c-0.3-0.5-0.9-1.9-0.7-1.2
				c0.1,0.5,0.4,1.1,0.5,1.4c-0.1,0.3,0,0.9,0.4,1.4c0.1,0.1,0.1,0.2,0.2,0.2c0,0,0,0.1-0.1,0.1c0.3,0.1,0.6,0.4,0.9,0.8
				c0.5,0.6,0.6,1.3,0.3,1.5c0,0-0.1,0-0.1,0.1c0.2-0.3,0-0.9-0.4-1.4c-0.4-0.5-0.9-0.9-1.2-0.8c0,0,0,0,0,0
				c-0.3-0.5-0.9-1.9-0.7-1.2c0.1,0.5,0.4,1.1,0.5,1.4c-0.1,0.2,0,0.5,0.1,0.8c0,0.1,0.1,0.2,0.2,0.3c-0.2-0.2-0.5-0.2-0.6-0.2
				c0,0,0,0,0,0c-0.3-0.5-0.9-1.9-0.7-1.2c0.1,0.5,0.4,1.1,0.5,1.4c-0.1,0.3,0,0.9,0.4,1.4c0,0.1,0.1,0.1,0.2,0.2
				c0.1,0.1,0.2,0.2,0.3,0.3c-0.2-0.1-0.3-0.1-0.5-0.1c0,0,0,0,0,0c-0.3-0.5-0.9-1.9-0.7-1.2c0.1,0.5,0.4,1.1,0.5,1.4
				c-0.1,0.3,0,0.9,0.4,1.4c0.1,0.1,0.2,0.2,0.3,0.3c0.3-0.1,0.7,0,1.2,0.3c0.1-0.3,0-0.9-0.4-1.4c-0.1-0.2-0.3-0.3-0.4-0.4
				c0.2,0.1,0.3,0.1,0.5,0.1c0.1,0.1,0.1,0.1,0.2,0.2c0.5,0.6,0.6,1.3,0.3,1.5c0,0-0.1,0-0.1,0c0,0,0.1,0.1,0.1,0.1
				c0.7,0.4,1,1,0.8,1.3c0,0-0.1,0.1-0.1,0.1c0-0.3-0.3-0.8-0.9-1.2c-0.6-0.4-1.2-0.5-1.4-0.3c0,0,0,0,0,0c-0.4-0.4-1.5-1.5-1.1-0.9
				c0.3,0.4,0.7,0.9,1,1.1c0,0.3,0.3,0.8,0.9,1.2c0.4,0.2,0.8,0.4,1.1,0.4c0,0.1,0.1,0.1,0.1,0.2c0.3-0.1,0.7,0,1.1,0.1
				c0.7,0.2,1.3,0.7,1.2,1c0,0,0,0.1-0.1,0.1c0-0.3-0.5-0.7-1.2-0.9c-0.7-0.2-1.3-0.2-1.5,0.1c0,0,0,0,0,0c-0.5-0.3-1.8-1-1.3-0.5
				c0.4,0.3,0.9,0.6,1.2,0.8c0.1,0.3,0.5,0.7,1.2,0.9c0.4,0.1,0.9,0.2,1.2,0.1c0,0,0,0,0.1,0c0.2-0.1,0.5-0.1,0.8-0.1
				c0,0,0.1,0,0.1,0c0,0.1,0,0.2,0.1,0.3c-0.1,0-0.1,0-0.2,0c-0.7,0-1.3,0.2-1.4,0.5c0,0,0,0,0,0c-0.6-0.1-2-0.5-1.4-0.2
				c0.5,0.2,1.1,0.4,1.4,0.4c0.2,0.3,0.7,0.5,1.4,0.5c0.4,0,0.7-0.1,0.9-0.1c0.5,0.4,1,0.5,1.4,0.2c0.1-0.1,0.2-0.2,0.3-0.4
				c0.2,0,0.5,0,0.7,0c0,0.1,0.1,0.1,0.1,0.2c0.4,0.5,1,0.7,1.3,0.5c0.3-0.2,0.3-0.7,0.1-1.1c0.2-0.1,0.3-0.2,0.5-0.3
				c0.4,0.5,0.9,0.6,1.2,0.4c0.3-0.3,0.3-0.9-0.1-1.4c0,0,0,0,0-0.1c0,0,0.1-0.1,0.1-0.1c0.4,0.3,0.8,0.4,1,0.2
				c0.3-0.3,0.3-0.9-0.1-1.4c0,0-0.1-0.1-0.1-0.1c0,0,0.1,0,0.1-0.1c0.4-0.3,0.4-1.1,0-1.7c0.3,0.1,0.5,0,0.7-0.1
				c0.4-0.3,0.4-1,0-1.7c0-0.2,0.1-0.4,0.1-0.6c0-0.7-0.2-1.2-0.4-1.4c0-0.4-0.1-1-0.3-1.4c-0.3-0.6,0,0.8,0.1,1.4c0,0,0,0,0,0
				c-0.2,0.1-0.4,0.4-0.5,0.8c0.3,0.1,0.5,0.4,0.8,0.7c0,0.1,0.1,0.1,0.1,0.2c-0.5-0.6-1.2-0.8-1.7-0.5c-0.2,0.2-0.3,0.4-0.3,0.7
				c-0.1-0.5-0.1-0.9,0.2-1.1c0.2-0.1,0.4-0.1,0.7-0.1c-0.1-0.2-0.2-0.3-0.2-0.5c0.2-0.2,0.3-0.8,0.1-1.5c-0.2-0.6-0.5-1.1-0.8-1.2
				c-0.2-0.3-0.4-0.9-0.8-1.3c-0.5-0.5,0.2,0.8,0.5,1.3c0,0,0,0,0,0c-0.2,0.2-0.3,0.8-0.1,1.5c0.2,0.7,0.6,1.1,0.9,1.2
				c0,0-0.1,0.1-0.1,0.1c-0.3,0.1-0.8-0.4-1-1.2c-0.1-0.4-0.1-0.7-0.1-1c-0.1-0.1-0.2-0.2-0.3-0.3c0,0,0,0,0,0
				c-0.1-0.6-0.4-1.2-0.7-1.3c-0.1-0.3-0.4-0.9-0.7-1.3C42.2,7.1,42.8,8.4,43,9c0,0,0,0,0,0c-0.1,0.1-0.2,0.3-0.3,0.6
				c0-0.1-0.1-0.2-0.2-0.3c0,0,0-0.1,0-0.1c0,0-0.1,0-0.1-0.1c0,0,0-0.1-0.1-0.1c-0.4-0.5-0.9-0.8-1.2-0.8C40.9,8,40.5,7.6,40,7.4
				c-0.6-0.3,0.5,0.6,1,1c0,0,0,0,0,0c-0.1,0.1-0.1,0.4,0,0.7c-0.1-0.1-0.2-0.2-0.3-0.3c0-0.1,0-0.2,0.1-0.3
				c-0.3-0.1-0.6-0.1-0.9-0.1c-0.3-0.3-0.7-0.6-1.1-0.8C38.3,7.4,39,8,39.5,8.4c-0.2,0-0.5,0-0.7,0.1c-0.3-0.2-0.6-0.4-0.8-0.3
				c-0.3-0.3-0.7-0.7-1.2-0.9c-0.1,0-0.1-0.1-0.2-0.1C36.5,7.2,37.4,7.9,37.8,8.3"/>
		</defs>
		<clipPath id="SVGID_4_">
			<use xlink:href="#SVGID_3_"  style="overflow:visible;"/>
		</clipPath>
		
			<linearGradient id="SVGID_5_" gradientUnits="userSpaceOnUse" x1="0" y1="74.1407" x2="1" y2="74.1407" gradientTransform="matrix(10.4614 13.8828 -13.8828 10.4614 1064.2515 -768.4636)">
			<stop  offset="0" style="stop-color:#DB2133"/>
			<stop  offset="0.8437" style="stop-color:#F2932A"/>
			<stop  offset="1" style="stop-color:#F7A521"/>
		</linearGradient>
		<polygon class="st1" points="26,12.5 38.5,29 55,16.6 42.5,0 		"/>
	</g>
	<g class="st0">
		<defs>
			<path id="SVGID_6_" d="M58,15.1c0,0-0.1,0-0.1-0.1c0,0.1-0.1,0.2-0.1,0.4c-0.3,0.5-0.4,1.1-0.1,1.3c0.3,0.2,0.9,0,1.4-0.6
				c0.2-0.2,0.3-0.4,0.3-0.6c0.1-0.4,0.1-0.7-0.1-0.9c-0.1-0.1-0.2-0.1-0.3-0.1C58.7,14.6,58.3,14.8,58,15.1 M51.7,26.3
				c0.4-0.5,0.9-0.7,1.2-0.5c0.2,0.1,0.2,0.5,0.1,0.8c0-0.2-0.1-0.4-0.2-0.5c-0.3-0.2-0.8-0.1-1.2,0.4
				C51.6,26.4,51.7,26.4,51.7,26.3 M49.9,25.4c0.4-0.5,0.9-0.7,1.2-0.5c0.2,0.1,0.2,0.5,0.1,0.8c0-0.2-0.1-0.4-0.2-0.5
				c-0.3-0.2-0.8-0.1-1.2,0.4C49.8,25.4,49.9,25.4,49.9,25.4 M54.2,25.5c0.5-0.7,1.3-1,1.7-0.7c0.3,0.2,0.3,0.6,0.2,1.1
				c0-0.3-0.1-0.6-0.3-0.7c-0.4-0.3-1.1-0.1-1.7,0.5C54.1,25.6,54.2,25.6,54.2,25.5 M52.5,24.5c0.5-0.7,1.3-1,1.7-0.7
				c0.3,0.2,0.3,0.6,0.2,1.1c0-0.3-0.1-0.6-0.3-0.7c-0.4-0.3-1.1-0.1-1.7,0.5C52.4,24.6,52.5,24.5,52.5,24.5 M48.9,24
				c0.4-0.5,0.9-0.7,1.2-0.5c0.2,0.1,0.2,0.5,0.1,0.8c0-0.2-0.1-0.4-0.2-0.5c-0.3-0.2-0.8-0.1-1.2,0.4C48.8,24.1,48.9,24.1,48.9,24
				 M55.9,23.6c0.7-0.5,1.5-0.6,1.8-0.1c0.2,0.3,0.1,0.7-0.2,1.1c0.1-0.3,0.1-0.6-0.1-0.8c-0.3-0.4-1-0.4-1.7-0.1
				C55.8,23.7,55.9,23.6,55.9,23.6 M50.7,23.5c0.5-0.7,1.3-1,1.7-0.7c0.3,0.2,0.3,0.6,0.2,1.1c0-0.3-0.1-0.6-0.3-0.7
				c-0.4-0.3-1.1-0.1-1.7,0.5C50.6,23.6,50.6,23.6,50.7,23.5 M56.6,22.4c0.5-0.7,1.3-1,1.7-0.7c0.3,0.2,0.3,0.6,0.2,1.1
				c0-0.3-0.1-0.6-0.3-0.7c-0.4-0.3-1.1-0.1-1.7,0.5C56.5,22.5,56.5,22.4,56.6,22.4 M53.8,22.2c0.5-0.7,1.3-1,1.7-0.7
				c0.3,0.2,0.3,0.6,0.2,1.1c0-0.3-0.1-0.6-0.3-0.7c-0.4-0.3-1.1-0.1-1.7,0.5C53.7,22.3,53.7,22.3,53.8,22.2 M49,21.9
				c0.5-0.7,1.3-1,1.7-0.7c0.3,0.2,0.3,0.6,0.2,1.1c0-0.3-0.1-0.6-0.3-0.7c-0.4-0.3-1.1-0.1-1.7,0.5C48.9,22,49,21.9,49,21.9
				 M51.2,21.7c0.5-0.7,1.3-1,1.7-0.7c0.3,0.2,0.3,0.6,0.2,1.1c0-0.3-0.1-0.6-0.3-0.7c-0.4-0.3-1.1-0.1-1.7,0.5
				C51.1,21.9,51.2,21.8,51.2,21.7 M56.9,20.8c0.7-0.5,1.5-0.6,1.8-0.1c0.2,0.3,0.1,0.7-0.2,1.1c0.1-0.3,0.1-0.6-0.1-0.8
				c-0.3-0.4-1-0.4-1.7-0.1C56.8,20.9,56.8,20.8,56.9,20.8 M53.2,20.7c0.5-0.7,1.3-1,1.7-0.7c0.3,0.2,0.3,0.6,0.2,1.1
				c0-0.3-0.1-0.6-0.3-0.7c-0.4-0.3-1.1-0.1-1.7,0.5C53.1,20.9,53.2,20.8,53.2,20.7 M59.4,20.6c-0.2-0.1-0.2-0.5,0-0.9
				c0.1,0,0.2-0.1,0.4-0.2c-0.3,0.5-0.4,0.9-0.3,1.1C59.5,20.6,59.5,20.6,59.4,20.6 M51,19.7c0.5-0.7,1.3-1,1.7-0.7
				c0.3,0.2,0.3,0.6,0.2,1.1c0-0.3-0.1-0.6-0.3-0.7c-0.4-0.3-1.1-0.1-1.7,0.5C50.9,19.8,51,19.7,51,19.7 M55.6,19.5
				c0.5-0.7,1.3-1,1.7-0.7c0.3,0.2,0.3,0.6,0.2,1.1c0-0.3-0.1-0.6-0.3-0.7c-0.4-0.3-1.1-0.1-1.7,0.5C55.5,19.6,55.5,19.5,55.6,19.5
				 M51.4,18.7c0.5-0.7,1.3-1,1.7-0.7c0.3,0.2,0.3,0.6,0.2,1.1c0-0.3-0.1-0.6-0.3-0.7c-0.4-0.3-1.1-0.1-1.7,0.5
				C51.3,18.8,51.3,18.8,51.4,18.7 M55.5,18.1c0.5-0.7,1.3-1,1.7-0.7c0.3,0.2,0.3,0.6,0.2,1.1c0-0.3-0.1-0.6-0.3-0.7
				C56.6,17.5,56,17.7,55.5,18.1c0.1,0.3,0.1,0.6,0,0.9c0-0.3-0.1-0.6-0.3-0.7c-0.4-0.3-1.1-0.1-1.7,0.5c0-0.1,0.1-0.1,0.1-0.2
				c0.5-0.7,1.3-1,1.7-0.7C55.3,18,55.4,18.1,55.5,18.1C55.4,18.1,55.5,18.1,55.5,18.1 M55.7,14.9c0,0,0.1,0,0.1,0.1
				c0.3,0.2,0.1,0.9-0.3,1.5c-0.1,0.1-0.1,0.2-0.2,0.2c0,0.1,0,0.2-0.1,0.3c0-0.3-0.1-0.6-0.3-0.7c-0.4-0.3-0.9-0.2-1.4,0.3
				c0.2,0.2,0.2,0.6,0.1,1c0-0.3-0.1-0.6-0.3-0.7c-0.4-0.3-1.1-0.1-1.7,0.5c0-0.1,0.1-0.1,0.1-0.2c0.5-0.7,1.3-1,1.7-0.7
				c0,0,0,0,0.1,0.1c0.5-0.6,1.2-0.9,1.6-0.6c0.1,0.1,0.2,0.2,0.2,0.4C55.7,15.7,55.8,15.1,55.7,14.9 M58.6,13.4
				c-0.5,0.2-0.9,0.7-1.2,0.9c-0.2,0-0.5,0.1-0.8,0.3c-0.2,0-0.5-0.1-0.7-0.1c0.5-0.4,1.2-1.1,0.7-0.8c-0.4,0.2-0.8,0.6-1.1,0.8
				c-0.3,0-0.6,0.1-0.9,0.1c0,0.1,0.1,0.2,0.1,0.3c-0.1,0.1-0.2,0.2-0.3,0.3c0.1-0.3,0.1-0.5,0-0.7c0,0,0,0,0,0c0.5-0.4,1.6-1.4,1-1
				c-0.5,0.2-0.9,0.7-1.2,0.9c-0.3,0-0.8,0.3-1.2,0.8c0,0,0,0.1-0.1,0.1c0,0-0.1,0-0.1,0.1c0,0,0,0,0,0.1c-0.1,0.1-0.1,0.2-0.2,0.3
				c0-0.3-0.1-0.5-0.3-0.6c0,0,0,0,0,0c0.2-0.6,0.8-1.9,0.4-1.4c-0.3,0.4-0.5,1-0.7,1.3c-0.3,0.1-0.6,0.6-0.7,1.3c0,0,0,0,0,0
				c-0.1,0.1-0.2,0.2-0.3,0.3c0,0.3,0,0.6-0.1,1c-0.2,0.8-0.7,1.3-1,1.2c0,0-0.1,0-0.1-0.1c0.3,0,0.7-0.5,0.9-1.2
				c0.2-0.7,0.2-1.3-0.1-1.5c0,0,0,0,0,0c0.3-0.5,1-1.8,0.5-1.3c-0.3,0.4-0.6,0.9-0.8,1.3c-0.3,0.1-0.7,0.5-0.8,1.2
				c-0.2,0.6-0.2,1.2,0.1,1.5c-0.1,0.2-0.2,0.3-0.2,0.5c0.2-0.1,0.5-0.1,0.7,0.1c0.3,0.2,0.3,0.6,0.2,1.1c0-0.3-0.1-0.6-0.3-0.7
				c-0.4-0.3-1.1-0.1-1.7,0.5c0-0.1,0.1-0.1,0.1-0.2c0.2-0.3,0.5-0.5,0.8-0.7c-0.1-0.4-0.3-0.7-0.5-0.8c0,0,0,0,0,0
				c0.1-0.6,0.4-2,0.1-1.4c-0.2,0.5-0.3,1.1-0.3,1.4c-0.3,0.2-0.5,0.7-0.4,1.4c0,0.2,0,0.4,0.1,0.6c-0.4,0.6-0.4,1.3,0,1.7
				c0.2,0.1,0.4,0.2,0.7,0.1c-0.4,0.7-0.4,1.4,0,1.7c0,0,0.1,0.1,0.1,0.1c0,0-0.1,0.1-0.1,0.1c-0.4,0.5-0.4,1.1-0.1,1.4
				c0.3,0.2,0.7,0.1,1-0.2c0,0,0.1,0.1,0.1,0.1c0,0,0,0,0,0.1c-0.4,0.5-0.4,1.1-0.1,1.4c0.3,0.2,0.9,0.1,1.2-0.4
				c0.2,0.1,0.3,0.2,0.5,0.3c-0.2,0.4-0.2,0.9,0.1,1.1c0.3,0.3,0.9,0,1.3-0.5c0.1-0.1,0.1-0.1,0.1-0.2c0.2,0,0.5,0,0.7,0
				c0,0.2,0.1,0.3,0.3,0.4c0.4,0.3,0.9,0.2,1.4-0.2c0.3,0.1,0.6,0.2,0.9,0.1c0.7,0,1.2-0.2,1.4-0.5c0.4-0.1,1-0.2,1.4-0.4
				c0.6-0.3-0.8,0-1.4,0.2c0,0,0,0,0,0c-0.1-0.3-0.7-0.5-1.4-0.5c-0.1,0-0.1,0-0.2,0c0-0.1,0-0.2,0.1-0.3c0,0,0.1,0,0.1,0
				c0.3,0,0.6,0,0.8,0.1c0,0,0,0,0.1,0c0.3,0.1,0.7,0,1.2-0.1c0.6-0.2,1.1-0.6,1.2-0.9c0.3-0.2,0.9-0.5,1.2-0.8
				c0.5-0.5-0.8,0.3-1.3,0.5c0,0,0,0,0,0c-0.2-0.2-0.8-0.3-1.5-0.1c-0.7,0.2-1.1,0.6-1.2,0.9c0,0-0.1-0.1-0.1-0.1
				c-0.1-0.3,0.4-0.8,1.2-1c0.4-0.1,0.8-0.2,1.1-0.1c0-0.1,0.1-0.1,0.1-0.2c0.3,0,0.7-0.2,1.1-0.4c0.6-0.4,0.9-0.8,0.9-1.2
				c0.3-0.2,0.7-0.7,1-1.1c0.4-0.6-0.7,0.5-1.1,0.9c0,0,0,0,0,0c-0.3-0.2-0.9,0-1.4,0.3c-0.6,0.4-0.9,0.9-0.9,1.2
				c0,0-0.1-0.1-0.1-0.1c-0.2-0.3,0.2-0.9,0.8-1.3c0,0,0.1-0.1,0.1-0.1c0,0-0.1,0-0.1,0c-0.3-0.2-0.1-0.9,0.3-1.5
				c0-0.1,0.1-0.1,0.2-0.2c0.1,0,0.3,0,0.5-0.1c-0.1,0.1-0.3,0.3-0.4,0.4c-0.4,0.5-0.6,1.1-0.4,1.4c0.4-0.3,0.9-0.4,1.2-0.3
				c0.1-0.1,0.2-0.2,0.3-0.3c0.4-0.5,0.6-1.1,0.4-1.4c0.2-0.3,0.4-0.9,0.5-1.4c0.1-0.7-0.5,0.7-0.7,1.2c0,0,0,0,0,0
				c-0.1,0-0.3,0-0.5,0.1c0.1-0.1,0.2-0.2,0.3-0.3c0.1-0.1,0.1-0.1,0.2-0.2c0.4-0.5,0.6-1.1,0.4-1.4c0.2-0.3,0.4-0.9,0.5-1.4
				c0.1-0.7-0.5,0.7-0.7,1.2c0,0,0,0,0,0c-0.2,0-0.4,0-0.6,0.2c0.1-0.1,0.1-0.2,0.2-0.3c0.1-0.3,0.2-0.6,0.1-0.8
				c0.2-0.3,0.4-0.9,0.5-1.4c0.1-0.7-0.5,0.7-0.7,1.2c0,0,0,0,0,0c-0.3-0.1-0.8,0.3-1.2,0.8c-0.4,0.5-0.6,1.1-0.4,1.4
				c0,0-0.1,0-0.1-0.1c-0.3-0.2-0.1-0.9,0.3-1.5c0.3-0.4,0.6-0.6,0.9-0.8c0,0,0-0.1-0.1-0.1c0.1-0.1,0.1-0.1,0.2-0.2
				c0.4-0.5,0.6-1.1,0.4-1.4c0.2-0.3,0.4-0.9,0.5-1.4c0.1-0.7-0.5,0.7-0.7,1.2c0,0,0,0,0,0c-0.3-0.1-0.8,0.3-1.2,0.8
				c-0.4,0.5-0.6,1.1-0.4,1.4c0,0-0.1,0-0.1-0.1c-0.2-0.1-0.2-0.4-0.1-0.7c-0.4,0.4-0.9,0.6-1.2,0.4c-0.2-0.2-0.2-0.5-0.1-0.9
				c-0.4,0.5-1,0.8-1.2,0.6c0,0-0.1-0.1-0.1-0.1c0.3,0.1,0.8-0.3,1.2-0.8c0.4-0.5,0.6-1.1,0.4-1.4c0,0,0,0,0,0
				c0.4-0.3,1.3-1.1,1.1-1.1C58.8,13.4,58.7,13.4,58.6,13.4"/>
		</defs>
		<clipPath id="SVGID_7_">
			<use xlink:href="#SVGID_6_"  style="overflow:visible;"/>
		</clipPath>
		
			<linearGradient id="SVGID_8_" gradientUnits="userSpaceOnUse" x1="0" y1="74.1407" x2="1" y2="74.1407" gradientTransform="matrix(-10.4614 13.8828 13.8828 10.4614 -968.8171 -762.2816)">
			<stop  offset="0" style="stop-color:#DB2133"/>
			<stop  offset="0.8437" style="stop-color:#F2932A"/>
			<stop  offset="1" style="stop-color:#F7A521"/>
		</linearGradient>
		<polygon class="st2" points="69.4,18.6 56.9,35.2 40.4,22.8 52.9,6.2 		"/>
	</g>
	<g class="st0">
		<defs>
			<path id="SVGID_9_" d="M23.8,21.9c-0.1,0-0.3,0-0.4,0c0,0,0,0.1,0,0.1c-0.6,0.2-1,0.7-0.9,1c0.1,0.2,0.4,0.4,0.8,0.4
				c0.2,0,0.4,0,0.7-0.1c0.7-0.2,1.2-0.7,1.1-1.1c-0.1-0.3-0.4-0.4-0.8-0.4C24.1,21.9,24,21.9,23.8,21.9 M27.2,24.9
				c0.4,0,0.8,0.1,0.9,0.3c0,0,0,0.1,0,0.1c-0.2-0.2-0.6-0.3-1.2-0.2C27,25.1,27.1,25,27.2,24.9 M29.5,24.5
				c-0.1-0.5,0.4-1.1,1.2-1.3c0.1,0,0.1,0,0.2,0c-0.7,0.3-1.2,0.9-1,1.4c0.1,0.3,0.3,0.4,0.6,0.5C30,25,29.6,24.8,29.5,24.5
				 M31.4,24.6c-0.3-0.4,0-1.2,0.7-1.7c0.1,0,0.1-0.1,0.2-0.1c-0.6,0.5-0.8,1.2-0.5,1.6c0.2,0.2,0.4,0.3,0.7,0.3
				c-0.2,0-0.3,0.1-0.4,0.1C31.7,24.9,31.5,24.8,31.4,24.6 M28.4,24.6c-0.3-0.4,0-1.2,0.7-1.7c0.1,0,0.1-0.1,0.2-0.1
				c-0.6,0.5-0.8,1.2-0.5,1.6c0.2,0.2,0.4,0.3,0.7,0.3c-0.2,0-0.3,0.1-0.4,0.1C28.7,24.8,28.5,24.7,28.4,24.6 M33.3,23.3
				c-0.2-0.5,0.4-1.1,1.2-1.3c0.1,0,0.1,0,0.2,0c-0.7,0.3-1.2,0.9-1,1.4c0.1,0.3,0.3,0.4,0.6,0.5C33.7,23.9,33.4,23.7,33.3,23.3
				 M27.1,22.6c-0.1-0.5,0.4-1.1,1.2-1.3c0.1,0,0.1,0,0.2,0c-0.7,0.3-1.2,0.9-1,1.4c0.1,0.3,0.3,0.4,0.6,0.5
				C27.6,23.1,27.2,22.9,27.1,22.6 M30.3,21.8c-0.2-0.5,0.4-1.1,1.2-1.3c0.1,0,0.1,0,0.2,0c-0.7,0.3-1.2,0.9-1,1.4
				c0.1,0.3,0.3,0.4,0.6,0.5C30.8,22.3,30.4,22.1,30.3,21.8 M32.9,21.4c-0.2-0.5,0.4-1.1,1.2-1.3c0.1,0,0.1,0,0.2,0
				c-0.7,0.3-1.2,0.9-1,1.4c0.1,0.3,0.3,0.4,0.6,0.5C33.4,21.9,33,21.7,32.9,21.4 M35.2,20.9c-0.1-0.4,0.3-0.8,0.9-1
				c0,0,0.1,0,0.1,0c-0.5,0.2-0.9,0.6-0.7,1c0.1,0.2,0.2,0.3,0.4,0.4C35.6,21.3,35.3,21.1,35.2,20.9 M29.1,20.7
				c-0.1-0.5,0.4-1.1,1.2-1.3c0.1,0,0.1,0,0.2,0c-0.7,0.3-1.2,0.9-1,1.4c0.1,0.3,0.3,0.4,0.6,0.5C29.6,21.3,29.2,21.1,29.1,20.7
				 M25.9,22c-0.1-0.5,0.4-1.1,1.2-1.3c0,0,0,0,0,0c-0.1-0.1-0.1-0.2-0.2-0.3c-0.1-0.5,0.4-1.1,1.2-1.3c0.1,0,0.1,0,0.2,0
				c-0.7,0.3-1.2,0.9-1,1.4c0.1,0.3,0.3,0.4,0.6,0.5c-0.3,0-0.6-0.1-0.8-0.3c-0.6,0.3-1,0.9-0.9,1.3c0.1,0.3,0.3,0.4,0.6,0.5
				C26.4,22.5,26,22.3,25.9,22 M32.6,19.3c-0.1-0.5,0.4-1.1,1.2-1.3c0.1,0,0.1,0,0.2,0c-0.7,0.3-1.2,0.9-1,1.4
				c0.1,0.3,0.3,0.4,0.6,0.5C33.1,19.8,32.7,19.6,32.6,19.3 M34.9,18.9c-0.1-0.4,0.3-0.8,0.9-1c0,0,0.1,0,0.1,0
				c-0.5,0.2-0.9,0.6-0.7,1c0.1,0.2,0.2,0.3,0.4,0.4C35.3,19.2,35,19.1,34.9,18.9 M30.8,19.2c-0.1-0.5,0.4-1.1,1.2-1.3
				c0.1,0,0.1,0,0.2,0c-0.7,0.3-1.2,0.9-1,1.4c0.1,0.3,0.3,0.4,0.6,0.5C31.2,19.7,30.8,19.6,30.8,19.2 M27.9,18.4
				c-0.1-0.5,0.4-1.1,1.2-1.3c0.1,0,0.1,0,0.2,0c-0.7,0.3-1.2,0.9-1,1.4c0.1,0.3,0.3,0.4,0.6,0.5C28.3,18.9,28,18.7,27.9,18.4
				 M28.9,18.3c-0.1-0.5,0.4-1.1,1.2-1.3c0.1,0,0.1,0,0.2,0c-0.7,0.3-1.2,0.9-1,1.4c0.1,0.3,0.3,0.4,0.6,0.5
				C29.4,18.8,29,18.6,28.9,18.3 M25.4,19.8c-0.1-0.1-0.3-0.2-0.3-0.4c-0.1-0.5,0.3-1,1.1-1.3c0,0,0-0.1,0-0.1
				c-0.1-0.5,0.4-1.1,1.2-1.3c0.1,0,0.1,0,0.2,0c-0.7,0.3-1.2,0.9-1,1.4c0.1,0.3,0.3,0.4,0.6,0.5c-0.4,0-0.8-0.2-0.9-0.4
				c-0.5,0.3-0.9,0.8-0.7,1.2c0.1,0.3,0.3,0.4,0.6,0.5c-0.1,0-0.2,0-0.3,0c-0.1,0-0.2,0.1-0.3,0.1c-0.7,0.2-1.4,0.1-1.5-0.2
				c0,0,0-0.1,0-0.1c0.1,0.1,0.4,0.2,0.7,0.2C24.9,20,25.2,19.9,25.4,19.8 M31.6,17.2c-0.1-0.5,0.4-1.1,1.2-1.3c0.1,0,0.1,0,0.2,0
				c-0.7,0.3-1.2,0.9-1,1.4c0.1,0.3,0.3,0.4,0.6,0.5C32.1,17.7,31.7,17.5,31.6,17.2 M28.5,13.9c-0.7,0,0.8,0.3,1.4,0.4c0,0,0,0,0,0
				c0,0.2,0.2,0.5,0.6,0.7c0.2-0.2,0.5-0.4,0.9-0.5c0.1,0,0.1,0,0.2,0c-0.7,0.3-1.2,0.9-1,1.4c0.1,0.3,0.3,0.4,0.6,0.5
				c-0.5,0-0.9-0.2-1-0.5c-0.1-0.2,0-0.4,0.1-0.6c-0.2,0-0.4,0-0.6,0.1c-0.1-0.3-0.7-0.5-1.3-0.6c-0.7,0-1.2,0.1-1.4,0.4
				c-0.4,0-1,0.1-1.5,0.3c-0.6,0.3,0.8,0,1.4,0c0,0,0,0,0,0c0.1,0.3,0.7,0.5,1.4,0.6c0.7,0,1.3-0.1,1.4-0.4c0,0,0,0.1,0,0.1
				c0,0.3-0.7,0.6-1.5,0.5c-0.4,0-0.7-0.1-1-0.2c-0.1,0.1-0.3,0.1-0.4,0.2c0,0,0,0,0,0c-0.7-0.1-1.2,0-1.4,0.2c-0.4,0-1,0-1.5,0.2
				c-0.7,0.2,0.8,0.1,1.4,0.1c0,0,0,0,0,0c0,0.2,0.2,0.3,0.5,0.5c-0.1,0-0.2,0-0.3,0c0,0,0,0-0.1-0.1c0,0-0.1,0.1-0.1,0.1
				c0,0-0.1,0-0.1,0c-0.6,0.2-1.1,0.5-1.2,0.9c-0.3,0.2-0.9,0.5-1.3,0.8c-0.5,0.5,0.8-0.2,1.3-0.5c0,0,0,0,0,0
				c0.1,0.1,0.3,0.2,0.6,0.2c-0.1,0.1-0.2,0.1-0.3,0.2c-0.1,0-0.2-0.1-0.2-0.2c-0.2,0.3-0.3,0.5-0.4,0.8c-0.3,0.2-0.8,0.4-1.1,0.7
				c-0.4,0.4,0.4-0.1,1-0.4c-0.1,0.2-0.1,0.5-0.2,0.7c-0.3,0.2-0.5,0.4-0.6,0.6c-0.3,0.2-0.9,0.5-1.3,0.8c-0.5,0.5,0.8-0.2,1.3-0.5
				c0,0,0,0,0,0c0.2,0.2,0.8,0.3,1.5,0.1c0.7-0.2,1.1-0.6,1.2-0.9c0,0,0.1,0.1,0.1,0.1c0.1,0.3-0.3,0.7-1,1c0.4,0,0.8,0.1,0.8,0.4
				c0.1,0.3-0.2,0.7-0.8,1c0.3,0,0.6,0.1,0.7,0.3c0,0,0,0.1,0,0.1c-0.2-0.2-0.8-0.3-1.5-0.1s-1.1,0.6-1.2,0.9c0,0,0,0,0,0
				c-0.6,0.1-2.1,0.2-1.4,0.3c0.5,0.1,1.1,0,1.5,0c0.2,0.2,0.8,0.2,1.5,0.1c0.1,0,0.2-0.1,0.3-0.1c0,0,0.1,0.1,0.1,0.1
				c0.2-0.2,0.6-0.4,1-0.6c0.7-0.2,1.4-0.1,1.5,0.2c0,0,0,0.1,0,0.1c-0.2-0.2-0.8-0.3-1.5-0.1c-0.7,0.2-1.1,0.6-1.2,0.9c0,0,0,0,0,0
				c-0.6,0.1-2.1,0.2-1.4,0.3c0.5,0.1,1.1,0,1.5,0c0.1,0.1,0.4,0.2,0.8,0.2c0.1,0,0.2,0,0.4,0c-0.2,0.2-0.4,0.4-0.4,0.5c0,0,0,0,0,0
				c-0.6,0.1-2.1,0.2-1.4,0.3c0.5,0.1,1.1,0,1.5,0c0.2,0.2,0.8,0.2,1.4,0.1c0.1,0,0.2-0.1,0.2-0.1c0.1,0,0.2-0.1,0.3-0.2
				c-0.1,0.1-0.2,0.3-0.3,0.4c0,0,0,0,0,0c-0.6,0.1-2.1,0.2-1.4,0.3c0.5,0.1,1.1,0,1.5,0c0.2,0.2,0.8,0.2,1.5,0.1
				c0.1,0,0.3-0.1,0.4-0.2c0-0.3,0.3-0.7,0.7-1c-0.2-0.2-0.8-0.3-1.5-0.1c-0.2,0.1-0.4,0.1-0.6,0.2c0.1-0.1,0.2-0.3,0.3-0.4
				c0.1,0,0.2-0.1,0.2-0.1c0.7-0.2,1.4-0.1,1.5,0.2c0,0,0,0.1,0,0.1c0,0,0.1-0.1,0.1-0.1c0.6-0.5,1.3-0.6,1.5-0.3c0,0,0,0.1,0.1,0.1
				c-0.3-0.2-0.9,0-1.4,0.4c-0.6,0.4-0.9,0.9-0.8,1.2c0,0,0,0,0,0c-0.5,0.3-1.9,0.9-1.2,0.7c0.5-0.1,1.1-0.4,1.4-0.5
				c0.3,0.1,0.9,0,1.4-0.4c0.4-0.3,0.6-0.6,0.7-0.9c0.1,0,0.2,0,0.2-0.1c0-0.3,0.2-0.7,0.5-1c0.5-0.6,1.1-1,1.4-0.7
				c0,0,0.1,0.1,0.1,0.1c-0.3-0.1-0.8,0.3-1.2,0.8c-0.4,0.5-0.6,1.1-0.4,1.4c0,0,0,0,0,0c-0.5,0.4-1.6,1.4-1,1
				c0.4-0.2,0.9-0.6,1.2-0.9c0.3,0,0.8-0.3,1.2-0.8c0.3-0.4,0.5-0.8,0.5-1.1c0,0,0,0,0.1,0c0-0.2,0.1-0.5,0.2-0.8c0,0,0-0.1,0.1-0.1
				c0.1,0,0.2,0,0.3,0c0,0.1-0.1,0.1-0.1,0.2c-0.2,0.6-0.2,1.3,0,1.5c0,0,0,0,0,0c-0.3,0.5-1.1,1.7-0.6,1.3c0.4-0.3,0.7-0.9,0.9-1.2
				c0.3-0.1,0.7-0.5,0.9-1.1c0.1-0.3,0.2-0.7,0.2-0.9c0.5-0.3,0.8-0.8,0.7-1.2c0-0.2-0.2-0.3-0.3-0.4c0.1-0.2,0.2-0.5,0.2-0.7
				c0.1,0,0.2,0,0.2-0.1c0.6-0.2,1-0.7,0.9-1.1c-0.1-0.3-0.5-0.5-1-0.5c0-0.2,0-0.4-0.1-0.5c0.6-0.2,0.9-0.7,0.8-1
				c-0.1-0.4-0.7-0.6-1.3-0.4c0,0,0,0-0.1,0c0,0-0.1-0.1-0.1-0.1c0.4-0.2,0.6-0.6,0.5-0.9c-0.1-0.4-0.7-0.6-1.3-0.4c0,0-0.1,0-0.1,0
				c-0.5,0.2-0.9,0.6-0.7,1c0.1,0.2,0.2,0.3,0.4,0.4c-0.4,0-0.6-0.2-0.7-0.4c-0.1-0.4,0.3-0.8,0.9-1c0,0,0.1,0,0.1,0
				c0,0,0-0.1,0-0.1c-0.2-0.5-0.9-0.7-1.6-0.6c0.1-0.2,0.2-0.5,0.1-0.7c-0.2-0.5-0.8-0.7-1.5-0.6c-0.2-0.1-0.3-0.2-0.5-0.3
				c-0.6-0.2-1.2-0.3-1.4-0.1c-0.3-0.1-0.8-0.2-1.3-0.2C28.7,13.9,28.6,13.9,28.5,13.9"/>
		</defs>
		<clipPath id="SVGID_10_">
			<use xlink:href="#SVGID_9_"  style="overflow:visible;"/>
		</clipPath>
		
			<linearGradient id="SVGID_11_" gradientUnits="userSpaceOnUse" x1="0" y1="74.1407" x2="1" y2="74.1407" gradientTransform="matrix(16.6236 -5.0823 5.0823 16.6236 -355.9577 -1208.9664)">
			<stop  offset="0" style="stop-color:#DB2133"/>
			<stop  offset="0.8437" style="stop-color:#F2932A"/>
			<stop  offset="1" style="stop-color:#F7A521"/>
		</linearGradient>
		<polygon class="st3" points="22.2,32.8 41.8,26.8 36.3,9.1 16.7,15.1 		"/>
	</g>
	<g class="st0">
		<defs>
			<path id="SVGID_12_" d="M72.2,8.5C72,8.6,72,9,72.1,9.4c0.1,0.2,0.2,0.4,0.3,0.6c0.4,0.6,1.1,0.9,1.4,0.6
				c0.3-0.2,0.2-0.8-0.1-1.3c-0.1-0.1-0.1-0.3-0.1-0.4c0,0-0.1,0-0.1,0.1c-0.3-0.4-0.7-0.6-1-0.6C72.4,8.4,72.3,8.4,72.2,8.5
				 M78.5,19.6c0.3-0.2,0.8,0,1.2,0.5c0,0,0.1,0.1,0.1,0.1c-0.4-0.4-0.9-0.6-1.2-0.4c-0.2,0.1-0.2,0.3-0.2,0.5
				C78.3,20.1,78.3,19.8,78.5,19.6 M80.4,18.7c0.3-0.2,0.8,0,1.2,0.5c0,0,0.1,0.1,0.1,0.1c-0.4-0.4-0.9-0.6-1.2-0.4
				c-0.2,0.1-0.2,0.3-0.2,0.5C80.1,19.1,80.2,18.8,80.4,18.7 M75.6,18.6c0.4-0.3,1.2,0,1.7,0.7c0,0.1,0.1,0.1,0.1,0.2
				c-0.5-0.6-1.2-0.8-1.7-0.5c-0.2,0.2-0.3,0.4-0.3,0.7C75.3,19.3,75.3,18.8,75.6,18.6 M77.3,17.6c0.4-0.3,1.2,0,1.7,0.7
				c0,0.1,0.1,0.1,0.1,0.2c-0.5-0.6-1.2-0.8-1.7-0.5c-0.2,0.2-0.3,0.4-0.3,0.7C77,18.2,77,17.8,77.3,17.6 M81.4,17.3
				c0.3-0.2,0.8,0,1.2,0.5c0,0,0.1,0.1,0.1,0.1c-0.4-0.4-0.9-0.6-1.2-0.4c-0.2,0.1-0.2,0.3-0.2,0.5C81.1,17.8,81.2,17.5,81.4,17.3
				 M73.8,17.3c0.3-0.4,1.1-0.4,1.8,0.1c0.1,0,0.1,0.1,0.2,0.1c-0.7-0.4-1.4-0.4-1.7,0.1c-0.2,0.2-0.2,0.5-0.1,0.8
				C73.6,18,73.6,17.6,73.8,17.3 M79.1,16.6c0.4-0.3,1.2,0,1.7,0.7c0,0.1,0.1,0.1,0.1,0.2c-0.5-0.6-1.2-0.8-1.7-0.5
				c-0.2,0.2-0.3,0.4-0.3,0.7C78.8,17.3,78.9,16.8,79.1,16.6 M73.2,15.5c0.4-0.3,1.2,0,1.7,0.7c0,0.1,0.1,0.1,0.1,0.2
				c-0.5-0.6-1.2-0.8-1.7-0.5C73.1,16,73,16.3,73,16.6C72.9,16.1,72.9,15.7,73.2,15.5 M76,15.4c0.4-0.3,1.2,0,1.7,0.7
				c0,0.1,0.1,0.1,0.1,0.2c-0.5-0.6-1.2-0.8-1.7-0.5c-0.2,0.2-0.3,0.4-0.3,0.7C75.7,16,75.8,15.6,76,15.4 M80.8,15
				c0.4-0.3,1.2,0,1.7,0.7c0,0.1,0.1,0.1,0.1,0.2c-0.5-0.6-1.2-0.8-1.7-0.5c-0.2,0.2-0.3,0.4-0.3,0.7C80.5,15.6,80.5,15.2,80.8,15
				 M78.6,14.9c0.4-0.3,1.2,0,1.7,0.7c0,0.1,0.1,0.1,0.1,0.2c-0.5-0.6-1.2-0.8-1.7-0.5c-0.2,0.2-0.3,0.4-0.3,0.7
				C78.3,15.5,78.3,15.1,78.6,14.9 M72.8,14.5c0.3-0.4,1.1-0.4,1.8,0.1c0.1,0,0.1,0.1,0.2,0.1c-0.7-0.4-1.4-0.4-1.7,0.1
				c-0.2,0.2-0.2,0.5-0.1,0.8C72.7,15.2,72.6,14.7,72.8,14.5 M76.6,13.9c0.4-0.3,1.2,0,1.7,0.7c0,0.1,0.1,0.1,0.1,0.2
				c-0.5-0.6-1.2-0.8-1.7-0.5c-0.2,0.2-0.3,0.4-0.3,0.7C76.3,14.5,76.3,14.1,76.6,13.9 M71.7,13.3c0.1,0.1,0.3,0.2,0.4,0.2
				c0.2,0.4,0.2,0.8,0,0.9c0,0-0.1,0-0.1,0.1C72,14.2,71.9,13.8,71.7,13.3 M78.8,12.8c0.4-0.3,1.2,0,1.7,0.7c0,0.1,0.1,0.1,0.1,0.2
				c-0.5-0.6-1.2-0.8-1.7-0.5c-0.2,0.2-0.3,0.4-0.3,0.7C78.5,13.4,78.5,13,78.8,12.8 M74.2,12.6c0.4-0.3,1.2,0,1.7,0.7
				c0,0.1,0.1,0.1,0.1,0.2c-0.5-0.6-1.2-0.8-1.7-0.5c-0.2,0.2-0.3,0.4-0.3,0.7C73.9,13.2,73.9,12.8,74.2,12.6 M78.4,11.9
				c0.4-0.3,1.2,0,1.7,0.7c0,0.1,0.1,0.1,0.1,0.2c-0.5-0.6-1.2-0.8-1.7-0.5c-0.2,0.2-0.3,0.4-0.3,0.7C78.1,12.5,78.1,12.1,78.4,11.9
				 M74.3,11.2c0.4-0.3,1.2,0,1.7,0.7c0,0,0,0,0,0c0-0.1,0.1-0.2,0.2-0.2c0.4-0.3,1.2,0,1.7,0.7c0,0.1,0.1,0.1,0.1,0.2
				c-0.5-0.6-1.2-0.8-1.7-0.5c-0.2,0.2-0.3,0.4-0.3,0.7c-0.1-0.3-0.1-0.6,0-0.8c-0.5-0.5-1.2-0.7-1.6-0.4c-0.2,0.2-0.3,0.4-0.3,0.7
				C74,11.9,74.1,11.5,74.3,11.2 M76.2,10.5c-0.1-0.1-0.1-0.1-0.2-0.2c-0.5-0.6-0.6-1.3-0.3-1.5c0,0,0.1,0,0.1-0.1
				c-0.2,0.3,0,0.8,0.4,1.4c0-0.2,0.1-0.3,0.2-0.4c0.4-0.3,1.1,0,1.6,0.6c0,0,0,0,0.1-0.1c0.4-0.3,1.2,0,1.7,0.7
				c0,0.1,0.1,0.1,0.1,0.2c-0.5-0.6-1.2-0.8-1.7-0.5c-0.2,0.2-0.3,0.4-0.3,0.7c-0.1-0.4-0.1-0.8,0.1-1c-0.5-0.4-1.1-0.5-1.4-0.3
				c-0.2,0.2-0.3,0.4-0.3,0.7C76.2,10.7,76.2,10.6,76.2,10.5 M73.8,8.3C73.8,8.3,73.8,8.3,73.8,8.3c-0.2,0.3,0,0.9,0.4,1.4
				c0.4,0.5,0.9,0.9,1.2,0.8c0,0,0,0.1-0.1,0.1c-0.3,0.2-0.8-0.1-1.2-0.6c0.2,0.4,0.1,0.8-0.1,0.9c-0.3,0.2-0.8,0-1.2-0.4
				c0.1,0.3,0.1,0.6-0.1,0.7c0,0-0.1,0-0.1,0.1c0.2-0.3,0-0.9-0.4-1.4C71.8,9.4,71.3,9,71,9.1c0,0,0,0,0,0c-0.3-0.5-0.9-1.9-0.7-1.2
				c0.1,0.5,0.4,1.1,0.5,1.4c-0.1,0.3,0,0.9,0.4,1.4c0.1,0.1,0.1,0.2,0.2,0.2c0,0,0,0.1-0.1,0.1c0.3,0.1,0.6,0.4,0.9,0.8
				c0.5,0.6,0.6,1.3,0.3,1.5c0,0-0.1,0-0.1,0.1c0.2-0.3,0-0.9-0.4-1.4c-0.4-0.5-0.9-0.9-1.2-0.8c0,0,0,0,0,0
				c-0.3-0.5-0.9-1.9-0.7-1.2c0.1,0.5,0.4,1.1,0.5,1.4c-0.1,0.2,0,0.5,0.1,0.8c0,0.1,0.1,0.2,0.2,0.3c-0.2-0.2-0.5-0.2-0.6-0.2
				c0,0,0,0,0,0c-0.3-0.5-0.9-1.9-0.7-1.2c0.1,0.5,0.4,1.1,0.5,1.4c-0.1,0.3,0,0.9,0.4,1.4c0.1,0.1,0.1,0.1,0.2,0.2
				c0.1,0.1,0.2,0.2,0.3,0.3c-0.2-0.1-0.3-0.1-0.5-0.1c0,0,0,0,0,0c-0.3-0.5-0.9-1.9-0.7-1.2c0.1,0.5,0.4,1.1,0.5,1.4
				c-0.1,0.3,0,0.9,0.4,1.4c0.1,0.1,0.2,0.2,0.3,0.3c0.3-0.1,0.7,0,1.2,0.3c0.1-0.3,0-0.9-0.4-1.4c-0.1-0.2-0.3-0.3-0.4-0.4
				c0.2,0.1,0.3,0.1,0.5,0.1c0.1,0.1,0.1,0.1,0.2,0.2c0.5,0.6,0.6,1.3,0.3,1.5c0,0-0.1,0-0.1,0c0,0,0.1,0.1,0.1,0.1
				c0.7,0.4,1,1,0.8,1.3c0,0-0.1,0.1-0.1,0.1c0.1-0.3-0.3-0.8-0.9-1.2c-0.6-0.4-1.2-0.5-1.4-0.3c0,0,0,0,0,0
				c-0.4-0.4-1.5-1.5-1.1-0.9c0.3,0.4,0.7,0.9,1,1.1c0,0.3,0.3,0.8,0.9,1.2c0.4,0.2,0.8,0.4,1.1,0.4c0,0.1,0.1,0.1,0.1,0.2
				c0.3-0.1,0.7,0,1.1,0.1c0.7,0.2,1.3,0.7,1.2,1c0,0,0,0.1-0.1,0.1c0-0.3-0.5-0.7-1.2-0.9c-0.7-0.2-1.3-0.2-1.5,0.1c0,0,0,0,0,0
				c-0.5-0.3-1.8-1-1.3-0.5c0.4,0.3,0.9,0.6,1.2,0.8c0.1,0.3,0.5,0.7,1.2,0.9c0.4,0.1,0.9,0.2,1.2,0.1c0,0,0,0,0.1,0
				c0.2-0.1,0.5-0.1,0.8-0.1c0,0,0.1,0,0.1,0c0,0.1,0,0.2,0.1,0.3c-0.1,0-0.1,0-0.2,0c-0.7,0-1.3,0.2-1.4,0.5c0,0,0,0,0,0
				c-0.6-0.1-2-0.5-1.4-0.2c0.5,0.2,1.1,0.4,1.4,0.4c0.2,0.3,0.7,0.5,1.4,0.5c0.4,0,0.7-0.1,0.9-0.1c0.5,0.4,1,0.5,1.4,0.2
				c0.1-0.1,0.2-0.2,0.3-0.4c0.2,0,0.5,0,0.7,0c0,0.1,0.1,0.1,0.1,0.2c0.4,0.5,1,0.7,1.3,0.5c0.3-0.2,0.3-0.7,0.1-1.1
				c0.2-0.1,0.3-0.2,0.5-0.3c0.4,0.5,0.9,0.6,1.2,0.4c0.3-0.3,0.3-0.9-0.1-1.4c0,0,0,0,0-0.1c0,0,0.1-0.1,0.1-0.1
				c0.4,0.3,0.8,0.4,1,0.2c0.3-0.3,0.3-0.9-0.1-1.4c0,0-0.1-0.1-0.1-0.1c0,0,0.1,0,0.1-0.1c0.4-0.3,0.4-1.1,0-1.7
				c0.3,0.1,0.5,0,0.7-0.1c0.4-0.3,0.4-1,0-1.7c0-0.2,0.1-0.4,0.1-0.6c0-0.7-0.2-1.2-0.4-1.4c0-0.4-0.1-1-0.3-1.4
				c-0.3-0.6,0,0.8,0.1,1.4c0,0,0,0,0,0c-0.2,0.1-0.4,0.4-0.5,0.8c0.3,0.1,0.5,0.4,0.8,0.7c0,0.1,0.1,0.1,0.1,0.2
				c-0.5-0.6-1.2-0.8-1.7-0.5c-0.2,0.2-0.3,0.4-0.3,0.7c-0.1-0.5-0.1-0.9,0.2-1.1c0.2-0.1,0.4-0.1,0.7-0.1c-0.1-0.2-0.2-0.3-0.2-0.5
				c0.2-0.2,0.3-0.8,0.1-1.5c-0.2-0.6-0.5-1.1-0.8-1.2c-0.2-0.3-0.4-0.9-0.8-1.3c-0.5-0.5,0.2,0.8,0.5,1.3c0,0,0,0,0,0
				c-0.2,0.2-0.3,0.8-0.1,1.5c0.2,0.7,0.6,1.1,0.9,1.2c0,0-0.1,0.1-0.1,0.1c-0.3,0.1-0.8-0.4-1-1.2c-0.1-0.4-0.1-0.7-0.1-1
				c-0.1-0.1-0.2-0.2-0.3-0.3c0,0,0,0,0,0c-0.1-0.6-0.4-1.2-0.7-1.3c-0.1-0.3-0.4-0.9-0.7-1.3c-0.4-0.6,0.2,0.8,0.4,1.4c0,0,0,0,0,0
				c-0.1,0.1-0.2,0.3-0.3,0.6c0-0.1-0.1-0.2-0.2-0.3c0,0,0-0.1,0-0.1c0,0-0.1,0-0.1-0.1c0,0,0-0.1-0.1-0.1c-0.4-0.5-0.9-0.8-1.2-0.8
				C77,8,76.5,7.6,76.1,7.4c-0.6-0.3,0.5,0.6,1,1c0,0,0,0,0,0c-0.1,0.1-0.1,0.4,0,0.7c-0.1-0.1-0.2-0.2-0.3-0.3c0-0.1,0-0.2,0.1-0.3
				c-0.3-0.1-0.6-0.1-0.9-0.1c-0.3-0.3-0.7-0.6-1.1-0.8C74.3,7.4,75,8,75.5,8.4c-0.2,0-0.5,0-0.7,0.1c-0.3-0.2-0.6-0.4-0.8-0.3
				c-0.3-0.3-0.7-0.7-1.2-0.9c-0.1,0-0.1-0.1-0.2-0.1C72.5,7.2,73.4,7.9,73.8,8.3"/>
		</defs>
		<clipPath id="SVGID_13_">
			<use xlink:href="#SVGID_12_"  style="overflow:visible;"/>
		</clipPath>
		
			<linearGradient id="SVGID_14_" gradientUnits="userSpaceOnUse" x1="0" y1="74.1407" x2="1" y2="74.1407" gradientTransform="matrix(10.4614 13.8828 -13.8828 10.4614 1100.2914 -768.4636)">
			<stop  offset="0" style="stop-color:#DB2133"/>
			<stop  offset="0.8437" style="stop-color:#F2932A"/>
			<stop  offset="1" style="stop-color:#F7A521"/>
		</linearGradient>
		<polygon class="st4" points="62,12.5 74.5,29 91.1,16.6 78.6,0 		"/>
	</g>
	<g class="st0">
		<defs>
			<path id="SVGID_15_" d="M94.1,15.1c0,0-0.1,0-0.1-0.1c0,0.1-0.1,0.2-0.1,0.4c-0.3,0.5-0.4,1.1-0.1,1.3c0.3,0.2,0.9,0,1.4-0.6
				c0.2-0.2,0.3-0.4,0.3-0.6c0.1-0.4,0.1-0.7-0.1-0.9c-0.1-0.1-0.2-0.1-0.3-0.1C94.7,14.6,94.4,14.8,94.1,15.1 M87.7,26.3
				c0.4-0.5,0.9-0.7,1.2-0.5c0.2,0.1,0.2,0.5,0.1,0.8c0-0.2-0.1-0.4-0.2-0.5c-0.3-0.2-0.8-0.1-1.2,0.4
				C87.7,26.4,87.7,26.4,87.7,26.3 M85.9,25.4c0.4-0.5,0.9-0.7,1.2-0.5c0.2,0.1,0.2,0.5,0.1,0.8c0-0.2-0.1-0.4-0.2-0.5
				c-0.3-0.2-0.8-0.1-1.2,0.4C85.9,25.4,85.9,25.4,85.9,25.4 M90.3,25.5c0.5-0.7,1.3-1,1.7-0.7c0.3,0.2,0.3,0.6,0.2,1.1
				c0-0.3-0.1-0.6-0.3-0.7c-0.4-0.3-1.1-0.1-1.7,0.5C90.2,25.6,90.2,25.6,90.3,25.5 M88.5,24.5c0.5-0.7,1.3-1,1.7-0.7
				c0.3,0.2,0.3,0.6,0.2,1.1c0-0.3-0.1-0.6-0.3-0.7c-0.4-0.3-1.1-0.1-1.7,0.5C88.5,24.6,88.5,24.5,88.5,24.5 M84.9,24
				c0.4-0.5,0.9-0.7,1.2-0.5c0.2,0.1,0.2,0.5,0.1,0.8c0-0.2-0.1-0.4-0.2-0.5c-0.3-0.2-0.8-0.1-1.2,0.4C84.9,24.1,84.9,24.1,84.9,24
				 M91.9,23.6c0.7-0.5,1.5-0.6,1.8-0.1c0.2,0.3,0.1,0.7-0.2,1.1c0.1-0.3,0.1-0.6-0.1-0.8c-0.3-0.4-1.1-0.4-1.7-0.1
				C91.8,23.7,91.9,23.6,91.9,23.6 M86.7,23.5c0.5-0.7,1.3-1,1.7-0.7c0.3,0.2,0.3,0.6,0.2,1.1c0-0.3-0.1-0.6-0.3-0.7
				c-0.4-0.3-1.1-0.1-1.7,0.5C86.6,23.6,86.7,23.6,86.7,23.5 M92.6,22.4c0.5-0.7,1.3-1,1.7-0.7c0.3,0.2,0.3,0.6,0.2,1.1
				c0-0.3-0.1-0.6-0.3-0.7c-0.4-0.3-1.1-0.1-1.7,0.5C92.5,22.5,92.6,22.4,92.6,22.4 M89.8,22.2c0.5-0.7,1.3-1,1.7-0.7
				c0.3,0.2,0.3,0.6,0.2,1.1c0-0.3-0.1-0.6-0.3-0.7c-0.4-0.3-1.1-0.1-1.7,0.5C89.7,22.3,89.8,22.3,89.8,22.2 M85.1,21.9
				c0.5-0.7,1.3-1,1.7-0.7c0.3,0.2,0.3,0.6,0.2,1.1c0-0.3-0.1-0.6-0.3-0.7c-0.4-0.3-1.1-0.1-1.7,0.5C85,22,85,21.9,85.1,21.9
				 M87.3,21.7c0.5-0.7,1.3-1,1.7-0.7c0.3,0.2,0.3,0.6,0.2,1.1c0-0.3-0.1-0.6-0.3-0.7c-0.4-0.3-1.1-0.1-1.7,0.5
				C87.2,21.9,87.2,21.8,87.3,21.7 M92.9,20.8c0.7-0.5,1.5-0.6,1.8-0.1c0.2,0.3,0.1,0.7-0.2,1.1c0.1-0.3,0.1-0.6-0.1-0.8
				c-0.3-0.4-1-0.4-1.7-0.1C92.8,20.9,92.9,20.8,92.9,20.8 M89.2,20.7c0.5-0.7,1.3-1,1.7-0.7c0.3,0.2,0.3,0.6,0.2,1.1
				c0-0.3-0.1-0.6-0.3-0.7c-0.4-0.3-1.1-0.1-1.7,0.5C89.2,20.9,89.2,20.8,89.2,20.7 M95.5,20.6c-0.2-0.1-0.2-0.5,0-0.9
				c0.1,0,0.2-0.1,0.4-0.2c-0.3,0.5-0.4,0.9-0.3,1.1C95.6,20.6,95.5,20.6,95.5,20.6 M87,19.7c0.5-0.7,1.3-1,1.7-0.7
				c0.3,0.2,0.3,0.6,0.2,1.1c0-0.3-0.1-0.6-0.3-0.7c-0.4-0.3-1.1-0.1-1.7,0.5C87,19.8,87,19.7,87,19.7 M91.6,19.5
				c0.5-0.7,1.3-1,1.7-0.7c0.3,0.2,0.3,0.6,0.2,1.1c0-0.3-0.1-0.6-0.3-0.7c-0.4-0.3-1.1-0.1-1.7,0.5C91.5,19.6,91.6,19.5,91.6,19.5
				 M87.4,18.7c0.5-0.7,1.3-1,1.7-0.7c0.3,0.2,0.3,0.6,0.2,1.1c0-0.3-0.1-0.6-0.3-0.7c-0.4-0.3-1.1-0.1-1.7,0.5
				C87.3,18.8,87.4,18.8,87.4,18.7 M91.5,18.1c0.5-0.7,1.3-1,1.7-0.7c0.3,0.2,0.3,0.6,0.2,1.1c0-0.3-0.1-0.6-0.3-0.7
				C92.6,17.5,92,17.7,91.5,18.1c0.1,0.3,0.1,0.6,0,0.9c0-0.3-0.1-0.6-0.3-0.7c-0.4-0.3-1.1-0.1-1.7,0.5c0-0.1,0.1-0.1,0.1-0.2
				c0.5-0.7,1.3-1,1.7-0.7C91.4,18,91.4,18.1,91.5,18.1C91.5,18.1,91.5,18.1,91.5,18.1 M91.7,14.9c0,0,0.1,0,0.1,0.1
				c0.3,0.2,0.1,0.9-0.3,1.5c-0.1,0.1-0.1,0.2-0.2,0.2c0,0.1,0,0.2-0.1,0.3c0-0.3-0.1-0.6-0.3-0.7c-0.4-0.3-0.9-0.2-1.4,0.3
				c0.2,0.2,0.2,0.6,0.1,1c0-0.3-0.1-0.6-0.3-0.7c-0.4-0.3-1.1-0.1-1.7,0.5c0-0.1,0.1-0.1,0.1-0.2c0.5-0.7,1.3-1,1.7-0.7
				c0,0,0,0,0.1,0.1c0.5-0.6,1.2-0.9,1.6-0.6c0.1,0.1,0.2,0.2,0.2,0.4C91.7,15.7,91.9,15.1,91.7,14.9 M94.7,13.4
				c-0.5,0.2-0.9,0.7-1.2,0.9c-0.2,0-0.5,0.1-0.8,0.3c-0.2,0-0.5-0.1-0.7-0.1c0.5-0.4,1.2-1.1,0.7-0.8c-0.4,0.2-0.8,0.6-1.1,0.8
				c-0.3,0-0.6,0.1-0.9,0.1c0,0.1,0.1,0.2,0.1,0.3c-0.1,0.1-0.2,0.2-0.3,0.3c0.1-0.3,0.1-0.5,0-0.7c0,0,0,0,0,0c0.5-0.4,1.6-1.4,1-1
				c-0.4,0.2-0.9,0.7-1.2,0.9c-0.3,0-0.8,0.3-1.2,0.8c0,0,0,0.1-0.1,0.1c0,0-0.1,0-0.1,0.1c0,0,0,0,0,0.1c-0.1,0.1-0.1,0.2-0.2,0.3
				c0-0.3-0.1-0.5-0.3-0.6c0,0,0,0,0,0c0.2-0.6,0.8-1.9,0.4-1.4c-0.3,0.4-0.5,1-0.7,1.3c-0.3,0.1-0.6,0.6-0.7,1.3c0,0,0,0,0,0
				c-0.1,0.1-0.2,0.2-0.3,0.3c0,0.3,0,0.6-0.1,1c-0.2,0.8-0.7,1.3-1,1.2c0,0-0.1,0-0.1-0.1c0.3,0,0.7-0.5,0.9-1.2
				c0.2-0.7,0.2-1.3-0.1-1.5c0,0,0,0,0,0c0.3-0.5,1-1.8,0.5-1.3c-0.3,0.4-0.6,0.9-0.8,1.3c-0.3,0.1-0.7,0.5-0.8,1.2
				c-0.2,0.6-0.2,1.2,0.1,1.5c-0.1,0.2-0.2,0.3-0.2,0.5c0.2-0.1,0.5-0.1,0.7,0.1c0.3,0.2,0.3,0.6,0.2,1.1c0-0.3-0.1-0.6-0.3-0.7
				c-0.4-0.3-1.1-0.1-1.7,0.5c0-0.1,0.1-0.1,0.1-0.2c0.2-0.3,0.5-0.5,0.8-0.7c-0.1-0.4-0.3-0.7-0.5-0.8c0,0,0,0,0,0
				c0.1-0.6,0.4-2,0.1-1.4c-0.2,0.5-0.3,1.1-0.3,1.4c-0.3,0.2-0.4,0.7-0.4,1.4c0,0.2,0,0.4,0.1,0.6c-0.4,0.6-0.4,1.3,0,1.7
				c0.2,0.1,0.4,0.2,0.7,0.1c-0.4,0.7-0.4,1.4,0,1.7c0,0,0.1,0.1,0.1,0.1c0,0-0.1,0.1-0.1,0.1c-0.4,0.5-0.4,1.1-0.1,1.4
				c0.3,0.2,0.7,0.1,1-0.2c0,0,0.1,0.1,0.1,0.1c0,0,0,0,0,0.1c-0.4,0.5-0.4,1.1-0.1,1.4c0.3,0.2,0.9,0.1,1.2-0.4
				c0.2,0.1,0.3,0.2,0.5,0.3c-0.2,0.4-0.2,0.9,0.1,1.1c0.3,0.3,0.9,0,1.3-0.5c0.1-0.1,0.1-0.1,0.1-0.2c0.2,0,0.5,0,0.7,0
				c0,0.2,0.1,0.3,0.3,0.4c0.4,0.3,0.9,0.2,1.4-0.2c0.3,0.1,0.6,0.2,0.9,0.1c0.7,0,1.2-0.2,1.4-0.5c0.4-0.1,1-0.2,1.4-0.4
				c0.6-0.3-0.8,0-1.4,0.2c0,0,0,0,0,0c-0.1-0.3-0.7-0.5-1.4-0.5c-0.1,0-0.1,0-0.2,0c0-0.1,0-0.2,0.1-0.3c0,0,0.1,0,0.1,0
				c0.3,0,0.6,0,0.8,0.1c0,0,0,0,0.1,0c0.3,0.1,0.7,0,1.2-0.1c0.6-0.2,1.1-0.6,1.2-0.9c0.3-0.2,0.9-0.5,1.2-0.8
				c0.5-0.5-0.8,0.3-1.3,0.5c0,0,0,0,0,0c-0.2-0.2-0.8-0.3-1.5-0.1c-0.7,0.2-1.1,0.6-1.2,0.9c0,0-0.1-0.1-0.1-0.1
				c-0.1-0.3,0.4-0.8,1.2-1c0.4-0.1,0.8-0.2,1.1-0.1c0.1-0.1,0.1-0.1,0.1-0.2c0.3,0,0.7-0.2,1.1-0.4c0.6-0.4,0.9-0.8,0.9-1.2
				c0.3-0.2,0.7-0.7,1-1.1c0.4-0.6-0.7,0.5-1.1,0.9c0,0,0,0,0,0c-0.3-0.2-0.9,0-1.4,0.3c-0.6,0.4-0.9,0.9-0.9,1.2
				c0,0-0.1-0.1-0.1-0.1c-0.2-0.3,0.2-0.9,0.8-1.3c0,0,0.1-0.1,0.1-0.1c0,0-0.1,0-0.1,0c-0.3-0.2-0.1-0.9,0.3-1.5
				c0-0.1,0.1-0.1,0.2-0.2c0.1,0,0.3,0,0.5-0.1c-0.1,0.1-0.3,0.3-0.4,0.4c-0.4,0.5-0.6,1.1-0.4,1.4c0.4-0.3,0.9-0.4,1.2-0.3
				c0.1-0.1,0.2-0.2,0.3-0.3c0.4-0.5,0.6-1.1,0.4-1.4c0.2-0.3,0.4-0.9,0.5-1.4c0.1-0.7-0.5,0.7-0.7,1.2c0,0,0,0,0,0
				c-0.1,0-0.3,0-0.5,0.1c0.1-0.1,0.2-0.2,0.3-0.3c0.1-0.1,0.1-0.1,0.2-0.2c0.4-0.5,0.6-1.1,0.4-1.4c0.2-0.3,0.4-0.9,0.5-1.4
				c0.1-0.7-0.5,0.7-0.7,1.2c0,0,0,0,0,0c-0.2,0-0.4,0-0.6,0.2c0.1-0.1,0.1-0.2,0.2-0.3c0.1-0.3,0.2-0.6,0.1-0.8
				c0.2-0.3,0.4-0.9,0.5-1.4c0.1-0.7-0.5,0.7-0.7,1.2c0,0,0,0,0,0c-0.3-0.1-0.8,0.3-1.2,0.8c-0.4,0.5-0.6,1.1-0.4,1.4
				c0,0-0.1,0-0.1-0.1c-0.3-0.2-0.1-0.9,0.3-1.5c0.3-0.4,0.6-0.6,0.9-0.8c0,0,0-0.1-0.1-0.1c0.1-0.1,0.1-0.1,0.2-0.2
				c0.4-0.5,0.6-1.1,0.4-1.4c0.2-0.3,0.4-0.9,0.5-1.4c0.1-0.7-0.5,0.7-0.7,1.2c0,0,0,0,0,0c-0.3-0.1-0.8,0.3-1.2,0.8
				c-0.4,0.5-0.6,1.1-0.4,1.4c0,0-0.1,0-0.1-0.1c-0.2-0.1-0.2-0.4-0.1-0.7c-0.4,0.4-0.9,0.6-1.2,0.4c-0.2-0.2-0.2-0.5-0.1-0.9
				c-0.4,0.5-1,0.8-1.2,0.6c0,0-0.1-0.1-0.1-0.1c0.3,0.1,0.8-0.3,1.2-0.8c0.4-0.5,0.6-1.1,0.4-1.4c0,0,0,0,0,0
				c0.4-0.3,1.3-1.1,1.1-1.1C94.8,13.4,94.8,13.4,94.7,13.4"/>
		</defs>
		<clipPath id="SVGID_16_">
			<use xlink:href="#SVGID_15_"  style="overflow:visible;"/>
		</clipPath>
		
			<linearGradient id="SVGID_17_" gradientUnits="userSpaceOnUse" x1="0" y1="74.1407" x2="1" y2="74.1407" gradientTransform="matrix(-10.4614 13.8828 13.8828 10.4614 -932.7771 -762.2816)">
			<stop  offset="0" style="stop-color:#DB2133"/>
			<stop  offset="0.8437" style="stop-color:#F2932A"/>
			<stop  offset="1" style="stop-color:#F7A521"/>
		</linearGradient>
		<polygon class="st5" points="105.5,18.6 93,35.2 76.4,22.8 88.9,6.2 		"/>
	</g>
	<g class="st0">
		<defs>
			<path id="SVGID_18_" d="M59.8,21.9c-0.1,0-0.3,0-0.4,0c0,0,0,0.1,0,0.1c-0.6,0.2-1,0.7-0.9,1c0.1,0.2,0.4,0.4,0.8,0.4
				c0.2,0,0.4,0,0.7-0.1c0.7-0.2,1.2-0.7,1.1-1.1c-0.1-0.3-0.4-0.4-0.8-0.4C60.2,21.9,60,21.9,59.8,21.9 M63.3,24.9
				c0.4,0,0.8,0.1,0.9,0.3c0,0,0,0.1,0,0.1c-0.2-0.2-0.6-0.3-1.2-0.2C63.1,25.1,63.2,25,63.3,24.9 M65.5,24.5
				c-0.1-0.5,0.4-1.1,1.2-1.3c0.1,0,0.1,0,0.2,0c-0.7,0.3-1.2,0.9-1,1.4c0.1,0.3,0.3,0.4,0.6,0.5C66,25,65.6,24.8,65.5,24.5
				 M67.4,24.6c-0.3-0.4,0-1.2,0.7-1.7c0.1,0,0.1-0.1,0.2-0.1c-0.6,0.5-0.8,1.2-0.5,1.6c0.2,0.2,0.4,0.3,0.7,0.3
				c-0.2,0-0.3,0.1-0.4,0.1C67.8,24.9,67.5,24.8,67.4,24.6 M64.4,24.6c-0.3-0.4,0-1.2,0.7-1.7c0.1,0,0.1-0.1,0.2-0.1
				c-0.6,0.5-0.8,1.2-0.5,1.6c0.2,0.2,0.4,0.3,0.7,0.3c-0.2,0-0.3,0.1-0.4,0.1C64.8,24.8,64.5,24.7,64.4,24.6 M69.3,23.3
				c-0.1-0.5,0.4-1.1,1.2-1.3c0.1,0,0.1,0,0.2,0c-0.7,0.3-1.2,0.9-1,1.4c0.1,0.3,0.3,0.4,0.6,0.5C69.8,23.9,69.4,23.7,69.3,23.3
				 M63.1,22.6c-0.1-0.5,0.4-1.1,1.2-1.3c0.1,0,0.1,0,0.2,0c-0.7,0.3-1.2,0.9-1,1.4c0.1,0.3,0.3,0.4,0.6,0.5
				C63.6,23.1,63.2,22.9,63.1,22.6 M66.4,21.8c-0.1-0.5,0.4-1.1,1.2-1.3c0.1,0,0.1,0,0.2,0c-0.7,0.3-1.2,0.9-1,1.4
				c0.1,0.3,0.3,0.4,0.6,0.5C66.9,22.3,66.5,22.1,66.4,21.8 M68.9,21.4c-0.1-0.5,0.4-1.1,1.2-1.3c0.1,0,0.1,0,0.2,0
				c-0.7,0.3-1.2,0.9-1,1.4c0.1,0.3,0.3,0.4,0.6,0.5C69.4,21.9,69,21.7,68.9,21.4 M71.3,20.9c-0.1-0.4,0.3-0.8,0.9-1
				c0,0,0.1,0,0.1,0c-0.5,0.2-0.9,0.6-0.7,1c0.1,0.2,0.2,0.3,0.4,0.4C71.6,21.3,71.3,21.1,71.3,20.9 M65.2,20.7
				c-0.1-0.5,0.4-1.1,1.2-1.3c0.1,0,0.1,0,0.2,0c-0.7,0.3-1.2,0.9-1,1.4c0.1,0.3,0.3,0.4,0.6,0.5C65.7,21.3,65.3,21.1,65.2,20.7
				 M61.9,22c-0.1-0.5,0.4-1.1,1.2-1.3c0,0,0,0,0,0c-0.1-0.1-0.1-0.2-0.2-0.3c-0.1-0.5,0.4-1.1,1.2-1.3c0.1,0,0.1,0,0.2,0
				c-0.7,0.3-1.2,0.9-1,1.4c0.1,0.3,0.3,0.4,0.6,0.5c-0.3,0-0.6-0.1-0.8-0.3c-0.6,0.3-1,0.9-0.9,1.3c0.1,0.3,0.3,0.4,0.6,0.5
				C62.4,22.5,62,22.3,61.9,22 M68.6,19.3c-0.2-0.5,0.4-1.1,1.2-1.3c0.1,0,0.1,0,0.2,0c-0.7,0.3-1.2,0.9-1,1.4
				c0.1,0.3,0.3,0.4,0.6,0.5C69.1,19.8,68.7,19.6,68.6,19.3 M71,18.9c-0.1-0.4,0.3-0.8,0.9-1c0,0,0.1,0,0.1,0
				c-0.5,0.2-0.9,0.6-0.7,1c0.1,0.2,0.2,0.3,0.4,0.4C71.3,19.2,71,19.1,71,18.9 M66.8,19.2c-0.2-0.5,0.4-1.1,1.2-1.3
				c0.1,0,0.1,0,0.2,0c-0.7,0.3-1.2,0.9-1,1.4c0.1,0.3,0.3,0.4,0.6,0.5C67.3,19.7,66.9,19.6,66.8,19.2 M63.9,18.4
				c-0.1-0.5,0.4-1.1,1.2-1.3c0.1,0,0.1,0,0.2,0c-0.7,0.3-1.2,0.9-1,1.4c0.1,0.3,0.3,0.4,0.6,0.5C64.4,18.9,64,18.7,63.9,18.4
				 M64.9,18.3c-0.1-0.5,0.4-1.1,1.2-1.3c0.1,0,0.1,0,0.2,0c-0.7,0.3-1.2,0.9-1,1.4c0.1,0.3,0.3,0.4,0.6,0.5
				C65.4,18.8,65,18.6,64.9,18.3 M61.5,19.8c-0.1-0.1-0.3-0.2-0.3-0.4c-0.1-0.5,0.3-1,1.1-1.3c0,0,0-0.1,0-0.1
				c-0.1-0.5,0.4-1.1,1.2-1.3c0.1,0,0.1,0,0.2,0c-0.7,0.3-1.2,0.9-1,1.4c0.1,0.3,0.3,0.4,0.6,0.5c-0.4,0-0.8-0.2-0.9-0.4
				c-0.5,0.3-0.9,0.8-0.7,1.2c0.1,0.3,0.3,0.4,0.6,0.5c-0.1,0-0.2,0-0.3,0c-0.1,0-0.2,0.1-0.3,0.1c-0.7,0.2-1.4,0.1-1.5-0.2
				c0,0,0-0.1,0-0.1c0.1,0.1,0.4,0.2,0.7,0.2C60.9,20,61.2,19.9,61.5,19.8 M67.7,17.2c-0.1-0.5,0.4-1.1,1.2-1.3c0.1,0,0.1,0,0.2,0
				c-0.7,0.3-1.2,0.9-1,1.4c0.1,0.3,0.3,0.4,0.6,0.5C68.2,17.7,67.8,17.5,67.7,17.2 M64.6,13.9c-0.7,0,0.8,0.3,1.4,0.4c0,0,0,0,0,0
				c0,0.2,0.2,0.5,0.6,0.7c0.2-0.2,0.5-0.4,0.9-0.5c0.1,0,0.1,0,0.2,0c-0.7,0.3-1.2,0.9-1,1.4c0.1,0.3,0.3,0.4,0.6,0.5
				c-0.5,0-0.9-0.2-1-0.5c-0.1-0.2,0-0.4,0.1-0.6c-0.2,0-0.4,0-0.6,0.1c-0.1-0.3-0.7-0.5-1.3-0.6c-0.7,0-1.2,0.1-1.4,0.4
				c-0.4,0-1,0.1-1.5,0.3c-0.6,0.3,0.8,0,1.4,0c0,0,0,0,0,0c0.1,0.3,0.7,0.5,1.4,0.6c0.7,0,1.3-0.1,1.4-0.4c0,0,0,0.1,0,0.1
				c0,0.3-0.7,0.6-1.5,0.5c-0.4,0-0.7-0.1-1-0.2c-0.1,0.1-0.3,0.1-0.4,0.2c0,0,0,0,0,0c-0.7-0.1-1.2,0-1.4,0.2c-0.4,0-1,0-1.5,0.2
				c-0.7,0.2,0.8,0.1,1.4,0.1c0,0,0,0,0,0c0,0.2,0.2,0.3,0.5,0.5c-0.1,0-0.2,0-0.3,0c0,0,0,0-0.1-0.1c0,0-0.1,0.1-0.1,0.1
				c0,0-0.1,0-0.1,0c-0.6,0.2-1.1,0.5-1.2,0.9c-0.3,0.2-0.9,0.5-1.3,0.8c-0.5,0.5,0.8-0.2,1.3-0.5c0,0,0,0,0,0
				c0.1,0.1,0.3,0.2,0.6,0.2c-0.1,0.1-0.2,0.1-0.3,0.2c-0.1,0-0.2-0.1-0.2-0.2c-0.2,0.3-0.3,0.5-0.4,0.8c-0.3,0.2-0.8,0.4-1.1,0.7
				c-0.4,0.4,0.4-0.1,1-0.4c-0.1,0.2-0.1,0.5-0.2,0.7c-0.3,0.2-0.5,0.4-0.6,0.6c-0.3,0.2-0.9,0.5-1.3,0.8c-0.5,0.5,0.8-0.2,1.3-0.5
				c0,0,0,0,0,0c0.2,0.2,0.8,0.3,1.5,0.1c0.7-0.2,1.1-0.6,1.2-0.9c0,0,0.1,0.1,0.1,0.1c0.1,0.3-0.3,0.7-1,1c0.4,0,0.8,0.1,0.8,0.4
				c0.1,0.3-0.2,0.7-0.8,1c0.3,0,0.6,0.1,0.7,0.3c0,0,0,0.1,0,0.1c-0.2-0.2-0.8-0.3-1.5-0.1c-0.7,0.2-1.1,0.6-1.2,0.9c0,0,0,0,0,0
				c-0.6,0.1-2.1,0.2-1.4,0.3c0.5,0.1,1.1,0,1.5,0c0.2,0.2,0.8,0.2,1.5,0.1c0.1,0,0.2-0.1,0.3-0.1c0,0,0.1,0.1,0.1,0.1
				c0.2-0.2,0.6-0.4,1-0.6c0.7-0.2,1.4-0.1,1.5,0.2c0,0,0,0.1,0,0.1c-0.2-0.2-0.8-0.3-1.5-0.1c-0.7,0.2-1.1,0.6-1.2,0.9c0,0,0,0,0,0
				c-0.6,0.1-2.1,0.2-1.4,0.3c0.5,0.1,1.1,0,1.5,0c0.1,0.1,0.4,0.2,0.8,0.2c0.1,0,0.2,0,0.4,0c-0.2,0.2-0.4,0.4-0.4,0.5c0,0,0,0,0,0
				c-0.6,0.1-2.1,0.2-1.4,0.3c0.5,0.1,1.1,0,1.5,0c0.2,0.2,0.8,0.2,1.5,0.1c0.1,0,0.2-0.1,0.2-0.1c0.1,0,0.2-0.1,0.3-0.2
				c-0.1,0.1-0.2,0.3-0.3,0.4c0,0,0,0,0,0c-0.6,0.1-2.1,0.2-1.4,0.3c0.5,0.1,1.1,0,1.5,0c0.2,0.2,0.8,0.2,1.5,0.1
				c0.1,0,0.3-0.1,0.4-0.2c0-0.3,0.3-0.7,0.7-1c-0.2-0.2-0.8-0.3-1.5-0.1c-0.2,0.1-0.4,0.1-0.6,0.2c0.1-0.1,0.2-0.3,0.3-0.4
				c0.1,0,0.2-0.1,0.2-0.1c0.7-0.2,1.4-0.1,1.5,0.2c0,0,0,0.1,0,0.1c0,0,0.1-0.1,0.1-0.1c0.6-0.5,1.3-0.6,1.5-0.3c0,0,0,0.1,0.1,0.1
				c-0.3-0.2-0.9,0-1.4,0.4c-0.6,0.4-0.9,0.9-0.8,1.2c0,0,0,0,0,0c-0.5,0.3-1.9,0.9-1.2,0.7c0.5-0.1,1.1-0.4,1.4-0.5
				c0.3,0.1,0.9,0,1.4-0.4c0.4-0.3,0.6-0.6,0.7-0.9c0.1,0,0.2,0,0.2-0.1c0-0.3,0.2-0.7,0.5-1c0.5-0.6,1.1-1,1.4-0.7
				c0,0,0.1,0.1,0.1,0.1c-0.3-0.1-0.8,0.3-1.2,0.8c-0.4,0.5-0.6,1.1-0.4,1.4c0,0,0,0,0,0c-0.5,0.4-1.6,1.4-1,1
				c0.5-0.2,0.9-0.6,1.2-0.9c0.3,0,0.8-0.3,1.2-0.8c0.3-0.4,0.4-0.8,0.5-1.1c0,0,0,0,0.1,0c0-0.2,0.1-0.5,0.2-0.8c0,0,0-0.1,0.1-0.1
				c0.1,0,0.2,0,0.3,0c0,0.1-0.1,0.1-0.1,0.2c-0.2,0.6-0.2,1.3,0,1.5c0,0,0,0,0,0c-0.3,0.5-1.1,1.7-0.6,1.3c0.4-0.3,0.7-0.9,0.9-1.2
				c0.3-0.1,0.7-0.5,0.9-1.1c0.1-0.3,0.2-0.7,0.2-0.9c0.5-0.3,0.8-0.8,0.7-1.2c-0.1-0.2-0.2-0.3-0.3-0.4c0.1-0.2,0.2-0.5,0.2-0.7
				c0.1,0,0.2,0,0.2-0.1c0.6-0.2,1-0.7,0.9-1.1c-0.1-0.3-0.5-0.5-1-0.5c0-0.2,0-0.4-0.1-0.5c0.6-0.2,0.9-0.7,0.8-1
				c-0.1-0.4-0.7-0.6-1.3-0.4c0,0,0,0-0.1,0c0,0-0.1-0.1-0.1-0.1c0.4-0.2,0.6-0.6,0.5-0.9c-0.1-0.4-0.7-0.6-1.3-0.4c0,0-0.1,0-0.1,0
				c-0.5,0.2-0.9,0.6-0.7,1c0.1,0.2,0.2,0.3,0.4,0.4c-0.4,0-0.6-0.2-0.7-0.4c-0.1-0.4,0.3-0.8,0.9-1c0,0,0.1,0,0.1,0
				c0,0,0-0.1,0-0.1c-0.2-0.5-0.9-0.7-1.6-0.6c0.1-0.2,0.2-0.5,0.1-0.7c-0.2-0.5-0.8-0.7-1.5-0.6c-0.2-0.1-0.3-0.2-0.5-0.3
				c-0.6-0.2-1.2-0.3-1.4-0.1c-0.3-0.1-0.8-0.2-1.3-0.2C64.7,13.9,64.6,13.9,64.6,13.9"/>
		</defs>
		<clipPath id="SVGID_19_">
			<use xlink:href="#SVGID_18_"  style="overflow:visible;"/>
		</clipPath>
		
			<linearGradient id="SVGID_20_" gradientUnits="userSpaceOnUse" x1="0" y1="74.1407" x2="1" y2="74.1407" gradientTransform="matrix(16.6236 -5.0823 5.0823 16.6236 -319.9177 -1208.9664)">
			<stop  offset="0" style="stop-color:#DB2133"/>
			<stop  offset="0.8437" style="stop-color:#F2932A"/>
			<stop  offset="1" style="stop-color:#F7A521"/>
		</linearGradient>
		<polygon class="st6" points="58.2,32.8 77.8,26.8 72.4,9.1 52.8,15.1 		"/>
	</g>
	<rect x="85.8" y="47.6" class="st7" width="32.3" height="7.5"/>
	<rect x="25.9" y="47.6" class="st7" width="22.9" height="5.5"/>
	<rect x="55.1" y="47.6" class="st7" width="22.9" height="5.5"/>
	<g class="st0">
		<defs>
			<rect id="SVGID_21_" y="0" width="145.1" height="74.1"/>
		</defs>
		<clipPath id="SVGID_22_">
			<use xlink:href="#SVGID_21_"  style="overflow:visible;"/>
		</clipPath>
		<path class="st8" d="M123.7,54.3l-5.6,0.8c0,0-2.6-6.2-5.8-6.2c-2.6,0-10.6,0.1-10.6,0.1V29.5l15.4,0.5l6.7,12.8V54.3z"/>
		<polygon class="st9" points="24.9,57.9 120.2,57.9 124.1,55.9 124.1,51.8 24.9,51.8 		"/>
		<g class="st10">
			<g>
				<defs>
					<rect id="SVGID_23_" x="41.4" y="51.8" width="5.1" height="6.2"/>
				</defs>
				<clipPath id="SVGID_24_">
					<use xlink:href="#SVGID_23_"  style="overflow:visible;"/>
				</clipPath>
				<rect x="41.4" y="51.8" class="st11" width="5.1" height="6.2"/>
			</g>
		</g>
		<rect x="77.9" y="51.8" class="st9" width="18.5" height="6"/>
		<path class="st12" d="M121.7,49.3c0,0.6,0.5,1,1,1h0.3c0.6,0,1.1-0.5,1.1-1V46c0-0.6-0.5-1-1.1-1h-0.3c-0.6,0-1,0.5-1,1V49.3z"/>
		<path class="st13" d="M102.4,57.5c0,4.2,3.4,7.5,7.5,7.5c4.2,0,7.5-3.4,7.5-7.5S114.1,50,110,50C105.8,50,102.4,53.4,102.4,57.5"
			/>
		<path class="st14" d="M105.6,57.5c0,2.4,1.9,4.3,4.3,4.3s4.3-1.9,4.3-4.3s-1.9-4.3-4.3-4.3S105.6,55.1,105.6,57.5"/>
		<g class="st10">
			<g>
				<defs>
					<rect id="SVGID_25_" x="77.3" y="51.8" width="0.6" height="6.2"/>
				</defs>
				<clipPath id="SVGID_26_">
					<use xlink:href="#SVGID_25_"  style="overflow:visible;"/>
				</clipPath>
				<rect x="77.3" y="51.8" class="st15" width="0.6" height="6.2"/>
			</g>
		</g>
		<g class="st10">
			<g>
				<defs>
					<rect id="SVGID_27_" x="62.6" y="51.8" width="0.6" height="6.2"/>
				</defs>
				<clipPath id="SVGID_28_">
					<use xlink:href="#SVGID_27_"  style="overflow:visible;"/>
				</clipPath>
				<rect x="62.6" y="51.8" class="st16" width="0.6" height="6.2"/>
			</g>
		</g>
		<g class="st10">
			<g>
				<defs>
					<rect id="SVGID_29_" x="96.5" y="51.8" width="3.9" height="6.2"/>
				</defs>
				<clipPath id="SVGID_30_">
					<use xlink:href="#SVGID_29_"  style="overflow:visible;"/>
				</clipPath>
				<rect x="96.5" y="51.8" class="st17" width="3.9" height="6.2"/>
			</g>
		</g>
		<path class="st12" d="M114.3,31.4c-1.8,0.1-8.7,0-8.7,0v7.1l8.7,0.5c0,0,1.2,0.5,1.6,1.7c0.4,1.2,0.7,2.3,1.6,2.4
			c0.9,0.1,3.1,0,3.1,0v-2.9l-3.7-7.6C116.9,32.6,116,31.3,114.3,31.4"/>
		<rect x="105.6" y="44.5" class="st9" width="2.9" height="1.3"/>
		<rect x="22.7" y="21.7" class="st8" width="76.3" height="27.6"/>
		<rect x="98.9" y="21.7" class="st18" width="2.2" height="30.1"/>
		<rect x="22.7" y="21.7" class="st18" width="2.2" height="27.6"/>
		<rect x="31.8" y="21.7" class="st18" width="1.3" height="28.3"/>
		<g class="st10">
			<g>
				<defs>
					<rect id="SVGID_31_" x="33" y="21.7" width="0.8" height="27.6"/>
				</defs>
				<clipPath id="SVGID_32_">
					<use xlink:href="#SVGID_31_"  style="overflow:visible;"/>
				</clipPath>
				<rect x="33" y="21.7" class="st19" width="0.8" height="27.6"/>
			</g>
		</g>
		<g class="st10">
			<g>
				<defs>
					<rect id="SVGID_33_" x="43.5" y="21.7" width="0.8" height="27.6"/>
				</defs>
				<clipPath id="SVGID_34_">
					<use xlink:href="#SVGID_33_"  style="overflow:visible;"/>
				</clipPath>
				<rect x="43.5" y="21.7" class="st20" width="0.8" height="27.6"/>
			</g>
		</g>
		<g class="st10">
			<g>
				<defs>
					<rect id="SVGID_35_" x="59.9" y="21.7" width="0.8" height="27.6"/>
				</defs>
				<clipPath id="SVGID_36_">
					<use xlink:href="#SVGID_35_"  style="overflow:visible;"/>
				</clipPath>
				<rect x="59.9" y="21.7" class="st21" width="0.8" height="27.6"/>
			</g>
		</g>
		<g class="st10">
			<g>
				<defs>
					<rect id="SVGID_37_" x="72.8" y="21.7" width="0.8" height="27.6"/>
				</defs>
				<clipPath id="SVGID_38_">
					<use xlink:href="#SVGID_37_"  style="overflow:visible;"/>
				</clipPath>
				<rect x="72.8" y="21.7" class="st22" width="0.8" height="27.6"/>
			</g>
		</g>
		<g class="st10">
			<g>
				<defs>
					<rect id="SVGID_39_" x="86.2" y="21.7" width="0.8" height="27.6"/>
				</defs>
				<clipPath id="SVGID_40_">
					<use xlink:href="#SVGID_39_"  style="overflow:visible;"/>
				</clipPath>
				<rect x="86.2" y="21.7" class="st23" width="0.8" height="27.6"/>
			</g>
		</g>
		<rect x="42.6" y="21.7" class="st18" width="1.3" height="28.3"/>
		<rect x="59" y="21.7" class="st18" width="1.3" height="28.3"/>
		<rect x="71.9" y="21.7" class="st18" width="1.3" height="28.3"/>
		<rect x="85.2" y="21.7" class="st18" width="1.3" height="28.3"/>
		<rect x="21.6" y="20.6" class="st18" width="80.8" height="1.1"/>
		<g class="st10">
			<g>
				<defs>
					<rect id="SVGID_41_" x="22.7" y="21.7" width="78.4" height="0.5"/>
				</defs>
				<clipPath id="SVGID_42_">
					<use xlink:href="#SVGID_41_"  style="overflow:visible;"/>
				</clipPath>
				<rect x="22.7" y="21.7" class="st24" width="78.4" height="0.5"/>
			</g>
		</g>
		<path class="st13" d="M43.2,57.5c0,4.2,3.4,7.5,7.5,7.5c4.2,0,7.5-3.4,7.5-7.5S54.9,50,50.8,50C46.6,50,43.2,53.4,43.2,57.5"/>
		<path class="st14" d="M46.4,57.5c0,2.4,1.9,4.3,4.3,4.3c2.4,0,4.3-1.9,4.3-4.3s-1.9-4.3-4.3-4.3C48.4,53.2,46.4,55.1,46.4,57.5"/>
		<rect x="24.9" y="39.7" class="st18" width="74.1" height="0.9"/>
		<rect x="24.9" y="28.6" class="st18" width="74.1" height="0.9"/>
		<rect x="17.3" y="65.1" class="st25" width="110.4" height="3.5"/>
		<rect x="17.3" y="68.6" class="st25" width="7.1" height="1.7"/>
		<rect x="19.4" y="70.3" class="st25" width="2.7" height="2.6"/>
		<rect x="16.1" y="72.9" class="st25" width="9.3" height="1.2"/>
		<rect x="68.9" y="68.6" class="st25" width="7.1" height="1.7"/>
		<rect x="71.1" y="70.3" class="st25" width="2.7" height="2.6"/>
		<rect x="67.8" y="72.9" class="st25" width="9.3" height="1.2"/>
		<rect x="120.5" y="68.6" class="st25" width="7.1" height="1.7"/>
		<rect x="122.7" y="70.3" class="st25" width="2.7" height="2.6"/>
		<rect x="119.3" y="72.9" class="st25" width="9.3" height="1.2"/>
		<polygon class="st25" points="128.3,65.9 128.3,67.7 145.1,74.1 145.1,72 		"/>
		<polygon class="st25" points="16.7,65.9 16.7,67.7 0,74.1 0,72 		"/>
		<rect x="28.7" y="65.1" class="st8" width="3.5" height="3.5"/>
		<rect x="35.7" y="65.1" class="st8" width="3.5" height="3.5"/>
		<rect x="42.7" y="65.1" class="st8" width="3.5" height="3.5"/>
		<rect x="49.7" y="65.1" class="st8" width="3.5" height="3.5"/>
		<rect x="56.7" y="65.1" class="st8" width="3.5" height="3.5"/>
		<rect x="63.7" y="65.1" class="st8" width="3.5" height="3.5"/>
		<rect x="70.6" y="65.1" class="st8" width="3.5" height="3.5"/>
		<rect x="77.6" y="65.1" class="st8" width="3.5" height="3.5"/>
		<rect x="84.6" y="65.1" class="st8" width="3.5" height="3.5"/>
		<rect x="91.6" y="65.1" class="st8" width="3.5" height="3.5"/>
		<rect x="98.6" y="65.1" class="st8" width="3.5" height="3.5"/>
		<rect x="105.6" y="65.1" class="st8" width="3.5" height="3.5"/>
		<rect x="112.6" y="65.1" class="st8" width="3.5" height="3.5"/>
	</g>
</g>
</svg>
